<svg id="Calque_1" data-name="Calque 1" xmlns="http://www.w3.org/2000/svg" viewBox="0 0 782.5 512"><defs><style>.cls-1,.cls-2{fill:#fff;stroke:#fff;stroke-miterlimit:10;}.cls-1{stroke-width:2px;}</style></defs><path class="cls-1" d="M522.93,378c-.35.58-.6,1.07-.91,1.52-1.41,2-1.1,4.09-.17,6.18s2,4.25,2.12,6.67a3.43,3.43,0,0,1-3.24,3.78,17.57,17.57,0,0,0-4.06,1c-1.06.39-2.16.53-3.22.83a6.82,6.82,0,0,0-2.09,1c-1.48,1.05-2.67,2.41-4.12,3.49a4.17,4.17,0,0,1-3.08,1.07,12.44,12.44,0,0,1,1.72-1.32,13.58,13.58,0,0,0,3.33-2.79,5.58,5.58,0,0,1,2-1.24,71.48,71.48,0,0,1,7.17-2.2,6.53,6.53,0,0,0,3.21-2.15c.72-.84.43-2,.14-3q-.66-2.37-1.49-4.7a7,7,0,0,1,2.32-8.11C522.58,378,522.67,378,522.93,378Z"/><path class="cls-2" d="M540.72,446.89l-.88-.63a.51.51,0,0,1-.2-.36,5.39,5.39,0,0,1,.67-1.27l1.3-2.14c.54-.91,1-1.65,1.3-2.24s.74-1.35,1.22-2.3.91-1.88,1.31-2.78a14.62,14.62,0,0,0,1.37-4c0-.67-.27-1-.79-1a4,4,0,0,0-1.7.6,13.79,13.79,0,0,0-2.27,1.58,11.6,11.6,0,0,0-1.95,2,3.3,3.3,0,0,0-.78,1.86.26.26,0,0,0,.07.2.4.4,0,0,0,.25.06,2.8,2.8,0,0,0,1.11-.4c.22-.11.34-.09.34.06s-.36.54-1.08,1.17a3.09,3.09,0,0,1-1.58.94c-.3,0-.7-.25-1.23-.76a2.08,2.08,0,0,1-.79-1.38,4.15,4.15,0,0,1,.44-1.15,18.85,18.85,0,0,1,1.21-2,13.17,13.17,0,0,1,1.61-2,12.1,12.1,0,0,1,2.23-1.74,13.75,13.75,0,0,1,2.41-1.19,5.78,5.78,0,0,1,1.86-.42,1.85,1.85,0,0,1,1.59.77,3.49,3.49,0,0,1,.58,2.16,15.3,15.3,0,0,1-1.45,5.32,53.75,53.75,0,0,1-4.44,8.16l.1.3a1.18,1.18,0,0,1,.05.31.22.22,0,0,1,0,.1l-.1.17a.58.58,0,0,0-.07.11l-1,1.7c-.12.2-.23.3-.36.3A.38.38,0,0,1,540.72,446.89Z"/><path class="cls-2" d="M556.58,439.46q-2.49,2.78-2.49,3.86c0,.41.16.61.49.61a2.1,2.1,0,0,0,1.07-.43c.44-.29,1.13-.8,2.06-1.54v1c-1.34,1.32-2.37,2.28-3.09,2.86a3.09,3.09,0,0,1-1.75.88c-.77,0-1.16-.51-1.16-1.53a3,3,0,0,1,.14-.89,5,5,0,0,1,.39-.91c.16-.32.42-.77.76-1.36l1.17-2a9.07,9.07,0,0,0-2,1.63,15.72,15.72,0,0,0-1.35,1.45c-.37.46-.76,1-1.18,1.53a12.19,12.19,0,0,1-.92,1.13.81.81,0,0,1-.59.29c-.3,0-.58-.31-.83-.94a5.81,5.81,0,0,1-.39-2.21,3.3,3.3,0,0,1,.18-1.22,8.47,8.47,0,0,1,.7-1.25,13.4,13.4,0,0,1,1.69-2.2,2,2,0,0,1,1.36-.7,1.37,1.37,0,0,1,.72.16.5.5,0,0,1,.28.48.67.67,0,0,1-.08.29,1.49,1.49,0,0,1-.2.29c-.07.08-.21.25-.44.49-1.49,1.66-2.24,2.73-2.24,3.22,0,.27.09.41.27.41s.33-.18.66-.55.75-.84,1.26-1.43a21,21,0,0,1,1.83-1.84,19,19,0,0,1,2.4-1.86,2.33,2.33,0,0,1,1.24-.52c.15,0,.3.2.45.62a3.72,3.72,0,0,1,.22,1.26C557.19,438.72,557,439,556.58,439.46Z"/><path class="cls-2" d="M557.57,442.42v-.34c2.44-2.57,4.11-4.37,5-5.4.2-1.16.71-1.74,1.5-1.74a1.49,1.49,0,0,1,.64.17l.08.27a1.48,1.48,0,0,0-.06.48,4.48,4.48,0,0,0,.21,1c.14.49.24.9.32,1.23a5.35,5.35,0,0,1,.11,1.11A4.06,4.06,0,0,1,565,441a6.33,6.33,0,0,1-1.24,1.64,13.35,13.35,0,0,1-2.08,1.61,6,6,0,0,0,.81.08,3.22,3.22,0,0,0,1.25-.29,7.48,7.48,0,0,0,1.38-.78c.46-.32,1-.75,1.63-1.27v.95a21.53,21.53,0,0,1-3.24,2.69,4.89,4.89,0,0,1-2.46.91,3.47,3.47,0,0,1-2.47-1.13,3.13,3.13,0,0,1-.83-1.31A6.8,6.8,0,0,1,557.57,442.42Zm5.28-2.17-.25-2.07c-.59.66-1.84,1.94-3.76,3.81a2.47,2.47,0,0,1,1.17.5,8.23,8.23,0,0,1,.87,1.2,3.31,3.31,0,0,0,1.48-1.08,3,3,0,0,0,.52-1.88,1.93,1.93,0,0,0,0-.25A1.79,1.79,0,0,0,562.85,440.25Z"/><path class="cls-2" d="M571.65,434.67h.6a8.07,8.07,0,0,1,1.36-1.9,2,2,0,0,1,1.39-.56c.52,0,.78.12.78.35a2.7,2.7,0,0,1-.61.92,13.56,13.56,0,0,0-.92,1.26l.86.1.59.07a22.92,22.92,0,0,1-2,3.08l-.67-.05-.54-.05-.67-.05c-.51.83-.94,1.56-1.28,2.21a12.48,12.48,0,0,0-.8,1.77,4.84,4.84,0,0,0-.27,1.53c0,.65.26,1,.78,1a2.83,2.83,0,0,0,1.4-.57c.58-.39,1.36-1,2.33-1.77v.95c-2.54,2.77-4.43,4.15-5.65,4.15a1.23,1.23,0,0,1-1-.49,2,2,0,0,1-.39-1.28,4.22,4.22,0,0,1,.22-1.24c.14-.49.41-1.21.78-2.19l-.37.34-.33.29-.32.29-.34.3v-1a21.55,21.55,0,0,0,3.6-4.37l-.4,0h-.44a5.34,5.34,0,0,0-1.24.11l-.32.1-.2.05s-.06,0-.06-.09a3.07,3.07,0,0,1,.58-1.4,5.53,5.53,0,0,1,.88-1.18,2.24,2.24,0,0,1,1-.51A8.16,8.16,0,0,1,571.65,434.67Z"/><path class="cls-2" d="M580.69,442v1a14,14,0,0,1-2.56,2.66,3.62,3.62,0,0,1-2,.9,1.83,1.83,0,0,1-1.73-1.21,6.24,6.24,0,0,1-.57-2.67,4.51,4.51,0,0,1,.12-1.05,3.89,3.89,0,0,1,.26-.83c.11-.22.3-.56.59-1,1.34-2.08,2.56-3.13,3.68-3.13.57,0,.86.22.86.67a3.38,3.38,0,0,1-.56,1.41,5.93,5.93,0,0,1-1,1.38,22.1,22.1,0,0,0-1.6,1.65,1.67,1.67,0,0,0-.38,1.07,1.11,1.11,0,0,0,.38.85,1.49,1.49,0,0,0,1,.34,2.91,2.91,0,0,0,1.47-.49A18.81,18.81,0,0,0,580.69,442Zm-1-6.33a1,1,0,0,1-.67-.27.85.85,0,0,1-.32-.68,2.38,2.38,0,0,1,.59-1.38,1.64,1.64,0,0,1,1.24-.77.95.95,0,0,1,1,1A2.32,2.32,0,0,1,581,435,1.63,1.63,0,0,1,579.73,435.69Z"/><path class="cls-2" d="M585.54,434.67h.61a8.09,8.09,0,0,1,1.35-1.9,2,2,0,0,1,1.39-.56c.52,0,.78.12.78.35a2.7,2.7,0,0,1-.61.92,13.56,13.56,0,0,0-.92,1.26l.86.1.59.07a22.92,22.92,0,0,1-2,3.08l-.66-.05-.55-.05-.67-.05c-.51.83-.94,1.56-1.28,2.21a12.48,12.48,0,0,0-.8,1.77,4.84,4.84,0,0,0-.27,1.53c0,.65.26,1,.78,1a2.86,2.86,0,0,0,1.41-.57c.58-.39,1.35-1,2.32-1.77v.95c-2.54,2.77-4.43,4.15-5.64,4.15a1.24,1.24,0,0,1-1-.49,2,2,0,0,1-.39-1.28,4.22,4.22,0,0,1,.22-1.24c.14-.49.41-1.21.78-2.19l-.37.34-.33.29-.32.29-.34.3v-1a21.22,21.22,0,0,0,3.6-4.37l-.4,0h-.43a5.38,5.38,0,0,0-1.25.11l-.32.1-.2.05s-.06,0-.06-.09a3.07,3.07,0,0,1,.58-1.4,5.21,5.21,0,0,1,.89-1.18,2.15,2.15,0,0,1,1-.51A8.23,8.23,0,0,1,585.54,434.67Z"/><path class="cls-2" d="M594.49,441.06q-2.06,2.71-3.13,3.86c-.71.77-1.29,1.15-1.74,1.15a1.44,1.44,0,0,1-1-.44,3,3,0,0,1-.7-1.21,5.29,5.29,0,0,1-.25-1.62,3.86,3.86,0,0,1,.51-2,9.7,9.7,0,0,1,.79-1.18c.33-.42.73-.91,1.2-1.44l.71-.84a1.62,1.62,0,0,1,.57-.46,2.41,2.41,0,0,1,.9-.12,3,3,0,0,1,.86.12c.28.08.41.16.41.25a2.25,2.25,0,0,1-.42.92,10.2,10.2,0,0,1-1.34,1.62,18.54,18.54,0,0,1-2.15,1.88,4.78,4.78,0,0,0-.26,1.27c0,.41.15.61.46.61a1.28,1.28,0,0,0,.57-.29c.26-.19.71-.57,1.34-1.12s1.19-1,1.69-1.46a10.51,10.51,0,0,0,1.28-1.44c.49-.64.88-1.12,1.18-1.44.7-.74,1.18-1.21,1.43-1.44a1.16,1.16,0,0,1,.74-.33.48.48,0,0,1,.46.21,2,2,0,0,1,.12.87,1.56,1.56,0,0,1-.06.48,1.79,1.79,0,0,1-.23.47c-.12.2-.36.55-.72,1.07s-.78,1.13-1.27,1.84a7.07,7.07,0,0,0-.69,1.24,2.84,2.84,0,0,0-.3,1c0,.49.19.74.58.74a2.18,2.18,0,0,0,1.12-.4c.42-.26,1.07-.74,2-1.43v.95c-1.1,1-1.92,1.76-2.45,2.23a9.91,9.91,0,0,1-1.37,1,2.13,2.13,0,0,1-1.11.36c-.79,0-1.18-.48-1.18-1.42a4.18,4.18,0,0,1,.35-1.45C593.58,443.09,594,442.21,594.49,441.06Z"/><path class="cls-2" d="M604,434.67h.6a8.07,8.07,0,0,1,1.36-1.9,2,2,0,0,1,1.39-.56c.52,0,.78.12.78.35a2.7,2.7,0,0,1-.61.92,13.56,13.56,0,0,0-.92,1.26l.86.1.58.07a21.88,21.88,0,0,1-2,3.08l-.67-.05-.54-.05-.67-.05c-.51.83-.94,1.56-1.29,2.21a13.56,13.56,0,0,0-.79,1.77,4.84,4.84,0,0,0-.27,1.53c0,.65.26,1,.77,1a2.83,2.83,0,0,0,1.41-.57c.58-.39,1.36-1,2.33-1.77v.95q-3.82,4.15-5.65,4.15a1.23,1.23,0,0,1-1-.49,2,2,0,0,1-.39-1.28,4.22,4.22,0,0,1,.22-1.24c.14-.49.41-1.21.78-2.19l-.37.34-.33.29-.32.29-.34.3v-1a21.89,21.89,0,0,0,3.6-4.37l-.4,0h-.44a5.34,5.34,0,0,0-1.24.11l-.32.1-.21.05s-.05,0-.05-.09a3.07,3.07,0,0,1,.58-1.4,5.21,5.21,0,0,1,.88-1.18,2.24,2.24,0,0,1,1-.51A8.16,8.16,0,0,1,604,434.67Z"/><path class="cls-2" d="M620.84,442.05c-.83.94-1.58,1.75-2.23,2.41a21.43,21.43,0,0,1-1.6,1.48,2,2,0,0,1-.85.49c-.24,0-.52-.2-.82-.6a5.79,5.79,0,0,1-1.11-3.38,4.06,4.06,0,0,1,1.33-2.77,12.09,12.09,0,0,1,3-2.32,6.2,6.2,0,0,1,2.55-.92,1.81,1.81,0,0,1,1.35.88q1.1-2.28,2.08-4.05a22.79,22.79,0,0,1,1.65-2.63c.44-.58.76-.87.95-.87a.77.77,0,0,1,.57.31,1,1,0,0,1,.26.68,6.21,6.21,0,0,1-1.07,2.53c-.72,1.2-1.43,2.36-2.13,3.49a30.67,30.67,0,0,0-1.8,3.35,7.44,7.44,0,0,0-.75,3.05c0,.85.28,1.28.83,1.28a2.3,2.3,0,0,0,1.24-.56,26.42,26.42,0,0,0,2.14-1.88v1Q623.4,447,621.74,447a1,1,0,0,1-1-.51,3.08,3.08,0,0,1-.29-1.52A13.75,13.75,0,0,1,620.84,442.05Zm1-3.46a18.86,18.86,0,0,0-3,1.37,12,12,0,0,0-2.06,1.3,2.5,2.5,0,0,0-.55,1.06,4.42,4.42,0,0,0-.24,1.17.57.57,0,0,0,.14.4.45.45,0,0,0,.36.16.87.87,0,0,0,.45-.17,10.28,10.28,0,0,0,.81-.67l.73-.64,1.07-.91a16.13,16.13,0,0,0,1.21-1.1,4,4,0,0,0,.65-.88A3.81,3.81,0,0,0,621.89,438.59Z"/><path class="cls-2" d="M628.73,442.53v.36a1.88,1.88,0,0,0,.41,1.3,1.36,1.36,0,0,0,1.07.47,3.57,3.57,0,0,0,1.44-.33,7.76,7.76,0,0,0,1.48-.86c.49-.36,1.09-.84,1.8-1.45v.87a18.2,18.2,0,0,1-3,2.95,4.83,4.83,0,0,1-2.85,1,2.37,2.37,0,0,1-2-1,4.37,4.37,0,0,1-.73-2.68,5.37,5.37,0,0,1,.69-2.7,10.17,10.17,0,0,1,2.27-2.55,8.51,8.51,0,0,1,2.13-1.39,4.84,4.84,0,0,1,1.9-.47,1.63,1.63,0,0,1,1.06.31,1.08,1.08,0,0,1,.39.91,3,3,0,0,1-.67,1.78,7.6,7.6,0,0,1-2,1.75A21,21,0,0,1,628.73,442.53Zm.14-.92a8.15,8.15,0,0,0,2.18-1.23,6.38,6.38,0,0,0,1.34-1.41,2.34,2.34,0,0,0,.43-1q0-.33-.3-.33a2,2,0,0,0-.83.33,6.45,6.45,0,0,0-1.16.85,6,6,0,0,0-1,1.23A3.75,3.75,0,0,0,628.87,441.61Z"/><path class="cls-2" d="M652.44,442.05V443a4.88,4.88,0,0,1-2.32.94,3.64,3.64,0,0,1-1-.16,15.55,15.55,0,0,1-2.19,2.36,2.89,2.89,0,0,1-1.83.75,1.79,1.79,0,0,1-1.64-1.11,6.09,6.09,0,0,1-.57-2.78,10.84,10.84,0,0,1,1.36-4.91,27,27,0,0,1,3.28-5,31.1,31.1,0,0,1,3.71-3.83c1.2-1,2-1.51,2.44-1.51s.61.28.61.83q0,3.72-9.52,12.95c0,.17,0,.5,0,1,0,1.3.35,2,1,2a1.29,1.29,0,0,0,.83-.34,12.65,12.65,0,0,0,1.28-1.26,3.35,3.35,0,0,1-.34-1.14,3,3,0,0,1,.64-1.68,7.52,7.52,0,0,1,1.45-1.57,2.44,2.44,0,0,1,1.18-.66c.39,0,.58.28.58.84a4.59,4.59,0,0,1-.33,1.53,15.05,15.05,0,0,1-1,2l.38.29a.83.83,0,0,0,.43.09A2.8,2.8,0,0,0,652.44,442.05Zm-7.19-2.12a15.22,15.22,0,0,0,1.48-1.51c.5-.58,1.22-1.47,2.17-2.67s1.64-2.11,2.16-2.88a17.79,17.79,0,0,0,1.18-1.92,2.86,2.86,0,0,0,.4-1.05c0-.14,0-.21-.11-.21s-.64.34-1.3,1a26.38,26.38,0,0,0-2.24,2.82q-1.74,2.46-2.52,3.71A10.93,10.93,0,0,0,645.25,439.93Z"/><path class="cls-2" d="M654.71,442.53v.36a1.93,1.93,0,0,0,.41,1.3,1.36,1.36,0,0,0,1.08.47,3.49,3.49,0,0,0,1.43-.33,7.76,7.76,0,0,0,1.48-.86c.49-.36,1.09-.84,1.8-1.45v.87a18.2,18.2,0,0,1-3,2.95,4.81,4.81,0,0,1-2.85,1,2.35,2.35,0,0,1-2-1,4.37,4.37,0,0,1-.74-2.68,5.37,5.37,0,0,1,.69-2.7,10.37,10.37,0,0,1,2.27-2.55,8.55,8.55,0,0,1,2.14-1.39,4.84,4.84,0,0,1,1.9-.47,1.62,1.62,0,0,1,1,.31,1.08,1.08,0,0,1,.39.91,2.91,2.91,0,0,1-.67,1.78,7.6,7.6,0,0,1-2,1.75A21,21,0,0,1,654.71,442.53Zm.14-.92a8,8,0,0,0,2.18-1.23,6.15,6.15,0,0,0,1.34-1.41,2.21,2.21,0,0,0,.43-1q0-.33-.3-.33a2,2,0,0,0-.82.33,6.5,6.5,0,0,0-1.17.85,6,6,0,0,0-1,1.23A4,4,0,0,0,654.85,441.61Z"/><path class="cls-2" d="M662.57,439.49a17.32,17.32,0,0,1,4.17-2.91,8.24,8.24,0,0,1,3.13-.94.81.81,0,0,1,.56.24,1.94,1.94,0,0,1,.4.58,1.25,1.25,0,0,1,.15.48.4.4,0,0,1-.2.37,3.61,3.61,0,0,1-.69.29c.06.16.15.35.25.58a6.15,6.15,0,0,1,.24.58,1,1,0,0,1,.09.39,3,3,0,0,1-.69,1.27c-.46.61-.78,1.07-1,1.36a1.93,1.93,0,0,0-.28,1.08q0,1,1,1.05c.67,0,1.7-.62,3.11-1.86v.86c-2.39,2.66-4.1,4-5.13,4a.88.88,0,0,1-.79-.36,2,2,0,0,1-.23-1.07,10.1,10.1,0,0,1,.81-3.24c-1.38,1.53-2.4,2.62-3.08,3.26a2.75,2.75,0,0,1-1.65,1c-.21,0-.47-.18-.78-.53a5.29,5.29,0,0,1-.83-1.4,4.53,4.53,0,0,1-.36-1.78,3.93,3.93,0,0,1,.13-1.11,2.72,2.72,0,0,1,.49-.91A13.37,13.37,0,0,1,662.57,439.49Zm6.78-1.56a31.19,31.19,0,0,0-5.25,2.86,3.18,3.18,0,0,0-1.56,2.42,1.54,1.54,0,0,0,.16.75.47.47,0,0,0,.42.29,1.6,1.6,0,0,0,.55-.2,11.24,11.24,0,0,0,2.72-2.29Q667.62,440.35,669.35,437.93Z"/><path class="cls-2" d="M679.35,441.06q-2.05,2.71-3.12,3.86c-.72.77-1.3,1.15-1.75,1.15a1.4,1.4,0,0,1-1-.44,2.81,2.81,0,0,1-.7-1.21,5,5,0,0,1-.25-1.62,4.52,4.52,0,0,1,.1-1,4.15,4.15,0,0,1,.41-1,9.52,9.52,0,0,1,.78-1.18c.33-.42.73-.91,1.2-1.44l.71-.84a1.72,1.72,0,0,1,.57-.46,2.41,2.41,0,0,1,.9-.12,3,3,0,0,1,.86.12c.28.08.41.16.41.25a2.33,2.33,0,0,1-.41.92,11,11,0,0,1-1.35,1.62,19.26,19.26,0,0,1-2.14,1.88,4.5,4.5,0,0,0-.27,1.27c0,.41.15.61.46.61a1.23,1.23,0,0,0,.57-.29c.26-.19.71-.57,1.34-1.12s1.19-1,1.69-1.46a9.88,9.88,0,0,0,1.28-1.44c.49-.64.88-1.12,1.18-1.44.7-.74,1.18-1.21,1.43-1.44a1.18,1.18,0,0,1,.74-.33.48.48,0,0,1,.46.21,2,2,0,0,1,.12.87,2,2,0,0,1-.05.48,2.32,2.32,0,0,1-.24.47c-.12.2-.35.55-.71,1.07l-1.28,1.84a7.78,7.78,0,0,0-.69,1.24,2.84,2.84,0,0,0-.3,1c0,.49.19.74.58.74a2.18,2.18,0,0,0,1.12-.4,23.3,23.3,0,0,0,2-1.43v.95c-1.1,1-1.92,1.76-2.45,2.23a9.34,9.34,0,0,1-1.37,1,2.1,2.1,0,0,1-1.1.36c-.8,0-1.19-.48-1.19-1.42a4.18,4.18,0,0,1,.35-1.45C678.44,443.09,678.82,442.21,679.35,441.06Z"/><path class="cls-2" d="M688.81,434.67h.61a7.79,7.79,0,0,1,1.36-1.9,2,2,0,0,1,1.38-.56c.52,0,.78.12.78.35a2.7,2.7,0,0,1-.61.92,13.56,13.56,0,0,0-.92,1.26l.86.1.59.07a22.92,22.92,0,0,1-2,3.08l-.66-.05-.55-.05-.67-.05c-.51.83-.94,1.56-1.28,2.21a12.48,12.48,0,0,0-.8,1.77,4.84,4.84,0,0,0-.27,1.53c0,.65.26,1,.78,1a2.86,2.86,0,0,0,1.41-.57c.58-.39,1.35-1,2.33-1.77v.95q-3.82,4.15-5.66,4.15a1.23,1.23,0,0,1-1-.49,2,2,0,0,1-.39-1.28,4.22,4.22,0,0,1,.22-1.24c.14-.49.41-1.21.78-2.19l-.37.34-.33.29-.31.29-.34.3v-1a21.92,21.92,0,0,0,3.59-4.37l-.39,0h-.44a5.38,5.38,0,0,0-1.25.11l-.32.1-.2.05s-.06,0-.06-.09a3.07,3.07,0,0,1,.58-1.4,5.21,5.21,0,0,1,.89-1.18,2.14,2.14,0,0,1,1-.51A8.05,8.05,0,0,1,688.81,434.67Z"/><path class="cls-2" d="M693.35,442.53v.36a1.93,1.93,0,0,0,.41,1.3,1.39,1.39,0,0,0,1.08.47,3.57,3.57,0,0,0,1.44-.33,8.08,8.08,0,0,0,1.48-.86c.49-.36,1.09-.84,1.79-1.45v.87a17.46,17.46,0,0,1-3,2.95,4.78,4.78,0,0,1-2.84,1,2.37,2.37,0,0,1-2-1,4.37,4.37,0,0,1-.74-2.68,5.28,5.28,0,0,1,.7-2.7,10.1,10.1,0,0,1,2.26-2.55,8.55,8.55,0,0,1,2.14-1.39,4.84,4.84,0,0,1,1.9-.47,1.62,1.62,0,0,1,1,.31,1.08,1.08,0,0,1,.39.91,3,3,0,0,1-.66,1.78,7.76,7.76,0,0,1-2,1.75A21.55,21.55,0,0,1,693.35,442.53Zm.14-.92a8,8,0,0,0,2.18-1.23A6.15,6.15,0,0,0,697,439a2.21,2.21,0,0,0,.43-1c0-.22-.09-.33-.29-.33a2,2,0,0,0-.83.33,6.45,6.45,0,0,0-1.16.85,6.07,6.07,0,0,0-1.06,1.23A4,4,0,0,0,693.49,441.61Zm4-8a.64.64,0,0,1-.43-.16.45.45,0,0,1-.2-.36,8.24,8.24,0,0,1,1.47-2.68,4.78,4.78,0,0,1,1.07-1.18,2.12,2.12,0,0,1,1.22-.29q1,0,1,.72c0,.27-.3.73-.91,1.36a19.45,19.45,0,0,1-2,1.77A3.61,3.61,0,0,1,697.44,433.61Z"/><path class="cls-2" d="M664.13,236.27a4.84,4.84,0,0,0-2.54-.37c-.38.06-.87,0-1,.47s.37.54.68.7a7.32,7.32,0,0,1,2.31,1.29l0,0A3.75,3.75,0,0,1,664.13,236.27Z"/><path class="cls-2" d="M682.34,377.76c-.65-3.76-1.2-7.53-2-11.26-1.47-6.79-2.75-13.63-4.45-20.38-1.36-5.39-2.52-10.82-3.78-16.23-.86-3.72-1.78-7.42-2.58-11.15a28.66,28.66,0,0,1-.75-7c.17-5.1.47-10.19.57-15.28.09-4.3.25-8.59.42-12.88.25-6.31.42-12.63.46-18.95,0-4.92.18-9.84-.06-14.75a1.26,1.26,0,0,1-.59.15c-.78,0-1.48-.73-2-1.9a61.48,61.48,0,0,1,.5,9.5c-.05,2.41,0,4.81-.17,7.22-.21,3.45-.12,6.92-.31,10.37-.16,3-.24,6.07-.48,9.09-.36,4.49-.47,9-.78,13.49-.17,2.47-.31,4.94-.5,7.41-.33,4.28-.69,8.56.35,12.81,1.12,4.58,2.29,9.15,3.61,13.69s2.56,8.87,3.77,13.32c1,3.72,1.82,7.48,2.9,11.17,1.7,5.75,2.91,11.61,4.41,17.4.44,1.71.5,3.51,1.31,5.29A1.53,1.53,0,0,0,682.34,377.76Z"/><path class="cls-2" d="M669.58,250.07a1.26,1.26,0,0,0,.59-.15c-.07-1.23-.14-2.46-.26-3.68-.12.87-.43,1.47-.94,1.65a1.66,1.66,0,0,1-1.49-.47c0,.21.07.42.1.63a.49.49,0,0,0,0,.12C668.1,249.34,668.8,250.07,669.58,250.07Z"/><path class="cls-2" d="M763.77,173.84a1.91,1.91,0,0,0-2-1.07,1.64,1.64,0,0,0-1.6,1.34c-.23,1.25-.67,2.42-1,3.64a42.87,42.87,0,0,1-3.33,9.37,45.8,45.8,0,0,1-5.29,7.73,54.16,54.16,0,0,1-5.95,5.88,11.42,11.42,0,0,1-2,1.87,32.84,32.84,0,0,0-3.8,2.9c-2,1.52-4.07,3.05-6.23,4.42-2.42,1.55-4.74,3.29-7.27,4.65s-5.06,2.76-7.66,4c-2.84,1.35-5.81,2.43-8.74,3.59a63.08,63.08,0,0,1-6,2.18,13.58,13.58,0,0,0-2.76.93,54.05,54.05,0,0,1-5.83,2.12c-2.36.93-4.8,1.7-7.15,2.64a67,67,0,0,0-11,5.57,45.58,45.58,0,0,0-4.5,3.12,10.42,10.42,0,0,1,.54,1.85,18,18,0,0,1,1.72-1.3c2.32-1.5,4.66-3,7.13-4.31a96.5,96.5,0,0,1,9.28-4.19c3.56-1.46,7.32-2.48,11-3.82s7-2.4,10.45-3.9c2.6-1.16,5.31-2.06,7.82-3.44,2.25-1.22,4.62-2.22,6.79-3.62,2.71-1.75,5.55-3.28,8.21-5.14,2.86-2,5.62-4.07,8.34-6.22a57.38,57.38,0,0,0,5.68-5.1,55.12,55.12,0,0,0,7-8.8c3-4.81,4.44-10.09,5.55-15.51.08-.4,0-.88.61-.95s.8.31,1,.74a9.6,9.6,0,0,1,.55,2,14.82,14.82,0,0,1,.45,6.22,25.35,25.35,0,0,1-1,5.52,41.11,41.11,0,0,1-2.22,5.42c-.77,1.38-1.54,2.76-2.26,4.17a54.25,54.25,0,0,1-3.48,5.75c-1.49,2.17-3.29,4.15-4.82,6.29a71,71,0,0,1-5.44,6.19c-1.91,2.1-3.83,4.17-5.56,6.41-.23.31-.58.66-.15,1s.63-.12.93-.29c1.3-.72,2.12-2,3.4-2.71a23.55,23.55,0,0,0,6.25-4.9c1.51-1.74,3.2-3.29,4.85-4.89a18,18,0,0,0,2.44-2.49,6.16,6.16,0,0,1,3.1-2.52c.49-.14,1.07-.37,1.28.3a7.91,7.91,0,0,1,.62,2.84,33.64,33.64,0,0,1-1.42,8.94,30.64,30.64,0,0,1-4,7.9c-.61.88-1.46,1.53-2.06,2.39a20.64,20.64,0,0,1-4.52,4.43c-1.31,1-2.65,2.08-4.09,3a48.22,48.22,0,0,1-9.44,4.74c-.5.18-.84.43-.8,1s.47.62.91.72c1.49.35,3-.05,4.41-.15,2.74-.19,5.29-1.28,8-1.63,1.15-.14,2.19.12,2.21.85a6.84,6.84,0,0,1-.36,2.58,14.42,14.42,0,0,1-3.78,5.17,35.29,35.29,0,0,1-6.14,4.58c-3.46,2.1-7.32,3.2-11.08,4.55a28.48,28.48,0,0,1-4.67.88c-.44.07-1.06.19-.91.8s.71.54,1.18.51.93-.32,1.46-.35a29.3,29.3,0,0,0,8.44-2,38.94,38.94,0,0,0,8.09-4.1c3.31-2.17,6.27-4.67,8.09-8.18.93-1.79,1.78-3.65,1.07-5.8a1.54,1.54,0,0,0-1.73-1.24c-1.84.24-3.67.64-5.5,1a10.84,10.84,0,0,1-3.63.55c2.13-1.64,4.54-2.81,6.63-4.44,1.47-1.15,3-2.21,4.43-3.46,1-.88,1.75-1.94,2.66-2.87a22.37,22.37,0,0,0,4.61-6.51,45.15,45.15,0,0,0,2.87-8.29,23.1,23.1,0,0,0,.2-7.55,5,5,0,0,0-.74-2,1.48,1.48,0,0,0-2.18-.69,16.91,16.91,0,0,0-4.59,3.71c-2.82,2.87-5.47,5.91-8.55,8.55a2,2,0,0,1-1,.54c.86-1.77,2.6-2.78,3.51-4.43a4.33,4.33,0,0,1,.83-1.21,37.37,37.37,0,0,0,4.94-6,74.54,74.54,0,0,0,6.26-10,51.71,51.71,0,0,0,2.69-6.48,23.86,23.86,0,0,0,1.16-7.31A15.62,15.62,0,0,0,763.77,173.84Z"/><path class="cls-2" d="M667.5,238.79a9,9,0,0,0-3.37-2.52,3.75,3.75,0,0,0-.47,2.14,13.76,13.76,0,0,1,3.08,5.61c0-.22,0-.43,0-.65A12.64,12.64,0,0,1,667.5,238.79Z"/><path class="cls-2" d="M669,247.89c.51-.18.82-.78.94-1.65-.09-.91-.19-1.81-.32-2.71,0-.24-1-3-1.27-3.51a6.42,6.42,0,0,0-.82-1.23,12.64,12.64,0,0,0-.78,4.58c0,.22,0,.43,0,.65a27.8,27.8,0,0,1,.74,3.4A1.66,1.66,0,0,0,669,247.89Z"/><path class="cls-2" d="M545,395.53a2,2,0,0,1,.32,1.55,18.76,18.76,0,0,0,1.06,7.53,11.34,11.34,0,0,0,7.58,6.7c3.7,1.2,7.38.86,11,.43a29.09,29.09,0,0,0,7.19-1.82c1.84-.73,3.91-.79,5.75-1.42,3.39-1.16,7-1.35,10.4-2.36a37.6,37.6,0,0,1,4.92-.7c3-.45,6-.62,9-1.17a76.81,76.81,0,0,1,8.32-.57c2.26-.16,4.54-.26,6.81-.2a140.21,140.21,0,0,1,15.88.88c3.81.53,7.68.81,11.43,1.66a45,45,0,0,0,11.39,1,69.85,69.85,0,0,0,9.21-1.07,17.3,17.3,0,0,1,7.84.05c2.1.62,4.17,1.36,6.23,2.09.5.17,1,.35,1.42,0s.19-.84.11-1.28a.8.8,0,0,1,0-.21c0-.49-.59-1.16,0-1.42s1,.48,1.26.91a12,12,0,0,1,1.65,3.17,1.5,1.5,0,0,1-.27,1.76c-.56.49-1.11.08-1.56-.25-2.29-1.67-5-2.28-7.73-2.77a10.39,10.39,0,0,0-4.5.15,20.32,20.32,0,0,1-3.32.36,75.33,75.33,0,0,1-12.11-.13c-.76-.06-1.49.13-2.27.05-3.93-.41-7.89-.64-11.82-1-3.74-.36-7.48-.54-11.22-.7-4.44-.18-8.89-.21-13.33.05-1.26.08-2.52.07-3.78.06-4.19,0-8.35.58-12.53.7a43.27,43.27,0,0,0-6.09.74c-3.8.67-7.68.85-11.47,1.54-3.3.59-6.63,1-9.91,1.63-.8.16-1.57.5-2.37.69a40.59,40.59,0,0,1-15.79.77,11.93,11.93,0,0,1-7.33-4.28,7.7,7.7,0,0,1-1.59-3.63,24.85,24.85,0,0,1-.19-8.34,3.61,3.61,0,0,1,.21-.71A4.14,4.14,0,0,1,545,395.53Z"/><path class="cls-2" d="M598.3,379.49c-.51-1.55-1.12-3.08-1.5-4.65-.73-3-1.79-6-2.73-8.94-1.49-4.67-3-9.33-4.71-13.93a145.85,145.85,0,0,0-5.82-14.08,31.54,31.54,0,0,0-3.33-5.48,2.06,2.06,0,0,0-1.87-1.05c-.88.1-1.09.81-1.32,1.48a42.77,42.77,0,0,1-3.34,8,74.71,74.71,0,0,1-4.77,6.84c-1.72,2.32-4,4-6,6.17a26.73,26.73,0,0,1-3.72,3,108.43,108.43,0,0,1-11.65,7.43,22.38,22.38,0,0,0-4.13,2.63c-.8.74-2,.79-2.9,1.35a.34.34,0,0,1-.47-.13c-.16-.27,0-.47.23-.62a14.87,14.87,0,0,1,3.2-2.1,25.14,25.14,0,0,0,4.67-2.95c1.43-1,2.91-1.91,4.36-2.88a46.29,46.29,0,0,0,11.58-11,47,47,0,0,0,4.16-7.34c1-2,1.92-4,2.78-6,1.21-2.83,2.31-5.71,3.49-8.55.47-1.13,1-2.24,1.55-3.33s1.24-1.09,2-.18a36.05,36.05,0,0,1,3.16,4.6,116.06,116.06,0,0,1,5.55,10.52c1,2.1,1.69,4.32,2.63,6.43,1.42,3.18,2.51,6.46,3.63,9.74,1.29,3.78,2.27,7.64,3.21,11.52.79,3.23,1.44,6.48,2,9.75.21,1.2.24,2.44.36,3.66Z"/><path class="cls-2" d="M678.19,231.71c-5.21-.15-8.67-3-10.28-7.68a49.45,49.45,0,0,1-2.09-9.3c-.52-3.73-1.15-7.45-1.56-11.2a56.84,56.84,0,0,0-1.22-7.44,53.78,53.78,0,0,0-6.46-15.8,38.36,38.36,0,0,0-6.33-7.78,32.06,32.06,0,0,0-13.17-7.36,2.86,2.86,0,0,0-1-.13c-4.17.21-8.41-.71-12.52.92-1.31.52-2.72.92-4.05,1.44a16,16,0,0,0-3.37,2c-1.07.75-2.07,1.6-3.07,2.43s-2.22,1.88-3.29,2.86c-.28.26-.81.67-.44,1s.83-.11,1.07-.41a13.23,13.23,0,0,1,3-2.56c2.5-1.74,4.89-3.58,7.86-4.65a19.91,19.91,0,0,1,8.24-1.35,33.38,33.38,0,0,1,7.86,1.19,34.73,34.73,0,0,1,6.79,2.67,25.31,25.31,0,0,1,7.94,7,33.38,33.38,0,0,1,4.16,7.55,54.73,54.73,0,0,1,3.3,12c.81,5,1.37,10.1,2,15.17a48.13,48.13,0,0,0,2.36,11.47c1.84,4.94,5.28,8.26,10.83,9.1a8.15,8.15,0,0,0,5.37-.73A2.47,2.47,0,0,0,678.19,231.71Z"/><path class="cls-2" d="M563.25,302.05c-2.74,5.3-5.54,10.58-8.57,15.74-2,3.39-4,6.81-6.13,10.1-2.44,3.71-4.83,7.44-7.37,11.09-1.52,2.19-3.07,4.38-4.66,6.53-2.19,3-4.34,6-6.72,8.81-1.77,2.1-3.44,4.28-5.19,6.4-1.12,1.36-2.55,2.5-3.6,3.87-2.29,3-5.07,5.49-7.52,8.3-.93,1.07-2.09,1.93-3,3-2.2,2.43-4.42,4.85-6.57,7.33a84.14,84.14,0,0,0-6.52,8.57c-2,3.08-4.07,6.18-7.31,8.27-.29.19-.64.43-.48.95a24.09,24.09,0,0,0,7.56-5.24,30.44,30.44,0,0,0,5.3-7.2,63.77,63.77,0,0,1,9.31-12.28c1.37-1.39,3-2.58,4.25-4,2.08-2.29,4.52-4.21,6.66-6.42s4.26-4.25,6.25-6.48c1.83-2.05,3.62-4.15,5.37-6.27a181.39,181.39,0,0,0,11.78-16.28A184,184,0,0,0,555.9,320c2.72-5.36,5.4-10.73,7.71-16.26a17.83,17.83,0,0,0,1.72-5A18.24,18.24,0,0,0,563.25,302.05Z"/><path class="cls-2" d="M659.42,299.25c.45,1.42-.11,2.49-.34,3.53a29.65,29.65,0,0,0-.49,5.62c-.17,4.57.18,9.13.31,13.7a59.21,59.21,0,0,0,3.92,18.58c2.46,6.83,5.52,13.42,8.17,20.18a95.54,95.54,0,0,1,4.12,12.56,27.81,27.81,0,0,1,.5,8.34,21.49,21.49,0,0,1-1.46,7.37,2.54,2.54,0,0,1-.16.38c-.26.44-.46,1.27-1,1.13-.68-.2,0-.82,0-1.25a62.5,62.5,0,0,0,.68-8.44,46.1,46.1,0,0,0-3-14.08A64.36,64.36,0,0,0,665,355.4a57.8,57.8,0,0,1-4.61-8.51,55.73,55.73,0,0,1-3.09-10.78,64.88,64.88,0,0,1-1.08-14.91,50.77,50.77,0,0,1,.93-9.67c.19-.86-.06-1.78.19-2.6.89-2.94,1-6,1.77-9A4.71,4.71,0,0,1,659.42,299.25Z"/><path class="cls-2" d="M632.27,393.87a1.09,1.09,0,0,1-1.1-.06c-2.88-1.19-5.88-2.11-8.76-3.27-2.62-1.07-5.34-1.85-8-2.8-3.06-1.08-6.22-1.91-9.4-2.69-3.9-.94-7.85-1.46-11.78-2.2-7.45-1.4-15-1.44-22.5-1.37a69,69,0,0,0-7.45,1,24.5,24.5,0,0,0-5.52,1.42c-1.06.39-2.25.19-3.23.81a.36.36,0,0,1-.53-.22.48.48,0,0,1,.33-.59c1.44-.57,2.48-1.73,3.94-2.32a46.18,46.18,0,0,1,9.92-3.15,57.5,57.5,0,0,1,15-.38,52.36,52.36,0,0,1,7.07.9c2.94.72,6,.91,8.87,1.8,3,.94,6.17,1.67,9.15,2.83,2.13.82,4.36,1.42,6.48,2.29,4.44,1.83,9,3.44,13.27,5.59a28.31,28.31,0,0,0,3,1.38A1.91,1.91,0,0,1,632.27,393.87Z"/><path class="cls-2" d="M631.71,216.33a23.35,23.35,0,0,1-4.22,4A45,45,0,0,1,620.9,225a10.51,10.51,0,0,1-5.41,1.45,2,2,0,0,1-2.13-1.42,36.44,36.44,0,0,0-1.17-3.48A74.74,74.74,0,0,1,609,214c-1-2.86-1.71-5.86-.53-8.72A9.65,9.65,0,0,0,608,197a30.93,30.93,0,0,1-2.44-6c-1-4-.17-7.75,1.32-11.45.11-.26.38-.55.11-.76s-.47.18-.64.36a11.53,11.53,0,0,0-2.43,4.15,18,18,0,0,0-.35,10.42c.48,2.05,1.57,3.91,2,6,.23,1.23-.13,1.61-1.42,1.54-.44,0-1.1-.34-1.25.18s.5.85.94,1.14a2.43,2.43,0,0,0,.59.27c1,.25,1.06.81.79,1.68a16.13,16.13,0,0,1-2.6,4.67,1.39,1.39,0,0,0,.4,2.17,7.72,7.72,0,0,0,.94.51c2.07,1,2.36,1.54,2,3.81a1.48,1.48,0,0,0,.32,1.47c1,.78,1.31,2.05,2.2,2.81,1.41,1.2,1.73,2.75,2,4.38.13.68.25,1.37.43,2.05.66,2.45,2.62,3.69,5.36,2.86,3.54-1.07,6.26-3.33,9.07-5.5a38.12,38.12,0,0,0,3.39-3.2,19.87,19.87,0,0,0,4.13-4.91A2.18,2.18,0,0,0,631.71,216.33Z"/><path class="cls-2" d="M645.07,365.5c-.82-.84-1.55-1.54-2.23-2.29-3.1-3.4-6.2-6.8-9.26-10.24-3.36-3.78-6.77-7.51-10.14-11.29q-4.29-4.83-8.61-9.64c-3.1-3.44-6.28-6.82-9.38-10.25-3.74-4.14-7.43-8.32-11.17-12.46-3.32-3.67-6.68-7.3-10-10.95-1.83-2-3.4-4.24-5.58-5.94a4,4,0,0,0-2.92-.83c-1.22.1-2.45.19-3.67.27-.24,0-.53.06-.69-.2s.07-.38.22-.53a7.41,7.41,0,0,1,6.9-1.21,9.69,9.69,0,0,1,2.84,2.22c4.76,4.91,9.34,10,14,15,3.6,3.91,7,8,10.59,11.88,2.6,2.84,5.09,5.78,7.57,8.72,3.71,4.4,7.57,8.67,11.3,13.05,2.49,2.93,5,5.87,7.43,8.85,2.07,2.54,4.24,5,6.41,7.46s4.15,5,6.2,7.5A.87.87,0,0,1,645.07,365.5Z"/><path class="cls-2" d="M608.56,244.74c-.48-.17-.75.3-1,.64a15.45,15.45,0,0,0-2.42,5.34,126.2,126.2,0,0,0-3.22,21.52c-.24,2.74-.51,5.49-.7,8.24-.22,3.23-.6,6.46-.84,9.69a34.58,34.58,0,0,1-1.55,9,1.25,1.25,0,0,1-2.16.68,14.7,14.7,0,0,1-2-1.63c-1.79-1.89-3.54-3.83-5.29-5.77a66.52,66.52,0,0,0-9.57-9,25.13,25.13,0,0,0-8.58-4,6.74,6.74,0,0,0-3.7,0,10.41,10.41,0,0,1,2.72.8,25,25,0,0,1,8.9,4.37,57.93,57.93,0,0,1,9.19,9.4c2.13,2.54,4.13,5.17,6.36,7.63a3.3,3.3,0,0,0,3,1.34,2.74,2.74,0,0,0,2.2-2.31,51.79,51.79,0,0,0,1.43-9c.42-4.59.89-9.17,1.36-13.74.62-6,1.64-11.9,2.63-17.82a119.21,119.21,0,0,1,3.36-14.18C608.84,245.46,609.09,244.94,608.56,244.74Z"/><path class="cls-2" d="M641.37,226.94a31.93,31.93,0,0,0-1.2-8c-1.43-4.88-3.54-9.32-7.4-12.91a30.42,30.42,0,0,0-7.56-4.94c-3.6-1.75-7.43-3-10.89-5.08a12.21,12.21,0,0,1-5.64-6.88,18.38,18.38,0,0,1-.72-7.87,1.12,1.12,0,0,0-.39-1.15,12.64,12.64,0,0,0-.74,6.47,16.11,16.11,0,0,0,4.84,9.69,25.27,25.27,0,0,0,6.27,4.19c1.75,1,3.79,1.29,5.67,2a22.86,22.86,0,0,1,7.15,4.43,23.56,23.56,0,0,1,5.91,9.62,42.23,42.23,0,0,1,1.73,17.35c-.36,2.49-.93,4.94-1.4,7.41,0,.21-.22.46.06.62a22,22,0,0,0,3-6.49A24.07,24.07,0,0,0,641.37,226.94Z"/><path class="cls-2" d="M646,270.08c.47,0,.56.37.73.65a26.43,26.43,0,0,1,3.88,8.92c1,5.06.72,9.92-3.38,13.94-2.76,2.71-5.88,3.83-9.66,2.72a13.52,13.52,0,0,1-4.91-3c-.43-.36-1.3-.56-1-1.29s1.15-.65,1.79-.55a23.21,23.21,0,0,0,7-.27c1.62-.23,2.76-1.33,3.91-2.31,2.12-1.82,2.89-4.27,3.18-6.91a25.87,25.87,0,0,0-1.43-11.13c-.06-.2-.11-.41-.15-.61S646,270.15,646,270.08Z"/><path class="cls-2" d="M610,270.16c.31.33.1.65-.06.95a35.35,35.35,0,0,0-3.59,9.51c-.67,3.41-.41,6.75,2.12,9.56a6.06,6.06,0,0,0,4.29,1.7c.78.07,1.58,0,2.38.08a1.26,1.26,0,0,1,1.31,1.37c0,.91-.09,1.81-.14,2.71-.18,3.67-.34,7.35,1.06,10.87.47,1.17,1,2.33,1.55,3.45,2.74,5.33,3.16,10.95,2.42,16.74a12.89,12.89,0,0,1-.58,3.08c-.11.29-.17.74-.54.69s-.26-.51-.22-.8a33.11,33.11,0,0,0-1.08-13.89c-.79-2.76-1.76-5.46-2.59-8.2a51.35,51.35,0,0,1-2-10.26c-.06-.77-.49-1.11-1.13-1.5-1.7-1-3.73-1.34-5.38-2.58-3.73-2.79-4.75-6.05-3.94-10.15.93-4.7,3.36-8.89,5.72-13.06A.41.41,0,0,1,610,270.16Z"/><path class="cls-2" d="M699.49,394a8.47,8.47,0,0,0,2.38,1.42c1.75,1,3.27,2.29,5.09,3.14a2.64,2.64,0,0,1,.29.15c.44.3,1.11.68.9,1.15s-.95.16-1.45.08a13,13,0,0,1-3.7-1.68c-.55-.27-1.27-.91-1.74-.38s.14,1.26.55,1.76a4.41,4.41,0,0,1,.85,1.9c.05.23.19.51-.1.65s-.47-.12-.64-.29a12.91,12.91,0,0,1-2.26-3c-.16-.31-.24-.68-.56-.89s-.69-.62-1.14-.45-.15.63-.15.94c0,.91-.62,1.27-1.36,1.37a8.4,8.4,0,0,1-5-.66,12.52,12.52,0,0,0-6.21-1.51,12.49,12.49,0,0,1-6-1.53,4.51,4.51,0,0,1-2.45-3.51c0-.18,0-.37.15-.46s.34.05.47.16a1,1,0,0,1,.22.23c1.6,2.64,4.3,3.43,7.14,3.73a25.25,25.25,0,0,1,6.76,2,7.41,7.41,0,0,0,4.56.4c.27-.06.62-.09.62-.47s-.3-.36-.53-.46L693,396.28a15.69,15.69,0,0,1-3.78-3c-.6-.53,0-.9.53-1.16,1.43-.76,3-.57,4.55-.76.6-.07,1.24.06,1.84,0,3-.51,5.34,1,7.76,2.47a9.47,9.47,0,0,0,6.07,1.38c.33,0,.59-.05.71.27s-.08.62-.42.72a6.81,6.81,0,0,1-3.3.29,23.82,23.82,0,0,1-5.8-2.22A1.65,1.65,0,0,0,699.49,394Z"/><path class="cls-2" d="M556.92,299.54a2.89,2.89,0,0,0-1.43,3.09,5.78,5.78,0,0,1-1,4.13,7.21,7.21,0,0,1-.53-3.08c0-.57.31-1.46-.3-1.62s-.8.73-1.08,1.23a14.82,14.82,0,0,1-2.83,3.68c-.31.28-.69.75-1.08.5s0-.76.18-1.09c1.51-2.58,2.81-5.28,4.47-7.78a2.6,2.6,0,0,0,.24-.47c.08-.19.21-.42,0-.57s-.43,0-.57.17a7.4,7.4,0,0,0-1.12,1.4,20,20,0,0,1-3.15,4.23,12.19,12.19,0,0,1-2.61,1.84.57.57,0,0,1-.79-.08c-.26-.4.17-.5.42-.69a17.94,17.94,0,0,0,4.14-4.76,33.33,33.33,0,0,1,2-3.44,9.43,9.43,0,0,1,2.75-2,33.2,33.2,0,0,1,5.15-2.87,4,4,0,0,1,1.35-.34c.79,0,1.15.29,1.07,1.06a4.93,4.93,0,0,1-.54,1.58,24.24,24.24,0,0,1-3.31,5.14,6.37,6.37,0,0,0-.58.88.59.59,0,0,0,.11.77c.23.19.48.07.71,0a8.93,8.93,0,0,0,3.34-2.61c.85-1,1.67-2.1,2.49-3.16a19.14,19.14,0,0,1,3.61-3.11,13.86,13.86,0,0,0,3.46-4.08c.49-.85.13-1.87.45-2.78.09-.27,0-.73.42-.71s.39.43.47.73c.73,2.85-.64,5-2.66,6.75-1.48,1.3-3.24,2.31-4.76,3.57a20.73,20.73,0,0,0-2.21,2.55c-.67.78-1.33,1.57-2,2.31a10.17,10.17,0,0,1-2.8,1.54c-.57.31-1.36-.33-1.45-1C556.94,300.15,557.13,299.87,556.92,299.54Z"/><path class="cls-2" d="M644.13,396.41a7,7,0,0,0,3.41-3.75,36.18,36.18,0,0,1,2.39-5.37c1.53-2.7,4.28-3.11,6.55-.87a30.39,30.39,0,0,0,7,5.44,9.64,9.64,0,0,0,3.46.72A7.63,7.63,0,0,1,671.2,394c.18.15.47.33.34.59s-.52.19-.76.09a28.18,28.18,0,0,0-6.33-1.69,11.43,11.43,0,0,1-4-2.07c-1.43-.93-2.78-2-4.17-3-2-1.41-3.73-1-5.06,1-1,1.45-1.52,3.07-2.4,4.55a7.29,7.29,0,0,1-3.66,2.94.87.87,0,0,1-.43,0C644.63,396.52,644.49,396.48,644.13,396.41Z"/><path class="cls-2" d="M631.22,232.66c-.2,1.92-.12,4.38-1,6.73a9.37,9.37,0,0,1-.36.87.45.45,0,0,1-.51.3c-.26-.06-.29-.29-.31-.5a12,12,0,0,1,.23-2.81c.41-4,.43-7.95-1.49-11.69-.18-.36-.63-1-.2-1.22s1,.28,1.32.66C630.37,226.55,631.23,229.28,631.22,232.66Z"/><path class="cls-2" d="M650.55,246.51a2.5,2.5,0,0,1-1.46.74,20.93,20.93,0,0,0-8,3,39.36,39.36,0,0,0-4.23,3.19,3.22,3.22,0,0,1-.62.42.76.76,0,0,1-.9-.12c-.24-.25-.11-.51,0-.77a8.24,8.24,0,0,1,2.3-2.44,13.31,13.31,0,0,1,3.62-2.22,24.52,24.52,0,0,1,6.24-2A6.79,6.79,0,0,1,650.55,246.51Z"/><path class="cls-2" d="M709.44,394.37a4.68,4.68,0,0,1-3.28-.72,46.09,46.09,0,0,1-4.54-2.92c-.28-.22-.55-.44-.82-.68a6.24,6.24,0,0,0-2.19-1.31c-2.89-.93-5.9-1.51-8.7-2.71-.57-.24-1.28-.15-1.75-.67a35.13,35.13,0,0,1,6.23,1.07,14.27,14.27,0,0,0,3.15.7c2.1.16,3.51,1.36,4.87,2.64a32.74,32.74,0,0,0,6.49,4.29Z"/><path class="cls-2" d="M545.62,302.86c.44-.78.78-1.45,1.2-2.08a31.14,31.14,0,0,0,3.08-6.43,6.64,6.64,0,0,1,1.49-2.52q4.36-4.18,8.75-8.34c.18-.18.34-.62.65-.33s0,.57-.25.8c-2.21,2.29-4.43,4.57-6.62,6.87-.56.59-1.27,1-1.79,1.66-1.34,1.68-1.87,3.74-2.91,5.56a40.35,40.35,0,0,1-2.6,4.21A1.23,1.23,0,0,1,545.62,302.86Z"/><path class="cls-2" d="M673.35,181.37a2,2,0,0,0-.07-.23,1.42,1.42,0,0,0-.21-.43,4.54,4.54,0,0,0-1.74-1.28c-.31-.14-.59-.25-.79-.33l-.32-.11a.92.92,0,0,0-.11.11s-.05.09-.08.14l-.1.18a1.36,1.36,0,0,0,.21,1.2,7.23,7.23,0,0,0,.66.83c.26.29.56.59.8.85l.65.65.27.26.07-.05.16-.17.21-.25c0-.05.08-.1.11-.16l.09-.17c.06-.13.11-.26.16-.39a3.13,3.13,0,0,0,0-.43A1.62,1.62,0,0,0,673.35,181.37Z"/><path class="cls-2" d="M667.71,178.53l-.55,0h-.59c-.2,0-.41,0-.61,0l-.3,0-.14,0-.15,0a3.06,3.06,0,0,0-.56.13l-.26.08-.26.08-.47.18-.44.18-.19.08-.18.08-.29.13-.1,0-.09,0-.07,0,.56.07c.33,0,.79.09,1.33.13l.41,0h.41l.85,0h.81l.7-.08c.86-.14,1.22-.44,1.34-.7a.67.67,0,0,0,.07-.18.66.66,0,0,0,0-.15.59.59,0,0,0,0-.14,2.89,2.89,0,0,0-.34,0C668.35,178.59,668.05,178.55,667.71,178.53Z"/><path class="cls-2" d="M670.83,182.84a1,1,0,0,0-.14-.37,2.68,2.68,0,0,0-.27-.34,3.82,3.82,0,0,0-.72-.55l-.35-.21-.31-.15-.29-.13,0,0-.06,0-.08,0a2.78,2.78,0,0,0-.4.25l-.1.1-.1.09a1.3,1.3,0,0,0-.18.23l-.06.14a.78.78,0,0,0-.05.14.89.89,0,0,0,0,.33,1.25,1.25,0,0,1,0,.19c0,.06,0,.12,0,.19a4,4,0,0,0,.15.4,1,1,0,0,0,0,.1l0,.11.09.2.18.38a1.5,1.5,0,0,0,.09.18l.08.17.14.27.13.25.39-.16a5.36,5.36,0,0,0,.83-.45l.11-.07.1-.08.19-.16.18-.17.08-.09a.61.61,0,0,0,.07-.1,1.54,1.54,0,0,0,.2-.38,1.29,1.29,0,0,0,0-.19C670.84,183,670.83,182.91,670.83,182.84Z"/><path class="cls-2" d="M667.15,180.6l-.39-.08-.5-.09c-.37-.06-.8-.11-1.25-.14l-.33,0h-1.06l-.7.05-.67.08-.33.05-.32,0-.3.06-.14,0-.15,0-.5.09-.11,0-.11,0-.19,0-.36.08.56.11.62.12.78.14.88.13.46.06.47,0,.9.07c.3,0,.59,0,.84,0a3.6,3.6,0,0,0,1.91-.44,1,1,0,0,0,.28-.28s0,0,0-.05,0,0,0,0v0A3.35,3.35,0,0,0,667.15,180.6Z"/><path class="cls-2" d="M667.43,183.8l-.08-.16a1.85,1.85,0,0,0-.47-.54,2.83,2.83,0,0,0-.52-.37l-.24-.14a4.24,4.24,0,0,0-.84.23,2.87,2.87,0,0,0-.66.32l-.15.11-.14.12a1.21,1.21,0,0,0-.21.28,1.34,1.34,0,0,0-.16.45.8.8,0,0,0,0,.15l0,.15,0,.3c0,.2,0,.4,0,.57s0,.31,0,.41a1.15,1.15,0,0,0,0,.17l.76-.16.36-.09.38-.11a6.55,6.55,0,0,0,.78-.28,4.08,4.08,0,0,0,.81-.42,1.33,1.33,0,0,0,.46-.5.76.76,0,0,0,.05-.33A1,1,0,0,0,667.43,183.8Z"/><path class="cls-2" d="M664.64,182c-.21-.06-.52-.15-.89-.23s-.81-.18-1.28-.25l-.36-.05-.38,0c-.25,0-.51-.05-.78-.06h-1.74l-.55,0h-.46l-.44,0-.38,0-.35,0-.5,0h-.18l.1,0,.29.08,1,.27.69.16.76.17.8.15.41.07.4.06c.41,0,.82.1,1.19.13s.54,0,.78,0h.35a2.72,2.72,0,0,0,.31,0,5,5,0,0,0,.92-.18,1.66,1.66,0,0,0,.6-.31Z"/><path class="cls-2" d="M674.69,180.76a1.23,1.23,0,0,0,0-.2s0-.08,0-.12a.49.49,0,0,1,0-.12,3.76,3.76,0,0,0-.1-.53,3.42,3.42,0,0,0-.34-.73,4.37,4.37,0,0,0-.61-.7,2.76,2.76,0,0,0-.25-.21l-.28-.19a5.36,5.36,0,0,0-.57-.34l-.57-.28-.55-.22c-.35-.13-.65-.22-.86-.28a2.75,2.75,0,0,0-.34-.09.42.42,0,0,0,0,.13V177a1.83,1.83,0,0,0,0,.21c0,.07,0,.16.09.26l.07.14s.05.1.08.16a2.08,2.08,0,0,0,.25.34l.17.19.19.2c.19.17.42.37.68.56s.63.49,1,.73l.25.18.23.17.44.31.7.48.2.14.07,0v0a.45.45,0,0,0,0-.08A1.55,1.55,0,0,0,674.69,180.76Z"/><path class="cls-2" d="M670,177.48a.51.51,0,0,0,0-.13l0-.28V177a.24.24,0,0,0,0-.08.83.83,0,0,0,0-.15c0-.1-.05-.21-.08-.31s0-.11,0-.17a1.11,1.11,0,0,1-.07-.16c0-.11-.08-.23-.13-.34l-.18-.35-.09-.18-.1-.18-.23-.36,0-.09-.07-.09-.13-.18c-.09-.12-.17-.24-.26-.35l-.29-.36c-.18-.23-.41-.45-.61-.66a1.07,1.07,0,0,0-.14-.16l-.16-.16c-.11-.1-.21-.19-.3-.29s-.4-.36-.57-.51l-.46-.39-.43-.35-.11-.09-.33-.25-.53-.4-.74-.51-.2-.14-.23-.15-.48-.31-.25-.16-.27-.16-.56-.34-.14-.09-.16-.09-.3-.17-.63-.36-.66-.35a2.21,2.21,0,0,0-.34-.18l-.34-.18-.7-.36-.35-.17-.36-.17-.36-.17-.35-.17-.72-.33c-.94-.42-1.86-.81-2.66-1.13l-.3-.12-.28-.11-.53-.2-.87-.33-.77-.28-.2-.07-.57-.2-.9-.31L649,163l-.29-.09-.62-.2-.34-.11-.35-.11-.73-.22-.39-.12-.39-.11-.83-.24-.42-.11-.43-.12-.88-.23-.22-.06-.22-.06-.45-.11-.91-.23-.91-.2-.45-.11-.23-.05-.22,0-.89-.19-.44-.09-.43-.08-.84-.17-.4-.07-.4-.07-.76-.14-.36-.06-.34-.05-.65-.11-.3,0-.28,0-.94-.13-.6-.08-.22,0-.81-.09c-.26,0-.56-.07-.92-.1l-.56-.06-.31,0-.31,0c-.86-.07-1.86-.15-2.89-.19l-.79,0h-3.13l-.75,0-.72,0-.35,0H620l-.65.05-.32,0-.3,0-.57.06-.27,0-.25,0-.88.12-.65.12-.41.07-.14,0-.54.12c-.18,0-.36.08-.59.14s-.49.12-.74.2l-.4.12-.21.07-.2.07a8.6,8.6,0,0,0-.84.33l-.42.18-.4.2-.2.1-.09.05-.09.05-.36.22-.18.12-.16.11-.32.24-.27.24-.13.12-.13.12-.21.24-.1.12-.05.06,0,.06-.16.23-.07.11a.41.41,0,0,0-.07.11c-.07.14-.14.27-.19.39s0,.12-.07.17,0,.1,0,.14l-.09.28s0,.1-.05.29a1,1,0,0,1,0,.15.9.9,0,0,0,0,.18c0,.13,0,.27,0,.44s0,.08,0,.12a.59.59,0,0,1,0,.13,2.7,2.7,0,0,0,0,.28v.07a.24.24,0,0,1,0,.08s0,.1,0,.15a2.81,2.81,0,0,1,.08.31,1,1,0,0,0,.06.16l.06.17c.05.11.08.22.14.34l.17.35.09.18a1.74,1.74,0,0,0,.11.18l.22.36.06.09.06.09.13.18c.09.12.17.24.26.35l.3.35c.18.23.4.46.6.67l.15.16.16.15.3.3c.18.18.39.35.56.51l.46.39.43.35.11.09.34.25.53.4.73.51.21.14.23.15.48.31.25.16.27.16.56.34.14.09.15.09.31.17.62.36.67.35.33.18.35.18.69.35.36.18.36.17.35.17.36.17.72.32c.94.43,1.86.81,2.66,1.14l.29.12.28.11.54.2.86.33.77.28.2.07.58.2.9.31.27.09.29.09.62.2.33.11.35.11.74.22.38.12.4.11.82.23.42.12.43.12.88.23.22.06.23.06.45.11.9.22.91.21.46.11.22.05.23.05.88.19.44.09.43.08.84.16.41.08.39.07.76.13.36.07.34.05.65.1.3.05.28,0,.94.13.61.08.21,0,.81.1c.26,0,.57.07.92.1l.57.06.3,0,.32,0c.86.07,1.85.15,2.88.19l.79,0h3.13l.75,0,.72,0h.7l.65-.05.31,0,.3,0,.57-.06.27,0,.25,0,.88-.12.65-.12.42-.07.14,0,.54-.12c.17,0,.36-.08.58-.14s.49-.12.74-.2l.4-.12.21-.07.21-.07c.27-.1.57-.2.84-.33l.42-.18.39-.2.2-.1.1-.05.09-.06.36-.21.17-.12.16-.11.32-.24.27-.24.13-.12a.77.77,0,0,0,.13-.12l.21-.24.11-.12,0-.06,0-.06.15-.23.08-.11a.6.6,0,0,0,.06-.11l.2-.39a1.77,1.77,0,0,0,.06-.17c0-.05,0-.1,0-.14l.08-.28.05-.29s0-.09,0-.15a1,1,0,0,0,0-.18c0-.13,0-.28,0-.44A.49.49,0,0,0,670,177.48Zm-.33.49a1.1,1.1,0,0,1,0,.18l0,.15c0,.17,0,.28,0,.28l-.09.27a1.21,1.21,0,0,1-.05.14.58.58,0,0,1-.06.17l-.19.39-.07.11-.07.11c0,.07-.1.15-.16.22l0,.06-.05.06-.1.12-.22.24a1.36,1.36,0,0,1-.12.12l-.13.12L668,181l-.31.23a.91.91,0,0,0-.16.11l-.18.11c-.11.08-.23.15-.35.22l-.09,0-.1.06-.19.1-.39.19-.42.18c-.26.12-.56.22-.83.32l-.2.07-.21.07-.4.12c-.25.08-.5.14-.72.2s-.41.11-.59.14l-.53.11-.14,0-.41.08-.64.11-.87.12-.25,0-.27,0-.56.06a2.77,2.77,0,0,1-.3,0l-.31,0-.64.05h-.34l-.35,0-.71,0-.75,0h-3.09l-.78,0c-1,0-2-.12-2.85-.19l-.31,0a3,3,0,0,1-.31,0l-.56-.05-.91-.1-.8-.1-.21,0-.6-.08-.93-.13-.27,0-.3-.05-.64-.1-.34-.05-.36-.06-.75-.14-.39-.06-.4-.08-.83-.16-.43-.08-.43-.1-.88-.18-.22-.05-.22-.05-.45-.1-.9-.21-.89-.22-.45-.11-.22-.06-.22-.06-.87-.23-.43-.11-.41-.12-.82-.23-.39-.11-.38-.12-.73-.22-.34-.11-.33-.1-.62-.2-.28-.1-.27-.08-.89-.31-.57-.2-.2-.07-.76-.27-.86-.33-.52-.2-.28-.11-.29-.12c-.8-.31-1.7-.69-2.64-1.12l-.7-.32-.35-.16-.36-.17-.35-.17-.35-.17-.69-.35-.34-.18-.33-.18-.66-.35-.62-.35-.3-.17-.15-.09-.15-.09-.55-.33-.26-.16-.25-.16L615,173l-.22-.15-.21-.14c-.26-.18-.52-.35-.72-.5s-.38-.29-.53-.39l-.33-.26-.11-.08-.42-.35c-.14-.1-.28-.24-.46-.39s-.37-.32-.56-.5l-.3-.29-.15-.15-.15-.16c-.19-.21-.42-.43-.6-.66l-.29-.35-.25-.35-.13-.18-.07-.09,0-.09c-.08-.11-.15-.23-.22-.35a1.74,1.74,0,0,1-.11-.18l-.09-.17a3.78,3.78,0,0,0-.17-.35,3.42,3.42,0,0,1-.13-.34,1,1,0,0,1-.06-.16.64.64,0,0,1-.06-.16c0-.11,0-.21-.08-.31a.83.83,0,0,1,0-.15s0-.05,0-.08a.2.2,0,0,0,0-.07l0-.27s0-.09,0-.13,0-.09,0-.12,0-.31,0-.44a1.1,1.1,0,0,1,0-.18s0-.1,0-.15,0-.28,0-.28l.08-.27,0-.15a1,1,0,0,1,.06-.16l.2-.39a.6.6,0,0,1,.06-.11l.07-.11.16-.23,0-.06,0,0,.1-.12.21-.24a1.36,1.36,0,0,1,.12-.12l.13-.12.27-.24.32-.23.15-.11.18-.11.36-.22.08-.06.1,0,.2-.1.39-.2.41-.17c.27-.13.57-.22.84-.32l.19-.08.21-.06.4-.12c.25-.08.51-.14.73-.2s.41-.11.58-.14l.53-.12.14,0,.41-.07.64-.11.88-.12.25,0,.26,0,.57-.06.29,0,.31,0,.65,0h.34l.34,0,.71,0,.75,0h3.1l.77,0c1,0,2,.11,2.86.19l.31,0,.3,0,.56,0,.91.1.8.1.21,0,.6.08.93.14.28,0,.3,0,.64.1.34.06.35.06.75.13.39.07.4.08.83.16.43.08.43.09.88.19.22,0,.23.05.44.1.9.21.9.22.44.11.23.06.22.06.86.23.43.11.42.12.81.23.39.11.38.12.73.22.35.11.32.1.62.2.29.09.27.09.88.31.57.19.2.08.76.27.86.33.52.2.29.11.29.11c.79.32,1.7.7,2.63,1.12l.71.32.35.17.35.17.35.17.36.17.69.35.34.18.33.18.66.35.61.35.31.17.15.09.14.08.55.34.27.16.25.16.47.31.23.15.2.14.73.5c.2.15.37.29.52.39l.33.25.11.09.43.34c.14.11.28.24.45.4s.38.32.56.5l.3.29.16.15.14.16c.2.21.42.43.6.66l.29.35c.09.11.17.23.26.35l.13.18.06.09.06.08c.07.12.14.24.22.36l.1.18.09.17c.06.12.12.23.17.35l.14.33.06.17a1,1,0,0,1,.06.16,2.81,2.81,0,0,0,.08.31l0,.15a.25.25,0,0,1,0,.07.2.2,0,0,1,0,.07,2.36,2.36,0,0,0,0,.28s0,.09,0,.13a.49.49,0,0,1,0,.12Z"/><path class="cls-2" d="M662.92,184.13a2.15,2.15,0,0,0-.37-.37l-.19-.14-.31,0-.33,0-.4.06-.45.09-.23.06-.23.07-.44.16-.21.11a2,2,0,0,0-.19.12,2.16,2.16,0,0,0-.33.27l-.15.15-.14.15a3.4,3.4,0,0,0-.25.31l-.11.15-.11.15c-.14.19-.26.36-.33.48l-.13.2h.18l.45,0,.67-.06.38,0,.4-.05c.27,0,.55-.08.82-.14s.52-.11.77-.18a4.11,4.11,0,0,0,.65-.22l.26-.13a1.07,1.07,0,0,0,.21-.13.74.74,0,0,0,.32-.56A1,1,0,0,0,662.92,184.13Z"/><path class="cls-2" d="M660.22,182.69q-.54-.16-1.26-.33a15.77,15.77,0,0,0-1.57-.29l-.87-.1-.43,0-.44,0-.85-.05-.8,0-.36,0h-.34l-.55,0h-.5l.52.19,1.33.43c.55.17,1.17.34,1.82.5s1.31.29,1.92.39l.45.06.41,0,.74,0h.32l.29,0,.5,0a3,3,0,0,0,.38-.06l.25-.07a.78.78,0,0,0,.2-.08l-.31-.12Z"/><path class="cls-2" d="M657.3,184.3a1,1,0,0,0-.13-.14h-.35c-.22,0-.53,0-.88,0h-.26l-.29,0a5.7,5.7,0,0,0-.58.06l-.3,0-.3.05a5.29,5.29,0,0,0-.57.15l-.54.19-.5.23-.24.11-.24.12-.43.23-.37.21-.29.16-.26.16.72,0,.36,0h1.34l1,0,.5,0,.24,0,.23,0c.31,0,.6-.08.86-.13l.19,0,.18-.05a1.58,1.58,0,0,0,.31-.09,1.89,1.89,0,0,0,.45-.21.81.81,0,0,0,.25-.23.57.57,0,0,0,.09-.46A1.14,1.14,0,0,0,657.3,184.3Z"/><path class="cls-2" d="M655.82,183.34l-.44-.18c-.33-.13-.74-.28-1.2-.42l-.35-.11-.38-.1-.83-.2c-.56-.12-1.2-.24-1.81-.32l-.23,0-.23,0-.45-.06-.43-.06-.42-.06-.75-.09-.32,0-.28,0-.54-.06.45.21.52.23.32.14.36.14c.5.2,1.09.42,1.71.62.31.1.62.2.94.28l.48.13.23.06.23.05c.31.07.61.13.89.17l.41.07.39,0,.69,0h.58c.35,0,.61,0,.79-.05l.2,0h.06l-.27-.13A2,2,0,0,0,655.82,183.34Z"/><path class="cls-2" d="M651.69,184.56a.59.59,0,0,0,0-.32.52.52,0,0,0-.05-.13s-.58-.09-1.35-.13c-.39,0-.84,0-1.3,0-.23,0-.47,0-.71,0s-.47,0-.71.07-.63.09-.94.16l-.56.12-.55.13-1,.25-.69.19-.26.08,1.15.14.56.07.62,0,.68.06.34,0,.34,0,.85,0h.8l.74,0,.32,0,.29,0a4.89,4.89,0,0,0,.62-.14,1.81,1.81,0,0,0,.41-.17A.85.85,0,0,0,651.69,184.56Z"/><path class="cls-2" d="M650.9,183.43c-.15-.09-.37-.22-.66-.36s-.65-.31-1.07-.47l-.16-.06-.17-.07-.36-.13-.79-.24c-.82-.24-1.78-.46-2.66-.65l-.29-.06-.28-.06-.53-.11-.49-.1L643,181l-.86-.17.27.16c.17.1.42.25.74.42l.52.27.61.28.68.3.35.15.37.14c.38.14.77.27,1.16.39s.59.17.88.23.56.13.82.17c.51.09,1,.14,1.36.18a10,10,0,0,0,1.2,0Z"/><path class="cls-2" d="M644.77,184.22a1.68,1.68,0,0,0,.62-.3.51.51,0,0,0,.21-.39l-.4-.08-.44-.08-.57-.08c-.42-.06-.9-.12-1.41-.16l-.79,0h-.82l-.84,0-.84.06c-.55,0-1.08.1-1.56.15l-1.18.12-.47.06.79.16.86.16L639,184l.57.09.3,0,.3,0,1.2.13.57.05.55,0,.51,0h.47A6,6,0,0,0,644.77,184.22Z"/><path class="cls-2" d="M644.65,182.5c-.24-.15-.54-.32-.91-.51a12,12,0,0,0-1.34-.57c-.26-.1-.54-.2-.83-.29l-.44-.14-.23-.07-.22-.07-.9-.27-.44-.12-.42-.12-.39-.11-.37-.1-.6-.17-.56-.14.29.22c.19.15.47.35.82.58l.14.09.14.09.31.18q.31.2.69.39l.37.19.4.18.82.35.21.07.2.08.42.13c.27.08.54.16.8.22.52.13,1,.22,1.41.29l.54.07.41,0,.35,0-.16-.14A4.64,4.64,0,0,0,644.65,182.5Z"/><path class="cls-2" d="M637.34,182.81a3.58,3.58,0,0,0,.86-.18,1.39,1.39,0,0,0,.39-.22.38.38,0,0,0,.09-.1l-.39-.1-.44-.11-.58-.14-.68-.14-.78-.14-.84-.12-.9-.1-1-.06-1,0-.94,0-.88,0H628.4l.2.06.57.16.86.23c.33.08.69.18,1.07.26l1.2.27.3.06.32.06.62.12.6.1.3,0,.29,0c.38.05.74.09,1.06.11l.46,0h.41Z"/><path class="cls-2" d="M638.27,181.35a5.26,5.26,0,0,0-.69-.53,10.71,10.71,0,0,0-1.13-.63l-.74-.33-.4-.17-.42-.16c-.56-.21-1.12-.43-1.63-.61l-.36-.14-.34-.12-.57-.2-.38-.14-.13,0a1.58,1.58,0,0,0,.17.23l.1.12.12.13c.09.1.2.2.33.32a5.5,5.5,0,0,0,.42.37,6.08,6.08,0,0,0,.53.39,7.36,7.36,0,0,0,.62.4c.22.13.45.26.69.38s.49.23.75.33l.75.27c.25.08.49.16.72.22l.66.17.56.12.42.08.38,0a.67.67,0,0,0-.09-.14A2.47,2.47,0,0,0,638.27,181.35Z"/><path class="cls-2" d="M629.4,181l.45,0a7.05,7.05,0,0,0,.76,0l.6,0,.24,0,.22,0a3.3,3.3,0,0,0,.54-.15l.16-.08-.37-.13-.2-.06-.23-.07-.55-.18-.68-.18-.77-.2-.86-.18-.93-.17-1.36-.19-.86-.11-.43,0-.21,0-.21,0-1.53-.16-1.12-.1-.43,0,.29.1.34.13.46.16,1.18.39.34.1.35.11.73.21.46.13.47.12.93.23.45.1.45.09.83.15Z"/><path class="cls-2" d="M632.46,179.86l-.18-.24a3.69,3.69,0,0,0-.28-.28,6.29,6.29,0,0,0-.88-.65,21.91,21.91,0,0,0-2-1l-.46-.22-.22-.1-.11-.05-.1-.05-.75-.34-.16-.07-.14-.07-.22-.1-.2-.09,0,.15a.94.94,0,0,0,.06.18l0,.11s0,.07.06.11a3.55,3.55,0,0,0,.38.58,2.8,2.8,0,0,0,.29.32,3,3,0,0,0,.37.34,4.75,4.75,0,0,0,.69.51l.62.35c.23.11.45.22.68.31l.67.26c.22.08.43.14.63.2l.54.16.23.06.2.05.38.08a.56.56,0,0,0,0-.12A1.18,1.18,0,0,0,632.46,179.86Z"/><path class="cls-2" d="M622.44,178.56l.5.1.46.08c.3,0,.58.08.83.11a10.8,10.8,0,0,0,1.2,0,5.3,5.3,0,0,0,.68-.08.91.91,0,0,0,.21-.05l-.33-.14c-.21-.09-.51-.22-.9-.36l-.3-.11-.33-.12-.74-.24-.4-.13-.22-.06-.22-.06c-.29-.08-.6-.16-.93-.23l-.51-.12-.51-.11-1.07-.21-1.05-.19-1-.18-1.58-.27-.64-.11.65.3.34.15.4.16.93.39.13,0,.13.05.27.1.56.2.57.21.59.19c.39.13.79.25,1.17.36Z"/><path class="cls-2" d="M626.72,177.53a2.61,2.61,0,0,0-.24-.3,3,3,0,0,0-.36-.34,19.32,19.32,0,0,0-2.24-1.47l-.53-.31-.23-.14-.19-.11-.39-.23a.91.91,0,0,0,0,.19.69.69,0,0,0,0,.22.56.56,0,0,0,0,.13.76.76,0,0,0,0,.15,2.61,2.61,0,0,0,.08.33,2.3,2.3,0,0,0,.16.37,4.56,4.56,0,0,0,.27.39l.18.2.2.19c.15.12.32.25.49.36l.14.09.14.08a2.69,2.69,0,0,0,.29.16l.58.29.29.12.28.12c.37.14.69.25.92.32l.37.11a.37.37,0,0,0,0-.11.76.76,0,0,0,0-.32A1.21,1.21,0,0,0,626.72,177.53Z"/><path class="cls-2" d="M620.05,176.1l-.33-.18-.21-.1-.23-.12-.56-.26-.66-.28-.78-.3-.43-.15-.46-.15-1-.29-.26-.07-.26-.08-.52-.14-1.05-.28-.51-.13-.48-.12-1.59-.4-.63-.16.13.09.17.1.23.13.62.35.37.2.43.22.94.46,1,.46.53.21.54.21c.36.13.71.25,1,.35.68.2,1.28.34,1.8.44.25,0,.5.08.72.1s.41,0,.59,0c.35,0,.62,0,.79,0l.28,0Z"/><path class="cls-2" d="M621.53,175.39a.29.29,0,0,0,0-.13,1.24,1.24,0,0,0-.26-.61,4.34,4.34,0,0,0-.31-.36l-.19-.19-.21-.19-.21-.19a.52.52,0,0,1-.11-.1l-.06,0,0-.05-.43-.36c-.15-.11-.27-.22-.39-.32l-.32-.25-.07,0-.06-.05-.08-.07-.08-.06a1.14,1.14,0,0,0-.18.15l-.16.18a1.4,1.4,0,0,0-.15.24,1.28,1.28,0,0,0-.13.29,1.15,1.15,0,0,0,0,.33,1,1,0,0,0,0,.17s0,.06,0,.09l0,.09a1.41,1.41,0,0,0,.18.37,1.33,1.33,0,0,0,.14.19,1.45,1.45,0,0,0,.18.17,4.78,4.78,0,0,0,.42.34,5.46,5.46,0,0,0,.47.31l.48.26.23.11.22.1.37.16.34.13.12-.09a1,1,0,0,0,.22-.26.66.66,0,0,0,.06-.2A.45.45,0,0,0,621.53,175.39Z"/><path class="cls-2" d="M615.43,173.59l-.12-.09-.14-.1-.36-.23-.47-.28-.27-.15-.3-.16-.69-.32c-.25-.12-.51-.23-.8-.35l-.61-.23-.16-.06-.16-.06-.32-.11-.83-.29-.83-.28-1.52-.51-.33-.11-.3-.09-.48-.16-.43-.14.16.13a4.94,4.94,0,0,0,.45.36l.72.51.45.29.5.3.31.19.34.19.7.36.36.18.36.16.72.3.46.17.45.15c.29.09.57.17.83.23l.72.16c.22,0,.43.08.62.1a8,8,0,0,0,.87.09h.31Z"/><path class="cls-2" d="M617.6,172.61a.41.41,0,0,0,0-.15,3.43,3.43,0,0,0-.59-1.05l-.17-.23c-.06-.07-.13-.14-.18-.21s-.2-.26-.29-.37a.79.79,0,0,1-.12-.15l-.09-.11-.08-.09a1.33,1.33,0,0,0-.21.08l-.21.1-.25.13a3.47,3.47,0,0,0-.51.37,2.12,2.12,0,0,0-.2.24,1.57,1.57,0,0,0-.14.25l0,.11,0,.05v0a.53.53,0,0,0,0,.22.89.89,0,0,0,.13.34,2.2,2.2,0,0,0,.28.34l.16.15.18.15.38.27.37.23.17.09.15.08.3.14a.73.73,0,0,0,.19-.06,1.76,1.76,0,0,0,.38-.2,1.06,1.06,0,0,0,.33-.37.55.55,0,0,0,.07-.25A.38.38,0,0,0,617.6,172.61Z"/><path class="cls-2" d="M611.77,171a3.73,3.73,0,0,0-.44-.42c-.22-.17-.47-.38-.81-.6a13.09,13.09,0,0,0-1.26-.72l-.4-.2-.41-.19-.89-.4-.9-.38-.86-.37-1.38-.57-.56-.23.26.32.14.16.19.2.45.44a12.42,12.42,0,0,0,2.85,1.93c.28.14.54.25.81.36s.53.2.78.28c.5.16.95.27,1.33.36s.7.12.91.15l.33,0A1.21,1.21,0,0,0,611.77,171Z"/><path class="cls-2" d="M614.83,169.91a1.29,1.29,0,0,0,0-.33.29.29,0,0,0,0-.09s0-.05,0-.08a.85.85,0,0,0,0-.17c0-.12-.08-.23-.1-.33s-.14-.39-.18-.52a1.4,1.4,0,0,0-.08-.22l-.36.08-.39.09-.23.06-.23.07-.45.17-.23.11-.1.05-.1.06a2.1,2.1,0,0,0-.33.26l-.12.13a.55.55,0,0,0-.08.15.73.73,0,0,0,.07.62,2.07,2.07,0,0,0,.47.57,5.69,5.69,0,0,0,.52.4l.25.16.25,0a4.26,4.26,0,0,0,.53-.14,2,2,0,0,0,.58-.29,1.07,1.07,0,0,0,.22-.2.76.76,0,0,0,.15-.26.83.83,0,0,0,0-.15Z"/><path class="cls-2" d="M602.94,164.17c0,.09.08.2.14.33a1.24,1.24,0,0,0,.1.2,1.79,1.79,0,0,0,.13.22,5.62,5.62,0,0,0,.32.47q.21.26.45.51l.25.25.29.24a6.62,6.62,0,0,0,.62.46,10,10,0,0,0,1.37.71l.33.13.33.12c.21.07.41.14.6.19.37.11.68.18.9.23l.34.07a.34.34,0,0,0-.05-.15,2.27,2.27,0,0,0-.23-.4,2.42,2.42,0,0,0-.22-.28l-.15-.16-.15-.16a5.26,5.26,0,0,0-.41-.35l-.26-.19a3.39,3.39,0,0,0-.28-.2c-.39-.27-.9-.56-1.38-.84l-.76-.42-.37-.21-.35-.19-1.18-.63-.35-.19-.12-.06a.31.31,0,0,1,0,.07C602.88,164,602.91,164.07,602.94,164.17Z"/><path class="cls-2" d="M613.56,166.06h-.34c-.27,0-.65.05-1.06.11a9.4,9.4,0,0,0-1.22.23,2.91,2.91,0,0,0-.93.4l-.15.12a1,1,0,0,0-.08.14.7.7,0,0,0-.08.27.66.66,0,0,0,0,.14l0,.13a2.1,2.1,0,0,0,.13.26,2,2,0,0,0,.33.4,1.14,1.14,0,0,0,.18.15,2.2,2.2,0,0,0,.29,0l.68-.06.4-.07.21,0,.2-.06a2.74,2.74,0,0,0,.38-.15,1,1,0,0,0,.17-.1l.15-.11a1.18,1.18,0,0,0,.25-.25.64.64,0,0,0,.08-.14.8.8,0,0,0,.09-.14,1.94,1.94,0,0,0,.13-.3c0-.1.07-.2.1-.29l0-.13a.56.56,0,0,0,0-.12,1.15,1.15,0,0,0,.06-.21.42.42,0,0,1,0-.14.12.12,0,0,1,0,0Z"/><path class="cls-2" d="M613.77,164.31l-.92,0H612l-.31,0a11.79,11.79,0,0,0-1.21.13,5.92,5.92,0,0,0-.75.18l-.23.1a.69.69,0,0,0-.17.1,1.06,1.06,0,0,0-.24.23l-.08.12,0,.12a1.85,1.85,0,0,0,0,.23,1.17,1.17,0,0,0,.05.2.87.87,0,0,0,.09.17.62.62,0,0,0,.1.15l.33,0c.2,0,.47,0,.78,0l.48,0,.52,0,.5-.1.24-.06.11,0,.12,0a2.44,2.44,0,0,0,.58-.3,3,3,0,0,0,.47-.35,2.59,2.59,0,0,0,.34-.3l.07-.07.08-.06.13-.12.16-.18.07-.07Z"/><path class="cls-2" d="M604.8,161.42a1.72,1.72,0,0,0,.21.43,4.59,4.59,0,0,0,1.75,1.29l.78.33.33.11a.51.51,0,0,0,.1-.12.73.73,0,0,0,.09-.13,1.11,1.11,0,0,0,.09-.19A1.33,1.33,0,0,0,608,162a8.45,8.45,0,0,0-.67-.84c-.25-.28-.56-.58-.79-.84l-.66-.65-.26-.26-.07,0a1.36,1.36,0,0,0-.16.17,3,3,0,0,0-.21.25.91.91,0,0,0-.11.16.56.56,0,0,0-.09.17,3.2,3.2,0,0,0-.16.39,3.15,3.15,0,0,0,0,.43.82.82,0,0,0,0,.22A.79.79,0,0,0,604.8,161.42Z"/><path class="cls-2" d="M615.07,162.83c-.33,0-.8-.09-1.33-.13l-.41,0-.21,0h-.21l-.84,0h-.82c-.25,0-.48,0-.7.08-.85.13-1.21.43-1.34.7a.43.43,0,0,0-.06.18.38.38,0,0,0,0,.15.59.59,0,0,0,0,.14l.34,0c.22,0,.52.07.86.09l.54,0h.6q.3,0,.6,0l.3,0,.14,0,.15,0a4.76,4.76,0,0,0,.57-.13l.25-.08.27-.08.47-.18.43-.18.19-.08.18-.08.29-.13.11-.05.08,0,.07,0Z"/><path class="cls-2" d="M610.41,159.93a1.62,1.62,0,0,0,0-.19c0-.13-.09-.26-.14-.4l-.05-.11,0-.1c0-.06,0-.13-.08-.2l-.19-.39-.09-.18-.08-.16c-.05-.1-.09-.2-.13-.27a2.55,2.55,0,0,0-.14-.25s-.15,0-.39.16a4.88,4.88,0,0,0-.82.45l-.12.07-.1.08-.19.16-.18.17-.08.09-.07.09a2.4,2.4,0,0,0-.2.39.63.63,0,0,0,0,.19,1.34,1.34,0,0,0,0,.2,1.2,1.2,0,0,0,.13.36,2.26,2.26,0,0,0,.28.35,4.1,4.1,0,0,0,.71.55l.36.21.3.15.29.13.06,0,.05,0,.08,0a1.37,1.37,0,0,0,.4-.25.28.28,0,0,0,.1-.09l.11-.09a.81.81,0,0,0,.17-.24.31.31,0,0,0,.06-.13l.06-.14a1.17,1.17,0,0,0,0-.33A1.25,1.25,0,0,0,610.41,159.93Z"/><path class="cls-2" d="M610.93,162l.39.08.51.09c.37.05.79.11,1.24.14l.34,0,.34,0q.36,0,.72,0l.69,0,.68-.08.33-.05.31,0,.3-.06.14,0,.15,0a5.13,5.13,0,0,0,.51-.1l.11,0,.11,0,.19,0,.35-.08-.55-.11-.63-.13-.78-.13-.88-.13-.46-.06-.47,0c-.3,0-.6-.05-.9-.06s-.59,0-.83,0a3.64,3.64,0,0,0-1.92.44,1.44,1.44,0,0,0-.28.28l0,0,0,0v0Z"/><path class="cls-2" d="M610.66,158.77a1,1,0,0,0,.07.15,1.91,1.91,0,0,0,.47.55,3.72,3.72,0,0,0,.52.37l.25.14a4.06,4.06,0,0,0,.83-.23,2.87,2.87,0,0,0,.66-.32l.15-.11.14-.12a.94.94,0,0,0,.21-.28,1.74,1.74,0,0,0,.17-.45l0-.15a.77.77,0,0,1,0-.15c0-.1,0-.2,0-.3s0-.4,0-.57a2.76,2.76,0,0,0,0-.41v-.17l-.77.16-.35.09-.38.11a6.51,6.51,0,0,0-.78.27,4.08,4.08,0,0,0-.81.43,1.23,1.23,0,0,0-.46.49.7.7,0,0,0-.06.34A1.1,1.1,0,0,0,610.66,158.77Z"/><path class="cls-2" d="M603.47,162.78a3.66,3.66,0,0,0,.34.73,4.37,4.37,0,0,0,.61.7,1.79,1.79,0,0,0,.26.2l.27.2.57.34q.29.15.57.27c.19.09.38.16.55.23.35.13.65.22.87.28l.34.09a.42.42,0,0,0,0-.13,1,1,0,0,0,0-.16.82.82,0,0,0,0-.21,1.86,1.86,0,0,0-.08-.26s0-.09-.07-.14-.05-.11-.08-.16a3.25,3.25,0,0,0-.25-.34l-.17-.19c-.06-.06-.12-.13-.2-.2a8.24,8.24,0,0,0-.67-.56c-.3-.24-.64-.49-1-.73l-.25-.18-.23-.17-.44-.31-.69-.48-.2-.14-.07-.05a0,0,0,0,0,0,0,.22.22,0,0,0,0,.08c0,.07,0,.17-.05.29s0,.13,0,.2a.41.41,0,0,0,0,.11.62.62,0,0,0,0,.13A3.92,3.92,0,0,0,603.47,162.78Z"/><path class="cls-2" d="M615.17,158.44a2.12,2.12,0,0,0,.36.37l.19.14.31,0,.33,0,.41-.07.45-.08.23-.06.22-.07a3,3,0,0,0,.45-.17l.2-.1.19-.12a1.84,1.84,0,0,0,.34-.27l.14-.15.14-.15a2.27,2.27,0,0,0,.25-.31,1.67,1.67,0,0,0,.12-.16l.11-.14c.14-.19.25-.36.33-.49l.12-.19h-.17l-.46,0-.66.05-.39,0-.39.05-.83.13-.76.19a4.11,4.11,0,0,0-.65.22,2.09,2.09,0,0,0-.26.13.84.84,0,0,0-.21.13.74.74,0,0,0-.32.56A.85.85,0,0,0,615.17,158.44Z"/><path class="cls-2" d="M625.31,160.64l-1.32-.43c-.56-.17-1.18-.34-1.83-.5s-1.31-.29-1.92-.39l-.44-.06-.41,0-.75,0H618l-.5,0-.37.07-.26.07-.2.07.31.12c.2.08.49.18.85.29s.78.22,1.26.33,1,.21,1.58.29l.86.1.44,0,.44,0,.84.05.8,0,.36,0h.34l.55,0h.51Z"/><path class="cls-2" d="M620.79,158.27l.12.14h.35c.23,0,.53,0,.88,0l.27,0h.28a5.9,5.9,0,0,0,.59-.06l.29,0,.3,0a4.74,4.74,0,0,0,.57-.15c.18-.06.37-.12.54-.19s.35-.15.51-.23l.24-.12.23-.11.43-.23.37-.21.3-.17.26-.15-.72,0-.37,0H624.9q-.49,0-1,0l-.49,0-.25,0-.23,0-.86.12-.19,0-.17,0a2.26,2.26,0,0,0-.31.1,1.93,1.93,0,0,0-.45.2.83.83,0,0,0-.25.24.56.56,0,0,0-.1.45A.94.94,0,0,0,620.79,158.27Z"/><path class="cls-2" d="M622.26,159.23l.44.18c.33.13.74.28,1.2.42l.36.1.37.11.83.2c.57.12,1.21.24,1.81.32l.23,0,.23,0,.45.07.44.06.42.06.74.09.33.05.28,0,.54.07-.46-.21-.52-.23-.32-.14-.36-.15c-.49-.19-1.08-.41-1.7-.61l-.94-.29-.48-.12a2.1,2.1,0,0,0-.24-.06l-.23-.06-.89-.17-.41-.06-.39,0-.69,0h-.58c-.34,0-.61,0-.78,0l-.2,0h-.07l.27.13Z"/><path class="cls-2" d="M626.39,158a.59.59,0,0,0,0,.32.87.87,0,0,0,.06.13s.57.09,1.35.13c.39,0,.83,0,1.29,0l.71,0c.24,0,.48,0,.71-.07s.63-.1.94-.16l.57-.12.54-.14,1-.25.69-.19.27-.07-1.15-.15-.56-.06-.63,0-.67-.06-.35,0-.34,0-.85,0h-.8l-.73,0-.33,0-.29,0a5.84,5.84,0,0,0-.62.14,1.71,1.71,0,0,0-.4.17A.83.83,0,0,0,626.39,158Z"/><path class="cls-2" d="M627.19,159.14c.14.09.36.21.65.36s.65.3,1.08.47l.16.06.17.07.36.12c.24.09.51.17.79.25.82.24,1.77.46,2.66.65l.28.06.28.06.53.11.49.1.43.09.86.17-.26-.16-.75-.42-.52-.27-.61-.29-.67-.29-.36-.15-.37-.14c-.38-.14-.77-.28-1.16-.39s-.59-.17-.87-.23-.56-.13-.82-.17c-.52-.09-1-.15-1.37-.18a10,10,0,0,0-1.2,0Z"/><path class="cls-2" d="M621.55,161.08h.18l-.1,0-.29-.08-1-.27-.69-.17-.75-.16-.81-.15-.41-.07-.4-.06c-.41-.06-.81-.1-1.19-.13s-.54,0-.78,0h-.35a3,3,0,0,0-.31,0,4.26,4.26,0,0,0-.92.18,1.66,1.66,0,0,0-.59.31l.33.1.9.23c.37.09.81.17,1.27.25l.36.05.38,0c.26,0,.52.06.78.07h1.74l.56,0h.46l.43,0,.38,0h.35Z"/><path class="cls-2" d="M633.31,158.35a1.71,1.71,0,0,0-.61.3.59.59,0,0,0-.2.27.28.28,0,0,0,0,.12l.39.08.45.07.56.09c.42.06.9.12,1.41.16l.8.05h.82l.83,0,.84-.06c.55,0,1.09-.1,1.56-.15s.89-.09,1.19-.13l.47,0s-.3-.07-.8-.16l-.86-.16-1.06-.18-.58-.09-.3,0-.3,0-1.19-.13-.58-.05-.55,0-.51,0h-.46A6.06,6.06,0,0,0,633.31,158.35Z"/><path class="cls-2" d="M633.43,160.07c.24.15.54.32.91.51s.82.38,1.34.57c.27.1.55.2.84.29l.44.14.22.07.23.07.9.26.43.13.42.12.4.11.36.1.61.17.55.14-.29-.23c-.19-.14-.46-.34-.82-.57l-.13-.09-.15-.09-.3-.19-.69-.38-.38-.19-.39-.18-.82-.35-.21-.08-.21-.07-.41-.13-.81-.23c-.52-.12-1-.21-1.4-.28l-.55-.07-.41,0-.35,0,.16.14A5.9,5.9,0,0,0,633.43,160.07Z"/><path class="cls-2" d="M640.75,159.76a3.8,3.8,0,0,0-.87.18,2.06,2.06,0,0,0-.39.21.38.38,0,0,0-.09.1s.14.05.39.11l.44.11.58.14.69.14.77.14.85.12.9.1.94,0,1,.05.94,0,.88,0h2l-.21-.06-.57-.16-.86-.22-1.07-.27-1.19-.26-.31-.06-.31-.06-.62-.12-.61-.1-.29,0-.29,0-1.07-.12-.46,0h-.41Z"/><path class="cls-2" d="M639.81,161.22a6.31,6.31,0,0,0,.69.53,10.71,10.71,0,0,0,1.13.63l.75.33.4.16.41.17c.56.21,1.12.43,1.63.61l.37.14.33.12.57.2.38.14.14.05a2.69,2.69,0,0,0-.18-.23.94.94,0,0,0-.09-.12l-.13-.13-.32-.32-.43-.37c-.15-.13-.33-.26-.52-.4l-.62-.4-.7-.37c-.24-.12-.49-.23-.74-.33s-.51-.19-.76-.27-.49-.16-.72-.22l-.65-.17-.56-.12-.43-.08-.37-.05a.87.87,0,0,0,.08.14A4.57,4.57,0,0,0,639.81,161.22Z"/><path class="cls-2" d="M648.69,161.62l-.45-.05-.77,0-.6,0-.24,0-.21,0a3,3,0,0,0-.54.15.61.61,0,0,0-.16.08l.37.12.19.07.23.07.56.18.67.18.77.2.86.18.94.17,1.35.19.86.11.43,0,.21,0,.21,0,1.54.15,1.11.11.43,0-.29-.11-.34-.12-.46-.16-1.17-.39-.34-.1-.36-.11-.73-.21-.46-.13-.47-.12-.93-.23-.45-.1-.44-.09-.83-.15Z"/><path class="cls-2" d="M645.63,162.71a1.49,1.49,0,0,0,.18.24,2.3,2.3,0,0,0,.27.28,7,7,0,0,0,.88.65,22.16,22.16,0,0,0,2,1l.45.22.22.1.11,0,.11.05.74.34.16.07.14.07.22.1.2.09a1.1,1.1,0,0,0,0-.15l-.06-.18a1.17,1.17,0,0,1-.05-.11,1.34,1.34,0,0,1-.06-.12,4.18,4.18,0,0,0-.39-.57,2.86,2.86,0,0,0-.29-.33l-.36-.33a5.36,5.36,0,0,0-.69-.51l-.63-.36c-.22-.1-.45-.21-.68-.3s-.45-.18-.66-.26a6.46,6.46,0,0,0-.63-.2c-.2-.07-.38-.12-.54-.16l-.23-.07-.2,0-.38-.08a.56.56,0,0,0,0,.12A1,1,0,0,0,645.63,162.71Z"/><path class="cls-2" d="M655.65,164l-.5-.1-.47-.09-.82-.1a10.86,10.86,0,0,0-1.2,0c-.31,0-.54,0-.69.07l-.21.06.33.14c.21.09.52.22.9.36l.31.11.33.12.73.24.41.12.21.06.22.07c.29.08.6.16.94.23l.5.11.52.12,1.06.2,1.06.2,1,.18,1.59.27.63.11-.65-.3-.33-.15-.4-.17-.94-.38-.12,0-.14-.05-.27-.1-.56-.21-.57-.2-.58-.19-1.17-.36C656.37,164.18,656,164.09,655.65,164Z"/><path class="cls-2" d="M651.36,165a2,2,0,0,0,.25.3,2.86,2.86,0,0,0,.35.34,19.48,19.48,0,0,0,2.25,1.47l.52.31.23.13.2.12.39.22s0-.06.05-.18a1.38,1.38,0,0,0,0-.22.53.53,0,0,0,0-.13c0-.05,0-.1,0-.15a1.57,1.57,0,0,0-.08-.33,1.66,1.66,0,0,0-.16-.37,2.28,2.28,0,0,0-.27-.39c-.05-.07-.11-.13-.17-.2l-.21-.19a3.64,3.64,0,0,0-.49-.36l-.13-.09-.14-.08-.29-.16c-.2-.11-.4-.2-.59-.29l-.29-.13-.28-.11-.91-.32-.38-.11a.37.37,0,0,0-.05.11.62.62,0,0,0,0,.31A1.3,1.3,0,0,0,651.36,165Z"/><path class="cls-2" d="M660.14,166.46c-.26,0-.5-.08-.72-.1l-.59-.06a7.48,7.48,0,0,0-.8,0l-.27,0,.27.16.33.18.21.1.24.12.55.26.67.28.77.3.44.15.45.14,1,.3.25.07.26.08.53.14,1,.27.5.13.49.13,1.58.4.64.16-.14-.09-.17-.1-.23-.13-.62-.35-.37-.2-.42-.22-.94-.46-1.05-.46-.53-.22-.54-.2c-.36-.13-.71-.25-1-.35A17.12,17.12,0,0,0,660.14,166.46Z"/><path class="cls-2" d="M656.55,167.18v.13a1.29,1.29,0,0,0,.27.6,3,3,0,0,0,.3.37l.2.19.2.19.22.19.11.09,0,.05.06,0,.43.36.39.32.32.25.06.05.06,0,.09.07.08.06a1.52,1.52,0,0,0,.17-.15.93.93,0,0,0,.16-.18,1.43,1.43,0,0,0,.16-.24,1.51,1.51,0,0,0,.13-.29,1.66,1.66,0,0,0,0-.33c0-.06,0-.12,0-.18s0-.06,0-.09l0-.09a1.51,1.51,0,0,0-.18-.36,1.33,1.33,0,0,0-.14-.19,1,1,0,0,0-.18-.17,2.74,2.74,0,0,0-.41-.34,5.66,5.66,0,0,0-.48-.31l-.48-.26-.22-.11-.22-.1-.37-.16-.34-.13a.71.71,0,0,0-.13.09,1,1,0,0,0-.21.26.68.68,0,0,0-.07.2S656.55,167.14,656.55,167.18Z"/><path class="cls-2" d="M667.42,170l-.72-.3-.46-.16c-.15-.06-.3-.1-.45-.15s-.56-.17-.82-.23-.5-.12-.72-.16-.44-.08-.63-.1a7.74,7.74,0,0,0-.87-.09h-.31l.22.16.12.09.14.1.35.23.48.28.27.15.29.15c.21.11.44.22.7.33s.5.23.79.34l.62.24.16.06.15.06.33.11.82.29.84.28,1.51.51.33.1.3.1.48.16.44.14-.16-.13c-.11-.09-.25-.21-.46-.36l-.72-.51-.45-.29-.49-.3a3.37,3.37,0,0,0-.32-.19l-.34-.19-.7-.37-.35-.17Z"/><path class="cls-2" d="M660.48,170a1,1,0,0,0,0,.16,3.48,3.48,0,0,0,.6,1c0,.08.11.15.17.23l.17.21c.1.14.21.26.3.37a1.58,1.58,0,0,1,.12.15l.09.11.08.09.2-.08.22-.1.25-.13a2.87,2.87,0,0,0,.5-.38.85.85,0,0,0,.2-.23.94.94,0,0,0,.14-.26.42.42,0,0,0,0-.1v-.11a.74.74,0,0,0,0-.21,1,1,0,0,0-.14-.35,2.61,2.61,0,0,0-.27-.33l-.16-.15-.18-.15-.39-.28-.36-.22-.17-.09-.15-.08-.3-.15-.19.07a1.76,1.76,0,0,0-.38.2,1.2,1.2,0,0,0-.34.37.72.72,0,0,0-.07.25A.66.66,0,0,0,660.48,170Z"/><path class="cls-2" d="M670.33,172.62a7.17,7.17,0,0,0-.81-.36c-.27-.11-.53-.2-.78-.28-.5-.16-1-.27-1.33-.36a8.7,8.7,0,0,0-.9-.15l-.34,0,.15.16a4.79,4.79,0,0,0,.44.42,9,9,0,0,0,.81.6c.35.22.74.46,1.25.72l.41.19.41.2.89.4.89.38.87.37,1.38.57.55.23-.25-.32c-.05,0-.09-.11-.14-.17l-.19-.19-.45-.44A12.28,12.28,0,0,0,670.33,172.62Z"/><path class="cls-2" d="M663.26,172.66a1.27,1.27,0,0,0,0,.33.29.29,0,0,1,0,.09s0,0,0,.08a.86.86,0,0,0,0,.17c0,.12.08.23.1.33s.15.39.18.52a2.17,2.17,0,0,0,.08.22l.37-.08.39-.09.22-.06.23-.07a4.37,4.37,0,0,0,.46-.18l.22-.1.11,0,.09-.06a1.81,1.81,0,0,0,.33-.26.86.86,0,0,0,.13-.14.61.61,0,0,0,.07-.14.66.66,0,0,0-.07-.62,2.07,2.07,0,0,0-.47-.57,3.65,3.65,0,0,0-.52-.4l-.25-.16-.24,0a2.88,2.88,0,0,0-.54.14,2.39,2.39,0,0,0-.58.28,1.1,1.1,0,0,0-.22.21.84.84,0,0,0-.15.26.4.4,0,0,0,0,.15Z"/><path class="cls-2" d="M673.46,176.17a7,7,0,0,0-.62-.45,9,9,0,0,0-1.37-.71l-.33-.13-.32-.12-.6-.19a9.29,9.29,0,0,0-.91-.23l-.34-.07a1,1,0,0,0,0,.15,2.44,2.44,0,0,0,.24.4,1.57,1.57,0,0,0,.21.28l.15.15.16.17a3.89,3.89,0,0,0,.41.35l.25.19.28.2c.39.27.9.56,1.39.84l.75.42.38.21.35.19,1.17.63.35.19.13.06,0-.07c0-.06,0-.13-.08-.23s-.08-.2-.13-.33-.06-.13-.1-.2-.09-.14-.13-.22-.2-.31-.33-.47a6.66,6.66,0,0,0-.44-.51c-.09-.08-.16-.17-.26-.25Z"/><path class="cls-2" d="M665.54,174.54l-.17.1-.15.1a1,1,0,0,0-.24.26.67.67,0,0,0-.09.14l-.09.14a1.88,1.88,0,0,0-.12.3,1.19,1.19,0,0,0-.1.28,1,1,0,0,0,0,.14l0,.12a1,1,0,0,0,0,.21,1.21,1.21,0,0,0,0,.14l0,.05h.13l.33,0a10.22,10.22,0,0,0,1.06-.1,9.09,9.09,0,0,0,1.22-.23,3.15,3.15,0,0,0,.93-.4.64.64,0,0,0,.15-.13.38.38,0,0,0,.09-.13.68.68,0,0,0,.07-.27.33.33,0,0,0,0-.14.65.65,0,0,0,0-.13,1.23,1.23,0,0,0-.12-.26,2.34,2.34,0,0,0-.33-.4l-.18-.15a2.26,2.26,0,0,0-.29,0c-.18,0-.42,0-.69.06l-.4.07-.2.05-.21.06A2.5,2.5,0,0,0,665.54,174.54Z"/><path class="cls-2" d="M667.33,176.5l-.51.05c-.18,0-.35.06-.51.09l-.24.07-.11,0-.12,0a2.19,2.19,0,0,0-.57.3,2.71,2.71,0,0,0-.48.35,3.45,3.45,0,0,0-.34.3l-.07.07-.07.06-.13.12-.17.18-.07.07.38,0,.91,0h.9l.31,0c.41,0,.83-.07,1.21-.13a4.31,4.31,0,0,0,.75-.19,1.57,1.57,0,0,0,.23-.09,1.28,1.28,0,0,0,.17-.1.88.88,0,0,0,.24-.23.83.83,0,0,0,.08-.12.27.27,0,0,0,0-.12.6.6,0,0,0,0-.23.8.8,0,0,0,0-.21.6.6,0,0,0-.08-.16,1.39,1.39,0,0,0-.11-.16l-.32,0c-.2,0-.48,0-.79,0Z"/><path class="cls-2" d="M554.19,199.52l7.88,6c-2.66-1.82-5.23-3.79-7.71-5.87Z"/><path class="cls-2" d="M532,197.27c-1.61-3.1-3.38-5.8-5-8.58a94.5,94.5,0,0,1-6.18-12.42,51,51,0,0,1-2.76-8.77,25.91,25.91,0,0,1-.49-6.65,32.52,32.52,0,0,1,1.86-8.34,2.88,2.88,0,0,1,2.33-2.14A2.24,2.24,0,0,1,524,152a12.56,12.56,0,0,1,.56,3,42.88,42.88,0,0,0,1.46,8.64,48.65,48.65,0,0,0,2,5.4,42.27,42.27,0,0,0,6.42,10.35,44,44,0,0,0,3.37,4.08c1.39,1.41,2.72,2.86,4.09,4.29a131.28,131.28,0,0,0,10.61,9.65,97.1,97.1,0,0,0,8.14,6.16q4.86,3.28,10,6.11,6.53,3.54,13,7.17a85.77,85.77,0,0,1,11.17,7.1A58,58,0,0,1,602,230c2.08,2.26,3.86,4.77,5.75,7.19a3.72,3.72,0,0,1,.66,2.8c0,.16-.06.39-.18.45s-.38-.12-.5-.28c-.53-.74-.93-1.55-1.49-2.29a52,52,0,0,0-6.84-7.9,66.38,66.38,0,0,0-5.7-4.72c-2.8-1.95-5.65-3.84-8.56-5.62-2.09-1.29-4.37-2.29-6.49-3.53-2.61-1.52-5.33-2.87-8-4.36-1.39-.79-2.84-1.55-4.14-2.42-1.47-1-3.09-1.74-4.5-2.82-1.25-1-2.72-1.68-4-2.62-2-1.46-4-3-5.92-4.53-1.64-1.31-3.18-2.71-4.78-4-2-1.62-3.68-3.43-5.47-5.2a104.82,104.82,0,0,1-8.3-9.22,52.34,52.34,0,0,1-4.79-7.2,45.89,45.89,0,0,1-4.17-10,30.36,30.36,0,0,1-1-5.57,18,18,0,0,1-.13-4.59,1.33,1.33,0,0,0-.94-1.68c-.9-.23-1.27.38-1.63,1a16.4,16.4,0,0,0-1.52,5.48c-.26,1.63-.15,3.25-.31,4.87-.21,2.12.52,4.14.91,6.2.48,2.52,1.69,4.81,2.51,7.23a68,68,0,0,0,4.91,10.35,64.73,64.73,0,0,0,4.27,7c1.56,2.2,3,4.49,4.51,6.73a24.19,24.19,0,0,1,1.91,3.37c.12.27.25.56,0,.77s-.44-.1-.65-.21c-1.24-.63-1.75-1.92-2.71-2.8-2.25-2.06-4.59-4.07-6.18-6.67-1.82-3-4.3-5.47-6-8.51A6.51,6.51,0,0,0,520,184c-1-.52-1.53-.4-2,.66a13,13,0,0,0-.66,3.91,25.47,25.47,0,0,0,.68,9.12,22.47,22.47,0,0,0,2.76,6.87,64.1,64.1,0,0,0,4,6,14.84,14.84,0,0,0,2.07,2.27c1,.82,1.61,1.92,2.61,2.75a49,49,0,0,0,6.6,5,15.84,15.84,0,0,0,2.54,1.58.68.68,0,0,1,.38.89.71.71,0,0,1-.72.53,6,6,0,0,1-2.53-.37c-1.38-.57-3-.69-4.3-1.34-1.83-.89-3.86-1.27-5.64-2.23-1.11-.6-2-.24-2.18,1a7.69,7.69,0,0,0,1.55,5.6,19.17,19.17,0,0,0,2.62,3.82,62.21,62.21,0,0,0,5.86,5.24,48.39,48.39,0,0,0,6.78,4.2,38.91,38.91,0,0,0,6.31,2.64c.56.16,1.41.41,1.2,1.09s-1.1.44-1.53.17c-1.46-.92-3.18-1.07-4.74-1.67a36.56,36.56,0,0,1-4.61-2.28,45.38,45.38,0,0,1-4.65-3,40.94,40.94,0,0,1-4.3-3.81,25.12,25.12,0,0,1-4.75-6.46,10,10,0,0,1-1.4-5.52c.11-1.14.28-2.39,1.67-2.92a1,1,0,0,1,.92,0c1.35.84,3,.93,4.42,1.61.83.39,1.72.66,2.59,1,.23.08.54.16.71-.06s-.1-.44-.27-.59c-.91-.85-1.8-1.71-2.74-2.52a39.88,39.88,0,0,1-7.17-7.76c-1.91-2.82-3.86-5.72-4.74-9.08a30.88,30.88,0,0,1-1.42-9.05c0-.95-.42-1.91-.1-2.89.56-1.71.38-3.59,1.5-5.18.88-1.25,1.84-1.58,3-.58a13,13,0,0,1,3.43,4,14,14,0,0,0,2.19,3c1.37,1.51,2.1,3.42,3.47,4.91A15.35,15.35,0,0,0,532,197.27Z"/><path class="cls-2" d="M88.25,396.68l1.08,1.08a31.23,31.23,0,0,1-5,5.2c-1.42,1.08-2.47,1.63-3.14,1.63s-.83-.5-.83-1.49q0-3.72,4.89-11.44,4.13-6.69,4.12-7.46c0-.44-.18-.66-.55-.66q-1,0-4.89,4.37t-9.67,12.34q-6.52,8.88-8.94,12.69a58.13,58.13,0,0,1,7.57,1.16c2,.48,4.84,1.25,8.6,2.31a54.82,54.82,0,0,0,8.3,1.87c-2.17,2.47-3.67,4.16-4.49,5.05a7.06,7.06,0,0,1-1.89,1.61,5.51,5.51,0,0,1-3.08.05q-2.05-.4-6.49-1.54c-3-.77-5.72-1.4-8.3-1.91a36.59,36.59,0,0,0-7.05-.76,10.51,10.51,0,0,0-3.11.41c-.86.28-2.07.74-3.6,1.37a10.28,10.28,0,0,1-3.24,1c-.91,0-1.36-.37-1.36-1.11a3,3,0,0,1,.45-1.43l2.22-3.5a10.43,10.43,0,0,1,2.29-2.6,9,9,0,0,1,3.5-1.45,29.69,29.69,0,0,1,6-.56q5.66-8.67,10.54-15.37t8.9-11.32a54.81,54.81,0,0,1,7-7q3-2.37,4.78-2.37a2.41,2.41,0,0,1,2.64,2.63Q95.57,383.62,88.25,396.68Z"/><path class="cls-2" d="M99.28,413.29v.87a4.65,4.65,0,0,0,1,3.18,3.33,3.33,0,0,0,2.64,1.15,8.74,8.74,0,0,0,3.51-.8,19.69,19.69,0,0,0,3.63-2.11q1.8-1.32,4.4-3.54v2.12a42.72,42.72,0,0,1-7.35,7.22,11.69,11.69,0,0,1-7,2.52,5.8,5.8,0,0,1-4.89-2.4,10.64,10.64,0,0,1-1.8-6.55,13.06,13.06,0,0,1,1.7-6.6,25,25,0,0,1,5.55-6.26,21.64,21.64,0,0,1,5.23-3.4,11.75,11.75,0,0,1,4.65-1.14,4.14,4.14,0,0,1,2.58.74,2.67,2.67,0,0,1,1,2.24,7.17,7.17,0,0,1-1.63,4.35,18.55,18.55,0,0,1-5,4.3A51.59,51.59,0,0,1,99.28,413.29Zm.34-2.25a19.85,19.85,0,0,0,5.34-3,15.4,15.4,0,0,0,3.28-3.45,5.45,5.45,0,0,0,1.05-2.41c0-.53-.24-.8-.72-.8a5,5,0,0,0-2,.8,16.84,16.84,0,0,0-2.85,2.08,15.91,15.91,0,0,0-2.58,3A9.7,9.7,0,0,0,99.62,411Z"/><path class="cls-2" d="M140.39,412v2.18q-3,3.09-5.22,5a28.43,28.43,0,0,1-3.84,3,5.69,5.69,0,0,1-2.8,1c-1.8,0-2.7-1.06-2.7-3.19a13.76,13.76,0,0,1,1.68-5.95,66.67,66.67,0,0,1,4.84-8,20.89,20.89,0,0,0-2.95,2,20.53,20.53,0,0,0-2.46,2.36q-1.08,1.23-1.8,2.1c-1.51,1.68-3,3.41-4.34,5.18s-2.32,2.92-2.8,3.45a2,2,0,0,1-1.39.79c-1.8,0-2.71-2.21-2.71-6.65a20,20,0,0,1,.66-4.82,24.72,24.72,0,0,1,3.54-7q6.06-9.07,10.38-14.85a99.66,99.66,0,0,1,7.16-8.74q2.85-3,3.82-2.89a5.2,5.2,0,0,1,1.95.48q.75.38.75.87a6.84,6.84,0,0,1-1.2,2.86q-1.19,2-4.1,6.22-3.17,4.47-4.48,6.29T128.45,399c-1.75,2.23-3.34,4.22-4.79,6s-3.09,3.64-4.94,5.67v4.16q4.65-5.16,8-8.46a51.92,51.92,0,0,1,5.75-5c1.57-1.13,2.73-1.69,3.47-1.69a2.48,2.48,0,0,1,1.94,1.23,3.82,3.82,0,0,1,.9,2,1.64,1.64,0,0,1-.35.87c-1.66,2-3,3.63-4,4.94a25.79,25.79,0,0,0-2.28,3.5,6,6,0,0,0-.79,2.65c0,1.09.52,1.63,1.56,1.63S136.58,415,140.39,412Z"/><path class="cls-2" d="M144.45,405.83a42.39,42.39,0,0,1,10.22-7.1c3.31-1.55,5.86-2.32,7.67-2.32a1.93,1.93,0,0,1,1.35.6,4.85,4.85,0,0,1,1,1.41,3.28,3.28,0,0,1,.36,1.17,1,1,0,0,1-.49.92,8.91,8.91,0,0,1-1.69.71l.62,1.43c.25.57.45,1,.59,1.4a2.69,2.69,0,0,1,.21.95c0,.56-.56,1.59-1.68,3.11s-1.91,2.62-2.36,3.34a4.89,4.89,0,0,0-.68,2.64c0,1.71.79,2.56,2.36,2.56s4.15-1.51,7.59-4.54v2.11Q160.74,424,157,424a2.11,2.11,0,0,1-1.92-.89,4.88,4.88,0,0,1-.57-2.62,24.8,24.8,0,0,1,2-7.93q-5.06,5.61-7.52,8t-4.06,2.37c-.51,0-1.14-.44-1.9-1.32a12.35,12.35,0,0,1-2-3.41,11.1,11.1,0,0,1-.89-4.35,9.94,9.94,0,0,1,.32-2.72,6.44,6.44,0,0,1,1.21-2.24A31,31,0,0,1,144.45,405.83Zm16.6-3.81a75.37,75.37,0,0,0-12.84,7c-2.56,1.92-3.83,3.9-3.83,5.93a3.87,3.87,0,0,0,.38,1.82,1.14,1.14,0,0,0,1,.71,3.86,3.86,0,0,0,1.35-.48,27.12,27.12,0,0,0,6.66-5.6Q156.82,408,161.05,402Z"/><path class="cls-2" d="M195.13,412v2.18q-3,3.09-5.22,5a28.43,28.43,0,0,1-3.84,3,5.7,5.7,0,0,1-2.79,1c-1.81,0-2.71-1.06-2.71-3.19a13.76,13.76,0,0,1,1.68-5.95,68,68,0,0,1,4.84-8,20.89,20.89,0,0,0-3,2,20.53,20.53,0,0,0-2.46,2.36q-1.08,1.23-1.8,2.1-2.25,2.52-4.34,5.18c-1.38,1.77-2.32,2.92-2.8,3.45a2,2,0,0,1-1.39.79c-1.8,0-2.7-2.21-2.7-6.65a19.93,19.93,0,0,1,.65-4.82,24.72,24.72,0,0,1,3.54-7q6.06-9.07,10.38-14.85a99.66,99.66,0,0,1,7.16-8.74q2.85-3,3.82-2.89a5.2,5.2,0,0,1,2,.48q.75.38.75.87a6.84,6.84,0,0,1-1.2,2.86q-1.19,2-4.1,6.22-3.16,4.47-4.48,6.29c-.87,1.22-2.19,2.94-3.93,5.17s-3.34,4.22-4.79,6-3.09,3.64-4.94,5.67v4.16q4.65-5.16,8-8.46a51.92,51.92,0,0,1,5.75-5c1.57-1.13,2.73-1.69,3.47-1.69a2.48,2.48,0,0,1,1.94,1.23,3.82,3.82,0,0,1,.9,2,1.7,1.7,0,0,1-.34.87c-1.67,2-3,3.63-4,4.94a25.79,25.79,0,0,0-2.28,3.5,6,6,0,0,0-.79,2.65c0,1.09.52,1.63,1.56,1.63S191.32,415,195.13,412Z"/><path class="cls-2" d="M211.7,412v2.53a35.49,35.49,0,0,1-6.27,6.54c-1.94,1.46-3.6,2.2-5,2.2a4.51,4.51,0,0,1-4.23-3,15.34,15.34,0,0,1-1.39-6.52,12,12,0,0,1,.28-2.58,10.29,10.29,0,0,1,.66-2c.25-.53.73-1.37,1.42-2.5q4.92-7.67,9-7.66c1.41,0,2.11.54,2.11,1.63a8.3,8.3,0,0,1-1.37,3.47,15.37,15.37,0,0,1-2.44,3.36,53,53,0,0,0-3.94,4.06,4,4,0,0,0-.92,2.6,2.7,2.7,0,0,0,.94,2.08,3.53,3.53,0,0,0,2.43.83,7,7,0,0,0,3.58-1.2A43.71,43.71,0,0,0,211.7,412Zm-2.35-15.5a2.56,2.56,0,0,1-1.65-.65,2.1,2.1,0,0,1-.78-1.67,5.71,5.71,0,0,1,1.46-3.4,4,4,0,0,1,3-1.87,2.48,2.48,0,0,1,1.73.64,2.39,2.39,0,0,1,.7,1.86,5.56,5.56,0,0,1-1.42,3.29A4,4,0,0,1,209.35,396.54Z"/><path class="cls-2" d="M215.45,405.83a42.39,42.39,0,0,1,10.22-7.1c3.31-1.55,5.86-2.32,7.67-2.32a1.93,1.93,0,0,1,1.35.6,4.85,4.85,0,0,1,1,1.41,3.28,3.28,0,0,1,.36,1.17,1,1,0,0,1-.49.92,8.91,8.91,0,0,1-1.69.71l.62,1.43c.25.57.45,1,.59,1.4a2.69,2.69,0,0,1,.21.95c0,.56-.56,1.59-1.68,3.11s-1.91,2.62-2.36,3.34a4.89,4.89,0,0,0-.68,2.64c0,1.71.79,2.56,2.36,2.56s4.15-1.51,7.59-4.54v2.11Q231.74,424,228,424a2.11,2.11,0,0,1-1.92-.89,4.88,4.88,0,0,1-.57-2.62,24.8,24.8,0,0,1,2-7.93q-5.06,5.61-7.52,8t-4.06,2.37c-.51,0-1.14-.44-1.9-1.32a12.35,12.35,0,0,1-2-3.41,11.1,11.1,0,0,1-.89-4.35,9.94,9.94,0,0,1,.32-2.72,6.44,6.44,0,0,1,1.21-2.24A31,31,0,0,1,215.45,405.83Zm16.6-3.81a75.37,75.37,0,0,0-12.84,7c-2.56,1.92-3.83,3.9-3.83,5.93a3.87,3.87,0,0,0,.38,1.82,1.14,1.14,0,0,0,1,.71,3.86,3.86,0,0,0,1.35-.48,27.12,27.12,0,0,0,6.66-5.6Q227.83,408,232.05,402Z"/><path class="cls-2" d="M266.13,412v2.18q-3,3.09-5.22,5a28.43,28.43,0,0,1-3.84,3,5.7,5.7,0,0,1-2.79,1c-1.81,0-2.71-1.06-2.71-3.19a13.76,13.76,0,0,1,1.68-5.95,68,68,0,0,1,4.84-8,20.89,20.89,0,0,0-2.95,2,20.53,20.53,0,0,0-2.46,2.36q-1.08,1.23-1.8,2.1-2.25,2.52-4.34,5.18c-1.38,1.77-2.32,2.92-2.8,3.45a2,2,0,0,1-1.39.79c-1.8,0-2.7-2.21-2.7-6.65a19.93,19.93,0,0,1,.65-4.82,24.72,24.72,0,0,1,3.54-7q6.06-9.07,10.38-14.85a99.66,99.66,0,0,1,7.16-8.74q2.85-3,3.82-2.89a5.2,5.2,0,0,1,1.95.48q.75.38.75.87a6.84,6.84,0,0,1-1.2,2.86q-1.18,2-4.1,6.22-3.17,4.47-4.48,6.29c-.87,1.22-2.19,2.94-3.93,5.17s-3.34,4.22-4.79,6-3.09,3.64-4.94,5.67v4.16q4.65-5.16,8-8.46a51.92,51.92,0,0,1,5.75-5c1.57-1.13,2.73-1.69,3.47-1.69a2.48,2.48,0,0,1,1.94,1.23,3.82,3.82,0,0,1,.9,2,1.7,1.7,0,0,1-.34.87c-1.67,2-3,3.63-4,4.94a25.79,25.79,0,0,0-2.28,3.5,6,6,0,0,0-.79,2.65c0,1.09.52,1.63,1.56,1.63S262.32,415,266.13,412Z"/><path class="cls-2" d="M322.85,401.59c-2.77.09-4.81.14-6.1.14q-3,0-8.25-.14c-.74.81-1.64,1.76-2.71,2.86s-2.07,2.12-3,3.05-1.77,1.74-2.45,2.39l-1.68,1.65-5,4.89a20.48,20.48,0,0,1-2.44,2.06,4.19,4.19,0,0,1-2.36.92c-.81,0-1.21-.37-1.21-1.11s.57-2.06,1.73-3.74a24.56,24.56,0,0,1,3.92-4.48c1.45-1.29,2.64-1.94,3.57-1.94a2.7,2.7,0,0,1,1.07.35l6.59-7a30.78,30.78,0,0,0-3.26-.22,10.77,10.77,0,0,1-2.7-.3,1.09,1.09,0,0,1-.7-1.18c0-1,1.07-2.55,3.19-4.68a8.34,8.34,0,0,1,3.26-2.25,23.42,23.42,0,0,1,5.83-.52,14.75,14.75,0,0,0-3.59.81,1.73,1.73,0,0,0-1.16,1.41h1.85l2.22,0c.91,0,1.59,0,2-.05q5.68-5.55,10.33-9.66c3.1-2.73,6.36-5.34,9.79-7.8a94.88,94.88,0,0,1,11-6.77,5,5,0,0,1,1.14,3.12,7.18,7.18,0,0,1-.89,3.12q-.87,1.77-3.74,6.64t-5.81,10.34l1.62,0,1.37.05c1.31,0,2.12,0,2.4.07s.44.28.44.7a2.22,2.22,0,0,1-.54,1c-.36.48-1,1.26-1.89,2.36s-1.78,2.21-2.63,3.35l-5.1.41q-4.05,7.64-4.06,8.6c0,.95.5,1.42,1.5,1.42.48,0,2.49-1,6-3l-.28,1.84q-2.85,2.15-4.42,3.38c-1.05.82-2,1.5-2.74,2a11.45,11.45,0,0,1-2.11,1.22,5.09,5.09,0,0,1-1.93.4,3.31,3.31,0,0,1-2.25-1.06,4,4,0,0,1-1.11-3,6.79,6.79,0,0,1,.59-2.27c.39-1,.81-1.93,1.26-2.83S321,405,322.85,401.59Zm-6.55-7.87,11.23-.21,3.21-5.44c.82-1.39,1.72-2.89,2.7-4.52s1.83-3,2.53-4.15,1.49-2.41,2.34-3.85c-1.66,1.05-3.36,2.2-5.1,3.47s-3.68,2.8-5.85,4.6-4.11,3.45-5.79,5S318.12,391.85,316.3,393.72Z"/><path class="cls-2" d="M361,398.68q-6.1,6.79-6.1,9.46c0,1,.4,1.49,1.21,1.49a5.28,5.28,0,0,0,2.62-1.05c1.07-.71,2.75-2,5-3.77v2.4q-4.92,4.85-7.56,7t-4.29,2.15q-2.85,0-2.85-3.74a7.16,7.16,0,0,1,.35-2.19,14.32,14.32,0,0,1,.95-2.23q.62-1.17,1.86-3.33c.83-1.45,1.79-3.08,2.88-4.91a21.75,21.75,0,0,0-5,4,39.64,39.64,0,0,0-3.3,3.55q-1.35,1.68-2.89,3.75a30.44,30.44,0,0,1-2.25,2.77,2.1,2.1,0,0,1-1.44.71c-.74,0-1.42-.77-2.05-2.32a14.49,14.49,0,0,1-.93-5.41,8.17,8.17,0,0,1,.43-3,19.24,19.24,0,0,1,1.72-3,33.77,33.77,0,0,1,4.12-5.39,4.91,4.91,0,0,1,3.33-1.72,3.65,3.65,0,0,1,1.78.38,1.26,1.26,0,0,1,.68,1.18,1.54,1.54,0,0,1-.21.73,4.19,4.19,0,0,1-.47.69c-.17.21-.53.61-1.09,1.21q-5.47,6.07-5.47,7.87c0,.67.21,1,.65,1,.28,0,.82-.45,1.62-1.34s1.82-2,3.08-3.5a57.07,57.07,0,0,1,4.47-4.52,47.4,47.4,0,0,1,5.88-4.54,5.76,5.76,0,0,1,3.05-1.29c.37,0,.73.51,1.09,1.53a9.23,9.23,0,0,1,.54,3.09C362.44,396.86,361.94,397.64,361,398.68Z"/><path class="cls-2" d="M391.08,407.28l-11.51,9.46a67.27,67.27,0,0,1-8.84,12.53c-2.66,2.76-4.64,4.15-5.93,4.15-.7,0-1-.43-1-1.29q0-2.49,2.53-6.38a27,27,0,0,1,2.3-3,34.93,34.93,0,0,1,2.46-2.51c.78-.71,1.8-1.58,3.07-2.64l2.6-2.16q3.46-7.08,5-10.82c-2.18,2.31-4.07,4.21-5.69,5.69a27.77,27.77,0,0,1-4.45,3.41,7.4,7.4,0,0,1-3.66,1.2q-1.77,0-3.26-2.83a12.21,12.21,0,0,1-1.49-5.8,7.49,7.49,0,0,1,.64-2.92,14.8,14.8,0,0,1,2-3.26,26.11,26.11,0,0,1,3.48-3.55,37.78,37.78,0,0,1,5-3.55c3.58-2.24,6.37-3.37,8.36-3.37,1.48,0,2.22.55,2.22,1.63,0,1.51-1.61,3-4.82,4.41a30.27,30.27,0,0,0-5.85,3.39,22.08,22.08,0,0,0-4.67,4.49,7.37,7.37,0,0,0-1.79,4.29,2.3,2.3,0,0,0,.45,1.49,1.44,1.44,0,0,0,1.18.55,5,5,0,0,0,2.77-1.11,51.94,51.94,0,0,0,4.61-3.92,38.85,38.85,0,0,0,3.69-4.14,57.11,57.11,0,0,1,3.82-4.37,4.16,4.16,0,0,1,2.72-1.5,1.53,1.53,0,0,1,1.13.43,1.7,1.7,0,0,1,.43,1.26,13.36,13.36,0,0,1-1.26,4.63c-.85,2-2.37,5.34-4.56,9.93l8.39-6.1Z"/><path class="cls-2" d="M396.38,406.2v.87a4.64,4.64,0,0,0,1,3.19A3.33,3.33,0,0,0,400,411.4a8.62,8.62,0,0,0,3.52-.8,19.08,19.08,0,0,0,3.62-2.11q1.8-1.32,4.4-3.54v2.12a43.19,43.19,0,0,1-7.35,7.23,11.71,11.71,0,0,1-7,2.51,5.81,5.81,0,0,1-4.89-2.39,10.68,10.68,0,0,1-1.8-6.55,13.09,13.09,0,0,1,1.69-6.61A25.38,25.38,0,0,1,397.8,395a21.33,21.33,0,0,1,5.24-3.39,11.61,11.61,0,0,1,4.64-1.15,4,4,0,0,1,2.58.75,2.64,2.64,0,0,1,1,2.23,7.23,7.23,0,0,1-1.63,4.35,18.77,18.77,0,0,1-5,4.3A51.16,51.16,0,0,1,396.38,406.2Zm.35-2.25a19.85,19.85,0,0,0,5.34-3,15.32,15.32,0,0,0,3.27-3.45,5.34,5.34,0,0,0,1.06-2.41c0-.53-.24-.79-.73-.79a5,5,0,0,0-2,.79,17.19,17.19,0,0,0-2.84,2.08,15.22,15.22,0,0,0-2.58,3A9.55,9.55,0,0,0,396.73,404Z"/><path class="cls-2" d="M428.14,404.57v2.57q-7.25,9.6-11.79,9.6a4.28,4.28,0,0,1-3.87-2.69,15.31,15.31,0,0,1-1.4-7.05,26.65,26.65,0,0,1,1.66-8.41,61,61,0,0,1,4.46-9.88A61.77,61.77,0,0,1,423,380a21.51,21.51,0,0,1,5.56-5.22,3.56,3.56,0,0,1,1.63-.63.94.94,0,0,1,1,.65,7,7,0,0,1,.24,2.2q0,4.81-3.91,11.84a71.73,71.73,0,0,1-10.92,14.33,16.07,16.07,0,0,0-.35,2.77,6.28,6.28,0,0,0,1,3.61,3.06,3.06,0,0,0,2.66,1.39,3.44,3.44,0,0,0,1.87-.68,18.84,18.84,0,0,0,2.11-1.68Q424.91,407.55,428.14,404.57Zm-10.37-6.24a34.94,34.94,0,0,0,3.48-4,51.53,51.53,0,0,0,3.18-4.82,41,41,0,0,0,2.34-4.61,9.16,9.16,0,0,0,.85-3.08c0-.54-.19-.8-.56-.8a2.12,2.12,0,0,0-.8.38q-2.11,1.72-4.75,6.78A40.57,40.57,0,0,0,417.77,398.33Z"/><path class="cls-2" d="M444.81,377.18c0-.13-.09-.2-.28-.2a1.26,1.26,0,0,1-1.42-1.43,5.41,5.41,0,0,1,.9-2.66,10.13,10.13,0,0,1,2.22-2.64,3.85,3.85,0,0,1,2.33-1.11c.94,0,1.42.63,1.42,1.87a7.51,7.51,0,0,1-1.36,4,19,19,0,0,1-3,3.71c-1.12,1-1.83,1.57-2.13,1.57-.14,0-.21-.06-.21-.2a2.81,2.81,0,0,1,.69-1.42A3.33,3.33,0,0,0,444.81,377.18Z"/><path class="cls-2" d="M446.86,405.92v-.83q8.94-9.42,12.3-13.21.76-4.26,3.68-4.26a3.52,3.52,0,0,1,1.56.42l.21.65a3.68,3.68,0,0,0-.14,1.18,11.36,11.36,0,0,0,.5,2.45q.51,1.79.78,3a12.53,12.53,0,0,1,.28,2.73,9.8,9.8,0,0,1-1,4.39,14.92,14.92,0,0,1-3,4,33,33,0,0,1-5.09,3.94,13.66,13.66,0,0,0,2,.2,7.68,7.68,0,0,0,3.07-.71,19.21,19.21,0,0,0,3.36-1.9c1.15-.8,2.48-1.83,4-3.11v2.33a51.9,51.9,0,0,1-7.94,6.57,11.81,11.81,0,0,1-6,2.23,8.41,8.41,0,0,1-6-2.77,7.55,7.55,0,0,1-2-3.19A17.36,17.36,0,0,1,446.86,405.92Zm12.93-5.3-.63-5.06Q457,398,450,404.88a5.87,5.87,0,0,1,2.84,1.22A19.65,19.65,0,0,1,455,409a8.33,8.33,0,0,0,3.62-2.65,7.49,7.49,0,0,0,1.27-4.59c0-.23,0-.44,0-.63S459.81,400.8,459.79,400.62Z"/></svg>