<?xml version="1.0" encoding="UTF-8"?>
<svg id="Calque_1" data-name="Calque 1" xmlns="http://www.w3.org/2000/svg" viewBox="0 0 2398.25 2132">
  <defs>
    <style>
      .cls-1 {
        fill: #e5548d;
      }
    </style>
  </defs>
  <path class="cls-1" d="M1035.18,348.77c.27,.08,.63,.09,.79,.27,.17,.19,.29,.62,.19,.82-1.58,3.12-3.22,6.22-4.81,9.34-7.08,13.89-10.49,28.66-10.7,44.23-.25,18.46,3.35,36.08,10.81,53,2.82,6.4,4.86,13.15,7.17,19.77,.84,2.42,1.23,4.93,.92,7.53-.42,3.54-3.67,6.19-7.44,5.9-1.34-.1-2.54-.7-3.16-1.86-.9-1.67-1.6-3.46-2.31-5.23-2.13-5.32-4.01-10.76-6.38-15.98-6.14-13.52-9.27-27.81-10.92-42.45-.75-6.65-.69-13.37,.49-20.03,.56-3.14,.85-6.33,1.48-9.45,3.3-16.26,10.19-30.81,20.96-43.48,.61-.72,1.36-1.34,2.07-1.98,.22-.2,.56-.28,.84-.41Z"/>
  <path class="cls-1" d="M1024.44,232.89c-.5-1.82-1.14-3.62-1.47-5.48-.86-4.78,.88-8.64,4.49-11.74,1.09-.93,3.31-1.15,4.44-.37,1.03,.72,2.1,1.42,3,2.28,2.74,2.61,5.36,5.35,8.11,7.94,4.92,4.63,7.36,10.15,6.29,16.98,0,0,.09-.09,.09-.09-2.42-.22-4.86-.37-7.26-.7-2.11-.29-4.2-.8-6.3-1.22,0,0,.15,.09,.15,.09-1.28-.64-2.56-1.28-3.84-1.92,0,0-.14-.11-.14-.11-.56-.56-1.12-1.12-1.68-1.68,0,0-.42-.32-.41-.31-1.19-.59-2.38-1.17-3.57-1.76,0,0-.06-.04-.06-.04-.65-.65-1.31-1.31-1.96-1.96l.11,.1Z"/>
  <path class="cls-1" d="M1060.87,229.03c-5.32-.13-9.72-2.59-13.91-5.54-.77-.54-1.45-1.23-2.12-1.89-3.69-3.66-3.77-8.07-.17-11.75,3.17-3.24,6.93-5.53,11.38-6.52,1.64-.36,3.18,.17,4.29,1.45,2.97,3.41,4.84,7.42,5.93,11.77,.56,2.2,.36,4.44-.76,6.46-.76,1.38-1.7,2.67-2.56,3.99,0,0-.26,.22-.26,.22-.6,.6-1.2,1.19-1.8,1.79l-.02,.02Z"/>
  <g>
    <path class="cls-1" d="M719.34,720.34c8.31,0,16.63,.03,24.94,0,5.12-.02,10.22-.24,15.28-1.14,2.51-.45,5.09-.43,7.64-.67,4.45-.42,8.9-.87,13.34-1.31,6.35-.62,12.7-1.27,19.05-1.81,.43-.04,1.18,.58,1.34,1.05,.17,.49-.01,1.33-.37,1.71-.64,.68-1.46,1.27-2.31,1.67-8.12,3.79-16.35,7.27-24.99,9.75-13.56,3.9-27.38,6.66-41.39,7.88-11.45,.99-22.98,1.03-34.45-.65-7.59-1.11-15.17-2.24-22.7-3.7-16.08-3.12-31.57-8.07-46.57-14.63-6.74-2.95-13.55-5.71-20.29-8.65-1.11-.48-2.07-1.4-2.95-2.26-.19-.19,.11-1.22,.47-1.54,.42-.37,1.18-.6,1.75-.53,7.3,.79,14.6,1.68,21.9,2.45,3.81,.4,7.64,.85,11.46,.87,11.83,.07,23.66,0,35.49-.12,2.87-.03,5.73-.43,8.59-.73,1.91-.2,3.79-.65,5.7-.76,16.3-1,32.35-3.84,48.43-6.54,1.57-.26,3.14-.6,4.72-.73,.53-.04,1.17,.4,1.63,.78,.5,.42-.46,1.77-1.49,2.09-1.22,.37-2.44,.74-3.68,1.07-20.4,5.44-40.98,10.03-61.87,13.21-.29,.04-.54,.31-.8,.47,.34,.41,.61,1.04,1.04,1.19,3.99,1.37,8.15,1.55,12.31,1.57,9.59,.04,19.18,.01,28.78,.01h0Z"/>
    <path class="cls-1" d="M777.64,789.86c-5.09-.42-10.18-.84-15.27-1.27-1.91-.16-3.82-.46-5.73-.5-11.57-.28-22.88-2.32-34.06-5.13-8.99-2.26-17.99-4.5-26.96-6.85-2.14-.56-4.18-1.52-6.24-2.35-.23-.09-.48-.58-.42-.82,.14-.56,.33-1.39,.73-1.55,1.16-.46,2.42-.86,3.65-.9,5.75-.18,11.51-.4,17.26-.3,10.29,.18,20.4-1.32,30.5-2.91,23.44-3.67,46.23-9.94,68.77-17.2,4.26-1.37,8.51-2.76,12.79-4.1,.91-.28,1.86-.33,2.69,.38,.62,.53-.37,1.88-2,2.71-.86,.43-1.71,.87-2.59,1.26-1.75,.79-3.5,1.57-5.27,2.32-13.56,5.72-27.42,10.62-41.24,15.65-3.9,1.42-7.92,2.49-11.88,3.73-.75,.23-1.09,.77-.82,1.48,.08,.22,.54,.42,.83,.42,4.79-.04,9.62,.28,14.36-.25,24.79-2.75,49.42-6.56,73.71-12.31,8.71-2.06,17.31-4.57,25.97-6.81,1.51-.39,3.12-.46,4.68-.61,.24-.02,.59,.3,.74,.56,.15,.25,.23,.63,.16,.92-.39,1.68-1.65,2.74-2.98,3.57-5.16,3.2-10.24,6.57-15.62,9.35-17.73,9.15-36.41,15.78-56.18,18.69-9.77,1.44-19.62,2.8-29.6,2.81Z"/>
    <path class="cls-1" d="M454.31,549.51c3.62,.38,6.61,2.32,9.68,4,5.89,3.22,11.8,6.41,17.52,9.91,9.05,5.54,18.85,9.43,28.64,13.33,22.02,8.76,44.8,15.08,67.72,20.94,3.08,.79,6.1,1.77,9.12,2.78,.27,.09,.34,1,.36,1.54,0,.15-.51,.49-.74,.46-8.2-1.24-16.42-2.38-24.6-3.8-14.49-2.51-28.78-5.95-43.02-9.64-.54-.14-1.22,.07-1.78,.26-.59,.2,.15,1.31,1.51,1.99,4.57,2.29,9.05,4.81,13.77,6.75,11.52,4.75,23.09,9.39,34.75,13.79,18.54,6.99,37.17,13.72,55.74,20.62,2.66,.99,5.51,1.75,7.49,4.03,.18,.21,.37,.65,.27,.84-.27,.52-.65,1.02-1.07,1.42-.19,.18-.6,.2-.91,.19-23.43-1.05-46.34-5.23-68.71-12.11-23.45-7.22-44.75-18.65-64.01-33.91-6.28-4.98-12.17-10.34-17.76-16.05-5.14-5.25-10.28-10.51-15.38-15.8-3.33-3.46-6.52-7.03-8.79-11.31l.21-.21Z"/>
    <path class="cls-1" d="M670.56,695.8c-9.11,.74-20.54-.82-31.89-2.5-10.74-1.59-21.28-4.37-31.53-8.01-6.92-2.46-13.74-5.23-20.47-8.14-8.8-3.81-17.35-8.15-25.27-13.62-9.99-6.89-19.94-13.84-29.88-20.8-.76-.53-1.32-1.35-1.91-2.09-.17-.21-.25-.71-.12-.88,.33-.45,.85-1.15,1.22-1.1,1.57,.18,3.15,.46,4.65,.94,6.08,1.96,12.15,3.96,18.19,6.03,17.31,5.92,35.13,9.4,53.27,11.5,8.56,.99,17.1,2.18,25.67,3.06,4.76,.49,9.56,.68,14.34,.73,6.74,.07,13.36,.92,19.95,2.23,.21,.04,.46,.49,.47,.76,0,.21-.31,.6-.51,.62-2.84,.24-5.69,.55-8.54,.61-5.43,.12-10.85,.18-16.24,1.03-4.13,.65-8.27,.31-12.41-.18-9.53-1.12-19.11-.97-28.68-.69-.22,0-.64,.45-.62,.5,.28,.5,.55,1.27,.98,1.4,5.51,1.63,10.97,3.47,16.58,4.66,21.24,4.51,42.65,8.17,64.08,11.63,10.08,1.63,20.21,2.95,30.32,4.42,1.89,.27,3.83,.45,5.41,1.68,.23,.18,.51,.53,.48,.76-.08,.56-.16,1.3-.53,1.61-1.55,1.28-3.53,1.3-5.41,1.65-12.96,2.4-26.07,2.16-41.61,2.2Z"/>
    <path class="cls-1" d="M852.6,831.23c-8.48-1.56-18.15-.48-27.64-2.12-6.28-1.09-12.65-1.69-18.97-2.58-.9-.13-1.77-.6-2.62-.99-.19-.09-.32-.5-.3-.76,.01-.29,.15-.72,.36-.82,1.13-.56,2.25-1.22,3.46-1.51,5.28-1.26,10.56-2.55,15.89-3.54,11.73-2.18,22.67-6.59,33.37-11.64,11.56-5.46,22.63-11.83,33.45-18.64,4.03-2.54,8.24-4.8,12.39-7.15,.16-.09,.6,.11,.79,.3,.18,.19,.35,.59,.27,.8-.21,.58-.43,1.24-.87,1.63-2.84,2.56-5.64,5.19-8.63,7.56-8.52,6.73-17.31,13.11-26.42,19.03-1.59,1.03-3.02,2.31-4.49,3.51-.17,.14-.19,.62-.1,.89,.08,.25,.39,.61,.6,.6,1.57-.03,3.22,.16,4.69-.26,9.83-2.8,19.62-5.76,28.87-10.19,12.67-6.06,25.32-12.17,37.44-19.34,4.36-2.58,8.71-5.36,13.72-6.62,.39-.1,1.02,.52,1.43,.92,.17,.16,.13,.61,.1,.92-.03,.31-.1,.66-.28,.91-5.79,8.05-11.84,15.9-19.73,22.04-5.29,4.11-10.74,8.04-16.34,11.72-13.39,8.81-28.29,13.1-44.18,14.24-5.09,.37-10.19,.67-16.28,1.07Z"/>
    <path class="cls-1" d="M820.71,902.72c-9.83-1.29-18.78-1.85-27.5-3.96-.61-.15-1.23-.42-1.72-.79-.48-.36-1.03-.89-1.15-1.43-.11-.51,.16-1.29,.55-1.67,.66-.66,1.48-1.21,2.33-1.61,2.6-1.22,5.25-2.35,7.88-3.5,11.53-5.05,21.68-12.22,31.17-20.38,5.81-4.99,11.49-10.14,17.25-15.19,.45-.39,1.1-.58,1.69-.76,.23-.07,.61,.11,.81,.29,.2,.18,.42,.6,.34,.78-.64,1.43-1.17,2.96-2.07,4.22-4.99,7.07-10.8,13.43-16.89,19.57-2.02,2.03-3.93,4.18-5.78,6.36-.28,.33-.21,1.31,.08,1.67,.33,.41,1.17,.73,1.67,.61,1.85-.45,3.73-.92,5.45-1.7,6.7-3.04,13.21-6.42,19.41-10.4,8.34-5.36,16.37-11.15,24.3-17.08,1.77-1.32,3.77-2.35,5.73-3.38,.47-.25,1.49-.2,1.79,.13,.57,.64,1.2,1.63,1.1,2.39-.52,3.89-2.53,7.24-4.53,10.48-5.56,9.05-12.2,17.16-21.09,23.25-5.88,4.03-12.33,6.68-19.1,8.7-7.42,2.21-15.13,2.25-21.74,3.39Z"/>
    <path class="cls-1" d="M657.67,820.65c-14.07-.1-25.19-2.73-35.75-7.57-7.83-3.59-15.31-7.88-22.12-13.2-.35-.27-.28-1.15-.27-1.74,0-.21,.38-.45,.64-.61,.26-.16,.57-.3,.87-.34,.95-.12,1.9-.27,2.85-.26,16.79,.1,32.93-3.48,48.84-8.51,6.98-2.21,13.74-5.15,20.96-6.58,.33-.07,.87,.62,1.2,1.05,.11,.14-.07,.64-.26,.83-.69,.66-1.37,1.36-2.17,1.85-2.18,1.33-4.35,2.7-6.64,3.81-6.32,3.05-12.71,5.96-19.07,8.94-2.31,1.08-4.63,2.14-6.88,3.33-.36,.19-.44,1.03-.51,1.59-.03,.21,.28,.58,.52,.7,.57,.27,1.19,.6,1.79,.59,4.14-.04,8.32,.19,12.41-.31,14.27-1.75,28.36-4.46,42.3-8.02,3.08-.79,6.23-1.31,9.37-1.84,.51-.08,1.17,.38,1.67,.73,.57,.4,.47,2.01-.06,2.65-.41,.49-.73,1.07-1.2,1.48-8.52,7.35-17.71,13.59-28.39,17.46-7.27,2.64-14.66,4.47-20.09,4Z"/>
    <path class="cls-1" d="M605.46,784.01c-9.93-.76-20.31-2.46-30.13-6.64-8.26-3.52-15.94-8.13-23.46-13.02-.74-.48-1.32-1.38-1.69-2.2-.19-.43,.11-1.25,.46-1.68,.37-.45,1.02-.82,1.6-.91,1.57-.26,3.17-.54,4.75-.48,20.58,.82,39.81-5.01,58.83-11.89,2.68-.97,5.23-2.47,8.23-2.28,.27,.02,.6,.27,.76,.51,.15,.23,.26,.65,.15,.86-.28,.54-.6,1.16-1.08,1.47-1.61,1.03-3.26,2.03-4.96,2.89-8.84,4.49-17.58,9.17-26.84,12.78-.84,.33-1.63,.99-2.2,1.69-.23,.28,0,1.41,.33,1.61,3.25,1.94,6.81,1.34,10.28,.96,15.28-1.65,30.35-4.4,45.24-8.26,3.37-.87,6.69-2.3,10.3-1.86,.46,.06,.9,.75,1.24,1.22,.15,.2,.15,.66,.02,.9-.46,.83-.89,1.71-1.52,2.39-4.57,5.01-9.9,9.07-15.83,12.32-8.78,4.82-18.15,7.92-28.09,9.21-1.9,.25-3.83,.25-6.39,.41Z"/>
    <path class="cls-1" d="M766.43,880.19c-14.79,.78-28.31-3.9-41.55-9.68-.76-.33-1.32-1.26-1.8-2.01-.52-.8,.61-2.01,2.31-2.55,.61-.19,1.21-.4,1.83-.57,.92-.25,1.84-.53,2.78-.71,15.56-2.97,29.71-9.5,43.35-17.29,5.54-3.16,10.93-6.57,16.4-9.86,.97-.58,2.35-.39,2.6,.31,.35,1.01-.07,1.84-.68,2.58-.41,.49-.85,.95-1.33,1.37-.72,.63-1.5,1.19-2.23,1.81-7.85,6.54-15.89,12.81-24.47,18.38-.8,.52-1.61,1.08-2.22,1.79-.34,.39-.35,1.12-.37,1.71,0,.15,.49,.42,.79,.46,2.91,.44,5.7-.26,8.5-.93,11.54-2.75,22.49-7.11,33.21-12.09,5.21-2.42,10.3-5.07,15.52-7.48,1.7-.79,3.6-1.2,5.45-1.6,.48-.1,1.26,.34,1.61,.78,.35,.42,.46,1.16,.43,1.74-.04,.61-.27,1.27-.61,1.79-10.44,15.9-24.84,26.23-43.33,30.84-5.33,1.33-10.76,1.11-16.17,1.21Z"/>
    <path class="cls-1" d="M713.4,853.24c-11.24,.83-21.48-1.49-31.45-5.18-4.16-1.54-8.68-2.26-12.29-5.13-.58-.46-.53-2.21,.11-2.58,.55-.31,1.04-.78,1.62-.96,1.83-.56,3.67-1.13,5.55-1.49,15.28-2.96,29.04-9.64,42.43-17.23,5-2.84,9.85-5.93,14.83-8.81,1.06-.61,2.36-.81,3.57-1.11,.2-.05,.58,.26,.73,.5,.15,.23,.22,.62,.15,.88-.45,1.65-1.79,2.57-3.02,3.57-8.89,7.29-17.94,14.39-27.44,20.89-.46,.31-.69,.98-.98,1.5-.31,.55,1.03,1.29,2.21,1.16,1.9-.2,3.84-.29,5.68-.74,3.72-.9,7.44-1.88,11.08-3.06,9.43-3.07,18.58-6.82,27.48-11.21,4.58-2.26,9.27-4.3,13.96-6.32,1.13-.48,2.46-.51,3.7-.7,.74-.11,1.79,1.34,1.54,2.06-.21,.6-.29,1.28-.62,1.79-9.41,14.39-22.05,24.64-38.5,30-3.97,1.29-8.03,2.13-12.22,2.16-2.87,.02-5.75,0-8.12,0Z"/>
    <path class="cls-1" d="M919.36,868.89c-4.46-.19-8.92-.38-13.38-.59-1.03-.05-2.21-1.01-2.01-1.67,.25-.86,.67-1.7,1.19-2.43,.35-.49,.98-.81,1.51-1.16,.8-.52,1.63-1.01,2.46-1.49,13.16-7.58,24.3-17.47,33.78-29.31,3.59-4.48,7.28-8.88,11.02-13.24,.79-.92,1.95-1.53,2.98-2.22,.18-.12,.62,.02,.85,.17,.24,.16,.58,.52,.53,.71-.29,1.21-.49,2.51-1.07,3.59-5.63,10.4-12.19,20.2-19.14,29.75-.21,.29,.17,1.09,.4,1.59,.07,.15,.59,.18,.88,.12,.62-.13,1.25-.28,1.82-.53,3.8-1.69,7.36-3.78,10.69-6.31,8.9-6.75,17.65-13.68,25.42-21.77,3.32-3.45,6.76-6.78,10.18-10.13,.91-.89,1.89-1.72,2.96-2.4,.46-.29,1.29-.34,1.8-.12,.48,.2,1.03,.87,1.07,1.37,.1,1.25,.16,2.58-.17,3.77-3.09,11.23-8.21,21.46-15.71,30.37-7.18,8.54-16.59,13.88-26.96,17.57-7.87,2.8-15.98,4.41-24.39,4.22-2.23-.05-4.47,0-6.7,0,0,.05,0,.1,0,.15Z"/>
    <g>
      <path class="cls-1" d="M1599.75,866.65c-14.55-.71-28.51-3.48-40.92-11.75-4.02-2.68-7.74-5.7-10.87-9.36-6.92-8.09-12.51-16.98-15.59-27.27-.26-.88-.17-1.88-.19-2.82-.02-.7,1.47-1.78,2.11-1.56,.6,.21,1.3,.28,1.79,.64,2.57,1.88,5.14,3.79,7.63,5.78,6.99,5.58,13.8,11.42,20.98,16.74,5.12,3.8,10.67,7.04,16.16,10.3,2.16,1.29,4.68,2,7.08,2.86,.49,.17,1.2-.14,1.76-.35,.63-.23,.45-1.61-.31-2.51-.41-.49-.8-1-1.24-1.46-6.88-7.19-12.49-15.38-18.31-23.39-1.1-1.51-1.79-3.33-2.5-5.08-.13-.32,.48-1.02,.87-1.44,.15-.17,.71-.2,.9-.06,1.29,.92,2.64,1.8,3.76,2.9,4.78,4.71,9.48,9.51,14.24,14.25,10.04,10,21.13,18.54,34.1,24.49,1.72,.79,3.32,1.88,4.88,2.98,.39,.28,.64,1.15,.52,1.65-.12,.53-.73,.97-1.19,1.39-.22,.2-.56,.34-.86,.38-8.25,.86-16.4,2.71-24.78,2.71Z"/>
      <g>
        <path class="cls-1" d="M1729.12,774.54c-24.42,.4-46.23-4.16-67.29-12.24-7.73-2.97-14.99-7.14-22.45-10.79-.56-.28-1.03-.74-1.55-1.11-.88-.61-1.41-2.06-.8-2.46,.74-.49,1.64-1.04,2.47-1.02,1.91,.05,3.83,.28,5.7,.68,12.82,2.75,25.78,4.67,38.74,6.55,2.53,.37,5.09,.49,7.63,.75,3.5,.35,6.99,.71,10.48,1.08,.64,.07,1.26,.25,1.9,.27,15.32,.42,30.55,2.98,45.92,2.24,2.86-.14,5.71-.55,8.54-.96,.5-.07,.91-.78,1.36-1.19-.47-.35-.89-.89-1.42-1.03-2.16-.58-4.34-1.08-6.53-1.54-18.17-3.82-35.86-9.35-53.53-14.98-.3-.1-.61-.2-.91-.31-2.97-1.06-4.67-2.5-3.93-3.33,1.35-1.51,2.98-.65,4.47-.33,11.24,2.45,22.43,5.17,33.72,7.36,11.28,2.19,22.67,3.84,34.07,5.42,12.11,1.68,24.21,1.77,36.35,1.67,9.59-.08,19.17-.4,28.76-.55,.46,0,1.22,.57,1.31,.99,.1,.43-.33,1.17-.75,1.47-.77,.55-1.67,.94-2.56,1.28-20.58,8-41.33,15.45-63.26,18.91-12.63,1.99-25.3,3.72-36.42,3.18Z"/>
        <path class="cls-1" d="M1660.1,822.64c-7.35-.14-14.67-.2-21.95-1.66-8.52-1.72-16.69-4.31-24.47-8.17-9.49-4.71-18.32-10.39-26.29-17.43-4.55-4.02-9.42-7.7-12.75-12.9-.49-.76-.79-1.72-.87-2.62-.04-.43,.58-1.1,1.06-1.32,.53-.24,1.3-.26,1.86-.07,1.81,.6,3.62,1.25,5.36,2.03,7,3.14,14.03,6.21,20.93,9.55,12.43,6.01,25.55,10.1,38.7,14.09,6.72,2.04,13.63,3.44,20.64,4.14,.57,.06,1.21-.3,1.77-.56,.61-.28-.17-1.47-1.46-2.17-1.13-.61-2.27-1.18-3.39-1.79-11.8-6.42-23.36-13.23-34.43-20.84-1.57-1.08-3.04-2.31-4.44-3.6-.37-.34-.56-1.27-.36-1.72,.19-.42,1.14-.89,1.53-.74,2.07,.79,4.15,1.63,6.08,2.71,15.66,8.79,32.18,15.6,49.03,21.7,11.53,4.17,23.53,5.85,35.58,7.35,3.17,.39,6.37,.6,9.28,2.1,.25,.13,.58,.53,.54,.74-.12,.55-.28,1.32-.68,1.53-1.11,.59-2.31,1.13-3.53,1.37-11.61,2.24-23.22,4.43-34.84,6.59-2.82,.52-5.67,1.05-8.53,1.23-4.78,.3-9.58,.32-14.37,.46Z"/>
        <path class="cls-1" d="M1701.53,890.39c-3.99-.43-8.48-.65-12.87-1.44-15.16-2.72-27.05-11.03-36.92-22.45-3.54-4.1-6.85-8.45-9.14-13.44-.53-1.15-.94-2.38-1.2-3.61-.11-.52,.17-1.29,.54-1.68,.38-.4,1.23-.8,1.66-.63,2.06,.81,4.14,1.66,6.05,2.77,8.56,4.97,17.04,10.1,25.62,15.05,7.5,4.33,15.5,7.56,23.76,10.13,1.13,.35,2.49,.13,3.7-.05,.3-.04,.8-1.25,.62-1.49-.93-1.26-1.89-2.59-3.13-3.53-7.92-6.04-14.58-13.39-21.5-20.47-.86-.88-1.39-2.1-2-3.19-.13-.24-.12-.79,.04-.91,.47-.35,1.13-.89,1.57-.77,2.85,.76,4.93,2.84,7.24,4.52,5.42,3.95,10.74,8.04,16.27,11.83,10.59,7.27,21.86,13.21,34.21,16.98,1.82,.56,3.57,1.37,5.28,2.22,.43,.22,.79,1.02,.79,1.56,0,.54-.45,1.1-.8,1.59-.17,.24-.52,.38-.82,.48-11.55,3.99-23.43,6.27-35.64,6.74-.95,.04-1.91-.11-3.32-.2Z"/>
        <path class="cls-1" d="M1757.9,864.68c-10.78-.32-19.69-2.24-28.29-6.19-10.72-4.93-19.37-12.28-26.93-21.12-.8-.94-1.32-2.16-1.75-3.34-.17-.46,.12-1.29,.49-1.67,.39-.4,1.15-.7,1.7-.64,1.25,.13,2.53,.38,3.71,.82,6,2.21,11.99,4.45,17.95,6.75,10.17,3.93,20.66,6.74,31.34,8.84,3.11,.61,6.34,.61,9.52,.82,1.28,.09,2.48-.74,2.14-1.32-.31-.51-.57-1.17-1.04-1.46-6.26-3.85-12.64-7.52-18.8-11.52-4.28-2.77-8.28-5.96-12.35-9.05-.39-.3-.45-1.14-.52-1.75-.07-.7,1.4-1.18,2.38-.81,.9,.34,1.82,.62,2.68,1.03,2.59,1.25,5.13,2.62,7.74,3.82,6.38,2.94,12.73,5.98,19.22,8.68,11.27,4.7,22.94,7.96,35.2,8.77,1.59,.11,3.23,.33,4.37,1.59,.33,.37,.46,1.33,.21,1.71-.51,.76-1.25,1.47-2.05,1.89-11.93,6.34-24.3,11.42-37.84,13.13-3.48,.44-6.97,.77-9.09,1Z"/>
        <path class="cls-1" d="M1808.15,833.76c-8.68-.76-16.88-1.93-24.59-5.31-8.56-3.75-16.38-8.62-22.93-15.37-2.23-2.29-4.45-4.58-6.63-6.91-.65-.69-1.14-1.53-1.69-2.31-.5-.7-.43-2.25,.18-2.61,.52-.31,1.22-.77,1.7-.63,3.67,1.04,7.35,2.1,10.95,3.35,6.64,2.3,13.21,4.77,19.84,7.09,7.85,2.75,15.93,4.65,24.09,6.23,3.15,.61,6.3,1.13,9.5,.63,.45-.07,.85-.74,1.16-1.21,.1-.15-.1-.68-.3-.81-2.39-1.57-4.73-3.24-7.23-4.6-8.15-4.45-15.73-9.76-23.3-15.09-1.01-.71-1.85-1.74-2.59-2.75-.22-.31,.11-1.1,.33-1.61,.07-.18,.6-.35,.83-.27,1.78,.64,3.61,1.2,5.3,2.05,8.28,4.15,16.54,8.33,25.23,11.59,1.49,.56,2.99,1.13,4.47,1.71,8.96,3.53,18.26,5.73,27.78,7.06,1.89,.27,3.82,.49,5.63,1.05,.72,.22,1.34,1.23,1.67,2.02,.14,.35-.42,1.26-.89,1.55-10.72,6.55-22.12,11.4-34.61,13.32-4.73,.73-9.48,1.27-13.89,1.85Z"/>
        <g>
          <path class="cls-1" d="M561.74,881.79c-3.23,.57-5.89,2.36-8.66,3.94-19.14,10.89-39.58,17.63-61.6,19.4-1.59,.13-3.19,.21-4.76,.46-9.54,1.57-19,1.21-28.58-.23-11.93-1.79-22.8-6.18-32.94-12.35-7.93-4.82-15.06-10.78-21.03-17.98-2.23-2.69-4.2-5.61-6.2-8.49-.53-.76-.74-1.75-1.06-2.64-.61-1.73,1.06-4.22,2.9-4.09,2.85,.19,5.73,.38,8.53,.94,22.19,4.43,43.14,.89,63.03-9.65,3.4-1.8,6.6-3.9,9.41-6.54,6.75-6.36,13.84-12.28,21.76-17.16,1.32-.82,2.32-2.15,3.47-3.25,0,0,.08,.08,.08,.08-6.8-.23-13.31,1.72-19.93,2.74-9.19,1.42-18.46,1.75-27.67,2.72-5.07,.53-10.22,.22-15.31-.57-7.26-1.13-14.64-1.17-21.89-2.65-11.61-2.38-23.14-4.93-34.34-8.89-11.96-4.22-22.41-10.67-31.52-19.56-9.05-8.82-16.6-18.57-21.65-30.21-2.57-5.91-4.53-11.97-5.16-18.4-.09-.93,.07-1.89,.18-2.84,.11-.99,1.86-2.09,2.93-2.06,2.04,.06,3.68,1.05,5.21,2.19,13.06,9.71,27.94,13.8,44,14.18,4.79,.11,9.6,0,14.39-.08,12.71-.2,24.6-3.64,35.95-9.16,.49-.24,.8-.95,1.09-1.49,.3-.57-.76-1.78-1.68-1.98-.62-.14-1.24-.29-1.87-.4-4.09-.72-8.21-1.34-12.28-2.15-27.3-5.41-52.64-15.72-76.19-30.49-5.7-3.57-11.13-7.56-15.98-12.23-6.51-6.25-11.72-13.54-16.19-21.34-5.46-9.53-8.99-19.82-10.84-30.61-1.36-7.92-1.09-15.94-.35-23.92,.06-.63,.28-1.25,.43-1.87,.9-3.62,4.59-4.99,7.43-2.75,1,.79,1.98,1.62,2.89,2.51,1.15,1.11,2.35,2.2,3.3,3.48,8.98,12.12,21.66,18.78,35.45,23.46,15.25,5.18,30.99,7.8,47.18,6.87,1.24-.07,2.47-.5,3.69-.85,.21-.06,.38-.5,.43-.79,.05-.27,.01-.66-.15-.85-.42-.46-.87-.95-1.42-1.21-1.44-.7-2.9-1.34-4.4-1.91-14.43-5.43-28.01-12.56-41-20.81-9.46-6.01-18.59-12.52-26.88-20.07-13.39-12.21-21.84-27.41-26.19-44.93-2.17-8.73-3.46-17.56-2.94-26.6,.37-6.44,1.68-12.67,3.82-18.74,.31-.88,.92-1.66,1.44-2.45,.74-1.11,3.23-1.7,4.36-.95,1.05,.7,2.2,1.4,2.96,2.37,1.97,2.51,3.84,5.11,5.6,7.78,4.82,7.32,11.02,13.22,18.16,18.25,12.77,9,26.97,14.56,42.16,17.71,5.61,1.16,11.2,2.81,17.06,1.88,.28-.04,.76-.36,.74-.49-.08-.58-.14-1.43-.52-1.66-2.17-1.34-4.45-2.51-6.67-3.78-15.08-8.63-28.94-18.93-41.03-31.38-10.71-11.03-20.21-23.13-28.17-36.33-7.01-11.63-11.74-24.15-13.69-37.64-.37-2.53-.6-5.09-.65-7.64-.11-5.44-.27-10.88-.04-16.31,.8-18.59,6.03-35.85,16.01-51.62,.51-.81,1.13-1.54,1.73-2.29,1.09-1.36,4.08-1.41,5.16-.02,.77,1,1.64,2.05,2.02,3.22,1.08,3.34,2.07,6.73,2.84,10.15,1.41,6.29,3.73,12.21,6.72,17.91,6.28,11.97,13.88,22.96,23.43,32.6,5.87,5.92,11.9,11.62,18.81,16.32,1.02,.69,2.26,1.08,3.43,1.53,.19,.08,.6-.15,.79-.35,.18-.2,.35-.61,.26-.81-.49-1.17-.98-2.34-1.6-3.44-7.91-13.95-14.62-28.44-19.75-43.65-1.33-3.94-2.82-7.82-4.33-11.7-5.47-14.1-9.12-28.69-10.74-43.68-2.28-21.08,.81-41.49,9.22-61,7.78-18.07,18.34-34.43,31.19-49.27,3.76-4.34,8.07-8.21,12.26-12.15,2.09-1.96,4.53-2.24,6.12-1.17,1.82,1.21,2.14,3.1,2.15,5.04,.01,1.59-.07,3.21-.32,4.78-1.76,10.73-3.59,21.45-3.6,32.38-1.54,8.56-1.43,17.21-1.26,25.84,.09,4.47,.58,8.92,.92,13.38,.17,2.23,.52,4.45,.62,6.69,.36,8.67,2.02,17.13,3.77,25.59,3.18,15.43,8.45,30.17,14.76,44.56,3.87,8.81,8.82,17.05,13.8,25.24,6.82,11.22,14.57,21.82,22.81,32.04,5.23,6.48,11.25,12.22,17.65,17.58,12.06,10.1,25,18.89,38.54,26.85,11.86,6.97,23.75,13.88,36.07,20.03,26.62,13.29,53.19,26.68,79.91,39.76,13.21,6.47,26.68,12.4,40.07,18.5,15.42,7.03,30.84,14.08,46.34,20.96,16.37,7.27,32.84,14.32,49.25,21.5,14.07,6.15,28.1,12.37,42.18,18.51,11.14,4.86,22.37,9.51,33.48,14.45,15.49,6.9,31.04,13.66,46,21.67,25.15,13.46,49.32,28.48,71.46,46.54,10.91,8.89,21.57,18.12,30.98,28.63,11.1,12.4,21.85,25.1,30.83,39.16,7.06,11.06,13.76,22.32,18.73,34.54,1.55,3.82,2.92,7.79,5.53,11.09,.23,.29,1.39,.32,1.64,.05,.61-.69,1.05-1.58,1.35-2.47,1.22-3.64,2.27-7.34,3.54-10.96,2.56-7.3,6.24-14.01,10.9-20.19,2.73-3.62,6.03-6.55,10.05-8.75,7.05-3.86,14.33-7.11,22.19-8.92,10.91-2.51,21.88-4.57,33-6.07,10.16-1.37,20.43-1.3,30.54-2.99,2.82-.47,5.74-.33,8.62-.36,8.96-.09,17.92-.12,26.87-.18,1.92-.01,3.84,.02,5.76-.02,5.54-.12,7.43-1.44,7.64-7.38,.15-4.2,.99-8.27,2.16-12.26,4.12-14.05,4.27-28.41,3.49-42.83-.42-7.77-2.75-15.09-6.58-21.88-3.3-5.85-6.69-11.65-10.16-17.4-2.48-4.12-5.22-8.06-9.06-11.08-1.5-1.18-3.69-1.42-5.4-.45-1.39,.79-2.75,1.62-4.07,2.53-5.54,3.79-11.1,7.57-16.59,11.44-9.98,7.04-20.77,12.62-31.78,17.79-8.45,3.97-17.26,6.84-26.54,8-13.7,1.7-25.84-5.38-31.02-17.59-1.24-2.93-2.04-6.06-2.85-9.15-1.29-4.95-2.31-9.98-3.63-14.92-.91-3.39-1.99-6.75-3.25-10.02-1.52-3.91-3.76-7.44-6.85-10.32-4.93-4.59-9.42-9.54-13.35-15.04-1.85-2.58-4.31-4.72-6.45-7.09-1.78-1.97-2.73-4.32-2.78-6.98-.04-2.24,.06-4.48,.06-6.71,0-2.56,.03-5.12-.09-7.67-.16-3.38-1.63-6.24-4.3-8.25-2.28-1.72-4.79-3.18-7.3-4.55-3.09-1.68-6.31-3.11-9.44-4.71-2.01-1.03-3.81-2.36-5.12-4.25-1.97-2.84-2.53-5.89-.94-9.05,.85-1.7,1.95-3.3,3.08-4.84,2.46-3.36,5.06-6.6,7.5-9.97,3.95-5.46,7.47-11.19,9.51-17.67,.57-1.81,.97-3.72,1.12-5.61,.22-2.78-.95-5.03-3.48-6.32-2.56-1.31-5.3-2.27-7.8-3.68-1.63-.92-3.08-2.24-4.4-3.59-.94-.95-1.02-2.37-.56-3.61,.46-1.25,1.51-2.04,2.8-2.39,.61-.17,1.26-.27,1.89-.24,3.51,.13,7.01,.34,10.52,.47,3.27,.13,6.27,1.11,9.07,2.77,2.51,1.48,4.02,4.52,3.27,7.39-.81,3.08-1.77,6.15-3.01,9.08-2.63,6.21-6.24,11.88-10.28,17.28-2.11,2.82-4.21,5.64-6.18,8.56-.88,1.31-1.54,2.81-2.04,4.31-.65,1.91-.25,3.79,.84,5.49,1.6,2.5,3.89,4.22,6.47,5.57,2.83,1.48,5.75,2.81,8.57,4.31,10,5.32,12.84,10.77,11.42,21.83-.16,1.27-.44,2.52-.65,3.78-.54,3.41,.43,6.34,2.9,8.73,3.7,3.57,6.78,7.64,9.88,11.72,2.11,2.79,4.64,5.3,7.21,7.68,6.08,5.63,9.73,12.62,11.87,20.48,.92,3.39,1.45,6.88,2.3,10.3,1.23,4.96,2.36,9.97,3.92,14.83,4.61,14.33,17.63,19.32,28.16,18.66,4.52-.29,8.87-1.32,13.13-2.66,8.87-2.78,17.47-6.28,25.56-10.88,10.02-5.69,19.64-12.02,29.03-18.7,3.13-2.22,6.25-4.46,9.36-6.71,1.81-1.31,3.7-2.55,5.37-4.03,6.94-6.15,13.81-12.38,20.71-18.57,3.81-3.42,7.61-6.84,11.44-10.22,6.54-5.76,12.07-12.32,16.05-20.12,0,0,.06,.06,.06,.06-2.25,.51-4.33,1.51-5.64,3.39-5.02,7.21-11.91,12.46-18.71,17.73-14.14,10.95-28.36,21.83-43.6,31.25-8.96,5.54-17.94,11.06-27.87,14.82-8.14,3.07-16.61,4.58-25.19,5.58-2.2,.26-4.48,.17-6.7-.03-6.95-.61-12.01-4.07-14.86-10.48-1.17-2.62-2.13-5.35-2.97-8.09-2.16-7.05-5.04-13.79-8.45-20.32-2.66-5.1-5.11-10.3-7.76-15.41-5.61-10.8-10.14-22.06-14.41-33.42-3.27-8.68-5.4-17.66-6.98-26.84-1.57-9.17,0-17.78,2.6-26.4,.55-1.83,1.3-3.61,2.1-5.35,3.13-6.79,3.99-14.11,4.9-21.39,.27-2.18-.02-4.47-.34-6.67-1.34-9.23-4.05-18.05-8.3-26.39-3.77-7.4-7.45-14.85-11.18-22.27-3.17-6.31-5.34-12.95-7.29-19.74-3.24-11.26-3.75-22.71-2.68-34.2,.89-9.55,3.16-18.9,6.39-27.97,1.71-4.81,3.65-9.55,5.38-14.35,.42-1.15,.45-2.45,.59-3.69,.02-.22-.31-.56-.56-.7-.25-.15-.7-.27-.9-.15-1.33,.86-2.57,1.85-3.93,2.65-.41,.24-1.1,.01-1.66,0,.03-.59-.17-1.34,.12-1.75,2.02-2.86,3.92-5.85,6.27-8.42,2.57-2.81,5.55-5.27,8.42-7.8,1.92-1.68,4.04-3.13,5.95-4.83,4.79-4.24,4.84-4.44,6.84-11.04,.35-1.16-.15-1.74-1.04-2.19-6.58-3.26-13.21-6.43-19.75-9.79-3.39-1.74-6.8-3.55-9.45-6.41-.18-.2-.31-.72-.19-.86,.36-.42,.88-1.05,1.28-1.01,2.53,.26,5.05,.67,7.57,1.04,1.71,1.31,3.73,1.68,5.8,1.91,.53,.34,1.04,.72,1.6,.99,.19,.09,.5-.08,.76-.14-.8-.27-1.6-.53-2.41-.8-1.75-1.22-3.72-1.74-5.82-1.88-2.55-2.48-5.86-3.71-8.92-5.33-6.46-3.42-12.56-7.33-17.71-12.58-.65-.66-1.25-1.45-1.62-2.29-.19-.43,.11-1.13,.31-1.66,.08-.2,.54-.42,.78-.38,1.23,.22,2.5,.38,3.66,.82,2.67,1.02,5.34,1.98,8.22,2.13,1.29,.64,2.59,1.27,3.88,1.91,1.72,1.24,3.68,1.76,5.75,1.92,4.48,3,9.58,4.73,14.49,6.81,1.42,.6,3.06,.67,4.6,.99,0,0,.36,.23,.36,.23l-.23-.36c-.89-2.84-2.59-4.92-5.66-5.42-4.54-.74-8.96-2.25-13.63-2.17-1.68-1.36-3.67-1.77-5.75-1.92-1.3-.63-2.59-1.27-3.89-1.9-3.44-2.3-6.88-4.62-10.33-6.9-4.34-2.86-7.83-6.53-10.47-11.01-.48-.82-.81-1.73-1.21-2.59-.39-.85-.12-2.26,.57-2.59,.55-.26,1.19-.55,1.75-.49,.94,.1,1.85,.45,2.76,.72,1.83,.55,3.66,1.11,5.48,1.67,0,0-.05,.05-.05,.05-1.58-1.95-3.25-3.83-4.72-5.85-1.87-2.58-3.07-5.47-3.12-8.72-.01-.92,.18-1.86,.33-2.78,.18-1.1,1.91-2.2,2.87-1.78,2.86,1.24,5.7,2.52,8.55,3.79l-.11-.1c.65,.65,1.31,1.31,1.96,1.96l.06,.04c1.19,.59,2.38,1.17,3.57,1.76,0,0,.42,.32,.42,.32,.56,.56,1.12,1.12,1.68,1.68l.14,.11c1.28,.64,2.56,1.28,3.84,1.92l-.15-.09c2.37,2.51,4.67,5.1,7.13,7.52,2.88,2.82,4.75,2.19,5.8-1.88,.31-1.21,.43-2.48,.63-3.72l-.09,.09c3.85-4.49,7.7-8.98,11.55-13.47l.02-.02,1.8-1.79s.27-.22,.27-.22c4.36-1.18,8.32-3.2,12.1-5.63,.99-.64,1.08-2.53,.13-3.35-1.69-1.46-3.5-2.79-5.08-4.35-.87-.87-1.52-2.05-2-3.21-.8-1.92-.44-3.86,.91-5.37,1.04-1.17,2.32-2.24,3.71-2.96,5.14-2.67,10.65-4.29,16.33-5.35,.62-.12,1.27-.02,1.91-.02,1.82,0,3.83,1.62,4.14,3.36,.97,5.37-.09,10.14-4.02,14.13-.28,.28-.12,1.05-.05,1.57,.02,.12,.57,.28,.83,.22,3.72-.87,7.45-1.75,11.16-2.69,1.3-.33,1.66-1.81,.79-3.06-.91-1.3-1.96-2.52-2.77-3.88-1.11-1.87-.42-4.73,1.44-5.99,1.31-.89,2.67-1.83,4.14-2.32,3.02-1,6.13-1.78,9.23-2.52,6.56-1.57,13.28-1.59,19.97-1.77,1.16-.03,2.31,1.94,1.72,2.85-.69,1.06-1.31,2.22-2.17,3.12-2.42,2.54-4.98,4.95-7.4,7.49-.33,.35-.24,1.16-.2,1.74,.01,.17,.5,.42,.79,.45,4.14,.45,8.27,.46,12.39-.18,1.24-.19,2.22-1.19,2.41-2.62,.12-.95,.07-1.91,.14-2.87,.19-2.47,1.61-4.23,3.69-5.23,1.99-.95,4.15-1.73,6.32-2.09,11.06-1.83,22.21-2.47,33.41-1.82,1.22,.07,2.46,.56,3.59,1.08,.32,.15,.57,1.36,.32,1.65-.79,.94-1.7,1.94-2.78,2.45-4.61,2.19-9.3,4.19-13.92,6.35-.33,.15-.39,1.03-.44,1.58-.02,.21,.36,.48,.61,.66,.25,.19,.55,.33,.84,.43,2.47,.81,5.02,.93,7.58,.61,1.29-.16,2.47-.66,3.12-1.92,.29-.56,.56-1.15,.77-1.75,.92-2.68,3-4.23,5.53-4.87,4.01-1.02,8.09-2.07,12.19-2.34,5.4-.36,10.89-.38,16.26,.2,6.04,.65,12.07,1.21,18.13,1.47,1.57,.07,3.12,.56,4.66,.89,.83,.18,1.18,1.3,.76,2.31-.81,1.95-.76,2.14,.7,2.15,2.24,0,4.47,.05,6.71-.02,12.19-.36,24.21,1.22,36.19,3.27,3.12,.53,6.22,1.23,9.3,1.98,.34,.08,.52,1.02,.65,1.59,.03,.16-.38,.47-.63,.63-.26,.17-.56,.33-.86,.36-9.84,.99-19.61,2.77-29.56,2.36-.95-.04-1.91,.06-2.87,.15-.3,.03-.81,.21-.83,.37-.09,.69,.38,.96,1.17,1.1,3.77,.68,7.55,1.33,11.28,2.17,1.52,.35,2.93,1.18,4.4,1.79-.93,.05-1.87,.01-2.78,.17-.56,.1-1.25,.39-1.51,.82-.15,.25,.28,1.21,.67,1.4,5.01,2.42,10.07,4.76,15.11,7.12,1.29,.64,2.58,1.28,3.87,1.91-.26,2.99-.88,3.67-3.21,3.14-6.53-1.47-13.05-3-19.55-4.58-3.41-.83-6.75-1.93-10.17-2.66-1.83-.39-3.84-.61-5.65-.26-4.19,.81-8.22,.35-12.32-.51-5.93-1.24-11.9-2.28-17.84-3.45-2.22-.44-4.43-.64-6.64-.09-5.08,1.26-10.1,.72-15.18-.09-6.29-1-12.62-1.73-18.95-2.45-1.2-.13-2.84-.05-3.66,.66-3.32,2.86-7.03,2.58-10.88,1.89-5.69-1.02-11.44-.9-17.17-.85-1.54,.02-3.44,.17-4.55,1.05-3.02,2.42-6.45,2.49-9.97,2.57-5.42,.11-10.84,.19-16.25,.37-.47,.02-1.36,.69-1.32,.98,.3,2.58-1.42,3.46-3.36,3.76-7.24,1.12-14.4,2.67-21.79,2.74-7.67,.07-15.3,.04-22.82-1.78-1.86-.45-3.76-.7-5.63-1.11-2.37-.52-4.39,.22-6.28,1.56-2.43,1.72-4.15,3.93-4.89,6.85,0,0-.04-.04-.04-.04,3.12-2.37,6.57-3.88,10.54-4.04,10.2-.41,20.39-.35,30.56,.39,.61,.04,1.27,.29,1.76,.65,.47,.35,1,.95,1.03,1.46,.03,.52-.39,1.36-.84,1.58-2.85,1.37-5.77,2.62-8.67,3.9-1.59,.7-1.7,1.46-.54,3.69,.8,1.54,.88,2.73,.04,3.44-2.42,2.05-4.9,4.02-7.33,6.05-.19,.16-.24,.61-.17,.88,.06,.25,.33,.58,.57,.64,1.53,.39,3.09,.66,4.61,1.09,1.13,.32,1.85,1.93,1.58,3.15-1.18,5.38-4.14,9.27-9.48,11.01-5.18,1.68-10.49,2.7-15.96,2.6-.65-.63-1.29-1.26-1.94-1.88-.65-.65-1.29-1.3-1.94-1.95-.6-4.32,.46-7.93,4.36-10.37,.51-.32,.92-.81,1.38-1.22,.6-.08,1.2-.14,1.78-.27,.21-.05,.37-.28,.55-.43-.98-.4-1.56,.37-2.27,.78-2.83-.28-5.67-.45-8.36-1.55-3.04-1.25-4.08-5.57-1.68-7.9,1.11-1.08,2.44-2.02,3.84-2.67,1.92-.89,3.99-1.45,6.9-2.47-4.08-.51-7.19-.93-10.31-1.29-1.63-.19-3.13,.79-3.78,2.24-1.06,2.39-1.29,4.84-.86,7.42,1.11,6.73,3.7,12.73,8.52,17.67,.65,.65,1.3,1.29,1.95,1.94l1.88,1.93c2.96,4.72,6.82,8.52,11.53,11.48,.64,.65,1.29,1.3,1.93,1.95,.64,.64,1.28,1.28,1.92,1.92,0,.65,0,1.31,0,1.96-4.49,0-8.98,0-13.48,0-.46-.32-.89-.69-1.38-.95-.72-.39-1.13-.2-.98,.41,.04,.15,.48,.25,.75,.29,.56,.08,1.12,.11,1.68,.17,4,2.68,8.57,3.83,13.14,4.99,.28,.07,.73,.05,.89-.12,.37-.42,.95-1.05,.84-1.41-.36-1.19-.99-2.29-1.52-3.43,1.3,0,2.61,0,3.91-.01,.9,1.35,1.86,2.68,3.65,2.74,.45,.01,.95-.61,1.35-1.02,.07-.07-.2-.71-.38-.76-1.54-.35-3.11-.61-4.66-.9-1.28-.64-2.57-1.27-3.85-1.91-.64-.64-1.28-1.28-1.92-1.92-.65-.64-1.3-1.29-1.95-1.93-.04-.64-.05-1.28-.11-1.91-.41-4.45,1.83-7.31,5.63-9.1,3.49-1.65,7.2-2.64,11.04-3.08,2.75-.32,4.85,1.07,5.72,3.96,.46,1.52,.7,3.11,1.1,4.66,.24,.91,.59,1.8,.9,2.69,.25,.7,1.8,1.33,2.49,.93,5.23-3.07,10.5-6.07,15.64-9.29,7.37-4.63,15.26-8.03,23.57-10.55,9.18-2.78,18.32-5.71,27.47-8.59,7.66-2.41,15.45-4.07,23.49-4.55,2.87-.17,5.74-.45,8.58-.87,5.73-.86,11.47-.8,17.23-.44,.29,.02,.77,.24,.8,.43,.11,.67-.33,1.05-1.11,1.16-4.1,.62-8.19,1.6-12.31,1.81-8.09,.42-15.83,2.39-23.4,4.93-9.4,3.15-18.62,6.82-27.93,10.2-5.15,1.87-9.96,4.35-14.45,7.46-3.68,2.55-7.46,4.98-10.97,7.74-6.78,5.34-13.42,10.86-20.07,16.36-3.45,2.85-6.88,5.73-10.17,8.76-4.24,3.89-8.35,7.92-12.45,11.96-.65,.64-1.1,1.58-1.37,2.47-.14,.47,.17,1.29,.56,1.64,.39,.35,1.28,.6,1.69,.39,1.11-.56,2.3-1.2,3.07-2.14,3.06-3.72,6.27-7.25,10.15-10.15,11.01-8.24,21.94-16.59,33.41-24.2,13.43-8.92,27.81-15.74,43.29-20.24,6.77-1.97,13.72-3.05,20.66-4.2,8.93-1.48,17.79-1.77,26.72-.26,2.2,.37,4.45,.54,6.68,.61,11.25,.32,22.24,2.31,33.12,5.05,10.87,2.74,21.45,6.41,31.91,10.41,4.18,1.6,8.32,3.33,12.36,5.24,16.65,7.86,31.21,18.71,44.51,31.36,5.58,5.31,10.52,11.17,15.25,17.22,9.1,11.63,16.82,24.17,23.21,37.44,4.15,8.63,7.85,17.48,11.27,26.47,7.07,18.61,12.22,37.74,16.34,57.14,4.45,20.97,6.95,42.26,9.74,63.5,.71,5.39,1.35,10.78,1.96,16.18,.93,8.26,1.77,16.52,2.72,24.78,.95,8.25,2.21,16.48,2.95,24.75,1.31,14.67,3.48,29.22,6.52,43.61,2.77,13.14,5.97,26.19,11.33,38.61,5.38,12.48,12.53,23.68,22.25,33.27,5.99,5.9,12.56,10.86,20.04,14.67,1.4,.71,3.29,1.47,3.2,3.2-.12,2.43-2.57,2.43-4.33,2.99-1.22,.38-2.47,.67-3.72,.95-10.29,2.32-20.59,4.62-30.88,6.96-1.55,.35-3.07,.87-4.59,1.37-.26,.08-.58,.45-.59,.69,0,.25,.29,.67,.53,.73,3.08,.86,6.17,1.67,9.26,2.48,9.07,2.39,17.52,6.03,24.85,12.03,1.98,1.62,4.13,3.02,6.14,4.61,4.6,3.63,8.5,7.76,9.83,13.76,.27,1.22,.98,2.35,1.53,3.51,1,2.13,2.98,2.15,4.45,.06,.18-.26,.36-.53,.55-.79,5.2-7.29,10.24-14.7,15.66-21.82,4.45-5.85,9.3-11.39,14.05-17,2.72-3.21,5.9-5.84,10.05-7.1,.88-.27,1.64-.96,2.43-1.49,1.16-.76,.88-3.42-.44-4.14-.84-.45-1.65-1.06-2.55-1.27-4.36-1-8.72-2-13.13-2.77-1.52-.27-3.24-.11-4.74,.29-5.95,1.6-11.49,.23-16.73-2.38-9.53-4.75-18.09-10.78-24.77-19.28-6.39-8.15-11.29-17.08-14.5-26.88-4.69-14.3-8.36-28.88-10.99-43.69-1.73-9.76-3.18-19.55-4.41-29.4-1.9-15.22-4.39-30.37-6.59-45.56-.78-5.38-1.54-10.76-2.16-16.16-.87-7.62-1.49-15.27-2.44-22.88-.79-6.34-1.78-12.66-2.88-18.96-2.41-13.88-5.79-27.52-9.71-41.06-6.33-21.88-14.54-43.01-24.66-63.39-2.98-6.01-6.31-11.86-9.66-17.68-11.2-19.49-24.04-37.75-40.17-53.55-2.51-2.46-5.02-4.93-7.47-7.46-7.39-7.6-15.75-14.01-24.45-20.03-8.97-6.2-18.41-11.56-28.21-16.31-3.43-1.66-7.1-2.98-9.85-5.84l.03-.03c4.92,.15,9.38,2.01,13.69,4.07,8.36,4,16.75,7.98,24.87,12.44,6.71,3.69,13.24,7.79,19.49,12.21,10.97,7.76,21.31,16.33,30.62,26.07,2.87,3,5.88,5.88,8.74,8.89,2.63,2.78,5.26,5.59,7.69,8.55,6.07,7.42,12.06,14.92,17.36,22.93,.7,1.06,1.5,2.07,2.31,3.06,1.49,1.83,3.44,2.84,5.78,3,1.59,.11,3.19,.18,4.79,.19,7.99,.02,15.99,.02,23.98-.02,.42,0,.84-.38,1.3-.61-1.15-.89-2.49-.53-3.68-.83-2.46-.62-4.92-1.27-7.33-2.05-.33-.11-.48-.99-.57-1.53-.03-.21,.28-.62,.53-.72,1.17-.48,2.34-1.15,3.57-1.28,7.94-.86,15.78-2.61,23.81-2.55,.97,0,1.21-.37,.68-.98-2.18-.25-4.4-.49-6.6-.77-1.12-.14-2.15-1.14-1.82-1.84,.37-.79,.9-1.75,1.62-2.1,2.29-1.12,4.7-2,7.07-2.97,.88-.36,1.82-.64,2.6-1.16,.57-.38,.29-.96-.32-1.47-.71-.59-1.64-1.21-1.9-2.01-.46-1.39,.61-2.44,1.63-3.19,2.57-1.89,5.26-3.62,7.84-5.51,.42-.31,.54-1.05,.71-1.62,.02-.08-.48-.4-.77-.46-1.56-.3-3.14-.5-4.69-.85-1.07-.24-2.03-1.91-1.9-3.02,.51-4.48,2.88-7.78,6.73-9.89,1.93-1.05,4.14-1.72,6.3-2.19,3.75-.81,7.56-1.32,11.34-1.96,0,0-.08,.08-.08,.08-1.64-1.94-3.18-3.97-4.93-5.8-1.99-2.09-3.06-1.96-5.28,.64-4.66,5.46-10.93,7.43-17.72,8.16-1.68,.18-3.15-.93-3.8-2.45-.99-2.32-1.92-4.73-2.4-7.2-.6-3.07,.68-5.73,3.22-7.47,2.08-1.43,4.44-2.45,6.68-3.66,.79-.43,.89-1.88,.17-2.51-.48-.42-.96-.84-1.48-1.2-2.48-1.68-4.22-1.76-5.22,1.08-1.5,4.28-4.64,6.73-8.72,8.22-2.27,.83-4.45,.63-6.27-1.01-3.33-3.01-6.1-6.51-8.31-10.41-1.33-2.35-1.62-4.83-.06-7.25,.52-.8,1.09-1.57,1.63-2.36,.81-1.2,.79-2.38-.13-3.5-1-1.23-2.03-2.44-3.05-3.66,2.65,.99,5.31,1.97,7.96,2.98,1.77,.68,3.47,1.55,5.28,2.05,.79,.22,1.78-.22,2.66-.45,.21-.06,.4-.46,.45-.74,.05-.27,0-.75-.17-.85-3.93-2.12-8.23-3.15-12.56-3.92-1.1-.19-2.38,.63-3.57,.98-1.54,.7-2.73,1.75-2.53,3.57,.33,2.92,.11,5.66-1.58,8.19-1.36,2.05-3.8,2.93-5.74,1.85-5.56-3.09-10.51-7.04-15.28-11.2-2.74-2.39-4.46-5.5-3.81-9.26,.63-3.6-1.09-5.4-4.15-6.38-2.4-.78-4.86-1.39-7.29-2.08,0-.68,0-1.35,0-2.03,4.86,.21,9.24,2.13,13.6,4,3.42,1.47,6.75,1.53,10.14,.17,.51-.2,.86-.79,1.29-1.2-.22-.2-.42-.53-.66-.57-8.13-1.28-16.08-3.59-24.31-4.25-.26-.09-.53-.18-.79-.27,.28,.07,.56,.14,.84,.21,0,.65-.02,1.31-.03,1.96,0,.63,0,1.27,.01,1.9,1.08,2.29,2.27,4.54,3.2,6.9,.45,1.14,.47,2.47,.56,3.72,.13,1.64-1.65,3.16-3.1,2.69-1.2-.39-2.43-.75-3.55-1.3-9.15-4.45-18-9.39-25.97-15.79-.65-.65-1.29-1.3-1.94-1.94,.05-2.76-.69-5.32-1.95-7.75,2.23,.11,4.46,.36,6.68,.24,.74-.04,1.55-.92,2.1-1.6,.51-.63-.45-1.8-1.49-1.93-4.75-.59-9.49-1.19-14.25-1.76-.27-.03-.71,.15-.83,.36-.1,.17,.08,.71,.28,.82,2.52,1.35,5.07,2.64,7.62,3.95-1.09,.37-2.34,.53-3.23,1.18-.81,.59-.12,2.16,1.59,3.69,1.11,.99,2.36,1.83,3.54,2.73,.65,.64,1.3,1.29,1.95,1.93-.05,.31-.06,.64-.15,.94-.86,2.69-1.95,3.54-3.85,3-1.22-.35-2.46-.66-3.62-1.15-6.43-2.73-12.84-5.53-19.26-8.28-3.21-1.37-6.43-2.69-9.65-4.04-.64-.65-1.28-1.3-1.91-1.94,0,0,.04-.04,.04-.04,.65,.64,1.29,1.28,1.94,1.92-.56,1.23-1.43,2.11-2.84,2.11-.93,0-1.91-.12-2.79-.42-10.19-3.42-20.37-6.87-30.55-10.33-2.69-.91-5.36-1.89-8.03-2.83-1.29-.64-2.59-1.27-3.88-1.91-2.64-4.68-7.14-7.13-11.55-9.68,2.23-.22,4.44-.48,6.38-1.75,5.01-3.29,10.64-4.03,16.46-3.99,1.91,.02,3.83,.03,5.72,.28,13.89,1.84,27.77,3.78,41.4,7.13,2.16,.53,4.3,1.18,6.4,1.9,.47,.16,.76,.84,1.14,1.29-.46,.37-.89,.77-1.37,1.1-1.06,.72-.82-.85-.83,.43,0,.26,.03,.74,.08,.75,7.62,.8,15.05,2.63,22.55,4.09,9.4,1.83,18.49,4.79,27.69,7.38,1.84,.52,3.9,.98,4.95,2.66,1.89,3.05,4.94,3.74,8,4.67,8.83,2.69,17.66,5.39,26.43,8.29,3.3,1.09,6.42,2.73,9.61,4.16,.22,.1,.47,.66,.4,.76-.34,.42-.77,1.04-1.2,1.07-2.22,.15-4.45,.14-6.67,.18-1.92-1.18-4-1.72-6.26-1.66-.84,.02-1.27,.28-1.08,.91,.05,.18,.54,.3,.84,.31,2.18,.14,4.37,.25,6.56,.36,2.09,.69,4.14,1.48,6.26,2.06,14.36,3.95,28.22,9.2,41.45,16.04,.84,.43,1.64,.94,2.46,1.43,1.41,.84,1.3,2.03-.33,3.6-.28-.11-.56-.21-.84-.32,.3,.08,.61,.16,.91,.23,1.96,1.04,3.86,2.19,5.88,3.1,7.55,3.38,14.74,7.4,21.74,11.78,2,1.25,3.93,2.45,1.93,5.23-.2,.28,.18,1.32,.58,1.62,1.78,1.32,3.6,2.61,5.52,3.7,5.03,2.82,9.22,6.71,13.55,10.43,.78,.67,1.08,2.02,.59,2.53-.76,.79-1.71,.72-2.64,.44-.91-.27-1.8-.61-2.7-.93-1.79-.63-3.56-1.39-5.39-1.88-2.13-.58-4.33-.93-6.5-1.38-1.87-1.09-3.63-2.51-5.64-3.22-7.07-2.5-13.93-5.46-20.67-8.71-1.39-.67-2.94-1.02-4.41-1.52,0,0,.05-.05,.05-.05,2.33,2.59,4.63,5.22,7.02,7.76,1.35,1.44,3.03,2.3,5.1,2.06,3.25-.37,6.29,.6,9.37,1.4,3.07,.79,6.17,1.46,9.26,2.19,3.15,2.83,7.14,4.2,10.76,6.22,5.41,3.02,9.84,7.08,13.46,12.06,.93,1.28,1.57,2.78,2.31,4.19,.47,.9,.33,2.42-.26,2.63-.56,.2-1.24,.45-1.76,.31-2.45-.69-4.87-1.51-7.3-2.28-1.28-.64-2.56-1.29-3.84-1.93,0,0,.04-.04,.04-.04,1.29,.63,2.58,1.26,3.86,1.89,2.17,3.81,5.24,7.13,6.42,11.46,.4,1.47,.44,3.06,.42,4.6-.02,1.45-2.13,2.85-3.46,2.42-1.19-.39-2.37-.8-3.51-1.32-2.56-1.17-5.08-2.42-7.62-3.63-.64-.65-1.29-1.3-1.93-1.95-1.29-.63-2.57-1.26-3.86-1.89-4.43-4.02-8.85-8.04-13.3-12.03-.17-.15-.66-.1-.91,.03-.25,.13-.51,.47-.53,.75-.46,4.58,.17,5.74,4.13,7.27,3.53,1.37,7.11,2.62,10.67,3.92,1.28,.64,2.57,1.27,3.85,1.91,.65,.64,1.3,1.29,1.95,1.93,.98,1.65,2.2,3.2,2.9,4.96,1.94,4.85,1.24,9.39-2.09,13.48-1.22,1.5-3.68,1.92-5.19,.8-1.28-.95-2.56-1.92-3.72-3.01-5.13-4.82-10.28-9.62-14.67-15.15-1.02-1.29-2.76-1.15-4.17,.29-.66,.67-1.41,1.45-1.62,2.31-.19,.79,0,2.09,.54,2.55,1.44,1.23,3.15,2.15,4.77,3.15,2.2,1.35,4.21,2.89,5.84,4.92,2.79,3.46,2.62,8.38-.54,11.31-2.84,2.63-6.03,4.72-9.72,6.02-2.26,.79-4.72,.2-5.93-1.81-1.63-2.74-3.12-5.57-4.5-8.44-.68-1.43-.95-3.04-1.44-4.57-.46-1.43-.05-3.58-2.14-3.8-1.95-.2-3.71,.85-5.08,2.26-.35,.36-.58,1.38-.35,1.67,1.61,1.96,3.43,3.75,5.03,5.72,1.63,2,1.51,5.18-.26,7.08-1.08,1.16-2.22,2.38-3.57,3.14-5.35,3-11.12,4.83-17.22,5.58-.32,.04-.64,.01-.96,.02-2.25,.06-4.4-1.83-4.52-4.07-.07-1.27-.1-2.56,.08-3.81,.31-2.21,.8-4.39,1.18-6.59,.15-.88-.87-2.01-1.68-2.02-2.29-.02-4.44,.57-6.43,1.63-.41,.22-.82,1.21-.65,1.61,.59,1.46,1.5,2.79,2.14,4.24,.94,2.13,.23,4.73-1.67,6-1.32,.88-2.69,1.83-4.18,2.29-3.35,1.05-6.78,1.82-10.18,2.69-1.54,.39-3.1,.72-4.63,1.14-.91,.25-1.99,2.23-1.71,3.19,.64,2.13,1.14,4.35,2.11,6.34,6.63,13.55,11.53,27.76,16.2,42.06,4.98,15.24,8.76,30.76,11.08,46.63,1.99,13.6,3.78,27.24,5.82,40.84,1.94,12.97,4.06,25.91,6.16,38.85,1.64,10.1,3.18,20.23,5.12,30.27,3.22,16.66,6.92,33.2,13.38,48.98,1.33,3.25,2.8,6.45,4.29,9.64,5.84,12.52,14.79,22.33,26.29,29.86,2.4,1.57,4.91,3.12,7.58,4.1,6.6,2.43,13.32,4.54,20,6.73,.9,.3,1.88,.38,2.82,.55,2.32,.43,4.43,.02,6.3-1.51,2.96-2.44,5.99-4.81,8.92-7.29,18.37-15.52,37.91-29.4,58.62-41.62,17.36-10.24,34.95-20.06,52.8-29.43,10.48-5.5,20.78-11.33,31.17-17.01,1.68-.92,3.34-1.89,5.03-2.8,18.87-10.16,37.84-20.14,56.6-30.51,26.87-14.86,53.78-29.67,80.32-45.12,25.99-15.13,51.55-30.98,77.25-46.59,18.88-11.47,37.14-23.87,54.72-37.26,10.19-7.76,19.84-16.17,28.53-25.61,6.97-7.56,12.69-16.05,18.06-24.78,7.72-12.55,14.73-25.49,20.55-39.03,5.06-11.78,8.99-23.96,11.75-36.49,1.1-5,2.08-10.03,2.9-15.08,.62-3.78,.93-7.61,1.32-11.42,.38-3.82,.58-7.65,1.04-11.46,.81-6.71,.85-13.4,.01-20.1-.32-2.54-.77-5.08-.86-7.62-.63-17.33-3.35-34.35-7.59-51.14-.63-2.48-1.21-4.98-1.66-7.5-.28-1.56-.38-3.18-.4-4.77-.02-1.63,.33-3.21,1.82-4.19,1.55-1.01,3.21-.6,4.5,.35,4.1,3.05,8.35,5.98,12.06,9.47,18.61,17.55,33.57,37.76,43.16,61.6,4.67,11.62,7.85,23.69,7.67,36.39-.03,1.92-.04,3.84,.05,5.76,.81,17.47-2.19,34.41-6.96,51.12-1.67,5.84-3.22,11.72-4.83,17.58-3.38,12.37-7.75,24.38-13.22,35.99-.8,1.71-1.36,3.54-1.98,5.34-.07,.2,.19,.6,.4,.78,.21,.18,.64,.35,.82,.26,4.84-2.56,9.16-5.88,12.71-9.98,10.48-12.12,20.37-24.66,26.89-39.52,3.35-7.65,6.38-15.34,7.33-23.73,.39-3.48,1.21-6.93,2.05-10.35,.29-1.17,1.16-2.22,1.89-3.24,.59-.82,2.84-1.15,3.55-.54,1.2,1.03,2.5,2.02,3.42,3.28,10.57,14.5,17.21,30.62,19.59,48.42,.76,5.69,1.86,11.34,1.86,17.16,0,8.39-1.16,16.62-3.24,24.67-3.22,12.47-8.29,24.2-15.37,35-6.13,9.37-12.23,18.75-19.46,27.35-5.99,7.12-12.49,13.69-19.61,19.68-6.87,5.78-14.19,10.93-21.68,15.84-1.32,.87-2.48,1.98-3.67,3.03-.16,.14-.15,.67-.02,.91,.13,.24,.53,.51,.79,.49,6.73-.53,13.32-1.93,19.67-4.09,15.24-5.18,29.56-12.17,42.06-22.55,5.47-4.54,10.28-9.54,13.49-16.01,1.85-3.71,4.18-7.19,6.37-10.72,.49-.78,1.3-1.38,2-2.01,.77-.7,2.73-.44,3.57,.26,1.54,1.28,2.34,3.01,3.1,4.77,3.79,8.66,4.53,17.92,5.32,27.17,.11,1.27,.08,2.57-.05,3.84-1.42,13.75-3.88,27.2-10.48,39.63-3.18,5.99-6.91,11.56-11.36,16.58-5.73,6.46-11.8,12.62-18.69,17.9-6.09,4.67-12.02,9.57-18.29,13.98-10.75,7.55-21.98,14.31-34.18,19.34-.51,.21-.83,.87-1.24,1.32-.52,.57,.63,1.44,2,1.51,.96,.05,1.92,.08,2.87,.13,11.68,.62,22.93-1.74,33.98-5.17,11.37-3.53,22.08-8.47,31.71-15.61,4.41-3.27,8.4-6.88,11.68-11.29,2.29-3.08,4.61-6.14,7.04-9.11,.78-.95,1.93-1.66,3-2.32,1.45-.9,4.26,.04,5.03,1.56,1.63,3.19,2.37,6.64,2.67,10.15,1.73,20.37-2.27,39.44-12.86,57.06-6.35,10.56-14.37,19.51-24.38,26.77-22.72,16.5-47.1,29.59-74.37,36.88-4.62,1.24-9.19,2.68-13.77,4.06-.24,.07-.57,.47-.55,.68,.06,.58,.12,1.5,.47,1.66,7.31,3.39,14.96,5.82,23.02,6.11,9.58,.35,19.19,.26,28.78-.03,3.79-.11,7.62-1,11.3-2.02,11.48-3.19,22.5-7.41,31.49-15.66,1.42-1.3,2.99-2.37,4.94-2.82,1.43-.33,3.45,1.03,3.5,2.47,.24,6.82-1.2,13.37-3.37,19.75-6.5,19.04-17.81,34.56-34.3,46.21-6.05,4.27-12.65,7.6-19.48,10.29-13.1,5.15-26.37,9.9-40.31,12.36-8.18,1.45-16.39,2.58-24.73,3.05-9.59,.54-19.08,1-28.68-.05-5.7-.62-11.5-.48-17.17-1.65-.55-.11-1.2,.28-1.8,.44,.22,.55,.29,1.39,.7,1.61,9.81,5.44,18.89,11.99,28.08,18.39,9.05,6.31,19.46,9.56,30.34,11.23,1.89,.29,3.86,.16,5.73,.55,11.96,2.49,23.53,.31,35.06-2.67,3.08-.8,6.19-1.52,9.32-2.1,1.88-.35,3.78,2,3.2,3.78-.4,1.21-.78,2.45-1.41,3.54-8.36,14.47-19.98,25.62-34.41,33.98-13.06,7.57-27.18,10.99-42.16,11.3-4.48,.09-8.96,.05-13.44,.06-18.79,.05-36.85-3.77-54.32-10.53-4.17-1.61-8.12-3.77-12.2-5.62-1.44-.65-2.95-1.16-4.45-1.67-.19-.06-.59,.22-.74,.44-.15,.23-.26,.65-.14,.87,4.54,8.6,10.6,15.89,18.35,21.84,10.6,8.15,22.61,13.18,35.42,16.53,4.37,1.14,8.87,1.13,13.35,1.17,4.5,.04,8.94,.39,13.25,1.83,1.87,.62,2.62,3.14,1.34,4.72-.8,.99-1.6,2.01-2.52,2.88-6.57,6.16-13.79,11.33-21.98,15.25-11.13,5.33-22.89,8.07-35.04,9.44-2.53,.29-5.14,.32-7.66,.02-6.67-.78-13.36-1.47-19.82-3.48-1.83-.57-3.68-1.09-5.54-1.58-19.45-5.12-37.02-14.03-53-26.19-2.03-1.54-4.15-2.98-6.3-4.35-.36-.23-1.13,.08-1.66,.27-.17,.06-.33,.57-.27,.82,2.31,9.9,7.23,18.44,14.07,25.81,6.8,7.33,14.91,13.05,23.7,17.77,3.97,2.13,8.28,3.37,12.64,4.44,3.1,.76,6.22,1.49,8.97,3.27,1.62,1.05,2.11,3.67,.75,5.01-1.13,1.11-2.27,2.3-3.61,3.1-12.86,7.73-26.6,12.48-41.81,12.14-1.28-.03-2.56-.07-3.84,0-9.18,.55-17.82-1.73-26.08-5.37-12.62-5.57-24.69-12.17-35.47-20.86-3.48-2.8-6.57-6.08-9.89-9.08-1.16-1.05-2.48-1.92-3.77-2.82-.17-.12-.63,.03-.86,.2-.24,.17-.48,.5-.5,.77-.04,.63-.08,1.32,.13,1.89,1.21,3.3,2.15,6.76,3.83,9.81,5.42,9.89,11.93,18.91,21.24,25.65,3.13,2.26,6.31,4.35,9.79,6,3.76,1.79,7.52,3.55,11.23,5.44,1.41,.72,2.7,1.69,3.98,2.64,1.51,1.12,1.59,3.97,.17,5.11-.99,.8-1.97,1.67-3.09,2.22-8.39,4.17-17.1,7.19-26.62,7.21-3.2,0-6.4,.04-9.6,.05-11.23,.06-21.36-3.38-30.73-9.45-8.07-5.23-15.81-10.89-23.19-17.04-4.18-3.49-8.02-7.34-11.46-11.58-5.44-6.72-10.84-13.46-14.91-21.14-.59-1.1-1.52-2.03-2.34-3-.16-.18-.59-.23-.86-.17-.24,.05-.57,.31-.62,.53-.14,.61-.32,1.28-.18,1.86,1.39,5.98,1.46,12.07,1.34,18.14-.3,15.1,5.16,28.04,14.3,39.78,4.19,5.38,8.96,9.94,14.86,13.38,2.19,1.28,4.18,2.94,6.18,4.53,1.54,1.23,.98,3.89-.82,4.8-2.63,1.32-5.42,2.04-8.31,2.09-5.75,.09-11.57,.5-17.25-.14-12.74-1.43-24.08-6.38-33.32-15.46-4.79-4.7-9.47-9.55-13.81-14.66-5.82-6.85-10.68-14.37-14.48-22.55-.8-1.72-1.88-3.31-2.88-4.94-.12-.19-.56-.28-.83-.24-.25,.03-.65,.26-.68,.45-.68,4.41-1.59,8.81-1.9,13.25-.39,5.49,1,10.83,2.57,16.03,2.81,9.34,7.3,17.71,14.79,24.26,2.63,2.3,5.37,4.55,7.24,7.62,.99,1.63,.21,4.09-1.65,4.78-.89,.33-1.79,.76-2.72,.88-13.16,1.72-25.5-.68-36.82-7.68-2.42-1.5-4.57-3.49-6.66-5.46-8.01-7.53-14.06-16.55-19.39-26.09-1.24-2.22-2.45-4.47-3.72-6.68-.12-.21-.68-.41-.79-.32-.42,.34-1.03,.79-1.06,1.24-.36,5.57,1.3,10.76,3.25,15.85,2.31,6.04,5.61,11.45,10.47,15.88,2.11,1.92,3.95,4.18,5.68,6.46,1.67,2.19,.43,5.23-2.29,6.16-.6,.2-1.2,.49-1.82,.59-13.64,2.13-26.11-.55-36.97-9.32-1.97-1.59-3.67-3.57-5.23-5.57-7.09-9.12-13.69-18.55-17.35-29.68-.2-.6-.46-1.23-.86-1.7-.37-.43-.97-.9-1.49-.91-.52-.01-1.27,.38-1.54,.83-2.58,4.16-4,8.69-4.02,13.62,0,2.24,.01,4.48,.04,6.72,.05,3.91,1.02,7.59,2.82,11.06,1.33,2.56,2.69,5.1,3.9,7.71,.66,1.43,1.1,2.99,1.53,4.51,.37,1.31-.79,3.57-2.07,3.95-1.52,.44-3.12,1.03-4.64,.94-13.72-.78-24.97-6.3-31.3-18.84-9.26-18.35-11.78-37.71-6.4-57.81,.24-.91,.78-1.74,1.18-2.6,.4-.85,1.74-1.51,2.4-1.12,.52,.31,1.25,.66,1.39,1.13,.92,3.06,1.71,6.15,2.53,9.24,1.32,4.94,2.58,9.9,4.99,14.46,.13,.24,.53,.55,.73,.51,.54-.11,1.18-.28,1.53-.66,.42-.44,.66-1.1,.83-1.71,2.93-10.63,10.27-17.43,19.54-22.55,1.12-.62,2.31-1.1,3.48-1.6,1.94-.83,4.05-.22,4.97,1.54,.89,1.69,1.75,3.41,2.46,5.19,3.85,9.6,9.46,18.13,15.97,26.1,.8,.98,1.84,1.78,2.77,2.66,0,0-.05,.05-.05,.05-.43-3.16-.79-6.34-1.31-9.49-.54-3.22-.38-6.36,.41-9.51,2.81-11.3,8.7-20.52,18.24-27.31,1.22-.87,3.46-.35,4.15,1.07,1.39,2.87,2.73,5.77,3.95,8.71,5.48,13.13,13.16,24.82,22.83,35.23,.35,.37,1.15,.33,1.74,.48,.14-.59,.5-1.23,.38-1.76-.42-1.87-1.04-3.69-1.54-5.55-4.5-16.93-.27-31.57,11.71-44.12,1.76-1.85,3.69-3.54,5.62-5.21,1.65-1.43,3.94-1.14,4.99,.6,1.15,1.92,2.29,3.85,3.26,5.86,3.62,7.53,8.1,14.5,13.18,21.13,6.65,8.68,14.51,16.17,22.64,23.41,.94,.83,2.43,1.06,2.48,.48,.08-.89,.14-1.89-.18-2.68-1.22-2.95-2.6-5.84-3.92-8.76-6.19-13.68-5.45-27.33,.22-40.94,2.48-5.95,5.65-11.49,10.35-16,.91-.88,1.98-1.6,3.01-2.34,.9-.65,2.84-.59,3.63,.16,1.61,1.54,3.36,2.99,4.7,4.75,10.03,13.15,22.58,23.46,36.27,32.49,3.73,2.46,7.64,4.64,11.49,6.92,.25,.15,.69,.19,.93,.06,.67-.34,.84-.97,.4-1.62-2.15-3.18-4.39-6.3-6.5-9.5-9.94-15.11-10.43-31.21-4.55-47.77,1.49-4.18,3.9-8.05,6.02-11.98,.58-1.08,1.63-1.94,2.55-2.81,1.01-.95,3.55-.95,4.47,.05,1.93,2.12,3.87,4.25,5.62,6.52,8.27,10.7,17.83,20.09,28.84,27.94,7.83,5.58,16.17,10.35,25.04,14.08,2.93,1.23,6.04,2.06,9.08,3.02,.93,.29,2.44-.32,2.43-.94,0-.61-.02-1.38-.36-1.79-1.45-1.7-3.03-3.29-4.56-4.92-1.98-2.09-4.03-4.12-5.94-6.26-7.56-8.48-11-18.51-11.55-29.78-.43-8.81,1.05-17.2,4.44-25.29,.74-1.76,1.66-3.46,2.66-5.08,1.51-2.45,4.39-3.13,6.62-1.56,2.08,1.48,4.15,3,6.05,4.7,15.23,13.55,32.39,23.9,51.48,31.02,8.71,3.25,17.68,5.63,26.85,7.11,2.81,.45,5.72,.35,8.59,.38,.43,0,.91-.63,1.27-1.05,.1-.12-.08-.65-.28-.8-1.03-.75-2.05-1.51-3.16-2.12-5.9-3.27-11.29-7.25-16.63-11.34-7.07-5.41-11.9-12.43-15.1-20.64-2.09-5.38-3.6-10.94-4.67-16.61-1.27-6.73-.83-13.37,1.16-19.92,.95-3.14,3.98-4.29,6.88-2.43,2.14,1.38,4.3,2.84,6.08,4.63,3.7,3.73,8.16,5.98,12.95,7.97,14.88,6.21,30.4,9.83,46.28,12.14,1.89,.28,3.82,.39,5.74,.41,8,.07,15.99,.12,23.99,.11,6.12,0,12.07-1.23,17.95-2.82,.51-.14,1.1-.73,1.25-1.23,.09-.31-.51-1.12-.93-1.24-2.77-.77-5.6-1.33-8.37-2.12-4.3-1.23-8.59-2.53-12.85-3.89-20.36-6.5-35.59-27.11-38.42-46.55-.05-.32-.1-.63-.14-.95-.41-3.22,1.45-5.81,4.5-6.26,.95-.14,1.9-.28,2.85-.32,1.6-.07,3.2-.06,4.8-.07,9.59-.01,19.14-.28,28.72-1.37,9.55-1.08,19.03-2.39,28.44-4.23,13.86-2.71,27.33-6.66,40.31-12.28,7.08-3.06,13.78-6.75,19.88-11.49,.41-.32,.48-1.09,.7-1.65-.59-.14-1.2-.47-1.77-.4-11.73,1.47-23.42,3.25-35.31,3.06-10.41-.17-20.33-2.09-29.54-7.09-3.93-2.14-7.94-4.16-11.73-6.54-7.41-4.66-13.4-10.85-18.26-18.12-.88-1.32-1.64-2.74-2.34-4.17-1.58-3.23-.52-5.56,2.99-6.62,1.84-.56,3.69-1.08,5.56-1.5,12.51-2.81,24.68-6.8,36.69-11.21,23.26-8.54,45.01-19.93,64.65-35.16,6.1-4.73,11.44-10.21,16.42-16.06,.18-.21,.24-.63,.17-.9-.18-.69-.73-.98-1.45-.73-5.44,1.87-10.83,3.92-16.32,5.64-8.85,2.77-17.69,5.56-26.86,7.17-7.65,1.34-15.25,1.54-22.88-.05-4.07-.85-8.16-1.63-12.2-2.59-12.99-3.08-24.64-8.8-34.64-17.75-.71-.63-1.48-1.33-2.35-1.6-.82-.25-1.91-.21-2.69,.12-.83,.35-1.54,1.13-2.14,1.86-2.45,2.95-4.81,5.98-7.26,8.94-10.88,13.13-24.22,22.67-40.66,27.63-4.01,1.21-8.09,1.77-12.27,1.99-12.3,.64-24.27-.77-35.77-5.35-1.45-.58-2.8-1.47-4.08-2.39-.39-.28-.61-1.15-.51-1.67,.1-.54,.61-1.1,1.09-1.46,.49-.37,1.14-.63,1.75-.71,6.34-.79,12.69-1.53,19.04-2.28,12.08-1.43,24.07-3.43,35.78-6.78,3.05-.87,5.95-2.3,8.87-3.57,.47-.21,.98-.93,.98-1.42,0-.4-.71-1.17-1.1-1.17-9.3,.06-18.45-1.8-27.72-2.15-4.16-.16-8.26-.73-12.11-2.45-.25-.11-.6-.58-.54-.74,.21-.55,.5-1.39,.91-1.49,1.84-.44,3.72-.88,5.6-.93,7.03-.18,14.07-.19,21.11-.3,12.89-.21,25.43-2.41,37.68-6.43,4.25-1.39,8.59-2.51,12.88-3.78,1.84-.55,3.69-1.08,5.48-1.75,18.61-6.98,36.53-15.34,53.58-25.65,11.54-6.98,22.49-14.74,32.67-23.51,6.52-5.62,12.49-11.92,18.4-18.2,3.5-3.72,6.21-8.13,8.42-12.78,0,0,.06,.06,.06,.06-3.87,.64-7.19,2.64-10.6,4.36-8,4.03-16.05,7.93-24.4,11.22-9.33,3.68-18.97,5.66-29,5.7-3.52,.02-7.04,0-10.55,.13-2.38,.1-4.28,1.28-5.52,3.33-1.32,2.19-2.47,4.48-3.78,6.67-2.63,4.38-5.15,8.85-8.04,13.05-7.99,11.6-18.58,20.19-31.41,25.92-13.17,5.89-26.97,7.7-41.25,5.48-2.84-.44-5.68-.98-8.46-1.7-1.17-.3-2.22-1.15-3.28-1.82-.7-.44-.48-2.04,.15-2.57,1.79-1.5,4-1.94,6.14-2.52,7.4-2.02,14.82-4.01,22.24-5.98,8.68-2.3,17.01-5.59,25.28-9.04,3.25-1.35,6.44-2.87,9.07-5.29,.38-.35,.64-1.2,.48-1.65-.15-.43-.95-.93-1.43-.9-3.82,.23-7.65,.45-11.44,.93-8.92,1.12-17.86,1-26.81,.59-.5-.02-1.02-.58-1.46-.96-.51-.43,.57-1.7,1.67-1.98,.93-.23,1.85-.52,2.79-.67,3.78-.64,7.56-1.32,11.36-1.84,10.18-1.4,20.04-4.16,29.89-6.9,8.68-2.41,16.64-6.54,24.27-11.28,.36-.22,.35-1.12,.38-1.7,.01-.21-.36-.59-.6-.63-7.63-1.27-14.76-4.09-21.83-7.07-2.35-.99-4.65-2.15-6.86-3.42-1.07-.62-1.95-1.62-2.81-2.54-.95-1-.99-3.55-.03-4.48,1.13-1.1,2.28-2.29,3.65-3.01,4.23-2.26,8.56-4.34,12.87-6.44,16.79-8.17,32.11-18.51,46.05-30.92,1.67-1.49,3.46-2.84,5.11-4.35,3.31-3.01,6.83-5.85,9.77-9.18,6.35-7.18,12.64-14.44,18.21-22.26,5.03-7.07,8.9-14.79,12.5-22.65,1.08-2.35,1.74-4.81,1.83-7.4,0,0,.08,.08,.08,.08-1.53,1.62-3.2,3.12-4.56,4.87-5.79,7.48-13.2,13.03-21.3,17.64-10.67,6.07-22.15,10.01-34.36,11.55-3.79,.48-7.65,.36-11.48,.42-.93,.01-1.87-.33-2.8-.56-1.78-.44-3.14-2.9-2.35-4.6,1.48-3.18,2.96-6.38,4.73-9.41,9.08-15.53,16.46-31.84,21.77-49.01,2.83-9.16,5.18-18.49,7.14-27.87,1.43-6.86,1.88-13.93,2.76-20.91,.56-4.43,1.11-8.86,1.63-13.3,.03-.25-.29-.54-.45-.81-.24,.16-.65,.28-.69,.49-2.14,9.04-4.88,17.89-7.84,26.69-8.11,24.18-19.99,46.43-35.06,66.89-7.18,9.75-15.21,18.87-24.77,26.62-7.19,5.83-13.97,12.17-21.39,17.76-16.89,12.73-34.61,24.19-52.88,34.79-12.17,7.06-24.48,13.9-36.9,20.51-61.57,32.8-124.44,63-186.81,94.2-20.03,10.02-40.32,19.5-60.33,29.55-21.74,10.92-42.95,22.79-62.91,36.78-11.01,7.72-21.76,15.7-31.96,24.51-7.52,6.5-14.72,13.28-21.72,20.31-12.23,12.28-22.87,25.88-32.71,40.1-2.54,3.66-4.94,7.54-6.63,11.63-1.61,3.91,.09,8.22,0,12.36-.04,1.59,.01,3.22,.3,4.78,1.99,10.78,1.49,21.68,1.69,32.54,.11,6.08,.27,12.13,1.01,18.19,.89,7.31,.88,14.71,0,22.03-.69,5.74-.91,11.47-.94,17.23-.13,29.12-.26,58.23-.39,87.35-.02,5.44-.15,10.86-.99,16.27-.49,3.14-.51,6.37-.57,9.57-.14,7.68-.18,15.36-.26,23.03-.07,6.72-.11,13.42-1.2,20.1-.51,3.14-.45,6.38-.51,9.57-.14,7.36-.11,14.72-.33,22.07-.12,4.15-.59,8.29-.87,12.43-.26,3.83-.63,7.65-.69,11.48-.18,12.48-.24,24.95-.33,37.43-.04,5.12-.2,10.22-.97,15.31-.47,3.15-.54,6.37-.62,9.57-.15,6.4-.2,12.8-.27,19.19-.06,5.12-.21,10.23-1.05,15.3-.42,2.51-.57,5.09-.6,7.64-.18,14.72-.24,29.43-.45,44.15-.14,9.99,1.24,19.81,3.61,29.45,5.34,21.75,10.99,43.41,16.5,65.12,4.96,19.54,9.78,39.11,14.87,58.61,7.11,27.24,14.52,54.4,21.6,81.64,4.5,17.34,8.65,34.77,12.94,52.16,1,4.04,1.93,8.09,2.86,12.14,6.26,27.12,12.65,54.2,18.71,81.36,2.16,9.67,3.5,19.51,5.29,29.26,2.71,14.81,6.27,29.41,11.35,43.6,.65,1.81,1.24,3.63,1.95,5.42,2.08,5.2,5.33,9.47,10.26,12.28,8.61,4.91,17.24,9.79,25.87,14.68,1.48,.84,2.99,.78,4.63,.4,1.53-.36,3.16-.61,4.71-.46,12.74,1.19,25.47,2.51,37.88,5.85,9.27,2.5,18.62,4.64,28.19,5.66,11.53,1.22,21.55,5.98,30.28,13.36,14.27,12.07,30.08,21.67,46.81,29.86,2.58,1.26,5.09,2.68,7.62,4.06,1.34,.73,1.63,2.06,.49,3.98-.78,1.32-.69,2.32,.18,3.43,1.86,2.37,4.55,3.43,7.14,4.68,1.22,.59,1.23,2.4,.15,3.26-1.69,1.37-4.18,1.67-5.12,4.12-.25,.65-1.51,1.17-2.36,1.27-1.57,.19-3.21,.18-4.78-.04-3.5-.49-6.97-.79-10.5-.13-2.56,.47-5.08-.1-7.59-.67-6.92-1.56-13.37-4.37-19.76-7.33-4.95-2.29-10.02-4.28-15.3-5.6-2.77-.69-5.66-.89-8.5-1.24-1.17-.14-2.44,.69-2.14,1.27,.28,.53,.58,1.13,1.04,1.46,.77,.55,1.64,1.03,2.53,1.35,6.96,2.52,13.34,6.15,19.65,9.96,9.31,5.61,18.59,11.27,28.5,15.83,2.26,1.04,4.16,2.9,6.15,4.47,.96,.76,1.17,2.42,.68,3.53-.57,1.31-1.7,1.97-2.99,2.08-1.57,.13-3.21,.14-4.76-.15-7.26-1.37-14.29-3.42-20.89-6.87-4.54-2.37-9.17-4.55-13.79-6.74-1.75-.83-3.61-1.18-5.59-1.03-2.35,.17-3.97,2.6-3.26,4.82,.9,2.85,2.75,5.03,4.65,7.19,3.05,3.46,4.83,7.51,5.53,12.03,.14,.91-.06,1.89-.18,2.83-.14,1.11-2,2.23-2.95,1.74-1.12-.57-2.32-1.1-3.25-1.92-6.52-5.76-11.89-12.5-16.57-19.81-.86-1.35-1.63-2.76-2.55-4.06-1.33-1.87-3.16-3.12-5.32-3.92-1.9-.71-4.27,.17-4.77,1.93-.53,1.84-.85,3.74-1.44,5.56-1.17,3.58-3.55,5.96-7.21,7.08-6.9,2.11-13.93,2.06-20.91,.9-6.62-1.1-13.11-2.85-19.43-5.22-5.69-2.13-11.43-4.14-17.23-5.94-10.75-3.34-21.75-5.46-33.05-5.09-14.46,.48-27.81-3.57-40.76-9.43-11.19-5.07-19.53-13.15-25.19-24.05-4.01-7.73-6.83-15.84-8.5-24.38-.3-1.53-.95-3.01-1.62-4.43-.12-.26-1.21-.33-1.67-.11-.51,.24-.96,.87-1.16,1.43-.55,1.5-.93,3.05-1.42,4.57-2.28,7.12-5.84,13.48-11.21,18.75-2.28,2.24-4.56,4.49-6.79,6.78-.89,.91-1.67,1.93-2.45,2.93-.72,.91-.4,2.83,.6,3.46,1.62,1.02,3.24,2.04,4.92,2.94,9.36,5.03,17.77,11.36,25.47,18.66,3.25,3.08,6.36,6.31,9.56,9.44,10.11,9.89,18.9,20.84,26.61,32.67,3.66,5.62,7.34,11.21,11.83,16.27,5.33,6.01,9.41,12.92,12.53,20.35,.74,1.76,1.38,3.59,1.82,5.44,.53,2.23,.23,4.44-.71,6.56-1.72,3.85-5.7,5.76-9.47,4.23-2.66-1.08-5.31-2.3-7.71-3.84-10.97-7.01-23.24-10.56-35.72-13.51-4.67-1.11-9.39-2-14.12-2.78-3.78-.62-7.6-1.12-11.42-1.28-5.43-.23-10.87-.13-16.31-.09-4.16,.03-8.28,.51-12.39,1.29-9.12,1.72-18.31,2.83-27.64,2.78-7.67-.04-15.32,.33-22.98,1.2-8.26,.94-16.63,.89-24.91-.08-5.74-.67-11.47-.9-17.23-1.04-8.31-.21-16.63,.1-24.9-1.22-2.46-.39-5.1,.02-7.62,.36-3.85,.52-7.64,.5-11.46-.15-2.52-.43-5.07-.77-7.62-.86-6.4-.25-12.78-.47-19.11-1.56-2.5-.43-5.1-.4-7.66-.46-6.08-.13-12.16-.18-18.16-1.37-.31-.06-.63-.11-.95-.11-11.84-.17-23.59-1.68-35.39-2.42-2.55-.16-5.16,0-7.66-.46-7.6-1.4-15.28-1.35-22.96-1.54-2.56-.06-5.16,.03-7.66-.39-8.57-1.46-17.21-1.29-25.84-1.43-5.12-.08-10.24-.11-15.36-.22-2.56-.06-5.15-.01-7.66-.42-6.67-1.08-13.38-1.12-20.1-1.12-16.96,0-33.91-.05-50.87,.06-4.78,.03-9.56,.59-14.35,.88-4.47,.27-8.94,.66-13.41,.7-14.72,.15-29.43,.15-44.15,.22-5.44,.03-10.88,.14-16.25,1.14-.94,.18-1.91,.33-2.86,.32-15.37-.15-30.58,2.64-45.96,2.5-4.78-.04-9.56,.62-14.34,.98-1.59,.12-3.19,.42-4.78,.42-14.47-.01-28.6,2.93-42.84,4.91-8.55,1.19-17.12,2.15-25.7,3.13-9.53,1.09-19.06,2.08-28.59,3.15-6.35,.71-12.71,1.38-19.04,2.28-12.03,1.69-24.04,3.56-36.06,5.31-10.44,1.52-20.89,3.03-31.34,4.45-10.47,1.42-20.79,3.41-31.02,6.17-8.93,2.41-18.11,3.97-27.26,5.43-9.15,1.46-18.39,2.38-27.6,3.41-3.17,.35-6.38,.43-9.58,.46-9.28,.07-18.56,.07-27.83,.05-6.08-.01-12.13-.34-18.17-1.25-6.31-.95-12.72-1.09-19.03-2.33-21.23-4.17-38.72-14.72-52.89-30.84-5.83-6.63-8.98-14.72-10.66-23.32-1.59-8.17-2.69-16.4-2.45-24.78,.2-7.03,.09-14.08,.27-21.11,.09-3.51,.48-7.01,.78-10.52,.31-3.5,.63-7.01,1.05-10.5,.38-3.17,.79-6.34,1.39-9.48,1.36-7.11,4.76-13.12,9.74-18.38,6.42-6.78,13.79-12.4,21.07-18.14,10.81-8.51,21.65-16.96,32.58-25.31,3.03-2.32,6.22-4.59,9.66-6.21,5.81-2.73,11.36-5.88,16.79-9.26,4.09-2.55,8.37-4.66,12.89-6.35,18.29-6.83,36.7-13.28,55.72-17.8,9.98-2.37,20.08-3.74,30.25-5.07,11.12-1.45,22.35-1.33,33.43-3.03,2.83-.43,5.75-.33,8.62-.35,8.96-.05,17.92-.05,26.87-.05,5.76,0,11.51,.11,17.22,1.11,2.19,.39,4.46,.45,6.69,.53,6.39,.22,12.8,.31,19.11,1.56,1.25,.25,2.54,.3,3.82,.34,15.39,.48,30.53,2.81,45.62,5.79,10.97,2.17,22.06,3.79,33.12,5.48,8.86,1.35,17.65,3.04,26.34,5.23,1.22,.31,2.51,.35,3.77,.48,.84,.09,1.95-1.25,1.63-1.94-.54-1.15-1.02-2.34-1.68-3.42-2.67-4.36-5.39-8.71-8.13-13.03-1.93-3.04-3.12-6.33-3.16-9.93-.14-11.92-2.78-23.48-5.02-35.09-1.63-8.48-3.37-16.94-5-25.42-.42-2.19-1.03-4.48-.78-6.63,.54-4.62-.62-8.89-1.82-13.2-2.92-10.48-5.86-20.95-8.8-31.42-.69-2.46-1.39-4.93-2.2-7.35-7.67-23.07-15.21-46.19-23.09-69.19-6.02-17.56-12.99-34.75-20.65-51.67-3.96-8.74-7.34-17.73-11.02-26.59-1.47-3.54-2.92-7.11-4.63-10.54-6.84-13.75-13.5-27.6-20.76-41.12-8.94-16.62-18.35-33-29.05-48.57-3.8-5.53-8.01-10.77-12.09-16.11-.77-1.01-1.73-1.89-2.69-2.71-3.14-2.68-7.89-2.15-10.11,1.2-1.23,1.86-2.27,3.85-3.32,5.83-5.72,10.75-10.38,21.98-15.11,33.18-7.6,17.97-15.11,35.98-22.8,53.91-2.39,5.58-5.17,11-7.88,16.44-5.55,11.17-11.19,22.31-16.77,33.47-8.63,17.26-19.57,32.95-32.04,47.66-5.6,6.6-11.46,12.9-17.52,19.07-13.73,13.98-28.91,26.21-45.03,37.26-11.34,7.78-23.02,15.06-34.53,22.6-3.48,2.28-6.95,4.58-10.3,7.03-9.07,6.61-18.46,12.67-28.75,17.24-7.36,3.27-13.84,7.98-20.24,12.79-.51,.38-.91,.9-1.37,1.34-.73,.69-1.03,2.18-.44,2.52,.52,.29,1.23,.67,1.72,.53,8.38-2.29,16.42-5.23,23.2-11,4.89-4.16,10.54-7.21,16.18-10.26,27.29-14.78,54.32-30.03,79.85-47.75,10.51-7.29,20.75-14.97,31.11-22.48,3.38-2.45,6.37-5.28,9.06-8.52,2.24-2.69,4.71-5.25,7.4-7.5,9.35-7.81,17.95-16.41,26.33-25.21,4.62-4.85,8.7-10.23,12.82-15.53,5.3-6.82,10.45-13.76,15.56-20.72,13.16-17.91,23.58-37.27,30.75-58.36,1.85-5.45,3.91-10.83,5.92-16.23,.67-1.79,1.37-3.59,2.27-5.28,3.24-6.13,10.75-7.83,16.39-3.73,1.29,.94,2.54,1.98,3.58,3.17,2.53,2.88,5.09,5.76,7.34,8.85,5.28,7.25,9.98,14.9,14.13,22.83,6.09,11.62,11.89,23.37,17.21,35.37,12.33,27.8,23.27,56.14,33.78,84.66,3.65,9.9,7.11,19.88,10.6,29.84,3.81,10.87,7.68,21.71,11.3,32.65,7.12,21.57,14.2,43.15,21.05,64.8,2.7,8.53,4.79,17.25,7.11,25.9,.14,.51-.22,1.16-.35,1.74-.5-.29-1.27-.47-1.44-.89-1.96-4.73-4.08-9.41-5.66-14.26-2.87-8.82-5.38-17.75-8.08-26.63-1.68-5.51-3.21-11.07-5.18-16.47-11.03-30.37-21.67-60.88-34.13-90.71-7.89-18.89-15.82-37.77-24.27-56.41-8.05-17.77-16.9-35.18-26.85-52-4.73-8-10.08-15.59-16-22.75-2.22-2.69-4.77-5.22-7.54-7.33-6.46-4.93-12.76-1.64-15.74,3.04-1.36,2.13-2.23,4.59-3.21,6.95-4.17,10.04-8.24,20.13-12.47,30.15-3.99,9.47-9.1,18.35-15.01,26.72-7.56,10.71-15.83,20.9-24.12,31.07-7.71,9.45-15.96,18.33-24.84,26.65-3.5,3.28-7.22,6.32-10.82,9.48-2.4,2.11-4.8,4.23-7.18,6.36-5.96,5.33-11.88,10.7-17.9,15.97-1.92,1.68-4,3.21-6.12,4.62-15.71,10.46-31.19,21.28-47.64,30.58-8.35,4.72-16.59,9.68-25.11,14.07-13.95,7.18-27.26,15.48-40.99,23.04-9.25,5.09-18.44,10.29-27.68,15.37-6.44,3.55-12.91,7.06-19.43,10.47-18.72,9.8-38.09,18.2-57.5,26.52-7.64,3.28-15.27,6.61-22.8,10.13-10.75,5.02-21.03,10.92-30.6,17.93-8.77,6.43-16.88,13.68-24.81,21.15-6.17,5.81-8.08,12.75-6.97,20.89,.57,4.17,1.84,8.11,3.57,11.9,1.59,3.49,3.41,6.88,5,10.37,2.52,5.53,4.99,11.08,7.38,16.66,2.16,5.02,3.57,10.3,4.43,15.67,.55,3.44,.75,7.02,.52,10.5-.53,7.87-4.37,13.91-11.08,18.07-1.36,.84-2.78,1.62-4.26,2.19-4.79,1.83-9.36,4.09-13.94,6.37-3.4,1.68-7.18,2.67-10.87,3.67-11.42,3.09-22.89,6-34.32,9.07-4.01,1.08-7.96,2.4-11.94,3.6-6.16,1.86-12.05,4.23-17.29,8.09-2.04,1.5-4.35,2.76-6.72,3.66-4.26,1.63-7.96,4.04-11.4,6.97-1.7,1.45-3.53,2.77-5.21,4.24-6.16,5.38-13.36,8.78-21.16,10.86-4.62,1.23-9.36,2.27-14.11,2.71-8.93,.82-17.94,.97-26.84-.08-21.8-2.57-42.59-8.66-62.11-18.84-2.83-1.47-5.55-3.17-8.22-4.92-2.33-1.54-2.37-4.7-.19-6.56,.97-.83,1.96-1.65,3.05-2.31,15.85-9.59,28.36-22.8,39.93-36.98,5.66-6.94,10.84-14.26,16.22-21.42,11.34-15.1,23.51-29.48,36.14-43.53,19.27-21.44,40.22-41.19,60.5-61.62,5.16-5.2,11.12-9.61,16.7-14.4,2.18-1.87,4.43-3.69,6.48-5.7,12.59-12.3,25.17-24.6,37.66-36.99,6.59-6.53,12.96-13.28,19.47-19.89,4.27-4.33,8.64-8.56,12.95-12.84,6.58-6.54,13.36-12.89,19.67-19.68,8.93-9.6,17.5-19.52,26.23-29.31,1.28-1.43,2.49-2.93,3.83-4.29,13.24-13.48,25.27-28.02,37.19-42.64,11.52-14.13,23.1-28.21,34.56-42.38,14.69-18.16,28.83-36.74,42.59-55.61,16.4-22.48,32.66-45.07,48.84-67.71,4.83-6.76,9.2-13.86,13.76-20.81,1.75-2.67,3.44-5.39,5.18-8.08,15.82-24.44,31.83-48.75,47.4-73.35,12.83-20.27,25.24-40.81,37.62-61.36,4.95-8.21,9.5-16.68,13.91-25.2,3.57-6.89,7.84-13.17,13.38-18.61,5.02-4.93,10.04-9.87,14.9-14.96,4.09-4.29,9.01-7.08,14.52-9.03,9.42-3.33,19.2-5.03,29.1-5.74,6.73-.48,13.37,1.07,19.88,2.7,2.44,.61,4.82,1.8,6.97,3.14,3.24,2.03,6.49,4.16,9.33,6.71,8.34,7.46,16.65,14.97,24.66,22.78,15.8,15.41,31.41,31.03,47.06,46.6,2.49,2.47,4.78,5.14,7.16,7.72-.22,.24-.43,.48-.64,.71-3.72-1.41-6.3-4.3-9.03-6.99-12.76-12.58-25.5-25.17-38.29-37.73-2.51-2.46-5.17-4.77-7.77-7.14-2.84-2.58-5.74-5.09-8.53-7.72-3.49-3.29-6.79-6.8-10.38-9.97-3.83-3.38-7.78-6.65-11.91-9.66-5.24-3.82-11.14-6.41-17.62-7.1-9.65-1.03-19.2-.18-28.46,2.79-6.12,1.96-11.97,4.51-16.46,9.45-1.04,1.14-2.52,1.97-3.93,2.65-8.29,4.01-14.62,10.33-19.99,17.56-4.19,5.64-8.04,11.57-11.61,17.62-12.84,21.78-24.72,44.09-36.22,66.59-14.7,28.77-29.02,57.75-43.53,86.62-3.02,6-5.88,12.1-9.26,17.9-9.49,16.31-19.09,32.56-30.2,47.87-15.97,22.01-31.57,44.28-47.58,66.26-15.07,20.69-30.88,40.82-47.44,60.34-4.34,5.12-8.64,10.29-13.06,15.34-7.8,8.89-15.57,17.82-23.57,26.54-9.51,10.37-19.85,19.96-29.02,30.66-3.32,3.87-7.1,7.38-10.87,10.84-11.07,10.17-22.4,20.05-33.31,30.39-9.76,9.25-19.87,18.07-30.33,26.52-4.97,4.02-9.87,8.14-14.65,12.4-7.4,6.59-14.66,13.36-22.01,20-2.13,1.93-4.4,3.71-6.62,5.55-5.42,4.49-11.15,8.65-16.2,13.51-13.35,12.87-26.64,25.8-38.6,40.07-12.77,15.24-24.44,31.22-35.24,47.88-7.66,11.83-16.05,23.12-25.33,33.73-2.52,2.88-5.2,5.69-8.16,8.11-10.4,8.5-20.59,17.28-31.99,24.48-1.89,1.19-3.73,2.48-5.51,3.83-.38,.29-.42,1.08-.51,1.66-.02,.1,.54,.45,.79,.42,2.84-.39,5.67-.92,8.52-1.25,3.28-.39,6.13-1.69,8.76-3.61,17.65-12.91,33.98-27.16,46.47-45.36,3.98-5.8,8.02-11.56,12.02-17.36,5.09-7.37,9.95-14.91,15.28-22.1,9.15-12.33,19.02-24.07,29.13-35.65,12.26-14.04,25.84-26.57,40.24-38.32,5.94-4.85,12.16-9.39,17.55-14.89,8.3-8.47,17.56-15.85,26.6-23.48,12.47-10.51,25.15-20.78,36.81-32.23,1.6-1.57,3.16-3.2,4.91-4.58,7.56-5.96,14.32-12.78,21.12-19.55,12.46-12.42,24.79-24.98,37.17-37.49,1.12-1.14,2.23-2.3,3.29-3.49,8.72-9.79,17.46-19.56,26.13-29.39,5.71-6.47,11.49-12.9,16.94-19.59,14.35-17.6,28.55-35.34,41.94-53.69,15.27-20.93,30.61-41.83,45.58-62.97,7.94-11.22,15.22-22.91,22.71-34.45,5.93-9.13,11.12-18.7,16.2-28.31,3.29-6.22,6.4-12.53,9.52-18.84,1.84-3.73,3.45-7.57,5.33-11.27,7.41-14.54,14.98-28.99,22.32-43.56,12.95-25.72,26.03-51.37,40.32-76.38,5.07-8.89,9.93-17.9,15.8-26.32,4.99-7.16,11.15-13.17,17.87-18.63,2.78-2.26,5.91-3.68,9.55-4.13,12.72-1.55,25.47-2.25,38.28-2.29,7-.02,13.18,1.99,18.93,5.84,4.55,3.04,8.65,6.58,12.48,10.46,11.01,11.16,21.91,22.44,33.12,33.39,21.51,21.01,42.44,42.6,64.46,63.11,12.62,11.75,25.04,23.82,36.21,37.05,1.24,1.46,2.66,2.76,4.02,4.12,18.32,18.34,36.63,36.67,54.96,55,2.04,2.04,3.98,4.2,6.22,5.99,6.51,5.22,12.26,11.24,18.16,17.1,18.16,18.04,36.33,36.07,54.42,54.17,49.08,49.11,98.11,98.27,147.18,147.39,15.83,15.85,31.71,31.64,47.59,47.43,3.63,3.61,7.33,7.15,11.02,10.7,1.86,1.79,3.87,3.35,6.49,3.9,.64,.65,1.28,1.3,1.92,1.95,.64,.63,1.28,1.26,1.92,1.89,0,0-.08,.08-.08,.08-.63-.64-1.26-1.28-1.89-1.92-.65-.64-1.3-1.28-1.95-1.92-2.74-4.74-6.28-8.85-10.05-12.8-3.53-3.7-6.98-7.48-10.42-11.27-3.01-3.31-5.88-6.76-8.94-10.01-4.6-4.89-9.61-9.43-13.93-14.56-5.79-6.87-12.16-13.14-18.43-19.54-8.29-8.45-16.6-16.88-24.88-25.34-2.01-2.06-3.97-4.17-5.9-6.3-4.3-4.73-8.6-9.46-12.84-14.25-11.88-13.41-24.31-26.3-36.88-39.07-.67-.68-1.28-1.43-1.93-2.14-4.31-4.72-8.51-9.55-12.95-14.14-8.9-9.19-17.95-18.25-26.91-27.38-2.24-2.28-4.43-4.61-6.6-6.96-3.69-3.99-7.22-8.14-11.04-12-15.31-15.45-30.73-30.81-46.06-46.24-2.48-2.49-5.11-4.93-7.05-7.82-2.35-3.49-5.16-6.5-8.04-9.49-7.55-7.82-15.56-15.2-22.39-23.71-1.19-1.49-2.66-2.76-4.02-4.12-35.04-35.09-70.09-70.17-105.1-105.29-2.48-2.48-4.74-5.19-7.1-7.79,0,0,.6-.64,.6-.64,1.62,1.01,3.36,1.86,4.82,3.07,1.96,1.63,3.73,3.5,5.54,5.31,38.45,38.44,76.91,76.88,115.34,115.36,3.16,3.16,6.05,6.59,9.08,9.88,2.16,2.35,4.3,4.73,6.53,7.02,6.92,7.1,13.89,14.16,20.82,21.25,4.92,5.03,9.62,10.26,14.36,15.45,7.55,8.25,15.66,15.98,23.57,23.9,1.12,1.12,3.48,.8,4.21-.56,2.12-3.94,4.2-7.9,6.17-11.91,.55-1.12,.79-2.44,.91-3.7,.55-6.04,.92-12.1,1.54-18.13,.36-3.49,.68-7.07,1.74-10.37,1.92-5.97,1.87-11.95,1.28-18.03-.47-4.77-.74-9.56-1.41-14.31-.93-6.64-1.96-13.28-3.27-19.86-1.56-7.85-3.73-15.55-6.37-23.11-4.22-12.07-8.44-24.15-12.7-36.21-7.58-21.43-14.73-42.97-18.66-65.43-1.21-6.92-2.27-13.88-3.12-20.86-.64-5.23-3.13-9.01-7.8-11.27-4.6-2.22-9.28-4.31-13.97-6.33-2.05-.88-4.2-1.55-6.35-2.19-12.17-3.62-22.9-9.86-32.41-18.15-9.38-8.18-15.92-18.28-19.16-30.38-.49-1.84-.85-3.76-.98-5.66-.75-10.92-.3-21.7,2.96-32.29,3.49-11.34,7.58-22.42,12.79-33.07,4.78-9.76,5.03-9.8,3.24-20.07-1.44-8.25-1.81-16.51-1.68-24.84,.1-6.4,.13-12.79,.19-19.19,.04-5.12,.25-10.22,.98-15.31,.46-3.15,.49-6.37,.56-9.57,.15-6.4,.1-12.8,.32-19.19,.14-4.15,.6-8.28,.94-12.42,.24-2.87,.63-5.73,.74-8.6,.2-5.44,.56-10.84,1.48-16.22,1.37-8.02,.57-15.81-2.29-23.56-5.91-15.98-13.41-31.11-22.56-45.45-9.15-14.34-19.57-27.66-31.83-39.5-2.07-2-4.11-4.03-6.1-6.11-17.58-18.43-38.01-33.25-59.63-46.44-10.36-6.32-20.97-12.33-31.86-17.68-15.2-7.47-30.71-14.34-46.52-20.49-35.17-13.67-70.38-27.27-105.5-41.07-37.5-14.74-75.02-29.46-112.36-44.62-23.11-9.38-46.03-19.25-68.77-29.49-22.17-9.98-43.74-21.24-64.35-34.2-12.19-7.67-23.84-16.12-34.5-25.86-3.54-3.23-7.41-6.13-10.7-9.6-4.18-4.4-8.06-9.1-11.82-13.87-10.7-13.62-19.88-28.26-27.74-43.67-3.77-7.39-6.72-15.2-10.06-22.81-1.15-2.63-2.37-5.23-3.55-7.84-.09-.62-.14-1.26-.29-1.87-.05-.21-.32-.36-.5-.54-.45,1.05,.38,1.63,.86,2.34,.24,2.54,.29,5.11,.74,7.61,5,27.6,14.53,53.53,29.12,77.53,3.98,6.54,8.21,12.93,12.33,19.38,1.2,1.88,2.51,3.7,3.65,5.62,1.91,3.21,.23,6.44-3.67,6.89-7.32,.85-14.73,1-21.97-.07-11.42-1.68-22.43-4.98-32.4-11.09-5.72-3.5-11.32-7.16-16.02-12.06-1.31-1.36-2.98-2.37-4.49-3.54-.15-.24-.3-.48-.45-.72,.17,.22,.35,.44,.52,.66,1.15,2.62,2.11,5.35,3.5,7.84,5.32,9.53,11.73,18.27,19.55,25.93,.68,.67,1.37,1.35,2.01,2.05,15.73,17.19,34.76,30,54.93,41.28,8.38,4.69,17.2,8.43,26.28,11.58,3.31,1.15,6.56,2.52,9.76,3.94,1.13,.5,2.08,1.43,3.04,2.25,.98,.84,1.18,3.53,.24,4.47-1.34,1.34-2.7,2.73-4.27,3.77-11.09,7.37-23.4,11.63-36.43,13.96-3.14,.56-6.3,1.09-9.47,1.43-2.85,.3-5.76,.65-8.59,.4-7.63-.69-15.23-1.62-22.59-4.02-9.72-3.18-19.35-6.6-28.81-10.5-1.17-.48-2.4-.83-3.63-1.17-.22-.06-.62,.15-.79,.35-.16,.2-.27,.61-.17,.83,.24,.57,.53,1.17,.94,1.63,7.7,8.57,15.78,16.72,25.16,23.5,18.23,13.19,37.84,23.78,58.89,31.7,2.09,.79,4.27,1.3,6.41,1.94,0,0-.04,.04-.04,.04-.88-.92-1.65-1.99-2.66-2.75-9.68-7.27-16.06-17.24-22.37-27.26-.33-.52-.37-1.21-.57-1.81-.23-.72,.89-1.94,1.65-2,2.02-.15,3.77,.65,5.48,1.48,7.55,3.64,15.54,5.85,23.69,7.56,7.82,1.64,15.67,3.04,23.66,3.62,6.68,.48,13.34,1.32,20,2.06,.52,.06,1.02,.6,1.44,1.02,.43,.43-.75,1.69-1.83,1.88-1.57,.28-3.13,.65-4.72,.75-2.87,.18-5.75,.23-8.62,.25-7.67,.07-15.34,.1-23.01,.15-.64,0-1.32-.01-1.9,.2-.53,.19-1.2,.61-1.34,1.07-.14,.45,.14,1.31,.53,1.6,3.64,2.74,7.92,4.11,12.2,5.42,12.24,3.74,24.64,6.77,37.33,8.58,4.42,.63,8.81,1.57,13.17,2.51,.83,.18,1.63,.94,2.2,1.64,.29,.36,.28,1.44-.03,1.71-.93,.83-1.98,1.66-3.14,2.06-6.68,2.29-13.5,3.9-20.63,3.92-4.16,0-8.31,.2-12.46,.06-3.83-.13-6.84,1.18-9.2,4.16-.79,1-1.72,1.88-2.56,2.84-.8,.9-.17,2.71,1.12,3.05,3.4,.89,6.77,2.06,10.22,2.49,10.14,1.27,20.28,2.65,30.56,2.23,4.79-.19,9.56-.31,14.33-.98,3.46-.49,7-.41,10.5-.53,1.22-.04,2.34,.94,1.91,1.56-.5,.72-1.15,1.62-1.91,1.82-3.38,.94-6.81,1.76-10.25,2.44-8.78,1.73-17.58,3.3-26.5,4.13-.78,.07-1.13,.64-.96,1.36,.07,.28,.25,.66,.48,.76,2.03,.9,4,2.1,6.14,2.55,10.64,2.24,21.34,4.08,32.25,4.33,6.07,.14,12.15,.15,18.22,.25,3.52,.05,7.02,.24,10.37,1.54,1.28,.5,1.86,2.16,.91,3.06-.93,.87-1.98,1.6-2.94,2.44-.21,.18-.45,.68-.36,.8,.34,.45,.82,1.15,1.22,1.13,3.5-.18,6.98-.54,10.48-.73,.53-.03,1.14,.47,1.62,.84,.56,.44-.24,1.84-1.23,2.17-.91,.3-1.81,.63-2.74,.87-1.86,.47-3.72,.93-5.6,1.31-9.09,1.81-18.14,3.81-27.42,4.43-.91,.06-1.81,.56-2.68,.93-.24,.1-.43,.48-.49,.77-.05,.26,0,.72,.17,.83,1.06,.66,2.09,1.46,3.26,1.84,7.94,2.61,16.19,3.62,24.47,4.39,4.77,.44,9.53,.95,14.31,1.24,5.1,.32,10.21,.38,15.32,.63,2.86,.14,5.72,.37,8.56,.7,.47,.05,1.05,.76,1.22,1.27,.16,.51,.06,1.37-.29,1.71-.9,.87-1.93,1.68-3.04,2.28-7.4,4-15.38,6.24-23.62,7.6-3.46,.57-6.97,.99-10.47,1.22-6.11,.4-12.14-.56-18.01-2.11-13.52-3.59-25.57-9.94-35.56-19.9-.68-.68-1.41-1.31-2.04-2.03-4.51-5.11-10.01-8.71-16.12-11.77-10.36-5.18-19.6-12.01-27-21.1-1-1.23-2.14-2.37-3.29-3.47-1.43-1.37-3.61-1.69-5.34-.85-.86,.42-1.74,.82-2.54,1.33-8.72,5.6-18.4,8.96-28.32,11.51-9.93,2.56-19.99,3.87-30.35,1.82-8.78-1.73-17.59-3.23-26.27-5.46-4.33-1.11-8.73-1.9-13.1-2.84,0,0,.04-.04,.04-.04,6.13,8.06,14.32,13.75,22.9,18.68,14.14,8.12,28.72,15.38,44.24,20.7,19.12,6.55,38.63,11.34,58.61,14.3,1.25,.19,2.49,.53,3.71,.89,1.81,.53,3.24,2.69,2.81,4.47-.45,1.84-.89,3.78-1.82,5.39-5.31,9.26-11.99,17.29-20.88,23.42-7.68,5.3-15.57,10.08-24.74,12.36-.93,.23-1.84,.62-2.78,.73-10.45,1.25-20.87,2.99-31.46,1.96-4.12-.4-8.23-1.11-12.36-.18-.23,.05-.47,.39-.56,.65-.09,.26-.12,.73,.03,.86,.95,.81,1.89,1.71,2.97,2.31,8.46,4.68,17.6,7.59,26.86,10.13,11.74,3.21,23.69,5.13,35.81,6.44,10.21,1.1,20.39,1.49,30.62,1.44,5.44-.03,10.85-.28,16.25-1.07,3.78-.55,7.64-.6,11.47-.73,1.25-.04,2.55,.23,3.76,.58,1.63,.48,2.73,1.7,3.15,3.33,.82,3.17,.47,6.37-.21,9.51-3.01,13.84-9.37,25.79-20.13,35.17-2.39,2.08-5.08,3.9-7.86,5.42-6.16,3.39-12.52,6.41-19.25,8.56-2.1,.67-4.08,1.72-6.09,2.65-.17,.08-.25,.57-.21,.84,.04,.25,.28,.63,.48,.67,8.48,1.69,16.94,2.51,25.67,1.45,12.09-1.46,24.04-3.42,35.76-6.74,12.38-3.5,24.01-8.75,35.31-14.81,2.87-1.54,5.04-3.88,7.35-6.09,2.3-2.2,4.67-4.34,7.16-6.33,1.76-1.41,4.69-.39,5.62,1.75,.26,.58,.61,1.14,.76,1.75,1.81,7.47,3.16,14.92,1.93,22.73-1.2,7.62-2.63,15.09-6.24,22.02-2.09,4-4.53,7.7-7.73,10.9-4.3,4.3-8.62,8.55-13.64,12.04-2.34,1.63-4.45,3.61-6.63,5.46-.16,.14-.15,.63-.05,.89,.1,.25,.42,.59,.64,.59,4.84-.03,9.44-1.32,14.03-2.65,17.08-4.95,32.67-12.94,46.9-23.53,9.49-7.07,18.72-14.46,26.49-23.5,.41-.48,.93-.88,1.4-1.3,1.63-1.47,4.46-1.46,6.14,.11,.92,.87,1.93,1.75,2.54,2.83,8.29,14.56,11.03,29.85,5.77,46.11-1.7,5.25-4.74,9.76-7.92,14.18-2.24,3.11-4.67,6.09-6.99,9.15-1.19,1.56-1.45,2.96-.73,3.35,1.29,.7,2.47,.18,3.6-.34,12.59-5.76,24.08-13.17,34.21-22.68,9.37-8.81,17.76-18.42,24.39-29.46,4.55-7.59,8.01-6.58,12.75-.12,6.41,8.75,9.72,18.63,10.7,29.35,.03,.32,.01,.64,.04,.96,.94,10.25-1.82,19.62-6.72,28.49-1.23,2.23-2.46,4.46-3.56,6.76-.15,.32,.41,1.05,.76,1.5,.13,.16,.66,.16,.92,.04,4.62-2.3,8.53-5.61,12.44-8.88,8.35-6.99,15.89-14.82,23-23.05,2.5-2.89,4.54-6.17,6.86-9.23,1.35-1.77,2.76-3.5,4.26-5.15,1.21-1.32,3.76-1.48,5.34-.45,1.07,.69,2.19,1.37,3.08,2.26,14.09,14.18,20.17,30.84,15.29,50.7-1.29,5.26-3.17,10.37-4.75,15.56-.06,.2,.23,.62,.47,.76,.24,.14,.71,.19,.9,.04,4.38-3.28,8.1-7.24,11.49-11.48,9.23-11.54,17.25-23.82,22.46-37.76,.22-.6,.49-1.18,.74-1.77,2.52-5.73,4.45-6.3,9.35-2.96,7.64,5.22,12.93,12.3,16.41,20.76,1.09,2.65,1.82,5.46,2.65,8.21,1.13,3.74,1.29,7.53,.55,11.38-.78,4.08-1.46,8.17-2.14,12.27-.04,.25,.22,.79,.37,.8,.55,.04,1.38,.12,1.64-.19,9.57-11.81,16.59-24.99,21.03-39.54,.65-2.14,1.22-4.3,1.93-6.42,.71-2.14,2.77-3.02,4.52-1.98,9.41,5.59,16.18,13.4,19.98,23.72,1.12,3.04,1.59,6.18,1.56,9.41-.04,3.52-.09,7.03-.14,10.55,0,0-.08-.08-.08-.08,1.96-1.21,3.28-3.02,4.5-4.91,5.25-8.09,9.66-16.6,12.26-25.92,2.12-7.59,4.1-7.24,10.19-4.65,6.66,2.83,11.96,7.27,16.62,12.67,2.56,2.97,3.63,6.72,5.6,9.98,.14,.23,.55,.51,.76,.46,.57-.13,1.37-.28,1.61-.69,.63-1.09,1.16-2.29,1.48-3.52,1.3-4.95,2.56-9.91,2.67-15.08,.04-1.9,.23-3.8,1.21-5.56,.58-1.04,2.57-1.49,3.26-.53,.73,1.02,1.63,2.02,2.03,3.18,2.75,7.89,4.23,16.07,4.87,24.38,.17,2.22,.1,4.5-.22,6.7-1.14,7.92-2.67,15.77-5.18,23.39-1.21,3.66-2.68,7.23-5.01,10.31-6.59,8.7-15.64,12.88-26.31,13.91-.93,.09-1.9-.16-2.85-.31-2.23-.35-3.93-2.76-3.26-5.02,.9-3.05,1.86-6.12,3.18-9.01,5.39-11.84,3.71-23.02-2.88-33.79-.27-.45-1.04-.84-1.56-.82-.49,.02-1.09,.52-1.42,.98-.36,.5-.52,1.16-.69,1.78-2.72,9.97-7.44,19.03-12.61,27.89-3.44,5.89-8.01,10.84-13.53,14.74-7.83,5.53-16.8,7.67-26.3,7.54-2.21-.03-4.43-.46-6.6-.92-1.83-.38-2.92-3.05-1.99-4.67,.79-1.38,1.64-2.74,2.61-4,1.76-2.27,3.74-4.38,5.44-6.7,6.71-9.13,9.5-19.42,8.68-30.69-.03-.45-.69-1.22-1.04-1.21-.47,.01-1.12,.54-1.36,1.01-.58,1.13-.95,2.37-1.45,3.54-3.27,7.66-7.01,15.07-11.45,22.13-3.09,4.92-6.76,9.37-11.14,13.12-11.56,9.88-25,13.79-40.09,12.01-.31-.04-.61-.2-.92-.28-1.79-.46-2.95-3.17-1.82-4.68,1.72-2.29,3.45-4.62,5.51-6.58,7.99-7.64,12.02-17.25,13.8-27.87,1.11-6.65,.95-13.4-.17-20.07-.52-3.13-1.32-6.22-2.01-9.33-.14-.61-.48-.62-.83-.04-.48,.8-1.03,1.58-1.4,2.43-2.06,4.68-3.98,9.42-6.13,14.06-5.58,12.05-13.83,22.23-22.84,31.81-9.14,9.71-20.77,14.74-33.74,16.74-6.33,.98-12.76,.74-19.14,.1-.92-.09-1.82-.53-2.71-.85-1.4-.5-2.13-2.91-1.24-4.08,.58-.76,1.11-1.58,1.81-2.2,1.44-1.26,2.96-2.44,4.49-3.6,14.07-10.59,21.45-25.1,24.22-42.1,.76-4.67,.7-9.63,.12-14.34-.83-6.73-.4-13.37-.07-20.06,.02-.39-.61-.85-1.01-1.2-.08-.06-.53,.23-.74,.43-.23,.21-.41,.49-.54,.78-.39,.87-.75,1.76-1.13,2.65-4.81,11.27-11.51,21.3-19.34,30.72-8.46,10.18-18.5,18.53-28.95,26.44-7.23,5.47-15.44,9.02-24.52,10.28-.95,.13-1.91,.2-2.85,.4-13.05,2.81-25.39-.02-37.5-4.72-.59-.23-1.12-.61-1.68-.91-2.59-1.41-3.03-4.55-.88-6.38,.73-.62,1.43-1.29,2.24-1.8,2.71-1.7,5.32-3.63,8.21-4.93,8.45-3.8,14.66-10.26,20.41-17.12,6.01-7.16,10.41-15.35,12.98-24.4,.51-1.8,.42-3.77,.54-5.66,.02-.25-.32-.72-.53-.74-.57-.06-1.41-.18-1.72,.14-3.77,3.9-7.42,7.93-11.2,11.82-7.41,7.64-16.29,13.36-25.16,19.07-5.93,3.82-12.06,7.22-18.82,9.41-4.58,1.49-9.17,2.78-14.02,2.97-2.23,.09-4.45,.44-6.68,.66-1.27,.13-2.56,.43-3.81,.33-12.82-1-25.45-2.79-36.94-9.14-1.38-.76-2.65-1.76-3.89-2.75-1.43-1.15-1.3-3.96,.17-5.11,.75-.59,1.47-1.27,2.32-1.66,2.03-.93,4.09-1.83,6.2-2.55,18.51-6.32,31.48-19.07,41.1-35.6,3.09-5.3,4.39-11.29,5.33-17.31,.06-.37-.6-.92-1.02-1.27-.15-.13-.68-.03-.87,.15-2.14,1.91-4.32,3.79-6.37,5.79-9.46,9.24-20.15,16.68-31.94,22.68-9.44,4.81-19.27,8.59-29.24,12.05-7.62,2.64-15.64,3.14-23.59,3.98-21.02-.75-40.23-6.81-57.12-19.61-.51-.39-.98-.82-1.46-1.24-1.76-1.55-2.59-3.59-2.01-5.01,.69-1.67,2.17-2.35,3.75-2.62,3.77-.66,7.56-1.33,11.36-1.69,3.53-.33,6.94-1.02,10.32-2.06,12.36-3.81,23.77-9.47,33.73-17.77,8.48-7.07,15.24-15.46,18.59-26.22,0,0,.03,.02,.03,.02Zm1109.66,934.91c.65,.65,1.3,1.3,1.94,1.94,1.87,2.83,4.19,5.06,7.65,5.77,2.3,4.05,5.96,6.57,9.92,8.7,7.32,3.93,15.09,6.79,22.92,9.53,.58,.2,1.25,.16,1.88,.16,.3,0,.63-.11,.88-.27,.25-.16,.51-.41,.62-.67,.11-.28,.2-.79,.05-.92-.92-.83-1.81-1.83-2.91-2.32-10.19-4.52-20.42-8.95-30.65-13.38-.87-.38-1.83-.54-2.75-.81-1.82-2.91-4.29-4.94-7.69-5.73-.65-.65-1.3-1.29-1.94-1.94-.64-.64-1.28-1.28-1.92-1.92,0,0,.07-.07,.07-.07,.64,.64,1.28,1.28,1.92,1.92Zm-140.16-1482.11c.26,.1,.51,.2,.77,.29-.27-.08-.54-.16-.81-.24-1.28-.64-2.56-1.27-3.85-1.91-4.47-3.2-8.94-6.41-13.4-9.61l.04-.04c1.12,6.49,4.66,10.04,11.56,9.55,.62-.04,1.25,.02,1.87,.04,1.28,.64,2.55,1.29,3.83,1.93Zm-55.69-46.03l.05-.05c1.28,.64,2.56,1.27,3.84,1.91,1.19,1.94,3.02,3.16,4.8,4.48,2.56,1.9,5.25,1.85,8.08,.94,.26-.09,.69-.47,.67-.51-.25-.46-.49-1.12-.9-1.28-4.11-1.61-8.23-3.23-12.7-3.58-1.28-.64-2.56-1.28-3.84-1.92Zm-236.11-69.16s-.03,.03-.03,.03c-1.29-.63-2.58-1.27-3.87-1.9-.46-.37-.88-.8-1.39-1.08-.74-.4-1.19-.17-1.08,.5,.03,.17,.48,.33,.76,.37,.58,.09,1.18,.1,1.77,.15,1.28,.65,2.56,1.29,3.84,1.94Zm316.8,1447.54c.06,.55,.13,1.1,.19,1.65,.08,.84,.39,1.07,.8,.57,.11-.13-.03-.54-.16-.77-.26-.48-.59-.93-.89-1.39-.09-.62-.15-1.25-.29-1.86-.05-.21-.33-.36-.5-.54-.44,1.05,.41,1.63,.86,2.35ZM1191.44,213.63c.66,.75,1.02,.81,.84,.27-.05-.15-.58-.14-.89-.2-.79-.48-1.53-1.08-2.38-1.39-.44-.16-1.07,.18-1.62,.3,.42,.29,.8,.75,1.26,.84,.91,.17,1.86,.14,2.79,.19Zm132.4,19.28c0-.67,0-1.35,0-2.02,1.59,.07,3.17,.15,4.76,.22q4.25,.2,10.22-3.23c-.23-.14-.47-.41-.7-.42-7.3-.13-14.61-.24-21.91-.35-.78-.37-1.54-.84-2.36-1.08-.44-.13-1,.15-1.51,.25,.44,.21,.86,.53,1.32,.6,.86,.13,1.74,.11,2.61,.16,2.56,1.31,5.11,2.62,7.67,3.93q-1.53,.92,0,1.84c1.37,1.24,2.71,2.53,4.14,3.71,.45,.37,1.12,.52,1.72,.67,.25,.06,.79-.08,.81-.19,.08-.55,.26-1.28,0-1.65-1.66-2.34-4.26-2.29-6.76-2.45Zm303.35,1514.77l.08-.08c2.19,4.33,6.2,6.35,10.43,7.93,9.88,3.7,19.83,7.2,30.06,9.84,5.26,1.35,10.45,2.96,15.67,4.47,3.07,.89,6.11,1.9,9.2,2.72,13.6,3.58,27.16,7.34,40.85,10.58,8.27,1.96,15.68,5.38,22.39,10.47,1.53,1.16,3.04,2.34,4.6,3.46,11.71,8.46,24.35,15.29,37.38,21.46,2.93,1.39,6,2.21,9.29,1.7,.28-.04,.66-.3,.74-.54,.08-.24-.06-.77-.26-.86-4.03-1.93-8.09-3.8-12.12-5.72-4.33-2.05-8.76-3.93-12.95-6.25-11.19-6.2-22.24-12.61-32.34-20.56-6.12-4.81-13.1-7.91-20.68-9.71-5.6-1.33-11.17-2.79-16.75-4.18-13.96-3.47-27.9-7.05-41.54-11.68-1.81-.61-3.67-1.11-5.54-1.53-9.07-2.04-17.9-4.79-26.54-8.23-3.86-1.53-7.74-3.06-11.97-3.29Zm-374.36-981.14c4.36-4.87,6.48-10.96,9.05-16.79,2.98-6.74,4.85-13.87,7.05-20.89,5.96-19.03,9.81-38.39,8.96-58.47-.13-3.19-.16-6.4-.1-9.59,.21-9.96-1.21-19.81-2.89-29.54-4.38-25.35-12.35-49.59-24.23-72.48-11.1-21.38-26.36-39.17-45.9-53.25-15.36-11.06-31.82-20.2-49.03-28.07-10.17-4.66-20.28-9.47-30.23-14.57-5.96-3.05-11.7-6.6-17.31-10.26-6.7-4.37-13.2-9.12-18.27-15.4-6.87-8.5-12.77-17.65-16.09-28.16-5.94-18.78-8.9-37.92-6.23-57.66,.13-.94,.15-1.93-.02-2.85-.09-.5-.64-1.19-1.08-1.27-.42-.08-1.28,.4-1.42,.82-2.37,7.01-3.67,14.22-3.91,21.61-.23,7.04,.35,14.01,1.4,21.01,2.51,16.69,7.85,32.23,17.08,46.42,7.4,11.36,16.19,21.51,27.1,29.52,15.52,11.39,31.91,21.31,50.75,26.42,.31,.08,.6,.21,.91,.31,18.92,6.09,35.08,16.8,49.75,29.92,3.56,3.19,6.95,6.64,10.02,10.31,12.05,14.37,20.62,30.74,27.17,48.22,.34,.9,.56,1.83,.83,2.75,.68,2.29,.48,4.49-1.04,6.36-3.23,3.96-6.39,8-9.9,11.7-5.94,6.26-12.09,12.32-18.22,18.4-5.22,5.18-10.36,10.43-16.19,14.96-1.75,1.36-3.24,3.07-4.77,4.7-1.32,1.4-1.16,3.31,.3,5.23,1.12,1.47,2.95,1.86,4.18,.82,3.9-3.3,7.98-6.43,11.64-9.98,11.46-11.13,23.19-22.01,33.54-34.24,1.02-1.21,1.99-2.78,3.79-2.55,2.34,.29,2.58,2.51,3.2,4.26,.31,.9,.47,1.86,.71,2.79,4.04,15.51,6.77,31.22,7.46,47.26,.1,2.23,.48,4.45,.67,6.68,.34,4.14,.76,8.27,.89,12.42,.17,5.43-.05,10.87,.14,16.3,.38,10.61-1.03,21.06-2.69,31.48-1.8,11.36-4.04,22.65-5.92,34-.62,3.77-.72,7.62-1.06,11.43l-.08-.08Zm21.12,15.36c1.58-.24,3.18-.38,4.74-.74,23.38-5.37,46.75-10.74,70.12-16.15,21.19-4.9,42.36-9.85,63.55-14.75,4.67-1.08,9.37-2.06,14.05-3.12,3.17-.72,6.34-.92,9.51-.2,6.86,1.55,13.72,3.11,20.55,4.78,3.85,.94,6.92,3.2,9.51,6.16,3.61,4.12,6.57,8.66,9.1,13.49,4.48,8.54,7.76,17.54,9.98,26.92,.96,4.05,2.03,8.08,.85,12.3-.25,.9-.19,1.92-.1,2.86,.66,7,1.16,14.02,2.14,20.98,.76,5.41,1.08,10.82,1.07,16.25-.03,15.67-.07,31.35-.13,47.02,0,2.24,.08,4.51-.28,6.7-1.6,9.84-1.31,19.77-1.56,29.68-.1,3.84,.09,7.72-.47,11.49-1.04,7-1.07,14.02-1.13,21.06-.07,8-.13,15.99-.26,23.99-.05,2.88,.03,5.8-.47,8.61-1.29,7.3-1.2,14.65-1.4,22-.14,4.79-.41,9.58-.73,14.36-.3,4.46-.77,8.91-1.12,13.37-.2,2.55-.03,5.16-.49,7.65-1.24,6.64-1.44,13.34-1.6,20.06-.05,1.92-.1,3.86-.46,5.73-1.19,6.33-1.2,12.72-1.37,19.12-.11,4.15-.13,8.34-.71,12.44-.77,5.41-.87,10.83-1.18,16.25-.7,12.12-1.21,24.27-2.53,36.33-1.36,12.4-1.44,24.89-3.16,37.25-.44,3.16-.63,6.36-.91,9.54-.34,3.82-.89,7.63-.96,11.46-.19,11.19-.18,22.39-.26,33.58-.08,11.61,1.75,22.97,5.05,34.05,5.68,19,11.42,37.98,17.56,56.83,6.25,19.15,13.08,38.11,19.55,57.2,8.21,24.24,16.32,48.51,24.43,72.78,2.53,7.58,5.14,15.15,7.36,22.83,6.28,21.83,13.19,43.46,20.56,64.94,6.43,18.76,12.31,37.7,17.72,56.78,3.58,12.61,7.46,25.14,11.07,37.75,3.26,11.37,7.12,22.57,9.35,34.23,.66,3.45,1.61,6.85,2.66,10.21,.56,1.8,1.54,3.49,2.46,5.14,.17,.29,1.03,.27,1.56,.25,.16,0,.42-.5,.43-.78,.03-.95,.11-1.93-.08-2.85-5.84-28.51-11.06-57.14-18.67-85.27-4.76-17.6-8.95-35.35-13.36-53.04-6.81-27.31-13.84-54.56-22.19-81.46-2.37-7.64-4.63-15.31-6.78-23.01-5.42-19.41-10.69-38.85-16.11-58.26-9.47-33.88-18.93-67.77-28.58-101.6-4.49-15.76-7.07-31.82-8.62-48.08-.36-3.79-.28-7.71,.25-11.48,.85-6.05,1.08-12.1,1.19-18.17,.16-8.95-.05-17.91,1.51-26.79,.44-2.5,.3-5.1,.35-7.66,.11-5.76,.15-11.51,.28-17.27,.07-2.88,0-5.79,.47-8.61,1.11-6.67,1.14-13.37,1.19-20.09,.06-8,.11-15.99,.19-23.99,.07-7.03,.04-14.06,1.21-21.05,.47-2.82,.4-5.74,.45-8.61,.13-6.72,.17-13.43,.29-20.15,.05-2.88-.09-5.8,.38-8.62,1.37-8.25,1.31-16.57,1.43-24.88,.12-8.31,.03-16.62,1.36-24.88,.5-3.13,.35-6.38,.39-9.58,.14-13.11,.21-26.23,.38-39.34,.05-3.83,.34-7.66,.56-11.49,.28-4.78,.85-9.56,.87-14.35,.16-30.07,.21-60.14,.26-90.21,.01-6.72-.1-13.43-.14-20.15-.03-4.49-.47-8.89-1.49-13.31-1.07-4.65-1.78-9.44-2.1-14.2-.38-5.47-1.36-10.78-2.93-16-1.2-3.98-2.64-7.89-3.86-11.86-3.21-10.49-9.77-18.61-18.14-25.37-4.5-3.64-9.47-6.55-15.15-8.05-4.73-1.25-9.6-1.8-14.17-.06-3.86,1.46-7.48,1.46-11.24,.41-6.66-1.86-13.19-1.45-19.88,.17-18.34,4.43-36.75,8.57-55.14,12.8-10.28,2.37-20.59,4.66-30.87,7.03-16.83,3.88-33.64,7.83-50.48,11.68-4.42,1.01-6.55,3.66-6.53,8.13,0,.32-.03,.64-.04,.96l-.08-.08ZM689.98,1916.97c-1.28,0-2.56,0-3.84,0-9.28-.03-18.52-.16-27.68-2.14-11.95-2.58-23.55-6.09-34.24-12.12-12.19-6.87-22.37-15.94-29.57-28.09-6.8-11.48-10.8-23.99-11.75-37.2-.66-9.2-2.36-18.43-.91-27.72,.05-.3-.04-.64-.1-.95-.06-.31-.18-.61-.23-.93-.14-.86-1.48-1.94-2.03-1.56-.51,.35-1.21,.77-1.33,1.27-1.43,6.23-2.49,12.52-2.8,18.92-.71,14.48,.98,28.74,3.96,42.87,2.1,9.96,6.89,18.5,13.99,25.8,4.04,4.15,8.63,7.62,13.29,11,9.99,7.25,21.11,11.86,33.21,14.32,6.31,1.28,12.71,1.38,19.02,2.36,5.72,.88,11.45,1.2,17.21,1.22,7.04,.03,14.07,.04,21.11,0,3.52-.03,7.06,0,10.54-.39,9.53-1.07,19.05-2.19,28.54-3.58,10.44-1.53,20.83-3.47,30.93-6.63,7.05-2.21,14.27-3.57,21.54-4.68,10.11-1.54,20.24-3.01,30.37-4.41,17.42-2.41,34.65-5.99,52.16-7.79,8.58-.88,17.13-2.05,25.7-3.04,7.94-.91,15.91-1.57,23.82-2.65,9.18-1.25,18.3-3.01,27.49-4.23,10.77-1.42,21.51-3.13,32.45-2.9,4.79,.1,9.64,.07,14.37-.57,6.36-.86,12.73-1.17,19.13-1.36,2.87-.09,5.79-.12,8.6-.62,6.03-1.06,12.09-1.12,18.17-1.27,5.75-.14,11.55,.05,17.25-.61,6.7-.78,13.39-.91,20.11-.93,6.4-.03,12.8-.05,19.19-.16,33.91-.58,67.81-.47,101.72,0,3.51,.05,7.07,.04,10.53,.56,6.04,.91,12.1,1.24,18.18,1.12,13.79-.27,27.39,2.36,41.16,2.38,.95,0,1.9,.26,2.86,.35,4.77,.43,9.54,.86,14.32,1.25,2.23,.18,4.51,.05,6.69,.45,6.64,1.22,13.35,1.38,20.07,1.56,2.23,.06,4.46,.36,6.69,.55,12.41,1.05,24.82,2.24,37.25,3.09,5.73,.39,11.51,.06,17.27,.19,4.47,.11,8.94,.39,13.4,.68,4.46,.29,8.91,.97,13.38,1,19.19,.13,38.39,.34,57.57,0,9.89-.18,19.76-1.41,29.63-2.23,1.58-.13,3.13-.62,4.7-.92,2.83-.54,5.65-1.09,8.49-1.58,6.68-1.14,13.42-1.33,20.06-.11,9.75,1.78,19.43,3.94,29.11,6.04,10.43,2.26,20.01,6.61,29.09,12.14,1.64,1,3.29,1.98,4.99,2.85,1.73,.89,3.61,1.21,5.58,1.07,2.91-.2,5.58-2.64,5.65-5.54,.04-1.89-.04-3.88-.57-5.67-2.96-9.99-8.3-18.64-15.2-26.37-.41-.46-1.03-.74-1.57-1.07-.27-.16-.59-.23-.89-.36-1.31-.55-3.62,1.06-3.4,2.45,.55,3.46,1.29,6.9,1.79,10.37,.62,4.27-2.4,7.45-6.8,7.22-1.58-.08-3.19-.3-4.72-.71-2.47-.66-4.88-1.53-7.32-2.3-11.28-3.56-22.53-7.25-33.87-10.64-14.53-4.35-29.27-6.92-44.47-3.89-.62,.12-1.27,.16-1.91,.18-8.03,.19-15.86,1.94-23.78,2.96-14.89,1.92-29.65,4.95-44.74,5.23-2.23,.04-4.45,.5-6.67,.74-2.22,.24-4.45,.65-6.68,.64-14.06-.04-28.15,1.04-42.14-1.24-.94-.15-1.91-.19-2.87-.21-12.84-.36-25.45-2.48-37.97-5.11-18.17-3.81-36.55-6.21-54.97-8.36-7.94-.93-15.91-1.53-23.83-2.55-11.73-1.52-23.41-3.45-35.27-3.62-.96-.01-1.93-.07-2.87-.25-7.59-1.49-15.28-1.3-22.95-1.47-10.22-.22-20.48,.23-30.64-1.39-1.57-.25-3.19-.21-4.79-.22-18.87-.04-37.74-.1-56.62-.07-3.19,0-6.38,.42-9.56,.65-4.78,.34-9.55,.83-14.34,1.01-6.07,.22-12.16,.09-18.23,.29-4.47,.15-8.92,.58-13.38,.92-1.91,.14-3.82,.54-5.73,.53-9.33-.06-18.44,1.73-27.61,3.11-7.27,1.09-14.56,2.02-21.87,2.84-8.57,.96-17.2,1.53-25.75,2.63-9.83,1.27-19.6,2.8-29.51,3.48-5.71,.39-11.45,1.44-16.99,2.91-10.53,2.79-21.22,4.69-31.92,6.64-14.15,2.59-28.33,5.02-42.17,9.11-6.43,1.9-13.03,3.26-19.62,4.54-10.38,2.01-20.63,4.43-30.57,8.08-9.63,3.54-19.54,6.1-29.64,7.86-7.87,1.37-15.8,2.32-23.73,3.29-9.88,1.22-19.75,1.59-29.66,1.67Zm756.88-747.2c-.09-1.56-.03-1.91-.14-2.19-.22-.52-.54-1-.81-1.5-.35,.48-.88,.92-1.04,1.45-.89,3.07-1.46,6.25-2.56,9.24-2.57,6.94-4.23,14.08-5.53,21.34-1.07,5.98-2.04,11.98-3.29,17.93-1.39,6.61-2.22,13.27-1.87,20.01,.7,13.5-1.56,26.79-2.7,40.15-.55,6.38-1.17,12.73-1.22,19.13-.09,11.84-.32,23.68-.22,35.51,.14,15.66-.68,31.36,1.88,46.93-.08,8.04,1.49,15.93,2.63,23.82,2.95,20.27,6.99,40.33,12.45,60.1,2.9,10.5,6.21,20.85,10.24,30.96,6.99,17.57,15.86,34.23,24.92,50.8,5.68,10.38,11.38,20.75,16.86,31.24,2.51,4.81,4.46,9.92,6.75,14.85,11.93,25.63,20.87,52.29,27.05,79.83,4.56,20.32,7.69,40.86,7.09,61.8-.18,6.39-.15,12.8-.29,19.19-.06,2.55-.12,5.14-.53,7.65-1.6,9.79-1.78,19.75-3.83,29.48-.12,.57-.04,1.34,.27,1.81,.28,.42,1.17,.88,1.49,.72,.81-.41,1.65-1.03,2.13-1.78,2.57-4.1,4.2-8.63,5.44-13.27,3.65-13.64,5.93-27.52,6.3-41.64,.28-10.55,.03-21.11,.2-31.67,.15-9.03-1.1-17.9-3.02-26.64-3.71-16.87-8.1-33.59-13.33-50.06-8.23-25.92-17.62-51.44-27-76.96-4.85-13.19-9.65-26.38-14.91-39.43-7.42-18.38-14.08-37.08-20.44-55.86-7.39-21.82-13.86-43.93-18.4-66.55-3.21-15.99-6.19-32.03-6.9-48.38-.07-1.6-.15-3.21-.45-4.77-1.15-6.01-1.16-12.09-1.21-18.17-.05-7.36-.11-14.72-.23-22.07-.06-3.2,0-6.43-.51-9.57-1.01-6.36-1.09-12.74-1.12-19.14-.05-9.92-.15-19.84-.08-29.75,.09-12.46-.13-24.92,1.52-37.36,.84-6.35,1.59-12.66,3.08-18.9,.74-3.09,1.03-6.29,1.34-8.24Zm-309.09,238.45c.44-.34,1.46-.76,1.87-1.5,1.36-2.52,2.82-5.06,3.67-7.77,1.45-4.63,3.84-8.76,5.97-13.05,2.27-4.58,2.7-9.85,5.26-14.39,2.05-3.64,3.3-7.64,3.89-11.8,1.3-9.18,3.09-18.34,3.62-27.57,.82-14.35,1.16-28.74-1.29-43.07-2.17-12.66-4.86-25.13-10.11-36.91-2.34-5.26-4.88-10.43-7.44-15.58-3.7-7.45-7.55-14.83-11.23-22.29-6.03-12.21-9.12-25.13-10.08-38.73-.65-9.27-1.05-18.42-.14-27.72,.84-8.57,.53-17.26,.67-25.9,.03-1.91-.09-3.85-.37-5.74-.46-3.1-2.28-5.3-5.21-6.33-1.78-.63-3.71-1.01-5.6-1.14-3.19-.22-6.4-.24-9.59-.2-6.11,.09-12.1-.74-18.1-1.81-8.82-1.57-16.41-5.2-22.32-12.07-.83-.97-1.79-1.84-2.61-2.81-6.1-7.18-10.76-15.17-12.64-24.47-1.72-8.47-3.22-17.01-.99-25.67,.16-.61,.15-1.27,.22-1.91,1.3-11.22,4.31-21.97,9.35-32.08,3.42-6.87,7.09-13.61,10.73-20.37,1.37-2.55,2.83-5.04,3.03-8,.25-3.63,1.81-6.75,3.66-9.78,.83-1.36,1.58-2.78,2.24-4.23,.24-.54,.18-1.25,.14-1.87-.02-.27-.28-.58-.53-.75-.24-.16-.69-.33-.87-.22-.78,.49-1.73,.94-2.2,1.67-3.13,4.83-6.1,9.77-9.23,14.6-7.67,11.83-14.47,24.16-20.44,36.92-6.13,13.08-10.86,26.62-13.38,40.92-2.31,13.11-.43,25.4,5.68,37.19,3.15,6.08,7.51,11.11,12.42,15.73,8,7.53,16.88,13.67,27.37,17.29,5.74,1.98,11.45,4.09,17.1,6.33,3.26,1.29,6.46,2.8,9.53,4.5,4.09,2.28,6.88,5.66,7.65,10.46,.31,1.89,.78,3.76,1.08,5.66,1.75,11.05,3.44,22.12,5.2,33.17,.9,5.68,1.79,11.33,4.62,16.53,1.36,2.49,1.94,5.41,2.89,8.12,4.11,11.78,8.29,23.53,12.32,35.34,3.82,11.2,7.76,22.38,11.13,33.72,3.65,12.28,5.72,24.88,7.32,37.62,2.2,17.4,.77,34.45-2.86,51.44-.74,3.44-1.65,6.94-3.76,9.8-2.9,3.95-4.46,8.43-6.14,12.94-1.22,3.28-3.02,6.34-4.51,9.52-.4,.86-.7,1.78-.98,2.69-.46,1.51,2.01,3.99,4,3.55Zm211.12-411.32c.43,7.09-.87,14.01-1.65,21-.86,7.68-2.81,15.05-5.33,22.32-1.59,4.57-3.73,8.85-6.65,12.68-5.83,7.67-12.65,14.38-20.48,20.01-3.69,2.65-7.73,4.45-12.27,5.08-5.06,.7-10.13,1.37-15.16,2.25-8.9,1.57-17.77,1.68-26.68,.05-2.48-.45-5.09-.4-7.62-.26-2.01,.11-3.53,1.35-4.38,3.25-.74,1.65-.27,3.9,1.31,5.22,6.14,5.1,12.28,10.19,18.51,15.18,4.02,3.22,8.65,5.45,13.4,7.37,6.57,2.66,13.49,4.5,20.52,4.2,10.34-.43,20.06-3.36,28.73-9.46,9.02-6.35,16.31-14.26,22.61-23.22,4.07-5.79,7.22-12.01,9.6-18.69,3.79-10.65,5.17-21.72,6.16-32.86,.28-3.16,.18-6.41-.18-9.57-.92-7.93-2.03-15.83-3.17-23.73-1.8-12.43-5.68-24.27-10.87-35.63-3.85-8.42-8.23-16.6-12.42-24.86-.57-1.12-1.4-2.11-2.18-3.11-.13-.17-.62-.21-.88-.12-.25,.08-.6,.44-.58,.63,.23,1.89,.39,3.79,.82,5.64,1.25,5.29,2.73,10.52,3.91,15.82,3,13.44,4.67,27.04,4.93,40.8Zm-124.78-238.02c1.46-4.23,1.54-10.37,2.59-16.35,1.12-6.35,1.07-12.74,1.05-19.14-.01-3.22-.59-6.37-1.76-9.38-.1-.27-.31-.58-.56-.7-.59-.3-1.04,.04-1.04,.91-.07,8.65-.8,17.23-1.96,25.81-.99,7.34-2.67,14.46-5.22,21.39-.55,1.5-1.19,2.97-1.93,4.38-1.11,2.09-2.82,3.5-5.25,3.72-3.82,.36-7.65,.85-11.48,.89-9,.1-17.81,1.77-26.67,3.03-12.7,1.8-25.04,5.25-37.41,8.49-14.32,3.74-27.92,9.31-40.84,16.48-8.12,4.51-15.81,9.68-22.45,16.31-3.58,3.58-5.43,7.81-5.91,12.75-.03,.28,.12,.78,.29,.84,.51,.17,1.3,.43,1.59,.19,4.15-3.5,8.16-7.18,12.36-10.62,9.7-7.95,20.27-14.42,31.82-19.44,10.01-4.36,20.26-7.89,30.78-10.72,17.63-4.75,35.43-8.56,53.69-10,6.05-.48,12.08-1.24,18.12-1.91,2.41-.27,4.12-1.65,5.31-3.69,2.12-3.63,3.3-7.62,4.88-13.23Zm9.85,55.85c-4.28-.07-8.05,.44-11.81,1.33-12.18,2.92-23.66,7.62-34.94,13.01-12.06,5.76-22.01,14.09-30.91,23.81-1.91,2.08-3.24,4.71-4.7,7.17-.46,.78-.48,1.83-.62,2.76-.21,1.44,1.69,3.21,3.14,2.84,1.21-.31,2.55-.6,3.5-1.33,3.55-2.71,7.2-5.35,10.37-8.48,7.8-7.69,16.57-14.01,26.05-19.4,9.46-5.37,19.12-10.34,29.69-13.19,4.31-1.16,8.71-2.01,13.05-3.1,1.21-.3,2.39-.83,3.47-1.45,.45-.26,.85-1.06,.82-1.59-.03-.52-.52-1.19-1-1.48-2.03-1.23-4.33-.79-6.11-.91Zm262.83-484.48c2.69,.13,5.21,.18,7.73,.39,1.25,.1,2.53,.35,3.71,.77,1.6,.57,2.61,1.81,2.84,3.52,.23,1.73-.55,3.08-1.83,4.16-.48,.41-1.02,.8-1.6,1.03-2.08,.81-4.19,1.53-6.27,2.31-.27,.1-.48,.38-.71,.57,.37,.34,.68,.87,1.12,1,1.81,.55,3.71,.84,5.48,1.49,1.74,.64,1.92,3.49,.56,4.9-1.88,1.94-4.25,2.77-6.77,3.28-3.11,.63-6.26,1.1-9.37,1.75-.37,.08-.63,.83-.85,1.31-.04,.08,.39,.46,.65,.56,1.45,.59,2.95,1.1,4.38,1.74,.8,.36,.99,2,.36,2.55-.71,.62-1.38,1.37-2.21,1.73-3.55,1.56-7.32,2.16-11.18,2.19-4.46,.03-8.92,.07-13.39,.09-.87,0-1.28,.33-1.03,.99,.08,.22,.48,.4,.76,.46,3.76,.78,7.45,1.66,10.45,4.33,.37,.33,1.27,.36,1.82,.18,7.64-2.42,14.88-5.63,21.39-10.42,9.16-6.74,12.51-15.78,10.76-26.82-.6-3.81-1.98-7.39-4.71-10.26-.36-.38-1.33-.69-1.69-.48-1.64,.95-3.2,2.03-4.7,3.19-1.71,1.31-4.31,1.08-5.67,3.48Zm68.8,1388.72c.41-9.91-1.26-20.29-3.16-30.64-.57-3.12-1.5-6.17-2.31-9.24-.06-.25-.44-.41-.68-.61-.25,.46-.76,.96-.71,1.38,.61,4.73,1.24,9.47,1.98,14.18,1.75,11.1,1.59,22.19,.23,33.33-1.13,9.19-1.61,18.45-.53,27.66,.96,8.22,2.55,16.36,3.92,24.53,.21,1.24,.62,2.47,1.11,3.64,.17,.41,.82,.62,1.26,.93,.14-.27,.43-.56,.4-.81-.67-5.05-1.11-10.14-2.15-15.12-2.04-9.83-1.64-19.69-.47-29.5,.76-6.36,1.12-12.68,1.11-19.73ZM1222.31,211.83s0-.07,0-.11c2.51,.23,5.02,.51,7.54,.67,1.75,.11,2.95-.88,3.81-2.32,.32-.54,.62-1.1,.84-1.68,.1-.27,.08-.67-.05-.92-.14-.25-.51-.58-.73-.55-5.9,.97-11.8,1.96-17.69,3.02-.44,.08-.78,.7-1.17,1.07,.28,.14,.54,.39,.83,.41,2.2,.16,4.41,.28,6.61,.41Zm-178.8,45.87c-1.28-.18-2.52-.38-3.76-.52-.26-.03-.79,.21-.78,.29,.03,.52,.02,1.31,.33,1.5,2.65,1.66,5.35,3.26,8.09,4.76,.4,.22,1.3,.06,1.65-.27,.36-.35,.53-1.13,.46-1.67-.4-2.76-1.23-3.76-3.2-3.97-.93-.1-1.88-.09-2.77-.13Zm407.99,115.81c-.7,0-1.33-.04-1.95,.02-.29,.02-.82,.26-.81,.33,.09,.52,.14,1.18,.47,1.51,2.14,2.12,4.6,3.21,7.69,2.29,1.5-.44,3.06-.69,4.58-1.08,.24-.06,.51-.41,.56-.67,.04-.19-.24-.61-.42-.65-3.39-.62-6.79-1.19-10.12-1.76Zm-305.68-161.71c-.83,.04-1.78,0-2.7,.16-.44,.08-.81,.54-1.21,.83,.25,.17,.47,.45,.74,.49,3.38,.55,6.77,1.07,10.17,1.55,.19,.03,.57-.37,.62-.62,.05-.25-.12-.66-.33-.83-2.12-1.72-4.7-1.44-7.29-1.59Zm-61.13,10.04c-1.12,.38-1.72,.54-2.28,.79-.26,.12-.53,.38-.65,.64-.34,.7-.08,1.36,.68,1.4,2.17,.11,4.36,.09,6.54,.07,.27,0,.54-.28,.81-.43-.37-.44-.65-1.11-1.12-1.29-1.43-.54-2.93-.89-3.97-1.18Zm24.17-4.54c1.08,0,1.71,.09,2.31-.03,.57-.11,1.09-.44,1.63-.67-.48-.31-.94-.66-1.45-.9-.26-.12-.6-.06-.91-.06-.31,0-.63-.04-.92,.03-.86,.22-1.71,.49-2.56,.74,.76,.35,1.53,.71,1.91,.89Zm329.23,166.84c-.07-.28-.09-.76-.23-.79-.57-.15-1.27-.37-1.75-.17-.45,.19-.68,.89-1,1.37,.52,.24,1.08,.72,1.55,.65,.52-.08,.96-.68,1.43-1.06Zm664.06-48.75l.14,.57,.3-.42-.44-.15Zm-879.32,368.57l.19,.71,.39-.52-.58-.19Zm246.34-425.95l-.51-.3-.09,.44,.6-.14Zm-34.92,102.14l.37-.53h-.72s.36,.53,.36,.53Zm-258.92-159.48l-.12-.54-.53,.32,.65,.22Z"/>
          <path class="cls-1" d="M1784.87,718.67c-21.81-.86-43.33-3.48-63.95-11.23-1.79-.67-3.66-1.19-4.94-2.76-.19-.24-.4-.66-.31-.88,.23-.55,.52-1.26,.99-1.5,.82-.42,1.8-.76,2.71-.75,3.19,.03,6.39,.2,9.57,.38,4.79,.27,9.56,.76,14.35,.87,7.04,.15,14.08,.16,21.11,0,4.79-.11,9.56-.6,14.35-.92,3.51-.23,7.02-.55,10.53-.65,6.72-.2,13.39-.56,20.08-1.45,6.65-.89,13.37-1.21,19.98-2.47,3.14-.6,6.28-1.19,9.4-1.87,.47-.1,.84-.7,1.25-1.07-.27-.16-.53-.44-.81-.46-7.64-.74-15.3-1.22-22.9-2.23-14.26-1.9-28.48-4.08-42.71-6.21-.89-.13-1.73-.76-2.54-1.23-.2-.12-.31-.54-.31-.83,0-.25,.16-.62,.35-.72,.56-.27,1.18-.61,1.76-.6,2.87,.07,5.8-.06,8.61,.44,6.66,1.19,13.36,1.28,20.08,1.42,7.35,.15,14.69,.24,22.02,1.19,6.03,.78,12.13,.51,18.2-.13,4.13-.44,8.29-.92,12.43-.89,9.98,.07,19.76-1.42,29.51-3.3,6.6-1.27,13.17-2.64,19.78-3.85,1.86-.34,3.79-.29,5.69-.36,.25,0,.75,.36,.74,.53-.03,.58-.1,1.24-.42,1.68-.35,.49-.95,.85-1.5,1.15-8.45,4.55-16.83,9.24-25.38,13.58-22.13,11.26-45.61,18.57-70.04,22.68-9.12,1.54-18.32,3.07-27.69,2.43Z"/>
          <path class="cls-1" d="M1965.08,591.86c-1.55,3.3-4.3,5.57-6.98,7.81-8.83,7.38-17.61,14.82-26.72,21.84-16.34,12.59-34.59,21.73-53.9,28.86-15.7,5.8-31.94,8.9-48.47,11.16-15,2.05-29.98,1.47-44.99,1.37-1.59-.01-3.25-.15-4.45-1.35-.33-.33-.46-1.44-.21-1.67,.9-.83,1.92-1.76,3.05-2.06,5.86-1.58,11.75-3.1,17.67-4.43,26.52-5.95,52.82-12.78,78.87-20.55,5.18-1.55,10.49-2.89,15.13-5.87,.22-.14,.39-.5,.43-.78,.11-.68-.27-1.14-1.05-1.24-.63-.08-1.28-.16-1.91-.08-6.97,.88-13.94,1.81-20.91,2.67-3.17,.39-6.35,.67-9.53,.97-4.45,.42-8.91,.78-13.35,1.24-6.05,.64-12.11,.96-18.17,.37-.43-.04-1.14-.75-1.12-1.12,.02-.49,.55-1.25,1-1.38,1.84-.5,3.71-.89,5.6-1.17,3.79-.55,7.6-.99,11.4-1.48,15.55-1.98,30.9-5.08,46.19-8.48,16.57-3.68,32.84-8.33,48.35-15.38,4.65-2.12,9.38-4.07,14.1-6.05,3.24-1.36,6.47-2.79,10.03-3.14l-.04-.04Z"/>
          <path class="cls-1" d="M2030.38,497.8c-2.31,5.75-6.73,10.07-10.35,14.9-4.02,5.36-8.36,10.49-12.56,15.72-6.02,7.5-12.91,14.16-20.15,20.46-2.17,1.89-4.46,3.63-6.69,5.44-17.57,14.2-36.98,25.06-58.34,32.47-12.09,4.19-24.31,7.95-36.8,10.71-6.55,1.45-13.17,2.55-19.78,3.72-.89,.16-1.88-.12-2.81-.27-.28-.05-.73-.33-.75-.54-.04-.6-.13-1.43,.21-1.76,.89-.87,1.91-1.71,3.03-2.25,11.51-5.55,23.06-11.04,34.59-16.54,.86-.41,1.77-.74,2.63-1.15,15.29-7.28,30.61-14.51,45.85-21.89,8.06-3.9,15.8-8.39,23.06-13.66,.22-.16,.42-.54,.41-.8-.04-.69-.54-1.01-1.29-.78-1.22,.37-2.42,.82-3.62,1.26-18.94,6.9-38.34,12.29-57.82,17.39-1.83,.48-3.67,1.16-5.6,.45-.25-.09-.53-.4-.58-.65-.06-.28,.02-.79,.21-.88,1.69-.86,3.35-1.84,5.14-2.43,13.66-4.52,27.14-9.51,40.5-14.86,14.26-5.71,28.13-12.24,41.68-19.47,3.66-1.95,7.18-4.18,10.65-6.46,7.21-4.74,14.33-9.61,21.51-14.41,2.39-1.59,4.71-3.34,7.69-3.72h0Z"/>
          <path class="cls-1" d="M1907.98,754.73c-1.78-.28-5.59-.74-9.33-1.5-12.06-2.45-23.12-7.24-32.98-14.64-1.26-.94-2.34-2.15-3.35-3.37-.32-.39-.35-1.26-.15-1.78,.19-.5,.82-1.16,1.28-1.18,2.21-.09,4.47-.2,6.65,.09,11.06,1.49,22.09,3.3,33.18,4.59,8.56,1,17.19,1.36,25.75-.31,1.21-.24,2.33-.9,3.47-1.42,.09-.04,.08-.71-.04-.76-1.4-.67-2.78-1.49-4.27-1.89-9.9-2.65-19.31-6.64-28.79-10.43-1.75-.7-3.61-1.4-4.68-3.15-.15-.24-.14-.64-.05-.92,.08-.26,.35-.65,.55-.65,1.23-.05,2.52-.23,3.7,.04,5.9,1.39,11.74,3.05,17.66,4.33,6.55,1.42,13.11,2.91,19.75,3.68,6.32,.73,12.74,.61,19.11,.76,4.14,.1,8.29,0,12.44,.06,.54,0,1.09,.51,1.6,.83,.57,.36,.17,1.74-.77,2.51-9.88,8.19-20.33,15.42-32.52,19.85-7.56,2.75-15.39,4.15-23.31,5.24-.94,.13-1.91,.02-4.9,.02Z"/>
          <path class="cls-1" d="M1861.39,795.02c-15.13-1.6-30.34-6.86-43.49-17.38-.73-.58-1.36-1.37-1.82-2.19-.27-.48-.28-1.29-.06-1.8,.22-.49,.83-.99,1.36-1.13,.91-.24,1.9-.33,2.84-.25,1.91,.16,3.83,.36,5.7,.75,10.98,2.29,22.14,3.23,33.26,4.42,6.33,.68,12.77,.32,19.16,.21,1.87-.03,3.74-.73,5.56-1.27,.41-.12,.68-.87,.89-1.38,.06-.16-.25-.64-.48-.73-2.37-.93-4.74-1.9-7.16-2.69-8.82-2.88-17.51-6.11-25.92-10.05-1.41-.66-2.64-1.71-3.92-2.64-.17-.13-.19-.65-.09-.92,.1-.26,.4-.53,.68-.62,1.94-.63,3.76,.1,5.61,.57,6.2,1.57,12.37,3.23,18.6,4.68,13.46,3.12,27.09,4.62,40.93,3.9,2.54-.13,5.11,.06,7.65,.23,.52,.04,1.04,.6,1.49,1.01,.54,.49,.27,1.91-.46,2.61-.92,.88-1.78,1.86-2.82,2.58-5.26,3.64-10.45,7.39-15.89,10.75-8.25,5.1-17.36,8.11-26.87,9.85-4.39,.81-8.77,1.92-14.75,1.49Z"/>
        </g>
        <path class="cls-1" d="M1936.17,710.72c-8.78-1.21-19.33-1.99-29.07-6.5-1.12-.52-2.09-1.37-3.1-2.12-.57-.42-.34-2.28,.34-2.53,1.77-.66,3.53-1.57,5.36-1.81,6.96-.89,13.94-1.57,20.92-2.31,9.54-1.01,18.9-3.01,28.17-5.39,4.3-1.1,8.68-2.23,12.38-4.91,.34-.24,.29-1.11,.28-1.69,0-.19-.41-.53-.65-.55-2.53-.21-5.07-.59-7.59-.51-9.94,.3-19.72-1.24-29.53-2.47-.93-.12-1.87-.47-2.68-.93-.44-.26-.9-1.03-.83-1.49,.06-.41,.8-.94,1.3-1.03,1.25-.22,2.53-.28,3.8-.3,3.19-.05,6.38-.05,9.57-.07,5.75-.03,11.47-.22,17.17-1.21,5.65-.97,11.42-.9,17.09-2,6.93-1.35,13.56-3.58,20.23-5.77,1.8-.59,3.61-1.45,5.55-.85,.44,.14,.87,.94,.92,1.47,.06,.57-.2,1.29-.56,1.76-4.29,5.55-8.18,11.51-13.06,16.49-10.89,11.14-23.67,19.44-39.19,22.7-4.98,1.05-10,2.14-16.81,2.01Z"/>
        <path class="cls-1" d="M1965.12,591.9s-.04-.04-.04-.04c0,0,.04,.04,.04,.04Z"/>
      </g>
    </g>
  </g>
</svg>