<?xml version="1.0" encoding="UTF-8"?>
<svg id="Calque_1" data-name="Calque 1" xmlns="http://www.w3.org/2000/svg" viewBox="0 0 2398.25 2132">
  <defs>
    <style>
      .cls-1 {
        font-family: CatalishHuntera, 'Catalish Huntera';
        font-size: 205px;
      }

      .cls-2 {
        fill: #8d442c;
      }

      .cls-3 {
        fill: #e5548d;
      }
    </style>
  </defs>
  <g>
    <path class="cls-3" d="M1063.3,286.05c.25,.08,.58,.08,.73,.24,.16,.17,.27,.56,.18,.75-1.47,2.84-3,5.65-4.48,8.48-6.6,12.62-9.78,26.03-9.97,40.17-.23,16.77,3.12,32.77,10.08,48.13,2.63,5.81,4.53,11.94,6.68,17.95,.78,2.19,1.15,4.48,.86,6.84-.39,3.22-3.42,5.62-6.94,5.36-1.25-.09-2.37-.63-2.95-1.69-.84-1.52-1.49-3.14-2.16-4.75-1.99-4.84-3.74-9.77-5.95-14.51-5.73-12.28-8.64-25.26-10.18-38.55-.7-6.04-.64-12.15,.46-18.19,.52-2.85,.79-5.75,1.38-8.58,3.08-14.77,9.5-27.98,19.54-39.48,.57-.66,1.26-1.22,1.93-1.8,.21-.18,.52-.25,.78-.37Z"/>
    <path class="cls-3" d="M1053.29,180.82c-.46-1.66-1.06-3.29-1.37-4.98-.8-4.34,.82-7.84,4.19-10.66,1.01-.85,3.08-1.05,4.14-.34,.96,.65,1.95,1.29,2.8,2.07,2.55,2.37,5,4.86,7.56,7.21,4.59,4.21,6.86,9.22,5.87,15.42,0,0,.09-.08,.09-.08-2.26-.2-4.53-.33-6.77-.64-1.97-.27-3.91-.73-5.87-1.1,0,0,.14,.08,.14,.08-1.19-.58-2.39-1.16-3.58-1.74,0,0-.13-.1-.13-.1-.52-.51-1.05-1.02-1.57-1.53,0,0-.39-.29-.38-.29-1.11-.53-2.22-1.07-3.33-1.6,0,0-.05-.04-.05-.04-.61-.59-1.22-1.19-1.83-1.78l.1,.09Z"/>
    <path class="cls-3" d="M1087.24,177.31c-4.96-.12-9.06-2.35-12.96-5.03-.72-.49-1.35-1.11-1.98-1.72-3.44-3.32-3.51-7.32-.16-10.67,2.96-2.94,6.46-5.02,10.61-5.92,1.53-.33,2.96,.15,4,1.32,2.77,3.1,4.51,6.74,5.53,10.69,.52,2,.33,4.03-.71,5.87-.71,1.26-1.59,2.42-2.38,3.63,0,0-.25,.2-.25,.2-.56,.54-1.12,1.09-1.68,1.63l-.02,.02Z"/>
    <g>
      <path class="cls-3" d="M768.88,623.5c7.75,0,15.5,.02,23.25,0,4.77-.02,9.52-.22,14.25-1.04,2.34-.4,4.75-.39,7.12-.61,4.15-.38,8.29-.79,12.44-1.19,5.92-.57,11.84-1.15,17.76-1.65,.41-.03,1.1,.53,1.25,.95,.16,.44-.01,1.21-.34,1.55-.59,.62-1.36,1.15-2.15,1.51-7.57,3.44-15.24,6.6-23.29,8.86-12.64,3.54-25.52,6.05-38.59,7.15-10.67,.9-21.42,.93-32.11-.59-7.08-1.01-14.14-2.03-21.16-3.36-14.99-2.84-29.43-7.33-43.41-13.29-6.28-2.68-12.63-5.18-18.92-7.85-1.04-.44-1.93-1.27-2.75-2.06-.18-.17,.1-1.11,.43-1.39,.39-.34,1.1-.54,1.63-.49,6.81,.71,13.61,1.53,20.42,2.23,3.55,.37,7.12,.77,10.69,.79,11.03,.07,22.06,0,33.08-.11,2.67-.03,5.34-.39,8.01-.66,1.78-.18,3.53-.59,5.31-.69,15.2-.91,30.16-3.49,45.14-5.94,1.46-.24,2.93-.55,4.4-.66,.49-.04,1.09,.36,1.52,.71,.46,.38-.43,1.61-1.39,1.9-1.14,.34-2.28,.67-3.43,.97-19.02,4.94-38.2,9.11-57.67,12-.27,.04-.5,.28-.75,.43,.32,.37,.57,.95,.97,1.08,3.72,1.25,7.6,1.41,11.48,1.43,8.94,.04,17.88,.01,26.83,.01h0Z"/>
      <path class="cls-3" d="M823.23,686.63c-4.74-.38-9.49-.76-14.23-1.15-1.78-.15-3.56-.41-5.34-.46-10.79-.25-21.32-2.11-31.75-4.66-8.38-2.05-16.77-4.08-25.13-6.22-1.99-.51-3.89-1.38-5.81-2.14-.21-.08-.44-.53-.39-.74,.13-.51,.31-1.26,.68-1.41,1.08-.42,2.26-.78,3.41-.81,5.36-.16,10.73-.36,16.09-.27,9.59,.16,19.01-1.2,28.43-2.64,21.85-3.34,43.09-9.02,64.11-15.62,3.97-1.25,7.94-2.51,11.92-3.72,.85-.26,1.74-.3,2.5,.34,.58,.48-.34,1.71-1.86,2.46-.8,.39-1.6,.79-2.41,1.14-1.63,.72-3.26,1.43-4.91,2.1-12.64,5.19-25.56,9.65-38.44,14.21-3.63,1.29-7.38,2.26-11.08,3.39-.7,.21-1.01,.7-.77,1.34,.07,.2,.51,.38,.77,.38,4.47-.04,8.97,.25,13.39-.22,23.11-2.5,46.07-5.96,68.71-11.18,8.12-1.87,16.13-4.15,24.21-6.18,1.41-.35,2.9-.42,4.36-.55,.22-.02,.55,.28,.69,.51,.14,.23,.21,.58,.15,.83-.37,1.52-1.54,2.49-2.78,3.24-4.81,2.9-9.54,5.97-14.56,8.49-16.53,8.31-33.94,14.33-52.37,16.97-9.1,1.3-18.29,2.54-27.6,2.55Z"/>
      <path class="cls-3" d="M521.82,468.36c3.37,.35,6.16,2.11,9.02,3.63,5.49,2.93,11,5.82,16.33,9,8.44,5.03,17.57,8.56,26.7,12.1,20.53,7.96,41.76,13.69,63.13,19.02,2.87,.72,5.69,1.61,8.5,2.53,.26,.08,.32,.91,.34,1.39,0,.14-.47,.45-.69,.42-7.65-1.12-15.31-2.16-22.93-3.45-13.51-2.28-26.83-5.4-40.1-8.75-.5-.13-1.13,.06-1.66,.23-.55,.18,.14,1.19,1.41,1.8,4.26,2.08,8.44,4.36,12.83,6.13,10.74,4.32,21.52,8.53,32.39,12.52,17.28,6.35,34.65,12.46,51.96,18.73,2.48,.9,5.14,1.59,6.98,3.66,.17,.19,.34,.59,.25,.76-.25,.47-.6,.92-1,1.29-.18,.17-.56,.18-.85,.17-21.84-.95-43.2-4.75-64.05-11-21.86-6.55-41.71-16.94-59.67-30.8-5.86-4.52-11.34-9.39-16.56-14.58-4.79-4.77-9.59-9.54-14.34-14.35-3.1-3.14-6.08-6.38-8.19-10.27l.2-.19Z"/>
      <path class="cls-3" d="M723.41,601.2c-8.49,.67-19.15-.75-29.73-2.27-10.01-1.44-19.84-3.97-29.39-7.28-6.45-2.23-12.8-4.75-19.08-7.4-8.2-3.46-16.17-7.4-23.56-12.37-9.31-6.26-18.59-12.57-27.85-18.89-.71-.48-1.23-1.23-1.78-1.9-.16-.19-.23-.64-.11-.8,.31-.4,.79-1.04,1.14-1,1.46,.16,2.94,.42,4.34,.86,5.67,1.78,11.32,3.6,16.96,5.48,16.13,5.37,32.75,8.54,49.65,10.44,7.98,.9,15.94,1.98,23.93,2.78,4.43,.44,8.91,.62,13.37,.66,6.28,.06,12.46,.84,18.59,2.03,.2,.04,.43,.45,.44,.69,0,.19-.29,.55-.47,.56-2.65,.22-5.3,.5-7.96,.55-5.06,.11-10.12,.16-15.14,.93-3.85,.59-7.71,.28-11.57-.16-8.88-1.02-17.81-.88-26.73-.62-.21,0-.6,.41-.58,.45,.26,.46,.51,1.15,.91,1.27,5.13,1.48,10.23,3.15,15.46,4.23,19.8,4.1,39.76,7.42,59.74,10.56,9.4,1.48,18.84,2.68,28.27,4.02,1.76,.25,3.57,.41,5.05,1.53,.22,.16,.48,.48,.45,.69-.07,.51-.15,1.18-.5,1.46-1.44,1.17-3.29,1.18-5.04,1.5-12.08,2.18-24.3,1.96-38.78,1.99Z"/>
      <path class="cls-3" d="M893.1,724.2c-7.91-1.42-16.92-.43-25.76-1.93-5.86-.99-11.79-1.53-17.68-2.34-.84-.12-1.65-.54-2.44-.9-.17-.08-.3-.46-.28-.69,.01-.26,.14-.65,.33-.74,1.05-.51,2.1-1.11,3.23-1.37,4.92-1.14,9.84-2.32,14.81-3.22,10.94-1.98,21.13-5.98,31.11-10.57,10.78-4.96,21.09-10.75,31.18-16.93,3.76-2.3,7.68-4.36,11.55-6.49,.15-.08,.56,.1,.74,.28,.17,.17,.33,.53,.25,.73-.2,.52-.4,1.13-.81,1.48-2.65,2.33-5.25,4.71-8.05,6.87-7.94,6.12-16.13,11.91-24.63,17.28-1.48,.94-2.82,2.09-4.18,3.19-.16,.13-.17,.56-.09,.81,.07,.23,.37,.55,.56,.55,1.46-.03,3,.14,4.37-.24,9.16-2.54,18.29-5.23,26.92-9.25,11.81-5.51,23.61-11.05,34.9-17.56,4.07-2.34,8.12-4.87,12.79-6.01,.36-.09,.95,.48,1.34,.83,.16,.15,.12,.56,.09,.84-.03,.28-.09,.6-.26,.83-5.39,7.31-11.04,14.44-18.39,20.01-4.93,3.73-10.01,7.3-15.23,10.64-12.48,8-26.37,11.89-41.18,12.93-4.75,.33-9.5,.61-15.17,.97Z"/>
      <path class="cls-3" d="M863.37,789.12c-9.17-1.17-17.51-1.68-25.64-3.6-.57-.13-1.14-.38-1.61-.72-.45-.33-.96-.81-1.07-1.29-.1-.46,.15-1.17,.51-1.51,.62-.6,1.38-1.1,2.17-1.46,2.43-1.11,4.89-2.13,7.35-3.18,10.75-4.59,20.21-11.1,29.06-18.5,5.42-4.53,10.71-9.21,16.08-13.79,.42-.36,1.03-.53,1.58-.69,.21-.06,.57,.1,.75,.26,.18,.17,.39,.54,.32,.7-.6,1.3-1.1,2.69-1.93,3.84-4.65,6.42-10.07,12.2-15.74,17.77-1.88,1.85-3.66,3.79-5.39,5.78-.26,.3-.2,1.19,.08,1.52,.31,.37,1.09,.66,1.55,.55,1.72-.41,3.48-.83,5.08-1.54,6.24-2.76,12.32-5.83,18.1-9.44,7.78-4.86,15.26-10.12,22.65-15.51,1.65-1.2,3.51-2.13,5.34-3.07,.44-.22,1.39-.18,1.67,.12,.53,.58,1.12,1.48,1.03,2.17-.48,3.53-2.36,6.57-4.22,9.52-5.19,8.22-11.37,15.58-19.66,21.11-5.48,3.66-11.49,6.06-17.81,7.9-6.91,2.01-14.1,2.04-20.27,3.08Z"/>
      <path class="cls-3" d="M711.39,714.59c-13.11-.09-23.48-2.48-33.33-6.88-7.3-3.26-14.27-7.16-20.62-11.99-.32-.24-.26-1.04-.25-1.58,0-.19,.36-.41,.59-.55,.24-.15,.53-.28,.81-.31,.88-.11,1.77-.24,2.66-.24,15.65,.09,30.7-3.16,45.52-7.73,6.51-2.01,12.81-4.68,19.54-5.97,.31-.06,.81,.56,1.12,.95,.1,.12-.06,.58-.24,.75-.64,.6-1.28,1.23-2.03,1.68-2.03,1.21-4.05,2.45-6.19,3.46-5.89,2.77-11.85,5.42-17.77,8.12-2.15,.98-4.32,1.94-6.41,3.02-.34,.17-.41,.94-.48,1.45-.03,.19,.26,.53,.48,.63,.53,.24,1.11,.54,1.67,.54,3.86-.04,7.76,.17,11.57-.29,13.3-1.59,26.44-4.05,39.43-7.29,2.87-.72,5.81-1.19,8.73-1.67,.47-.08,1.09,.35,1.56,.67,.53,.36,.43,1.82-.06,2.4-.38,.44-.68,.97-1.12,1.35-7.94,6.68-16.51,12.34-26.46,15.85-6.78,2.39-13.67,4.06-18.72,3.64Z"/>
      <path class="cls-3" d="M662.72,681.31c-9.26-.69-18.93-2.23-28.09-6.03-7.7-3.2-14.86-7.38-21.87-11.82-.69-.44-1.23-1.25-1.57-2-.18-.39,.1-1.14,.43-1.53,.34-.41,.95-.74,1.49-.83,1.46-.23,2.96-.49,4.43-.43,19.19,.74,37.11-4.55,54.84-10.8,2.5-.88,4.88-2.24,7.67-2.07,.25,.01,.56,.25,.71,.46,.14,.21,.24,.59,.14,.79-.26,.49-.56,1.05-1.01,1.33-1.5,.94-3.04,1.84-4.63,2.63-8.24,4.07-16.39,8.33-25.02,11.61-.78,.3-1.52,.9-2.05,1.53-.22,.26,0,1.28,.31,1.46,3.03,1.76,6.35,1.22,9.59,.88,14.24-1.5,28.3-4,42.17-7.5,3.14-.79,6.24-2.09,9.6-1.69,.43,.05,.84,.68,1.16,1.11,.14,.18,.14,.6,.01,.81-.42,.75-.83,1.55-1.42,2.17-4.26,4.55-9.23,8.24-14.75,11.19-8.18,4.37-16.92,7.19-26.18,8.37-1.77,.22-3.57,.23-5.96,.37Z"/>
      <path class="cls-3" d="M812.77,768.66c-13.78,.7-26.39-3.54-38.73-8.8-.71-.3-1.23-1.14-1.68-1.83-.48-.73,.57-1.83,2.15-2.32,.57-.18,1.13-.36,1.7-.52,.86-.23,1.72-.48,2.59-.64,14.51-2.7,27.7-8.63,40.41-15.7,5.16-2.87,10.19-5.97,15.29-8.95,.9-.53,2.19-.35,2.42,.28,.33,.92-.06,1.67-.64,2.35-.38,.44-.79,.86-1.24,1.24-.67,.57-1.39,1.08-2.08,1.64-7.32,5.94-14.81,11.63-22.81,16.69-.74,.47-1.5,.98-2.07,1.62-.32,.36-.33,1.02-.34,1.55,0,.14,.46,.38,.73,.42,2.71,.4,5.31-.24,7.92-.84,10.75-2.5,20.97-6.46,30.96-10.98,4.85-2.19,9.61-4.61,14.47-6.79,1.59-.71,3.36-1.09,5.08-1.45,.44-.09,1.17,.31,1.5,.7,.32,.38,.43,1.05,.4,1.58-.04,.55-.25,1.16-.57,1.62-9.73,14.44-23.16,23.82-40.39,28.01-4.97,1.21-10.03,1.01-15.08,1.1Z"/>
      <path class="cls-3" d="M763.34,744.19c-10.48,.76-20.02-1.35-29.32-4.7-3.88-1.4-8.09-2.05-11.46-4.66-.54-.42-.49-2.01,.1-2.34,.51-.29,.97-.71,1.51-.87,1.71-.51,3.42-1.02,5.17-1.35,14.24-2.69,27.07-8.76,39.55-15.65,4.66-2.57,9.18-5.39,13.82-8,.98-.55,2.2-.73,3.33-1.01,.19-.05,.54,.24,.68,.45,.14,.21,.21,.56,.14,.8-.42,1.49-1.67,2.33-2.81,3.24-8.29,6.62-16.72,13.07-25.58,18.97-.43,.28-.64,.89-.92,1.36-.29,.5,.96,1.17,2.06,1.06,1.77-.19,3.58-.26,5.3-.67,3.47-.82,6.93-1.71,10.33-2.78,8.79-2.79,17.32-6.19,25.62-10.18,4.27-2.05,8.64-3.9,13.01-5.74,1.05-.44,2.29-.46,3.45-.64,.69-.1,1.67,1.22,1.43,1.87-.2,.54-.27,1.16-.58,1.63-8.77,13.07-20.56,22.37-35.89,27.24-3.7,1.18-7.48,1.94-11.39,1.96-2.68,.02-5.36,0-7.57,0Z"/>
      <path class="cls-3" d="M955.33,758.4c-4.16-.18-8.31-.34-12.47-.54-.96-.05-2.06-.92-1.88-1.52,.23-.78,.63-1.55,1.11-2.21,.33-.45,.91-.74,1.41-1.05,.75-.47,1.52-.92,2.29-1.35,12.27-6.88,22.65-15.87,31.49-26.61,3.35-4.07,6.79-8.06,10.27-12.02,.74-.84,1.82-1.39,2.78-2.02,.16-.11,.58,.02,.79,.15,.23,.14,.54,.47,.5,.64-.27,1.1-.45,2.28-1,3.26-5.25,9.44-11.36,18.35-17.84,27.02-.2,.27,.16,.99,.37,1.44,.06,.14,.55,.16,.82,.11,.58-.11,1.16-.25,1.7-.49,3.54-1.54,6.86-3.43,9.97-5.73,8.3-6.13,16.45-12.42,23.69-19.77,3.09-3.13,6.3-6.16,9.49-9.2,.85-.81,1.77-1.56,2.76-2.18,.43-.27,1.2-.3,1.67-.11,.45,.18,.96,.79,1,1.24,.1,1.13,.15,2.34-.15,3.42-2.88,10.19-7.65,19.49-14.65,27.58-6.69,7.75-15.46,12.6-25.13,15.95-7.33,2.54-14.9,4-22.74,3.83-2.08-.05-4.16,0-6.25,0,0,.05,0,.09,0,.14Z"/>
      <g>
        <path class="cls-3" d="M1589.57,756.37c-13.56-.65-26.57-3.16-38.14-10.67-3.75-2.43-7.21-5.18-10.13-8.5-6.45-7.35-11.66-15.42-14.53-24.77-.25-.8-.15-1.7-.18-2.56-.02-.64,1.37-1.62,1.96-1.42,.56,.19,1.21,.25,1.67,.58,2.4,1.71,4.79,3.44,7.11,5.25,6.52,5.07,12.86,10.37,19.55,15.2,4.77,3.45,9.94,6.39,15.06,9.35,2.02,1.17,4.36,1.82,6.6,2.59,.45,.16,1.11-.13,1.64-.32,.59-.21,.42-1.46-.29-2.28-.38-.44-.75-.91-1.16-1.33-6.42-6.53-11.64-13.97-17.07-21.24-1.02-1.37-1.67-3.03-2.33-4.61-.12-.29,.45-.92,.81-1.31,.14-.15,.66-.18,.84-.05,1.2,.84,2.46,1.63,3.51,2.63,4.46,4.28,8.83,8.64,13.27,12.94,9.36,9.08,19.7,16.84,31.78,22.24,1.61,.72,3.1,1.71,4.55,2.7,.37,.25,.6,1.05,.49,1.5-.12,.48-.68,.88-1.11,1.26-.21,.18-.52,.31-.81,.34-7.69,.78-15.29,2.46-23.1,2.46Z"/>
        <g>
          <path class="cls-3" d="M1710.17,672.71c-22.76,.37-43.1-3.78-62.73-11.12-7.2-2.69-13.97-6.49-20.93-9.8-.53-.25-.96-.68-1.45-1.01-.82-.55-1.31-1.87-.75-2.24,.69-.44,1.53-.94,2.3-.92,1.78,.04,3.57,.25,5.31,.62,11.95,2.5,24.03,4.24,36.11,5.95,2.35,.33,4.74,.45,7.11,.68,3.26,.32,6.52,.65,9.77,.98,.59,.06,1.18,.23,1.77,.25,14.29,.38,28.48,2.7,42.81,2.03,2.66-.12,5.32-.5,7.96-.87,.47-.07,.85-.71,1.26-1.08-.44-.32-.83-.8-1.33-.93-2.01-.53-4.05-.98-6.09-1.4-16.94-3.47-33.43-8.49-49.9-13.6-.28-.09-.56-.19-.85-.28-2.77-.97-4.35-2.27-3.66-3.02,1.26-1.37,2.78-.59,4.17-.3,10.48,2.22,20.91,4.69,31.43,6.68,10.52,1.99,21.13,3.49,31.76,4.92,11.29,1.52,22.57,1.61,33.88,1.52,8.94-.07,17.87-.37,26.81-.5,.43,0,1.13,.52,1.22,.9,.09,.39-.31,1.07-.7,1.34-.72,.5-1.56,.85-2.39,1.16-19.18,7.27-38.53,14.03-58.97,17.17-11.78,1.81-23.58,3.38-33.95,2.89Z"/>
          <path class="cls-3" d="M1645.84,716.4c-6.85-.12-13.67-.18-20.46-1.51-7.94-1.56-15.56-3.91-22.81-7.42-8.85-4.28-17.08-9.44-24.5-15.83-4.24-3.65-8.78-6.99-11.89-11.71-.45-.69-.74-1.56-.81-2.38-.03-.39,.54-1,.99-1.2,.49-.22,1.21-.23,1.74-.06,1.69,.54,3.38,1.13,5,1.84,6.52,2.85,13.08,5.64,19.51,8.67,11.59,5.45,23.82,9.17,36.07,12.8,6.27,1.85,12.7,3.13,19.24,3.76,.53,.05,1.13-.27,1.65-.51,.57-.25-.16-1.33-1.36-1.97-1.05-.55-2.12-1.07-3.16-1.62-11-5.83-21.77-12.01-32.09-18.93-1.46-.98-2.83-2.1-4.14-3.27-.34-.31-.52-1.16-.33-1.56,.18-.38,1.06-.81,1.42-.67,1.93,.72,3.87,1.48,5.67,2.46,14.6,7.99,29.99,14.17,45.71,19.7,10.75,3.79,21.93,5.32,33.17,6.68,2.96,.36,5.94,.55,8.65,1.9,.24,.12,.54,.49,.5,.67-.11,.5-.26,1.2-.63,1.39-1.03,.54-2.15,1.03-3.29,1.24-10.82,2.03-21.65,4.03-32.48,5.98-2.63,.48-5.29,.95-7.95,1.12-4.46,.27-8.93,.29-13.4,.42Z"/>
          <path class="cls-3" d="M1684.45,777.93c-3.72-.39-7.91-.59-12-1.31-14.13-2.47-25.22-10.01-34.42-20.39-3.3-3.72-6.39-7.68-8.52-12.2-.49-1.04-.88-2.16-1.12-3.28-.1-.47,.15-1.17,.51-1.53,.36-.36,1.15-.72,1.55-.57,1.92,.74,3.86,1.51,5.64,2.52,7.98,4.52,15.88,9.17,23.88,13.67,6.99,3.93,14.45,6.86,22.15,9.2,1.05,.32,2.32,.12,3.45-.04,.28-.04,.75-1.13,.58-1.35-.87-1.15-1.77-2.35-2.91-3.21-7.38-5.49-13.59-12.16-20.04-18.59-.8-.8-1.29-1.9-1.87-2.9-.12-.21-.11-.72,.04-.83,.44-.32,1.06-.8,1.46-.7,2.66,.69,4.6,2.58,6.75,4.1,5.05,3.58,10.01,7.3,15.16,10.75,9.87,6.6,20.38,12,31.89,15.42,1.7,.5,3.33,1.25,4.92,2.02,.4,.2,.74,.93,.74,1.41,0,.49-.42,1-.74,1.45-.15,.21-.48,.34-.76,.44-10.77,3.62-21.84,5.69-33.22,6.12-.89,.03-1.78-.1-3.1-.18Z"/>
          <path class="cls-3" d="M1737,754.57c-10.04-.29-18.35-2.03-26.38-5.62-10-4.48-18.06-11.16-25.1-19.18-.75-.85-1.23-1.97-1.63-3.03-.16-.41,.11-1.17,.46-1.52,.36-.37,1.07-.64,1.59-.59,1.17,.12,2.36,.35,3.46,.74,5.59,2,11.17,4.04,16.73,6.13,9.48,3.57,19.26,6.12,29.21,8.03,2.9,.56,5.91,.55,8.88,.74,1.19,.08,2.32-.67,2-1.2-.29-.47-.53-1.06-.97-1.32-5.83-3.5-11.78-6.83-17.53-10.46-3.99-2.52-7.72-5.42-11.51-8.22-.37-.27-.42-1.04-.48-1.59-.07-.64,1.31-1.07,2.22-.73,.83,.31,1.7,.56,2.5,.94,2.42,1.13,4.78,2.37,7.22,3.47,5.95,2.67,11.87,5.43,17.91,7.89,10.51,4.27,21.38,7.23,32.81,7.96,1.49,.1,3.01,.3,4.07,1.44,.31,.33,.43,1.21,.2,1.55-.47,.69-1.16,1.33-1.91,1.72-11.12,5.76-22.66,10.37-35.27,11.93-3.24,.4-6.5,.7-8.47,.91Z"/>
          <path class="cls-3" d="M1783.84,726.5c-8.09-.69-15.73-1.75-22.92-4.83-7.98-3.41-15.27-7.83-21.38-13.95-2.07-2.08-4.15-4.16-6.18-6.27-.6-.63-1.06-1.39-1.58-2.1-.47-.64-.41-2.04,.17-2.37,.49-.28,1.14-.7,1.58-.58,3.43,.94,6.85,1.91,10.21,3.04,6.19,2.09,12.32,4.33,18.49,6.44,7.32,2.5,14.85,4.23,22.46,5.65,2.94,.55,5.87,1.03,8.85,.57,.42-.06,.79-.67,1.08-1.1,.09-.14-.09-.61-.28-.74-2.23-1.42-4.41-2.94-6.74-4.18-7.59-4.04-14.67-8.86-21.72-13.71-.95-.65-1.73-1.58-2.41-2.5-.21-.28,.11-1,.3-1.47,.07-.16,.56-.32,.77-.24,1.66,.58,3.37,1.09,4.94,1.86,7.72,3.77,15.42,7.57,23.52,10.53,1.39,.51,2.78,1.03,4.17,1.56,8.35,3.21,17.02,5.2,25.89,6.41,1.76,.24,3.56,.45,5.25,.95,.67,.2,1.25,1.11,1.55,1.83,.13,.31-.39,1.15-.83,1.41-9.99,5.95-20.62,10.35-32.26,12.1-4.41,.66-8.84,1.15-12.94,1.68Z"/>
          <g>
            <path class="cls-3" d="M621.97,770.11c-3.01,.52-5.49,2.14-8.08,3.57-17.84,9.89-36.9,16.01-57.42,17.61-1.48,.12-2.98,.19-4.44,.42-8.9,1.43-17.71,1.1-26.64-.21-11.12-1.63-21.25-5.61-30.71-11.22-7.39-4.38-14.04-9.79-19.6-16.33-2.08-2.45-3.92-5.1-5.78-7.71-.49-.69-.69-1.59-.99-2.4-.57-1.58,.99-3.83,2.71-3.72,2.66,.18,5.34,.35,7.95,.86,20.69,4.02,40.22,.81,58.76-8.76,3.17-1.64,6.15-3.54,8.77-5.94,6.29-5.77,12.9-11.15,20.28-15.59,1.23-.74,2.17-1.95,3.24-2.95,0,0,.07,.07,.07,.07-6.33-.21-12.4,1.56-18.58,2.49-8.56,1.29-17.2,1.59-25.8,2.47-4.73,.48-9.53,.2-14.27-.52-6.77-1.02-13.65-1.06-20.41-2.41-10.82-2.16-21.57-4.48-32.01-8.07-11.15-3.84-20.89-9.69-29.38-17.76-8.44-8.01-15.47-16.87-20.18-27.44-2.39-5.37-4.22-10.87-4.81-16.71-.09-.85,.07-1.72,.16-2.57,.1-.9,1.73-1.9,2.73-1.87,1.9,.05,3.43,.95,4.86,1.99,12.18,8.82,26.05,12.53,41.01,12.87,4.47,.1,8.95,0,13.42-.08,11.85-.18,22.93-3.31,33.52-8.32,.46-.22,.75-.86,1.01-1.35,.28-.52-.71-1.62-1.57-1.8-.58-.12-1.16-.27-1.75-.37-3.82-.65-7.65-1.22-11.45-1.95-25.45-4.91-49.07-14.28-71.02-27.69-5.31-3.25-10.37-6.87-14.9-11.1-6.07-5.68-10.93-12.29-15.09-19.38-5.09-8.66-8.38-18-10.1-27.8-1.27-7.19-1.02-14.47-.33-21.73,.05-.57,.26-1.13,.4-1.69,.84-3.28,4.28-4.53,6.93-2.5,.93,.72,1.85,1.47,2.7,2.28,1.07,1.01,2.19,2,3.08,3.16,8.37,11,20.19,17.05,33.05,21.31,14.22,4.71,28.89,7.08,43.98,6.24,1.16-.06,2.31-.46,3.44-.77,.2-.05,.35-.46,.4-.72,.05-.25,.01-.6-.14-.77-.39-.42-.81-.86-1.32-1.1-1.34-.63-2.71-1.22-4.1-1.73-13.46-4.93-26.11-11.4-38.22-18.9-8.82-5.46-17.33-11.37-25.06-18.23-12.48-11.09-20.35-24.89-24.41-40.8-2.02-7.93-3.22-15.95-2.74-24.16,.34-5.85,1.57-11.51,3.56-17.02,.29-.8,.86-1.51,1.34-2.23,.69-1.01,3.02-1.54,4.07-.86,.98,.64,2.05,1.27,2.76,2.15,1.84,2.28,3.58,4.65,5.22,7.07,4.5,6.65,10.27,12,16.93,16.57,11.9,8.18,25.14,13.22,39.3,16.08,5.23,1.06,10.44,2.55,15.9,1.71,.26-.04,.71-.33,.69-.44-.08-.53-.13-1.3-.48-1.51-2.03-1.22-4.15-2.28-6.22-3.43-14.05-7.84-26.98-17.19-38.25-28.5-9.99-10.02-18.84-21-26.26-32.99-6.54-10.56-10.94-21.93-12.76-34.18-.34-2.29-.56-4.62-.6-6.94-.1-4.94-.25-9.88-.03-14.81,.74-16.89,5.62-32.56,14.92-46.88,.48-.73,1.05-1.4,1.61-2.08,1.02-1.23,3.81-1.28,4.81-.02,.72,.91,1.53,1.86,1.88,2.92,1.01,3.04,1.93,6.11,2.65,9.22,1.31,5.72,3.47,11.09,6.26,16.27,5.85,10.87,12.94,20.85,21.84,29.61,5.47,5.38,11.09,10.56,17.53,14.82,.95,.63,2.11,.98,3.19,1.39,.18,.07,.56-.14,.73-.32,.17-.18,.32-.55,.24-.74-.45-1.06-.92-2.12-1.5-3.12-7.37-12.67-13.63-25.83-18.41-39.64-1.24-3.58-2.63-7.1-4.03-10.62-5.1-12.8-8.5-26.05-10.01-39.67-2.13-19.14,.76-37.68,8.59-55.4,7.25-16.41,17.09-31.27,29.08-44.74,3.5-3.94,7.52-7.45,11.43-11.03,1.94-1.78,4.22-2.03,5.71-1.06,1.7,1.1,1.99,2.81,2.01,4.58,.01,1.45-.06,2.91-.3,4.34-1.64,9.75-3.34,19.48-3.36,29.41-1.44,7.77-1.33,15.63-1.17,23.47,.08,4.06,.54,8.1,.86,12.15,.16,2.03,.49,4.04,.57,6.07,.34,7.87,1.88,15.56,3.51,23.24,2.97,14.01,7.87,27.4,13.76,40.46,3.6,8,8.22,15.49,12.87,22.93,6.36,10.19,13.58,19.82,21.26,29.09,4.87,5.88,10.49,11.09,16.45,15.96,11.24,9.17,23.3,17.15,35.92,24.38,11.06,6.33,22.14,12.61,33.62,18.19,24.81,12.07,49.58,24.22,74.49,36.11,12.31,5.87,24.87,11.26,37.35,16.8,14.38,6.39,28.75,12.79,43.19,19.03,15.26,6.6,30.61,13.01,45.91,19.53,13.11,5.59,26.2,11.24,39.32,16.81,10.39,4.41,20.86,8.64,31.21,13.13,14.43,6.26,28.94,12.4,42.88,19.68,23.44,12.22,45.97,25.87,66.62,42.26,10.17,8.07,20.11,16.46,28.88,26,10.35,11.26,20.37,22.79,28.74,35.57,6.58,10.04,12.83,20.27,17.46,31.37,1.45,3.47,2.72,7.07,5.15,10.07,.22,.27,1.3,.29,1.53,.04,.56-.63,.98-1.44,1.26-2.24,1.13-3.31,2.11-6.66,3.3-9.95,2.39-6.63,5.82-12.72,10.16-18.33,2.55-3.29,5.62-5.95,9.36-7.94,6.57-3.5,13.36-6.46,20.68-8.1,10.17-2.28,20.4-4.15,30.76-5.51,9.47-1.25,19.04-1.18,28.47-2.71,2.62-.43,5.35-.3,8.04-.33,8.35-.08,16.7-.11,25.05-.16,1.79-.01,3.58,.02,5.37-.02,5.17-.11,6.93-1.3,7.12-6.7,.14-3.81,.93-7.51,2.02-11.13,3.85-12.76,3.98-25.8,3.25-38.89-.39-7.06-2.56-13.71-6.13-19.87-3.08-5.31-6.24-10.58-9.47-15.8-2.31-3.74-4.86-7.32-8.45-10.07-1.4-1.07-3.44-1.29-5.03-.41-1.29,.72-2.56,1.48-3.79,2.29-5.17,3.45-10.35,6.88-15.46,10.39-9.3,6.39-19.36,11.46-29.63,16.15-7.88,3.6-16.09,6.21-24.74,7.26-12.77,1.55-24.09-4.89-28.92-15.98-1.16-2.66-1.91-5.5-2.65-8.31-1.2-4.5-2.15-9.06-3.39-13.55-.85-3.08-1.85-6.13-3.03-9.1-1.41-3.55-3.5-6.76-6.38-9.37-4.6-4.17-8.78-8.66-12.45-13.66-1.72-2.34-4.01-4.28-6.01-6.44-1.66-1.79-2.55-3.93-2.59-6.34-.04-2.03,.06-4.07,.06-6.1,0-2.32,.03-4.65-.08-6.97-.15-3.07-1.52-5.67-4.01-7.49-2.13-1.56-4.46-2.89-6.81-4.13-2.88-1.52-5.88-2.83-8.8-4.28-1.88-.93-3.55-2.15-4.77-3.86-1.84-2.58-2.35-5.35-.88-8.22,.79-1.55,1.82-3,2.87-4.4,2.29-3.05,4.71-6,6.99-9.06,3.69-4.96,6.96-10.16,8.86-16.05,.53-1.65,.91-3.38,1.05-5.1,.21-2.52-.88-4.57-3.24-5.74-2.39-1.19-4.94-2.07-7.27-3.34-1.52-.83-2.87-2.04-4.1-3.26-.87-.86-.95-2.15-.52-3.28,.43-1.14,1.41-1.85,2.61-2.17,.57-.15,1.18-.24,1.76-.22,3.27,.12,6.54,.3,9.81,.43,3.05,.12,5.85,1.01,8.46,2.52,2.34,1.35,3.75,4.1,3.05,6.71-.75,2.8-1.65,5.59-2.81,8.25-2.45,5.64-5.82,10.79-9.58,15.69-1.96,2.56-3.93,5.12-5.76,7.77-.82,1.19-1.43,2.55-1.91,3.91-.61,1.74-.23,3.44,.78,4.99,1.49,2.27,3.63,3.83,6.03,5.06,2.64,1.35,5.36,2.55,7.99,3.91,9.32,4.83,11.97,9.78,10.65,19.82-.15,1.15-.41,2.29-.6,3.44-.51,3.1,.4,5.76,2.71,7.93,3.45,3.24,6.32,6.93,9.21,10.65,1.97,2.53,4.33,4.81,6.73,6.98,5.66,5.11,9.07,11.46,11.06,18.59,.86,3.08,1.35,6.25,2.14,9.35,1.15,4.51,2.2,9.05,3.66,13.47,4.3,13.01,16.43,17.55,26.25,16.94,4.21-.26,8.27-1.2,12.24-2.42,8.27-2.53,16.28-5.7,23.83-9.88,9.34-5.17,18.31-10.92,27.07-16.98,2.92-2.02,5.83-4.05,8.73-6.09,1.69-1.19,3.45-2.31,5.01-3.66,6.47-5.58,12.87-11.24,19.31-16.86,3.55-3.1,7.09-6.21,10.67-9.28,6.1-5.23,11.25-11.19,14.96-18.27,0,0,.06,.06,.06,.06-2.1,.47-4.04,1.37-5.26,3.08-4.68,6.55-11.1,11.32-17.44,16.1-13.18,9.95-26.44,19.83-40.64,28.38-8.35,5.03-16.73,10.05-25.98,13.45-7.59,2.79-15.48,4.16-23.48,5.07-2.05,.23-4.17,.15-6.24-.02-6.48-.56-11.19-3.7-13.85-9.52-1.09-2.38-1.98-4.86-2.77-7.35-2.02-6.4-4.7-12.52-7.88-18.45-2.48-4.63-4.76-9.36-7.23-13.99-5.23-9.81-9.45-20.03-13.43-30.35-3.05-7.89-5.04-16.04-6.5-24.38-1.46-8.33,0-16.14,2.42-23.97,.51-1.66,1.21-3.28,1.95-4.86,2.92-6.17,3.72-12.81,4.57-19.43,.25-1.98-.02-4.06-.32-6.05-1.25-8.39-3.78-16.39-7.74-23.96-3.52-6.72-6.94-13.48-10.42-20.22-2.95-5.73-4.97-11.76-6.79-17.92-3.02-10.22-3.5-20.62-2.5-31.06,.83-8.67,2.95-17.16,5.95-25.4,1.6-4.37,3.4-8.67,5.01-13.04,.39-1.05,.42-2.23,.55-3.35,.02-.2-.29-.5-.52-.63-.24-.13-.66-.25-.84-.13-1.24,.78-2.4,1.68-3.66,2.41-.38,.22-1.02,.01-1.55,0,.02-.54-.16-1.22,.11-1.59,1.88-2.6,3.65-5.31,5.85-7.65,2.4-2.56,5.17-4.79,7.85-7.08,1.79-1.53,3.77-2.85,5.55-4.38,4.47-3.85,4.51-4.03,6.37-10.03,.33-1.05-.14-1.58-.97-1.99-6.14-2.96-12.32-5.84-18.41-8.89-3.16-1.58-6.34-3.22-8.81-5.82-.17-.18-.29-.66-.18-.78,.33-.38,.82-.96,1.2-.92,2.36,.23,4.71,.61,7.06,.94,1.59,1.19,3.48,1.52,5.41,1.73,.49,.31,.97,.65,1.49,.9,.17,.08,.47-.08,.71-.13-.75-.24-1.5-.48-2.24-.72-1.63-1.11-3.47-1.58-5.43-1.71-2.38-2.25-5.46-3.36-8.32-4.84-6.02-3.11-11.71-6.66-16.51-11.43-.61-.6-1.16-1.32-1.51-2.08-.18-.39,.1-1.03,.29-1.51,.07-.19,.5-.38,.72-.34,1.15,.2,2.33,.34,3.41,.74,2.49,.93,4.98,1.8,7.67,1.94,1.21,.58,2.41,1.16,3.62,1.73,1.6,1.13,3.43,1.59,5.36,1.74,4.18,2.73,8.93,4.3,13.51,6.19,1.32,.54,2.85,.61,4.29,.9,0,0,.34,.21,.34,.21l-.22-.32c-.83-2.58-2.41-4.47-5.27-4.92-4.23-.67-8.35-2.04-12.7-1.97-1.56-1.24-3.42-1.61-5.36-1.75-1.21-.58-2.42-1.15-3.63-1.73-3.21-2.09-6.41-4.19-9.63-6.27-4.05-2.6-7.3-5.93-9.76-10-.45-.74-.76-1.57-1.13-2.36-.36-.77-.11-2.05,.53-2.35,.51-.24,1.11-.5,1.64-.45,.87,.09,1.72,.41,2.57,.66,1.71,.5,3.41,1.01,5.11,1.52,0,0-.05,.04-.05,.04-1.47-1.77-3.03-3.48-4.4-5.32-1.75-2.34-2.86-4.97-2.91-7.92-.01-.84,.17-1.69,.31-2.52,.17-1,1.78-2,2.68-1.62,2.67,1.12,5.31,2.29,7.97,3.44l-.1-.09c.61,.59,1.22,1.19,1.83,1.78l.05,.04c1.11,.53,2.22,1.07,3.32,1.6,0,0,.39,.29,.39,.29,.52,.51,1.05,1.02,1.57,1.53l.13,.1c1.19,.58,2.39,1.16,3.58,1.74l-.14-.08c2.21,2.28,4.35,4.63,6.65,6.83,2.68,2.56,4.42,1.99,5.41-1.71,.29-1.1,.4-2.25,.59-3.38l-.09,.08c3.59-4.08,7.18-8.16,10.77-12.23l.02-.02c.56-.54,1.12-1.08,1.67-1.63,0,0,.25-.2,.25-.2,4.06-1.07,7.76-2.91,11.28-5.11,.93-.58,1.01-2.3,.12-3.04-1.58-1.32-3.27-2.53-4.74-3.95-.81-.79-1.41-1.87-1.86-2.91-.75-1.74-.41-3.5,.85-4.88,.97-1.06,2.17-2.04,3.45-2.69,4.79-2.42,9.93-3.89,15.22-4.86,.57-.1,1.19-.01,1.78-.02,1.7,0,3.57,1.47,3.86,3.06,.9,4.87-.08,9.21-3.75,12.83-.26,.26-.12,.95-.05,1.43,.02,.11,.53,.26,.77,.2,3.47-.79,6.94-1.59,10.4-2.45,1.21-.3,1.54-1.65,.73-2.78-.85-1.19-1.83-2.29-2.58-3.52-1.03-1.7-.39-4.29,1.34-5.44,1.22-.81,2.48-1.67,3.86-2.11,2.82-.91,5.71-1.62,8.6-2.29,6.12-1.42,12.38-1.44,18.62-1.61,1.08-.03,2.15,1.76,1.6,2.59-.65,.97-1.22,2.01-2.02,2.84-2.26,2.31-4.64,4.49-6.9,6.8-.31,.31-.22,1.05-.19,1.58,.01,.16,.47,.38,.74,.41,3.86,.4,7.71,.42,11.55-.16,1.16-.18,2.07-1.08,2.25-2.38,.12-.86,.07-1.74,.13-2.6,.18-2.24,1.5-3.84,3.44-4.75,1.86-.87,3.87-1.57,5.89-1.9,10.31-1.66,20.7-2.24,31.14-1.65,1.14,.06,2.3,.51,3.35,.98,.3,.14,.53,1.24,.3,1.5-.74,.85-1.58,1.76-2.59,2.23-4.29,1.99-8.67,3.81-12.98,5.77-.31,.14-.37,.93-.41,1.43-.01,.19,.34,.43,.57,.6,.23,.17,.51,.3,.79,.39,2.31,.74,4.68,.84,7.06,.56,1.21-.14,2.3-.6,2.91-1.74,.27-.51,.53-1.04,.72-1.59,.86-2.43,2.8-3.84,5.15-4.42,3.74-.93,7.54-1.88,11.36-2.13,5.03-.32,10.15-.34,15.15,.18,5.63,.59,11.25,1.1,16.9,1.34,1.46,.06,2.9,.51,4.35,.81,.78,.16,1.1,1.18,.71,2.1-.76,1.77-.7,1.95,.66,1.95,2.08,0,4.17,.04,6.25-.02,11.37-.33,22.57,1.11,33.73,2.97,2.91,.48,5.8,1.11,8.67,1.8,.31,.07,.49,.93,.6,1.45,.03,.15-.35,.42-.59,.57-.24,.15-.53,.3-.8,.33-9.17,.9-18.28,2.52-27.55,2.14-.89-.04-1.78,.06-2.67,.14-.28,.03-.75,.19-.78,.34-.09,.62,.36,.87,1.09,1,3.51,.62,7.04,1.2,10.52,1.98,1.42,.31,2.74,1.07,4.1,1.62-.87,.04-1.75,0-2.59,.16-.52,.09-1.16,.36-1.41,.75-.14,.23,.26,1.1,.63,1.27,4.67,2.2,9.38,4.32,14.08,6.47,1.2,.58,2.41,1.16,3.61,1.74-.24,2.71-.82,3.33-2.99,2.85-6.09-1.34-12.16-2.72-18.22-4.16-3.18-.75-6.29-1.76-9.48-2.42-1.71-.35-3.58-.56-5.27-.24-3.91,.74-7.66,.31-11.48-.47-5.53-1.13-11.09-2.07-16.63-3.14-2.07-.4-4.13-.58-6.19-.08-4.73,1.14-9.41,.65-14.15-.08-5.86-.91-11.77-1.58-17.67-2.22-1.12-.12-2.65-.04-3.41,.6-3.1,2.6-6.56,2.34-10.14,1.72-5.3-.93-10.66-.82-16.01-.77-1.44,.01-3.21,.16-4.24,.96-2.82,2.2-6.01,2.27-9.29,2.33-5.05,.1-10.1,.17-15.15,.33-.44,.01-1.27,.63-1.24,.89,.28,2.35-1.32,3.14-3.13,3.41-6.74,1.02-13.43,2.43-20.32,2.49-7.15,.07-14.26,.03-21.27-1.61-1.73-.41-3.5-.64-5.25-1.01-2.21-.47-4.09,.2-5.86,1.42-2.26,1.56-3.87,3.57-4.55,6.22,0,0-.04-.04-.04-.04,2.91-2.15,6.12-3.52,9.82-3.67,9.5-.37,19-.32,28.49,.36,.56,.04,1.19,.27,1.64,.59,.44,.32,.93,.86,.96,1.33,.03,.48-.36,1.23-.78,1.43-2.66,1.25-5.38,2.38-8.08,3.54-1.48,.64-1.59,1.33-.5,3.35,.75,1.39,.82,2.48,.04,3.13-2.25,1.86-4.57,3.65-6.83,5.5-.17,.14-.22,.55-.16,.8,.06,.23,.31,.53,.53,.58,1.43,.36,2.88,.6,4.3,.99,1.06,.29,1.72,1.75,1.47,2.86-1.1,4.88-3.86,8.42-8.84,10-4.82,1.53-9.78,2.45-14.88,2.37-.6-.57-1.2-1.14-1.8-1.71-.6-.59-1.21-1.18-1.81-1.77-.56-3.92,.43-7.2,4.06-9.42,.48-.29,.86-.74,1.29-1.11,.56-.08,1.12-.12,1.66-.24,.19-.04,.34-.26,.51-.39-.92-.36-1.46,.33-2.11,.71-2.64-.26-5.28-.41-7.8-1.41-2.84-1.13-3.8-5.06-1.57-7.17,1.03-.98,2.28-1.83,3.58-2.42,1.79-.81,3.72-1.32,6.43-2.24-3.8-.47-6.7-.84-9.61-1.18-1.52-.17-2.92,.71-3.52,2.04-.99,2.17-1.2,4.4-.81,6.74,1.03,6.12,3.45,11.56,7.94,16.05,.6,.59,1.21,1.18,1.81,1.76,.59,.59,1.17,1.17,1.76,1.76,2.76,4.28,6.36,7.74,10.75,10.42,.6,.59,1.2,1.18,1.8,1.77,.6,.58,1.19,1.16,1.79,1.74,0,.59,0,1.19,0,1.78-4.19,0-8.37,0-12.56,0-.43-.29-.83-.63-1.29-.87-.68-.35-1.05-.18-.91,.38,.03,.14,.45,.22,.7,.26,.52,.08,1.04,.1,1.56,.15,3.72,2.43,7.99,3.48,12.25,4.53,.26,.06,.68,.05,.83-.11,.35-.38,.89-.95,.78-1.28-.34-1.08-.92-2.08-1.42-3.11,1.21,0,2.43,0,3.64-.01,.84,1.22,1.74,2.43,3.41,2.48,.42,.01,.88-.56,1.26-.93,.06-.06-.18-.65-.36-.69-1.44-.31-2.9-.56-4.35-.82-1.2-.58-2.39-1.15-3.59-1.73-.6-.58-1.19-1.16-1.79-1.74-.61-.58-1.21-1.17-1.82-1.75-.03-.58-.05-1.16-.1-1.74-.38-4.04,1.71-6.64,5.25-8.27,3.25-1.5,6.71-2.4,10.29-2.8,2.56-.29,4.52,.97,5.33,3.6,.43,1.38,.66,2.83,1.03,4.23,.22,.83,.55,1.64,.84,2.45,.23,.64,1.68,1.21,2.32,.84,4.87-2.79,9.79-5.51,14.58-8.44,6.87-4.2,14.22-7.29,21.97-9.58,8.56-2.53,17.07-5.19,25.61-7.8,7.14-2.19,14.4-3.69,21.89-4.13,2.67-.16,5.35-.41,8-.79,5.34-.78,10.69-.73,16.06-.4,.27,.02,.72,.22,.75,.39,.1,.61-.31,.95-1.04,1.06-3.83,.56-7.63,1.45-11.48,1.65-7.54,.38-14.75,2.17-21.81,4.47-8.76,2.86-17.35,6.19-26.04,9.27-4.8,1.7-9.29,3.95-13.47,6.78-3.43,2.32-6.95,4.52-10.23,7.03-6.32,4.85-12.51,9.86-18.71,14.85-3.21,2.59-6.41,5.21-9.48,7.96-3.95,3.54-7.78,7.19-11.61,10.86-.61,.58-1.03,1.44-1.28,2.24-.13,.43,.16,1.17,.52,1.49,.36,.32,1.19,.55,1.58,.36,1.03-.51,2.15-1.09,2.86-1.94,2.85-3.37,5.84-6.58,9.46-9.22,10.26-7.48,20.45-15.06,31.14-21.98,12.52-8.1,25.92-14.29,40.35-18.38,6.31-1.79,12.79-2.77,19.26-3.82,8.32-1.35,16.59-1.61,24.91-.24,2.05,.34,4.15,.49,6.23,.55,10.49,.29,20.73,2.1,30.88,4.58,10.14,2.48,19.99,5.82,29.74,9.45,3.9,1.45,7.75,3.03,11.52,4.76,15.52,7.14,29.09,16.99,41.49,28.48,5.2,4.82,9.81,10.15,14.22,15.64,8.48,10.56,15.68,21.95,21.63,34,3.87,7.83,7.32,15.88,10.5,24.04,6.59,16.9,11.39,34.27,15.23,51.89,4.15,19.04,6.48,38.38,9.08,57.67,.66,4.89,1.26,9.79,1.82,14.7,.87,7.5,1.65,15.01,2.54,22.5,.89,7.5,2.06,14.96,2.75,22.47,1.22,13.33,3.25,26.53,6.08,39.6,2.58,11.93,5.57,23.78,10.56,35.06,5.01,11.33,11.68,21.5,20.74,30.21,5.58,5.36,11.71,9.86,18.68,13.32,1.31,.65,3.06,1.34,2.98,2.91-.11,2.2-2.39,2.21-4.03,2.71-1.14,.35-2.3,.61-3.46,.87-9.6,2.11-19.2,4.19-28.79,6.32-1.45,.32-2.87,.79-4.28,1.24-.24,.08-.54,.41-.55,.63,0,.22,.27,.61,.5,.67,2.87,.78,5.75,1.52,8.63,2.25,8.45,2.17,16.33,5.47,23.17,10.92,1.84,1.47,3.85,2.75,5.72,4.18,4.29,3.29,7.92,7.04,9.16,12.49,.25,1.11,.92,2.13,1.42,3.18,.93,1.93,2.78,1.95,4.14,.06,.17-.24,.34-.48,.51-.72,4.85-6.62,9.55-13.35,14.59-19.81,4.14-5.31,8.67-10.34,13.09-15.44,2.54-2.92,5.5-5.3,9.37-6.45,.82-.24,1.53-.88,2.27-1.35,1.08-.69,.82-3.11-.41-3.76-.78-.41-1.54-.96-2.38-1.15-4.06-.91-8.13-1.82-12.24-2.51-1.42-.24-3.02-.1-4.42,.27-5.54,1.45-10.71,.21-15.6-2.16-8.88-4.31-16.87-9.79-23.09-17.51-5.96-7.4-10.52-15.51-13.52-24.41-4.37-12.99-7.79-26.22-10.24-39.68-1.62-8.86-2.96-17.76-4.11-26.7-1.77-13.82-4.09-27.58-6.15-41.37-.73-4.88-1.44-9.77-2.01-14.68-.82-6.92-1.39-13.87-2.27-20.78-.74-5.76-1.66-11.5-2.68-17.22-2.25-12.6-5.4-24.99-9.05-37.29-5.9-19.87-13.55-39.06-22.99-57.57-2.78-5.46-5.88-10.77-9-16.05-10.44-17.7-22.41-34.28-37.45-48.63-2.34-2.24-4.68-4.48-6.96-6.77-6.89-6.91-14.68-12.73-22.8-18.19-8.37-5.63-17.16-10.5-26.3-14.81-3.2-1.51-6.62-2.71-9.18-5.3l.02-.03c4.59,.13,8.74,1.82,12.77,3.7,7.79,3.63,15.62,7.24,23.18,11.3,6.25,3.35,12.34,7.07,18.17,11.09,10.23,7.05,19.86,14.83,28.54,23.68,2.68,2.73,5.48,5.34,8.15,8.08,2.46,2.53,4.91,5.08,7.17,7.77,5.66,6.74,11.24,13.55,16.18,20.82,.66,.97,1.4,1.88,2.15,2.78,1.39,1.66,3.2,2.58,5.39,2.73,1.48,.1,2.97,.17,4.46,.17,7.45,.02,14.9,.02,22.35-.02,.39,0,.79-.35,1.21-.55-1.08-.81-2.32-.48-3.43-.75-2.29-.56-4.59-1.15-6.84-1.86-.31-.1-.45-.9-.53-1.39-.03-.19,.26-.56,.49-.65,1.09-.44,2.19-1.04,3.33-1.16,7.4-.78,14.71-2.37,22.2-2.32,.9,0,1.12-.34,.63-.89-2.03-.23-4.1-.44-6.16-.7-1.05-.13-2-1.03-1.69-1.67,.35-.72,.84-1.59,1.51-1.9,2.13-1.02,4.38-1.81,6.59-2.7,.82-.33,1.7-.58,2.42-1.05,.53-.34,.27-.87-.3-1.33-.67-.54-1.53-1.1-1.77-1.83-.43-1.26,.56-2.22,1.52-2.9,2.4-1.71,4.9-3.29,7.3-5,.39-.28,.51-.96,.66-1.47,.02-.07-.45-.37-.72-.42-1.45-.28-2.93-.45-4.37-.77-1-.22-1.89-1.73-1.77-2.74,.48-4.07,2.69-7.07,6.28-8.98,1.8-.96,3.86-1.56,5.87-1.99,3.49-.73,7.04-1.2,10.57-1.78,0,0-.07,.07-.07,.07-1.53-1.76-2.97-3.6-4.6-5.27-1.86-1.9-2.86-1.78-4.92,.58-4.35,4.96-10.19,6.74-16.52,7.41-1.56,.16-2.93-.84-3.54-2.23-.92-2.11-1.79-4.3-2.24-6.54-.56-2.78,.63-5.2,3-6.79,1.94-1.3,4.14-2.23,6.22-3.33,.74-.39,.83-1.71,.16-2.28-.45-.38-.89-.77-1.38-1.09-2.32-1.53-3.94-1.6-4.86,.98-1.39,3.89-4.32,6.11-8.13,7.46-2.12,.75-4.15,.57-5.85-.92-3.11-2.73-5.69-5.91-7.75-9.46-1.24-2.13-1.51-4.38-.06-6.58,.48-.73,1.02-1.43,1.51-2.14,.75-1.09,.73-2.16-.12-3.18-.93-1.12-1.89-2.22-2.84-3.32,2.47,.9,4.95,1.79,7.42,2.71,1.65,.61,3.23,1.41,4.92,1.86,.74,.2,1.66-.2,2.48-.41,.19-.05,.38-.42,.42-.67,.04-.25,0-.69-.16-.77-3.66-1.93-7.67-2.86-11.71-3.56-1.02-.18-2.22,.57-3.33,.89-1.44,.63-2.55,1.59-2.36,3.24,.3,2.65,.1,5.14-1.47,7.44-1.27,1.86-3.54,2.66-5.35,1.68-5.18-2.81-9.8-6.39-14.24-10.17-2.55-2.17-4.16-4.99-3.55-8.41,.58-3.27-1.02-4.9-3.87-5.8-2.24-.71-4.53-1.26-6.79-1.89,0-.61,0-1.23,0-1.84,4.53,.19,8.62,1.94,12.68,3.63,3.19,1.33,6.29,1.39,9.45,.15,.47-.18,.8-.72,1.2-1.09-.21-.18-.39-.48-.62-.52-7.58-1.16-14.99-3.26-22.67-3.86-.25-.08-.49-.16-.74-.25,.26,.07,.52,.13,.78,.2,0,.59-.02,1.19-.02,1.78,0,.58,0,1.15,.01,1.73,1.01,2.08,2.12,4.13,2.98,6.27,.42,1.03,.43,2.24,.52,3.38,.12,1.49-1.54,2.87-2.89,2.44-1.12-.36-2.26-.68-3.31-1.18-8.53-4.04-16.78-8.53-24.2-14.34-.6-.59-1.2-1.18-1.8-1.76,.05-2.51-.65-4.83-1.82-7.04,2.08,.1,4.16,.33,6.23,.22,.69-.04,1.45-.83,1.96-1.45,.47-.57-.42-1.64-1.39-1.76-4.43-.54-8.85-1.08-13.28-1.6-.26-.03-.66,.13-.78,.33-.09,.16,.07,.64,.26,.74,2.35,1.22,4.73,2.4,7.1,3.59-1.02,.34-2.18,.48-3.01,1.07-.75,.53-.11,1.97,1.48,3.35,1.03,.9,2.2,1.66,3.3,2.48,.6,.59,1.21,1.17,1.81,1.76-.05,.29-.05,.58-.14,.85-.8,2.44-1.82,3.22-3.59,2.72-1.14-.32-2.29-.6-3.38-1.05-6-2.48-11.97-5.02-17.96-7.52-2.99-1.25-6-2.44-9-3.66-.59-.59-1.19-1.18-1.78-1.76,0,0,.04-.04,.04-.04,.6,.58,1.21,1.16,1.81,1.74-.52,1.11-1.33,1.92-2.65,1.92-.87,0-1.78-.11-2.6-.38-9.5-3.1-18.99-6.24-28.48-9.38-2.51-.83-4.99-1.71-7.49-2.57-1.21-.58-2.41-1.15-3.62-1.73-2.46-4.25-6.66-6.47-10.77-8.79,2.08-.2,4.14-.44,5.95-1.59,4.67-2.99,9.92-3.66,15.34-3.62,1.78,.01,3.57,.03,5.33,.25,12.95,1.67,25.88,3.43,38.59,6.47,2.01,.48,4,1.07,5.97,1.72,.44,.15,.71,.77,1.06,1.17-.42,.34-.83,.7-1.28,1-.99,.65-.77-.78-.78,.39,0,.24,.03,.67,.08,.68,7.1,.73,14.03,2.39,21.02,3.71,8.76,1.66,17.24,4.35,25.81,6.7,1.71,.47,3.64,.89,4.61,2.42,1.76,2.77,4.6,3.39,7.46,4.24,8.23,2.44,16.47,4.89,24.64,7.52,3.08,.99,5.99,2.48,8.96,3.78,.2,.09,.44,.6,.37,.69-.31,.38-.72,.94-1.12,.97-2.07,.13-4.15,.12-6.22,.16-1.79-1.07-3.73-1.56-5.83-1.51-.78,.02-1.18,.25-1.01,.83,.05,.16,.5,.27,.78,.29,2.04,.13,4.08,.22,6.11,.33,1.94,.63,3.86,1.34,5.84,1.87,13.39,3.58,26.3,8.35,38.64,14.57,.78,.39,1.53,.85,2.29,1.3,1.31,.77,1.21,1.84-.3,3.27-.26-.1-.52-.19-.78-.29,.28,.07,.57,.14,.85,.21,1.82,.94,3.6,1.99,5.48,2.81,7.04,3.07,13.74,6.72,20.27,10.7,1.86,1.14,3.66,2.23,1.8,4.75-.19,.25,.17,1.2,.54,1.47,1.66,1.2,3.35,2.37,5.15,3.36,4.69,2.57,8.59,6.1,12.63,9.47,.73,.61,1.01,1.84,.55,2.3-.71,.71-1.59,.65-2.46,.4-.85-.24-1.68-.55-2.51-.84-1.67-.58-3.32-1.26-5.02-1.71-1.99-.52-4.04-.84-6.06-1.25-1.75-.99-3.39-2.28-5.26-2.92-6.59-2.27-12.98-4.96-19.27-7.91-1.3-.61-2.74-.93-4.11-1.38,0,0,.05-.05,.05-.05,2.18,2.35,4.32,4.74,6.54,7.05,1.26,1.31,2.82,2.09,4.75,1.87,3.03-.34,5.86,.55,8.73,1.27,2.86,.72,5.75,1.33,8.63,1.99,2.93,2.57,6.66,3.82,10.03,5.65,5.04,2.74,9.18,6.43,12.54,10.95,.87,1.16,1.46,2.52,2.15,3.8,.44,.82,.31,2.2-.24,2.39-.52,.18-1.16,.41-1.64,.28-2.29-.63-4.54-1.37-6.81-2.07-1.19-.58-2.39-1.17-3.58-1.75,0,0,.04-.04,.04-.04,1.2,.57,2.4,1.15,3.6,1.72,2.02,3.46,4.89,6.47,5.98,10.41,.37,1.33,.41,2.78,.39,4.18-.02,1.32-1.99,2.59-3.23,2.19-1.11-.35-2.21-.73-3.27-1.2-2.38-1.06-4.74-2.19-7.1-3.3-.6-.59-1.2-1.18-1.8-1.77-1.2-.57-2.4-1.15-3.6-1.72-4.13-3.65-8.25-7.3-12.4-10.93-.16-.14-.62-.09-.85,.03-.23,.12-.47,.43-.5,.68-.42,4.16,.16,5.21,3.85,6.6,3.29,1.24,6.63,2.38,9.94,3.56,1.2,.58,2.39,1.16,3.59,1.74,.61,.58,1.21,1.17,1.82,1.75,.92,1.5,2.05,2.91,2.7,4.5,1.81,4.4,1.16,8.53-1.95,12.24-1.14,1.36-3.43,1.74-4.84,.72-1.19-.86-2.39-1.74-3.47-2.73-4.78-4.38-9.58-8.73-13.68-13.76-.95-1.17-2.57-1.04-3.88,.27-.61,.61-1.32,1.32-1.51,2.1-.18,.72,0,1.9,.5,2.32,1.34,1.12,2.93,1.96,4.45,2.86,2.05,1.22,3.92,2.63,5.44,4.46,2.6,3.14,2.44,7.61-.51,10.27-2.65,2.39-5.62,4.29-9.06,5.46-2.11,.72-4.4,.19-5.52-1.65-1.52-2.49-2.91-5.06-4.19-7.67-.64-1.29-.89-2.76-1.34-4.15-.43-1.3-.04-3.25-2-3.45-1.82-.18-3.46,.77-4.73,2.05-.33,.33-.54,1.25-.32,1.52,1.5,1.78,3.2,3.41,4.69,5.19,1.52,1.82,1.4,4.71-.24,6.43-1,1.05-2.07,2.17-3.33,2.86-4.99,2.72-10.37,4.38-16.05,5.06-.29,.04-.6,.01-.89,.02-2.1,.05-4.1-1.66-4.22-3.7-.06-1.15-.09-2.32,.07-3.46,.29-2.01,.75-3.99,1.1-5.98,.14-.8-.81-1.82-1.56-1.83-2.14-.02-4.14,.52-5.99,1.48-.38,.2-.76,1.09-.61,1.46,.55,1.33,1.4,2.54,2,3.85,.88,1.93,.21,4.3-1.55,5.44-1.23,.8-2.51,1.66-3.89,2.08-3.12,.95-6.32,1.65-9.49,2.44-1.44,.36-2.89,.65-4.31,1.04-.85,.23-1.86,2.03-1.59,2.89,.6,1.94,1.07,3.95,1.97,5.76,6.18,12.31,10.75,25.21,15.1,38.2,4.64,13.84,8.16,27.94,10.33,42.34,1.86,12.35,3.53,24.74,5.43,37.08,1.81,11.78,3.78,23.53,5.74,35.28,1.53,9.17,2.97,18.37,4.78,27.49,3,15.13,6.45,30.15,12.47,44.48,1.24,2.96,2.61,5.86,4,8.76,5.45,11.37,13.79,20.28,24.5,27.12,2.23,1.43,4.57,2.83,7.06,3.72,6.15,2.2,12.42,4.12,18.65,6.11,.84,.27,1.75,.34,2.63,.5,2.17,.39,4.13,.02,5.87-1.38,2.76-2.22,5.58-4.37,8.31-6.62,17.13-14.1,35.34-26.7,54.65-37.8,16.18-9.3,32.58-18.22,49.22-26.73,9.77-4.99,19.38-10.29,29.05-15.45,1.57-.84,3.12-1.71,4.69-2.54,17.59-9.23,35.27-18.29,52.76-27.71,25.05-13.49,50.14-26.95,74.87-40.97,24.22-13.74,48.05-28.14,72.01-42.31,17.6-10.41,34.62-21.68,51.01-33.83,9.5-7.05,18.49-14.69,26.59-23.26,6.49-6.87,11.83-14.58,16.84-22.51,7.2-11.39,13.73-23.15,19.15-35.45,4.72-10.7,8.38-21.76,10.95-33.14,1.03-4.54,1.94-9.11,2.7-13.69,.57-3.43,.87-6.91,1.23-10.37,.36-3.47,.54-6.95,.97-10.41,.76-6.09,.79-12.17,.01-18.25-.3-2.3-.71-4.61-.8-6.92-.58-15.74-3.13-31.19-7.08-46.45-.58-2.25-1.12-4.52-1.55-6.81-.26-1.42-.36-2.88-.37-4.33-.02-1.48,.31-2.92,1.7-3.8,1.45-.92,3-.55,4.19,.32,3.82,2.77,7.79,5.43,11.24,8.6,17.35,15.94,31.3,34.29,40.24,55.95,4.36,10.55,7.31,21.51,7.15,33.05-.03,1.74-.04,3.49,.05,5.23,.75,15.86-2.04,31.25-6.49,46.42-1.55,5.31-3,10.64-4.5,15.97-3.15,11.24-7.23,22.14-12.32,32.69-.75,1.55-1.27,3.22-1.84,4.85-.06,.18,.17,.55,.37,.71,.19,.16,.59,.32,.77,.23,4.51-2.33,8.54-5.34,11.85-9.07,9.77-11.01,18.99-22.4,25.07-35.89,3.13-6.94,5.95-13.93,6.83-21.55,.37-3.16,1.13-6.3,1.91-9.4,.27-1.06,1.08-2.02,1.76-2.94,.55-.74,2.65-1.05,3.31-.49,1.12,.93,2.33,1.84,3.19,2.98,9.85,13.16,16.04,27.81,18.27,43.97,.71,5.17,1.73,10.3,1.74,15.58,0,7.62-1.09,15.09-3.02,22.4-3,11.32-7.73,21.97-14.33,31.79-5.72,8.51-11.4,17.03-18.14,24.83-5.59,6.47-11.64,12.43-18.28,17.87-6.4,5.25-13.23,9.92-20.21,14.39-1.23,.79-2.31,1.8-3.42,2.75-.15,.13-.14,.61-.01,.83,.12,.22,.49,.46,.73,.44,6.27-.49,12.42-1.76,18.33-3.71,14.21-4.7,27.55-11.06,39.21-20.47,5.1-4.12,9.58-8.66,12.58-14.54,1.72-3.37,3.89-6.53,5.94-9.73,.45-.71,1.21-1.25,1.87-1.83,.72-.63,2.55-.4,3.33,.24,1.43,1.17,2.18,2.74,2.89,4.33,3.53,7.86,4.23,16.27,4.96,24.67,.1,1.15,.08,2.33-.05,3.48-1.33,12.49-3.62,24.7-9.77,35.99-2.96,5.44-6.44,10.5-10.59,15.06-5.34,5.87-11,11.46-17.42,16.25-5.68,4.24-11.2,8.69-17.05,12.69-10.02,6.86-20.49,12.99-31.87,17.56-.47,.19-.78,.79-1.16,1.2-.48,.52,.59,1.31,1.87,1.37,.89,.04,1.79,.07,2.68,.12,10.89,.56,21.38-1.58,31.67-4.69,10.6-3.2,20.58-7.69,29.56-14.18,4.11-2.97,7.83-6.25,10.89-10.25,2.14-2.8,4.3-5.58,6.56-8.27,.73-.87,1.79-1.5,2.79-2.11,1.35-.82,3.97,.04,4.69,1.42,1.52,2.9,2.21,6.03,2.49,9.22,1.62,18.5-2.12,35.82-11.99,51.82-5.92,9.59-13.4,17.71-22.72,24.31-21.18,14.98-43.9,26.87-69.33,33.5-4.31,1.12-8.57,2.43-12.84,3.69-.23,.07-.53,.43-.51,.62,.06,.53,.12,1.36,.44,1.51,6.81,3.08,13.95,5.28,21.46,5.55,8.93,.32,17.89,.24,26.83-.03,3.53-.1,7.11-.9,10.53-1.83,10.7-2.89,20.97-6.73,29.36-14.22,1.32-1.18,2.79-2.16,4.6-2.56,1.33-.3,3.22,.93,3.27,2.25,.23,6.19-1.12,12.14-3.14,17.93-6.06,17.3-16.6,31.39-31.97,41.97-5.64,3.88-11.79,6.9-18.16,9.34-12.21,4.68-24.58,8.99-37.57,11.23-7.63,1.31-15.27,2.34-23.05,2.77-8.94,.49-17.79,.91-26.73-.04-5.32-.57-10.72-.44-16-1.5-.51-.1-1.11,.26-1.68,.4,.21,.5,.27,1.26,.65,1.47,9.15,4.94,17.61,10.88,26.18,16.7,8.44,5.73,18.14,8.68,28.29,10.2,1.76,.26,3.6,.15,5.34,.5,11.15,2.26,21.94,.28,32.69-2.43,2.87-.72,5.77-1.38,8.69-1.9,1.75-.31,3.52,1.82,2.98,3.43-.37,1.1-.73,2.23-1.32,3.22-7.79,13.14-18.63,23.26-32.08,30.86-12.17,6.87-25.34,9.98-39.3,10.26-4.17,.08-8.35,.04-12.53,.06-17.52,.04-34.35-3.43-50.63-9.56-3.88-1.46-7.57-3.42-11.37-5.1-1.34-.59-2.75-1.05-4.15-1.52-.17-.06-.55,.2-.69,.4-.14,.21-.24,.59-.13,.79,4.23,7.81,9.88,14.43,17.1,19.84,9.88,7.4,21.07,11.97,33.01,15.02,4.08,1.04,8.27,1.03,12.45,1.07,4.19,.04,8.34,.36,12.35,1.66,1.74,.56,2.45,2.85,1.25,4.29-.75,.9-1.49,1.83-2.35,2.62-6.13,5.59-12.86,10.29-20.48,13.85-10.37,4.84-21.34,7.33-32.66,8.57-2.35,.26-4.79,.29-7.14,.02-6.21-.71-12.46-1.33-18.48-3.16-1.71-.52-3.43-.99-5.16-1.44-18.13-4.65-34.51-12.74-49.41-23.78-1.89-1.4-3.87-2.7-5.88-3.95-.34-.21-1.05,.07-1.55,.24-.16,.06-.31,.52-.25,.75,2.15,8.99,6.74,16.75,13.11,23.44,6.34,6.65,13.9,11.85,22.1,16.14,3.7,1.94,7.72,3.06,11.79,4.03,2.89,.69,5.8,1.35,8.36,2.97,1.51,.95,1.97,3.34,.7,4.55-1.06,1.01-2.11,2.09-3.36,2.82-11.99,7.02-24.8,11.34-38.98,11.03-1.19-.03-2.39-.06-3.58,0-8.56,.5-16.61-1.57-24.32-4.88-11.76-5.06-23.01-11.05-33.07-18.94-3.24-2.54-6.12-5.52-9.22-8.24-1.08-.95-2.31-1.75-3.51-2.56-.16-.11-.59,.03-.8,.18-.22,.15-.45,.45-.46,.7-.03,.57-.08,1.2,.12,1.72,1.13,2.99,2.01,6.14,3.57,8.91,5.05,8.98,11.12,17.18,19.8,23.3,2.92,2.06,5.89,3.95,9.13,5.45,3.5,1.62,7.01,3.23,10.47,4.94,1.31,.65,2.52,1.53,3.71,2.39,1.41,1.02,1.48,3.6,.16,4.64-.92,.72-1.83,1.51-2.88,2.02-7.82,3.79-15.94,6.53-24.81,6.54-2.98,0-5.96,.03-8.95,.05-10.47,.05-19.91-3.07-28.64-8.58-7.52-4.75-14.74-9.89-21.61-15.47-3.9-3.17-7.48-6.66-10.68-10.52-5.07-6.1-10.1-12.22-13.9-19.2-.55-1-1.41-1.85-2.18-2.72-.15-.17-.55-.21-.8-.16-.23,.05-.54,.28-.58,.48-.13,.55-.3,1.16-.17,1.69,1.3,5.43,1.36,10.96,1.25,16.48-.28,13.71,4.81,25.47,13.33,36.12,3.91,4.89,8.36,9.03,13.85,12.15,2.04,1.16,3.89,2.67,5.76,4.11,1.44,1.11,.92,3.53-.77,4.36-2.45,1.2-5.05,1.86-7.75,1.9-5.36,.08-10.78,.46-16.08-.12-11.88-1.3-22.45-5.8-31.06-14.04-4.46-4.27-8.83-8.67-12.87-13.31-5.42-6.22-9.96-13.05-13.5-20.48-.75-1.56-1.75-3.01-2.68-4.48-.11-.17-.52-.25-.77-.22-.23,.03-.61,.24-.63,.41-.64,4.01-1.48,8-1.77,12.03-.36,4.98,.94,9.84,2.39,14.56,2.61,8.48,6.81,16.08,13.79,22.03,2.45,2.09,5.01,4.14,6.75,6.92,.92,1.48,.2,3.71-1.53,4.34-.83,.3-1.67,.69-2.54,.8-12.27,1.56-23.77-.61-34.32-6.98-2.26-1.36-4.26-3.17-6.21-4.96-7.47-6.84-13.1-15.03-18.07-23.69-1.16-2.02-2.29-4.06-3.47-6.06-.11-.19-.63-.37-.73-.29-.39,.31-.96,.72-.99,1.12-.33,5.05,1.21,9.77,3.03,14.39,2.15,5.48,5.23,10.4,9.76,14.42,1.97,1.74,3.68,3.8,5.3,5.86,1.56,1.99,.4,4.75-2.14,5.59-.56,.19-1.12,.45-1.7,.54-12.72,1.93-24.34-.5-34.46-8.46-1.83-1.44-3.42-3.24-4.88-5.06-6.6-8.29-12.76-16.84-16.18-26.95-.18-.55-.43-1.12-.81-1.54-.35-.39-.91-.82-1.39-.83-.48-.01-1.18,.35-1.44,.75-2.41,3.78-3.73,7.9-3.74,12.37,0,2.03,0,4.07,.04,6.1,.05,3.55,.95,6.89,2.63,10.04,1.24,2.32,2.51,4.63,3.63,7,.62,1.3,1.02,2.71,1.43,4.1,.34,1.19-.73,3.25-1.93,3.59-1.41,.4-2.9,.94-4.33,.86-12.79-.71-23.28-5.72-29.18-17.11-8.63-16.66-10.98-34.25-5.97-52.5,.23-.83,.72-1.58,1.1-2.36,.37-.77,1.62-1.37,2.24-1.02,.48,.28,1.16,.59,1.3,1.03,.86,2.78,1.59,5.59,2.36,8.39,1.23,4.48,2.41,8.99,4.65,13.13,.12,.22,.49,.5,.68,.47,.51-.1,1.1-.25,1.43-.6,.39-.4,.62-1,.77-1.55,2.73-9.66,9.57-15.83,18.22-20.48,1.04-.56,2.15-1,3.24-1.46,1.81-.76,3.77-.2,4.63,1.4,.83,1.54,1.63,3.1,2.3,4.71,3.59,8.72,8.82,16.46,14.88,23.7,.75,.89,1.71,1.62,2.58,2.42,0,0-.05,.05-.05,.05-.4-2.87-.73-5.76-1.23-8.62-.5-2.92-.35-5.77,.38-8.64,2.62-10.26,8.11-18.64,17-24.8,1.14-.79,3.23-.32,3.87,.97,1.29,2.61,2.54,5.24,3.69,7.91,5.11,11.92,12.27,22.54,21.28,31.99,.32,.34,1.07,.3,1.62,.44,.13-.53,.47-1.12,.36-1.6-.4-1.7-.97-3.35-1.43-5.04-4.19-15.38-.25-28.67,10.92-40.07,1.64-1.68,3.44-3.21,5.24-4.73,1.54-1.3,3.67-1.04,4.65,.55,1.07,1.74,2.13,3.49,3.03,5.32,3.37,6.84,7.55,13.17,12.28,19.19,6.2,7.89,13.53,14.68,21.1,21.26,.87,.76,2.26,.96,2.31,.44,.08-.8,.13-1.71-.17-2.43-1.14-2.68-2.43-5.3-3.66-7.95-5.77-12.42-5.08-24.82,.2-37.18,2.31-5.41,5.26-10.43,9.65-14.53,.85-.8,1.85-1.45,2.81-2.12,.84-.59,2.65-.54,3.38,.15,1.5,1.4,3.13,2.72,4.38,4.31,9.35,11.94,21.05,21.31,33.81,29.51,3.48,2.23,7.12,4.21,10.71,6.29,.23,.13,.64,.17,.87,.06,.62-.31,.78-.88,.37-1.47-2-2.89-4.09-5.72-6.06-8.63-9.27-13.72-9.73-28.34-4.24-43.38,1.39-3.8,3.63-7.31,5.61-10.88,.54-.98,1.52-1.76,2.38-2.55,.94-.86,3.31-.87,4.16,.05,1.8,1.93,3.61,3.86,5.24,5.92,7.71,9.72,16.62,18.25,26.88,25.38,7.3,5.07,15.07,9.4,23.35,12.79,2.73,1.12,5.63,1.87,8.46,2.74,.86,.27,2.28-.29,2.27-.85,0-.55-.01-1.25-.34-1.62-1.35-1.54-2.82-2.99-4.25-4.47-1.85-1.9-3.75-3.74-5.54-5.69-7.05-7.7-10.26-16.81-10.76-27.04-.4-8,.97-15.62,4.14-22.97,.69-1.6,1.55-3.14,2.48-4.61,1.41-2.23,4.1-2.85,6.17-1.41,1.94,1.34,3.87,2.73,5.64,4.27,14.2,12.31,30.19,21.7,47.99,28.17,8.12,2.95,16.48,5.12,25.03,6.45,2.62,.41,5.34,.32,8.01,.34,.4,0,.85-.57,1.18-.96,.09-.1-.08-.59-.26-.72-.96-.68-1.91-1.37-2.95-1.93-5.5-2.97-10.53-6.59-15.51-10.3-6.59-4.91-11.1-11.29-14.07-18.75-1.95-4.89-3.36-9.93-4.35-15.08-1.19-6.11-.77-12.14,1.08-18.09,.89-2.85,3.71-3.89,6.41-2.2,1.99,1.25,4.01,2.58,5.67,4.21,3.45,3.39,7.61,5.43,12.07,7.24,13.87,5.64,28.34,8.93,43.14,11.02,1.76,.25,3.56,.35,5.35,.37,7.45,.07,14.91,.11,22.36,.1,5.71,0,11.25-1.12,16.74-2.56,.48-.13,1.03-.66,1.17-1.12,.09-.28-.47-1.02-.86-1.12-2.58-.7-5.22-1.21-7.8-1.93-4.01-1.11-8-2.3-11.98-3.54-18.98-5.9-33.18-24.62-35.82-42.28-.04-.29-.09-.57-.13-.86-.38-2.92,1.35-5.28,4.19-5.69,.88-.13,1.77-.26,2.66-.29,1.49-.06,2.98-.06,4.47-.06,8.94-.01,17.84-.26,26.77-1.24,8.9-.98,17.74-2.17,26.51-3.84,12.92-2.46,25.48-6.05,37.58-11.15,6.6-2.78,12.85-6.13,18.54-10.43,.39-.29,.44-.99,.66-1.5-.55-.13-1.12-.43-1.65-.37-10.93,1.34-21.83,2.95-32.91,2.77-9.7-.16-18.95-1.89-27.54-6.44-3.66-1.94-7.4-3.78-10.93-5.94-6.91-4.23-12.49-9.85-17.02-16.45-.82-1.2-1.53-2.49-2.18-3.79-1.47-2.93-.49-5.05,2.78-6.01,1.71-.5,3.44-.98,5.18-1.36,11.67-2.55,23-6.18,34.2-10.18,21.68-7.75,41.95-18.1,60.27-31.93,5.68-4.29,10.66-9.27,15.31-14.58,.16-.19,.23-.57,.16-.82-.17-.62-.68-.89-1.35-.67-5.07,1.7-10.1,3.56-15.21,5.12-8.25,2.52-16.49,5.05-25.04,6.51-7.13,1.22-14.22,1.4-21.32-.05-3.79-.77-7.6-1.48-11.37-2.35-12.11-2.8-22.97-7.99-32.29-16.12-.66-.57-1.38-1.21-2.19-1.45-.77-.23-1.78-.19-2.51,.11-.77,.32-1.44,1.03-2,1.69-2.28,2.68-4.48,5.43-6.76,8.11-10.14,11.93-22.57,20.58-37.9,25.09-3.73,1.1-7.54,1.61-11.44,1.81-11.47,.58-22.63-.7-33.35-4.86-1.35-.53-2.61-1.34-3.81-2.17-.36-.25-.57-1.04-.47-1.52,.1-.49,.57-1,1.01-1.32,.46-.33,1.06-.57,1.63-.64,5.91-.71,11.83-1.39,17.75-2.07,11.26-1.3,22.43-3.12,33.35-6.16,2.84-.79,5.54-2.09,8.27-3.25,.44-.19,.91-.84,.92-1.29,0-.36-.66-1.06-1.03-1.06-8.67,.05-17.2-1.63-25.84-1.96-3.88-.14-7.7-.66-11.29-2.23-.24-.1-.56-.52-.5-.67,.2-.5,.46-1.26,.85-1.35,1.71-.4,3.47-.8,5.22-.84,6.56-.17,13.12-.17,19.68-.28,12.02-.19,23.71-2.19,35.13-5.84,3.96-1.27,8.01-2.28,12-3.44,1.71-.49,3.44-.98,5.11-1.59,17.35-6.34,34.05-13.93,49.94-23.29,10.76-6.34,20.96-13.39,30.45-21.35,6.08-5.1,11.64-10.83,17.15-16.53,3.26-3.38,5.79-7.38,7.84-11.61,0,0,.06,.06,.06,.06-3.61,.58-6.7,2.4-9.88,3.96-7.46,3.66-14.96,7.2-22.74,10.19-8.7,3.34-17.68,5.14-27.04,5.18-3.28,.01-6.56,0-9.83,.12-2.22,.09-3.99,1.16-5.14,3.02-1.23,1.99-2.3,4.07-3.53,6.06-2.46,3.98-4.8,8.04-7.5,11.86-7.45,10.54-17.32,18.34-29.28,23.54-12.28,5.35-25.14,7-38.45,4.98-2.65-.4-5.29-.89-7.88-1.54-1.09-.28-2.07-1.05-3.05-1.65-.65-.4-.45-1.85,.14-2.33,1.67-1.36,3.73-1.76,5.73-2.29,6.9-1.83,13.81-3.64,20.73-5.43,8.09-2.09,15.86-5.08,23.56-8.21,3.03-1.23,6.01-2.61,8.46-4.8,.35-.32,.6-1.09,.45-1.5-.14-.39-.88-.84-1.33-.81-3.56,.21-7.13,.41-10.66,.84-8.32,1.02-16.65,.91-24.99,.54-.47-.02-.95-.52-1.36-.87-.47-.39,.53-1.55,1.56-1.8,.87-.21,1.72-.47,2.6-.61,3.53-.58,7.05-1.2,10.59-1.67,9.49-1.27,18.68-3.78,27.87-6.27,8.09-2.19,15.51-5.94,22.63-10.24,.33-.2,.33-1.01,.36-1.55,0-.19-.34-.53-.56-.57-7.11-1.15-13.76-3.71-20.35-6.42-2.19-.9-4.33-1.95-6.39-3.11-1-.56-1.81-1.47-2.62-2.3-.89-.91-.93-3.22-.03-4.07,1.06-1,2.13-2.08,3.4-2.74,3.94-2.05,7.98-3.94,12-5.85,15.65-7.42,29.93-16.81,42.93-28.08,1.56-1.35,3.22-2.58,4.77-3.95,3.08-2.74,6.36-5.31,9.11-8.34,5.92-6.52,11.78-13.11,16.97-20.22,4.69-6.42,8.3-13.43,11.66-20.57,1.01-2.14,1.62-4.37,1.71-6.72,0,0,.07,.07,.07,.07-1.42,1.47-2.99,2.83-4.25,4.42-5.4,6.79-12.3,11.83-19.85,16.02-9.95,5.52-20.65,9.09-32.03,10.48-3.53,.43-7.13,.33-10.7,.38-.87,.01-1.75-.3-2.61-.51-1.66-.4-2.93-2.64-2.19-4.17,1.38-2.89,2.76-5.79,4.41-8.54,8.46-14.11,15.35-28.91,20.29-44.51,2.64-8.31,4.83-16.79,6.65-25.31,1.34-6.23,1.75-12.65,2.57-18.99,.52-4.02,1.04-8.05,1.52-12.08,.03-.23-.27-.49-.42-.74-.22,.15-.6,.26-.65,.45-1.99,8.21-4.55,16.25-7.3,24.24-7.56,21.96-18.63,42.17-32.68,60.75-6.7,8.86-14.18,17.14-23.09,24.18-6.7,5.3-13.02,11.05-19.94,16.13-15.75,11.56-32.26,21.97-49.29,31.6-11.34,6.41-22.82,12.62-34.39,18.63-57.39,29.78-116,57.21-174.14,85.55-18.67,9.1-37.59,17.7-56.24,26.83-20.26,9.92-40.04,20.69-58.64,33.4-10.26,7.01-20.29,14.26-29.79,22.26-7.01,5.9-13.72,12.06-20.24,18.44-11.4,11.16-21.31,23.5-30.49,36.41-2.36,3.33-4.61,6.84-6.18,10.57-1.5,3.55,.09,7.47,0,11.23-.03,1.45,.01,2.93,.28,4.34,1.86,9.79,1.39,19.69,1.57,29.55,.1,5.52,.26,11.02,.94,16.52,.83,6.64,.82,13.36,0,20.01-.65,5.21-.85,10.42-.87,15.65-.12,26.44-.24,52.88-.37,79.32-.02,4.94-.14,9.86-.92,14.77-.45,2.86-.48,5.79-.53,8.69-.13,6.97-.17,13.95-.25,20.92-.07,6.1-.1,12.19-1.12,18.25-.48,2.85-.42,5.79-.48,8.69-.13,6.68-.11,13.37-.3,20.05-.11,3.77-.55,7.52-.81,11.29-.24,3.48-.59,6.95-.64,10.43-.17,11.33-.23,22.66-.31,33.99-.03,4.65-.19,9.28-.9,13.9-.44,2.86-.5,5.79-.58,8.69-.14,5.81-.18,11.62-.25,17.43-.06,4.65-.19,9.29-.98,13.9-.39,2.28-.53,4.62-.56,6.94-.17,13.36-.22,26.73-.42,40.09-.13,9.07,1.16,17.99,3.36,26.75,4.98,19.75,10.25,39.43,15.38,59.14,4.62,17.74,9.11,35.51,13.86,53.22,6.63,24.74,13.54,49.4,20.14,74.14,4.2,15.74,8.06,31.57,12.06,47.37,.93,3.67,1.8,7.35,2.67,11.03,5.84,24.62,11.79,49.22,17.45,73.89,2.01,8.78,3.26,17.72,4.93,26.58,2.53,13.45,5.85,26.71,10.58,39.6,.6,1.64,1.16,3.3,1.82,4.92,1.94,4.72,4.97,8.6,9.56,11.15,8.03,4.46,16.07,8.89,24.12,13.33,1.38,.76,2.79,.71,4.31,.37,1.42-.32,2.95-.55,4.39-.42,11.88,1.08,23.74,2.28,35.31,5.31,8.64,2.27,17.36,4.22,26.28,5.14,10.75,1.11,20.09,5.43,28.22,12.13,13.3,10.96,28.04,19.68,43.63,27.12,2.41,1.15,4.74,2.44,7.1,3.69,1.25,.67,1.52,1.87,.46,3.61-.73,1.2-.64,2.11,.17,3.11,1.73,2.15,4.24,3.11,6.66,4.25,1.14,.53,1.14,2.18,.14,2.96-1.58,1.24-3.9,1.51-4.78,3.74-.23,.59-1.41,1.06-2.2,1.15-1.47,.17-2.99,.16-4.45-.03-3.27-.44-6.5-.71-9.79-.12-2.39,.43-4.73-.09-7.08-.61-6.45-1.42-12.46-3.97-18.42-6.66-4.62-2.08-9.34-3.88-14.26-5.08-2.58-.63-5.28-.81-7.93-1.13-1.09-.13-2.27,.63-1.99,1.15,.26,.48,.54,1.02,.97,1.33,.72,.5,1.53,.93,2.36,1.22,6.49,2.29,12.43,5.59,18.32,9.04,8.68,5.1,17.33,10.24,26.57,14.38,2.11,.94,3.88,2.63,5.74,4.06,.89,.69,1.09,2.19,.64,3.21-.53,1.19-1.59,1.79-2.78,1.89-1.47,.12-3,.13-4.44-.14-6.77-1.24-13.32-3.11-19.47-6.24-4.23-2.15-8.55-4.13-12.86-6.12-1.63-.75-3.37-1.07-5.21-.94-2.19,.16-3.7,2.36-3.04,4.38,.84,2.58,2.56,4.57,4.34,6.53,2.85,3.15,4.51,6.82,5.16,10.93,.13,.83-.06,1.72-.17,2.57-.13,1.01-1.86,2.02-2.75,1.58-1.04-.52-2.16-1-3.03-1.74-6.08-5.23-11.09-11.35-15.45-17.99-.8-1.22-1.52-2.51-2.38-3.69-1.24-1.7-2.95-2.83-4.96-3.56-1.77-.64-3.98,.15-4.45,1.75-.49,1.67-.79,3.4-1.34,5.05-1.09,3.25-3.31,5.42-6.72,6.43-6.43,1.92-12.99,1.87-19.49,.82-6.17-1-12.22-2.59-18.12-4.74-5.3-1.94-10.66-3.76-16.06-5.4-10.02-3.04-20.27-4.96-30.8-4.62-13.48,.44-25.92-3.24-37.99-8.56-10.43-4.6-18.2-11.94-23.48-21.84-3.74-7.02-6.37-14.38-7.92-22.14-.28-1.39-.89-2.74-1.51-4.03-.12-.24-1.13-.3-1.55-.1-.47,.22-.89,.79-1.08,1.29-.51,1.36-.87,2.77-1.32,4.15-2.13,6.47-5.44,12.24-10.45,17.03-2.13,2.03-4.25,4.08-6.33,6.16-.83,.83-1.55,1.75-2.29,2.66-.67,.83-.38,2.57,.56,3.14,1.51,.92,3.02,1.85,4.59,2.67,8.73,4.57,16.57,10.32,23.74,16.94,3.03,2.8,5.93,5.73,8.91,8.57,9.42,8.98,17.62,18.92,24.8,29.67,3.42,5.11,6.84,10.18,11.03,14.77,4.97,5.46,8.77,11.74,11.68,18.48,.69,1.6,1.29,3.26,1.7,4.94,.5,2.02,.22,4.03-.66,5.96-1.6,3.5-5.32,5.23-8.83,3.84-2.48-.98-4.95-2.09-7.19-3.48-10.23-6.37-21.66-9.59-33.3-12.27-4.35-1-8.75-1.82-13.16-2.52-3.52-.56-7.08-1.02-10.64-1.17-5.06-.2-10.14-.12-15.21-.08-3.88,.03-7.71,.46-11.55,1.17-8.5,1.57-17.07,2.57-25.77,2.53-7.15-.04-14.28,.3-21.42,1.09-7.7,.85-15.51,.81-23.22-.07-5.35-.61-10.69-.82-16.06-.95-7.74-.19-15.5,.09-23.21-1.1-2.3-.36-4.76,.02-7.1,.33-3.59,.48-7.12,.45-10.68-.14-2.35-.39-4.73-.69-7.1-.78-5.96-.22-11.91-.42-17.82-1.42-2.33-.39-4.75-.37-7.14-.42-5.67-.12-11.34-.16-16.93-1.25-.29-.06-.59-.1-.89-.1-11.04-.15-21.99-1.53-32.99-2.2-2.38-.15-4.81,0-7.14-.42-7.09-1.27-14.25-1.22-21.4-1.4-2.38-.06-4.81,.03-7.14-.36-7.99-1.32-16.04-1.17-24.09-1.3-4.77-.07-9.54-.1-14.31-.2-2.38-.05-4.8-.01-7.14-.38-6.22-.98-12.47-1.01-18.74-1.02-15.81,0-31.61-.05-47.42,.06-4.46,.03-8.92,.54-13.38,.8-4.16,.24-8.33,.6-12.5,.64-13.72,.13-27.44,.14-41.16,.2-5.07,.02-10.14,.12-15.15,1.03-.88,.16-1.78,.3-2.66,.29-14.33-.14-28.51,2.4-42.85,2.27-4.45-.04-8.91,.56-13.37,.89-1.49,.11-2.97,.38-4.45,.38-13.49,0-26.66,2.66-39.94,4.46-7.97,1.08-15.96,1.95-23.95,2.85-8.88,.99-17.77,1.88-26.65,2.86-5.92,.65-11.85,1.26-17.75,2.07-11.21,1.54-22.41,3.23-33.62,4.82-9.73,1.38-19.47,2.75-29.22,4.04-9.76,1.29-19.38,3.09-28.91,5.6-8.32,2.19-16.89,3.61-25.41,4.93-8.53,1.32-17.14,2.16-25.73,3.09-2.96,.32-5.95,.39-8.93,.41-8.65,.06-17.3,.06-25.95,.05-5.67,0-11.3-.31-16.94-1.14-5.88-.86-11.86-.99-17.74-2.12-19.79-3.79-36.09-13.37-49.3-28.01-5.43-6.02-8.37-13.37-9.93-21.18-1.48-7.42-2.51-14.9-2.28-22.5,.19-6.39,.08-12.78,.25-19.17,.08-3.19,.44-6.37,.73-9.55,.29-3.18,.58-6.36,.97-9.53,.36-2.88,.74-5.76,1.3-8.61,1.27-6.46,4.43-11.91,9.08-16.69,5.98-6.15,12.85-11.26,19.64-16.47,10.07-7.73,20.19-15.4,30.37-22.99,2.83-2.11,5.8-4.17,9-5.64,5.42-2.48,10.59-5.34,15.65-8.41,3.81-2.31,7.8-4.23,12.01-5.77,17.05-6.2,34.21-12.06,51.94-16.17,9.3-2.16,18.72-3.4,28.19-4.6,10.36-1.32,20.83-1.21,31.16-2.75,2.63-.39,5.36-.3,8.04-.32,8.35-.05,16.7-.05,25.05-.04,5.37,0,10.73,.1,16.05,1.01,2.04,.35,4.15,.41,6.24,.48,5.96,.2,11.93,.28,17.81,1.42,1.16,.22,2.37,.27,3.56,.31,14.35,.43,28.46,2.55,42.52,5.26,10.23,1.97,20.56,3.44,30.87,4.98,8.26,1.23,16.45,2.76,24.55,4.75,1.14,.28,2.34,.31,3.51,.43,.78,.08,1.82-1.14,1.52-1.76-.5-1.04-.95-2.13-1.57-3.1-2.49-3.96-5.02-7.91-7.58-11.83-1.8-2.76-2.91-5.75-2.95-9.02-.13-10.83-2.6-21.32-4.68-31.87-1.52-7.7-3.15-15.38-4.66-23.09-.39-1.99-.96-4.07-.72-6.02,.51-4.19-.58-8.07-1.7-11.99-2.72-9.51-5.46-19.02-8.21-28.53-.65-2.24-1.3-4.47-2.05-6.68-7.15-20.95-14.17-41.95-21.52-62.84-5.61-15.94-12.11-31.56-19.25-46.92-3.69-7.93-6.84-16.1-10.28-24.15-1.37-3.22-2.73-6.45-4.32-9.57-6.38-12.48-12.58-25.07-19.36-37.34-8.33-15.09-17.1-29.97-27.08-44.11-3.54-5.02-7.47-9.78-11.27-14.63-.72-.91-1.61-1.71-2.51-2.46-2.93-2.43-7.36-1.95-9.43,1.09-1.15,1.69-2.12,3.5-3.09,5.29-5.33,9.76-9.67,19.96-14.08,30.13-7.08,16.32-14.09,32.67-21.26,48.96-2.23,5.07-4.82,9.99-7.34,14.93-5.18,10.15-10.43,20.26-15.63,30.39-8.05,15.68-18.24,29.93-29.87,43.29-5.22,5.99-10.69,11.72-16.33,17.32-12.8,12.69-26.95,23.8-41.98,33.84-10.57,7.06-21.46,13.68-32.18,20.53-3.24,2.07-6.48,4.16-9.61,6.38-8.46,6.01-17.21,11.5-26.8,15.66-6.86,2.97-12.9,7.25-18.87,11.61-.47,.34-.85,.82-1.28,1.22-.68,.63-.96,1.98-.41,2.28,.49,.27,1.14,.61,1.6,.49,7.81-2.08,15.31-4.75,21.62-9.99,4.55-3.78,9.82-6.55,15.08-9.32,25.44-13.42,50.64-27.27,74.44-43.36,9.8-6.62,19.34-13.59,29-20.42,3.15-2.23,5.94-4.8,8.45-7.73,2.09-2.44,4.39-4.77,6.9-6.81,8.72-7.09,16.73-14.91,24.55-22.89,4.31-4.4,8.11-9.29,11.95-14.1,4.94-6.19,9.74-12.49,14.51-18.81,12.27-16.27,21.98-33.85,28.66-53,1.73-4.95,3.64-9.84,5.52-14.74,.62-1.63,1.28-3.26,2.11-4.8,3.02-5.57,10.02-7.11,15.28-3.38,1.2,.85,2.36,1.8,3.34,2.88,2.36,2.62,4.74,5.23,6.84,8.04,4.92,6.59,9.3,13.53,13.18,20.74,5.67,10.55,11.08,21.22,16.04,32.13,11.49,25.25,21.69,50.99,31.49,76.88,3.4,8.99,6.63,18.05,9.88,27.1,3.55,9.87,7.16,19.72,10.53,29.65,6.64,19.59,13.23,39.19,19.63,58.85,2.52,7.75,4.47,15.67,6.63,23.53,.13,.46-.21,1.05-.33,1.58-.46-.26-1.18-.43-1.34-.81-1.82-4.29-3.8-8.54-5.27-12.95-2.67-8.01-5.01-16.12-7.53-24.18-1.56-5-3-10.05-4.83-14.96-10.28-27.58-20.2-55.29-31.82-82.38-7.35-17.15-14.75-34.3-22.62-51.23-7.51-16.14-15.75-31.95-25.03-47.22-4.41-7.26-9.4-14.15-14.91-20.66-2.07-2.44-4.45-4.74-7.03-6.66-6.02-4.47-11.89-1.49-14.67,2.76-1.27,1.94-2.08,4.17-2.99,6.31-3.89,9.12-7.69,18.28-11.62,27.38-3.72,8.6-8.48,16.67-13.99,24.27-7.05,9.73-14.75,18.98-22.49,28.21-7.19,8.58-14.88,16.65-23.16,24.2-3.26,2.97-6.73,5.74-10.09,8.61-2.24,1.91-4.47,3.84-6.7,5.78-5.56,4.84-11.08,9.72-16.68,14.51-1.79,1.53-3.72,2.91-5.71,4.2-14.64,9.5-29.07,19.33-44.41,27.77-7.79,4.29-15.46,8.79-23.41,12.78-13.01,6.52-25.41,14.05-38.21,20.92-8.62,4.62-17.18,9.34-25.81,13.96-6.01,3.22-12.04,6.41-18.11,9.51-17.45,8.9-35.51,16.53-53.6,24.08-7.13,2.97-14.23,6-21.25,9.2-10.02,4.56-19.61,9.91-28.52,16.28-8.18,5.84-15.74,12.43-23.13,19.21-5.75,5.28-7.53,11.58-6.49,18.97,.53,3.79,1.72,7.36,3.33,10.81,1.48,3.17,3.18,6.25,4.66,9.42,2.35,5.02,4.65,10.06,6.88,15.13,2.01,4.56,3.33,9.35,4.13,14.23,.51,3.13,.7,6.38,.48,9.53-.49,7.15-4.07,12.64-10.33,16.41-1.26,.76-2.59,1.47-3.97,1.99-4.46,1.66-8.72,3.72-13,5.78-3.17,1.53-6.69,2.42-10.13,3.33-10.65,2.81-21.34,5.45-32,8.24-3.74,.98-7.42,2.18-11.13,3.27-5.74,1.69-11.23,3.84-16.12,7.35-1.9,1.36-4.06,2.51-6.26,3.33-3.97,1.48-7.42,3.67-10.62,6.33-1.59,1.32-3.29,2.51-4.86,3.85-5.74,4.89-12.45,7.98-19.73,9.86-4.31,1.12-8.73,2.06-13.16,2.46-8.32,.75-16.72,.88-25.02-.07-20.32-2.33-39.7-7.87-57.89-17.11-2.64-1.34-5.17-2.88-7.66-4.47-2.18-1.39-2.21-4.27-.17-5.96,.9-.75,1.83-1.5,2.84-2.1,14.77-8.71,26.44-20.71,37.22-33.58,5.27-6.3,10.1-12.95,15.12-19.46,10.57-13.71,21.92-26.77,33.69-39.53,17.96-19.47,37.5-37.41,56.4-55.96,4.81-4.72,10.37-8.73,15.57-13.08,2.03-1.7,4.13-3.35,6.04-5.17,11.73-11.17,23.46-22.34,35.11-33.59,6.14-5.93,12.08-12.06,18.15-18.06,3.98-3.93,8.05-7.77,12.07-11.66,6.13-5.94,12.46-11.71,18.34-17.87,8.32-8.72,16.31-17.73,24.45-26.62,1.19-1.3,2.32-2.66,3.57-3.9,12.35-12.24,23.55-25.44,34.67-38.73,10.74-12.83,21.53-25.62,32.22-38.49,13.69-16.49,26.88-33.37,39.71-50.5,15.29-20.42,30.45-40.93,45.53-61.49,4.5-6.14,8.58-12.58,12.83-18.9,1.64-2.43,3.21-4.9,4.83-7.34,14.75-22.19,29.67-44.28,44.19-66.61,11.96-18.41,23.53-37.06,35.07-55.72,4.61-7.46,8.85-15.15,12.97-22.88,3.33-6.26,7.31-11.96,12.47-16.9,4.68-4.48,9.36-8.96,13.89-13.58,3.81-3.89,8.4-6.43,13.54-8.2,8.79-3.02,17.89-4.57,27.13-5.21,6.28-.43,12.46,.97,18.54,2.45,2.27,.55,4.49,1.64,6.49,2.85,3.02,1.84,6.05,3.78,8.7,6.09,7.77,6.78,15.52,13.59,22.99,20.69,14.73,14,29.28,28.18,43.86,42.32,2.32,2.25,4.45,4.67,6.67,7.01-.2,.22-.4,.43-.6,.65-3.47-1.28-5.88-3.91-8.42-6.35-11.9-11.42-23.77-22.86-35.69-34.26-2.34-2.24-4.82-4.33-7.25-6.48-2.65-2.34-5.35-4.63-7.95-7.01-3.26-2.99-6.33-6.17-9.68-9.06-3.57-3.07-7.26-6.04-11.1-8.78-4.88-3.47-10.38-5.82-16.43-6.45-8.99-.93-17.9-.16-26.53,2.53-5.7,1.78-11.16,4.1-15.35,8.58-.97,1.03-2.35,1.79-3.67,2.41-7.73,3.65-13.63,9.38-18.64,15.95-3.91,5.12-7.5,10.51-10.82,16-11.97,19.78-23.05,40.04-33.77,60.47-13.71,26.13-27.05,52.44-40.58,78.66-2.81,5.45-5.49,10.99-8.63,16.25-8.85,14.81-17.79,29.57-28.15,43.47-14.89,19.98-29.43,40.21-44.35,60.17-14.05,18.79-28.78,37.07-44.22,54.8-4.05,4.65-8.05,9.34-12.18,13.93-7.27,8.08-14.51,16.18-21.97,24.1-8.87,9.42-18.5,18.12-27.05,27.85-3.09,3.52-6.62,6.7-10.13,9.85-10.32,9.23-20.88,18.21-31.05,27.6-9.1,8.4-18.52,16.41-28.27,24.08-4.64,3.65-9.2,7.4-13.65,11.26-6.9,5.99-13.66,12.13-20.52,18.17-1.99,1.75-4.1,3.37-6.17,5.04-5.05,4.08-10.4,7.85-15.1,12.27-12.45,11.69-24.84,23.43-35.98,36.38-11.9,13.84-22.79,28.35-32.85,43.48-7.14,10.74-14.96,21-23.61,30.63-2.35,2.62-4.85,5.17-7.61,7.37-9.7,7.71-19.2,15.69-29.82,22.23-1.76,1.08-3.48,2.25-5.13,3.48-.36,.26-.39,.98-.47,1.5-.01,.1,.5,.41,.74,.38,2.65-.36,5.29-.83,7.94-1.14,3.06-.35,5.71-1.53,8.17-3.28,16.45-11.72,31.68-24.66,43.31-41.2,3.71-5.27,7.48-10.5,11.2-15.76,4.74-6.7,9.27-13.54,14.24-20.07,8.53-11.2,17.73-21.86,27.16-32.37,11.43-12.75,24.09-24.13,37.51-34.8,5.54-4.4,11.33-8.52,16.36-13.52,7.74-7.69,16.37-14.4,24.8-21.32,11.62-9.55,23.44-18.88,34.31-29.27,1.49-1.42,2.94-2.91,4.58-4.16,7.05-5.41,13.35-11.6,19.69-17.75,11.62-11.28,23.11-22.69,34.65-34.05,1.05-1.03,2.08-2.09,3.07-3.17,8.13-8.89,16.28-17.76,24.36-26.69,5.32-5.88,10.71-11.72,15.79-17.79,13.38-15.99,26.61-32.09,39.09-48.76,14.24-19.01,28.53-37.98,42.49-57.19,7.4-10.19,14.19-20.81,21.17-31.28,5.53-8.29,10.37-16.98,15.1-25.71,3.06-5.65,5.97-11.38,8.87-17.11,1.72-3.38,3.21-6.88,4.97-10.24,6.91-13.2,13.97-26.32,20.8-39.56,12.07-23.36,24.27-46.65,37.58-69.36,4.73-8.07,9.26-16.26,14.73-23.9,4.65-6.5,10.39-11.96,16.66-16.92,2.59-2.05,5.51-3.35,8.9-3.75,11.85-1.41,23.74-2.05,35.69-2.08,6.53-.02,12.29,1.8,17.65,5.3,4.24,2.76,8.06,5.97,11.63,9.5,10.27,10.13,20.42,20.38,30.87,30.33,20.05,19.08,39.56,38.69,60.09,57.31,11.77,10.67,23.34,21.63,33.75,33.64,1.15,1.33,2.48,2.51,3.75,3.74,17.07,16.65,34.15,33.3,51.23,49.95,1.9,1.85,3.71,3.81,5.8,5.44,6.07,4.74,11.43,10.21,16.93,15.53,16.93,16.38,33.87,32.76,50.73,49.2,45.75,44.6,91.45,89.25,137.2,133.85,14.76,14.39,29.56,28.73,44.36,43.08,3.38,3.28,6.83,6.49,10.27,9.72,1.73,1.63,3.61,3.05,6.05,3.54,.6,.59,1.19,1.18,1.79,1.77,.6,.57,1.2,1.14,1.79,1.72,0,0-.07,.07-.07,.07-.59-.58-1.17-1.17-1.76-1.75-.61-.58-1.21-1.16-1.82-1.75-2.56-4.31-5.86-8.04-9.36-11.63-3.29-3.36-6.51-6.79-9.71-10.23-2.8-3.01-5.48-6.14-8.34-9.09-4.29-4.44-8.96-8.57-12.98-13.22-5.4-6.24-11.34-11.93-17.18-17.74-7.73-7.68-15.47-15.33-23.19-23.01-1.88-1.87-3.7-3.79-5.5-5.72-4.01-4.3-8.02-8.59-11.97-12.94-11.07-12.18-22.66-23.89-34.38-35.48-.63-.62-1.19-1.3-1.8-1.94-4.02-4.29-7.93-8.68-12.07-12.85-8.3-8.35-16.73-16.57-25.09-24.86-2.09-2.07-4.13-4.19-6.16-6.32-3.44-3.62-6.73-7.39-10.29-10.89-14.27-14.03-28.64-27.98-42.94-41.99-2.31-2.26-4.76-4.48-6.57-7.1-2.19-3.17-4.81-5.9-7.5-8.62-7.04-7.1-14.51-13.81-20.87-21.53-1.11-1.35-2.48-2.51-3.74-3.74-32.66-31.87-65.33-63.73-97.98-95.61-2.31-2.26-4.41-4.71-6.61-7.08l.56-.58c1.51,.92,3.14,1.69,4.49,2.79,1.83,1.48,3.47,3.18,5.16,4.82,35.85,34.91,71.7,69.82,107.51,104.76,2.94,2.87,5.64,5.99,8.46,8.98,2.02,2.14,4.01,4.3,6.09,6.38,6.45,6.45,12.94,12.86,19.41,19.3,4.58,4.57,8.96,9.32,13.39,14.03,7.03,7.49,14.6,14.52,21.97,21.7,1.04,1.02,3.25,.73,3.93-.5,1.98-3.58,3.92-7.17,5.75-10.82,.51-1.01,.74-2.22,.85-3.36,.52-5.49,.86-10.99,1.44-16.47,.34-3.17,.63-6.42,1.62-9.42,1.79-5.42,1.75-10.85,1.19-16.38-.44-4.33-.69-8.69-1.31-12.99-.86-6.03-1.83-12.06-3.05-18.04-1.45-7.12-3.48-14.12-5.94-20.99-3.94-10.97-7.87-21.93-11.84-32.89-7.06-19.46-13.73-39.03-17.4-59.42-1.13-6.29-2.11-12.61-2.91-18.95-.6-4.75-2.92-8.19-7.28-10.24-4.29-2.02-8.65-3.91-13.02-5.75-1.91-.8-3.92-1.41-5.92-1.99-11.34-3.29-21.35-8.96-30.21-16.49-8.75-7.43-14.84-16.6-17.86-27.59-.46-1.67-.79-3.41-.91-5.14-.7-9.91-.28-19.71,2.75-29.32,3.25-10.29,7.06-20.36,11.92-30.04,4.45-8.87,4.69-8.9,3.02-18.23-1.34-7.49-1.69-14.99-1.56-22.55,.1-5.81,.12-11.62,.17-17.43,.04-4.65,.23-9.28,.92-13.9,.43-2.86,.46-5.79,.52-8.69,.14-5.81,.09-11.62,.3-17.43,.13-3.77,.56-7.52,.88-11.28,.22-2.6,.59-5.2,.69-7.81,.18-4.94,.52-9.84,1.38-14.73,1.28-7.29,.53-14.35-2.14-21.39-5.51-14.51-12.5-28.25-21.03-41.28-8.53-13.03-18.25-25.12-29.67-35.87-1.93-1.82-3.83-3.66-5.69-5.55-16.39-16.73-35.43-30.19-55.59-42.18-9.66-5.74-19.55-11.19-29.7-16.06-14.17-6.79-28.63-13.02-43.37-18.6-32.79-12.42-65.6-24.76-98.34-37.3-34.96-13.39-69.93-26.75-104.74-40.52-21.54-8.52-42.91-17.48-64.11-26.78-20.67-9.07-40.77-19.28-59.98-31.06-11.37-6.97-22.22-14.64-32.16-23.49-3.3-2.94-6.91-5.57-9.98-8.71-3.89-3.99-7.52-8.26-11.01-12.6-9.98-12.37-18.53-25.66-25.86-39.66-3.52-6.71-6.26-13.81-9.38-20.72-1.07-2.39-2.21-4.75-3.31-7.12-.08-.57-.13-1.14-.27-1.7-.05-.19-.3-.33-.46-.49-.42,.95,.36,1.48,.8,2.13,.22,2.31,.27,4.64,.69,6.91,4.66,25.07,13.55,48.61,27.15,70.4,3.71,5.94,7.65,11.74,11.49,17.6,1.12,1.71,2.34,3.36,3.4,5.1,1.78,2.92,.22,5.85-3.42,6.26-6.82,.77-13.73,.91-20.48-.06-10.65-1.52-20.91-4.52-30.2-10.07-5.33-3.18-10.56-6.5-14.93-10.95-1.22-1.24-2.78-2.15-4.19-3.21-.14-.22-.28-.43-.42-.65,.16,.2,.32,.4,.48,.6,1.07,2.38,1.96,4.86,3.26,7.12,4.96,8.66,10.94,16.59,18.22,23.55,.64,.61,1.27,1.22,1.88,1.86,14.67,15.61,32.4,27.25,51.2,37.49,7.81,4.26,16.04,7.65,24.5,10.51,3.09,1.04,6.11,2.29,9.1,3.58,1.05,.46,1.94,1.3,2.84,2.04,.92,.76,1.1,3.2,.23,4.06-1.25,1.22-2.52,2.48-3.98,3.42-10.34,6.69-21.81,10.56-33.96,12.68-2.93,.51-5.87,.99-8.83,1.3-2.66,.28-5.37,.59-8.01,.36-7.11-.62-14.2-1.47-21.05-3.65-9.06-2.88-18.04-6-26.85-9.53-1.09-.44-2.24-.75-3.38-1.06-.21-.06-.58,.13-.73,.32-.15,.18-.25,.55-.16,.75,.23,.52,.49,1.06,.88,1.48,7.18,7.78,14.71,15.18,23.45,21.34,16.99,11.98,35.28,21.59,54.9,28.79,1.94,.71,3.98,1.18,5.98,1.76,0,0-.04,.04-.04,.04-.82-.84-1.54-1.81-2.48-2.49-9.02-6.6-14.97-15.65-20.85-24.75-.3-.47-.35-1.09-.53-1.64-.22-.65,.83-1.76,1.54-1.82,1.88-.14,3.52,.59,5.11,1.34,7.04,3.3,14.49,5.31,22.09,6.87,7.29,1.49,14.61,2.76,22.06,3.29,6.23,.44,12.44,1.19,18.65,1.87,.48,.05,.95,.55,1.34,.92,.4,.39-.7,1.53-1.71,1.71-1.46,.26-2.92,.59-4.4,.68-2.67,.16-5.36,.21-8.04,.23-7.15,.06-14.3,.09-21.45,.14-.59,0-1.23-.01-1.77,.18-.49,.18-1.12,.55-1.25,.97-.13,.41,.13,1.19,.5,1.45,3.39,2.49,7.38,3.74,11.37,4.92,11.41,3.39,22.97,6.15,34.8,7.79,4.12,.57,8.21,1.43,12.28,2.28,.77,.16,1.52,.86,2.05,1.49,.27,.32,.26,1.31-.03,1.55-.87,.75-1.85,1.51-2.93,1.87-6.23,2.08-12.59,3.54-19.23,3.56-3.87,0-7.75,.18-11.62,.05-3.57-.12-6.38,1.07-8.58,3.78-.74,.9-1.6,1.71-2.39,2.58-.74,.82-.16,2.46,1.05,2.77,3.16,.81,6.31,1.87,9.53,2.26,9.45,1.15,18.9,2.41,28.48,2.03,4.47-.18,8.91-.28,13.36-.89,3.22-.44,6.52-.37,9.79-.48,1.14-.04,2.18,.86,1.78,1.42-.47,.65-1.07,1.47-1.78,1.66-3.15,.85-6.35,1.6-9.56,2.21-8.18,1.57-16.39,3-24.71,3.75-.73,.07-1.06,.58-.9,1.23,.06,.26,.23,.6,.45,.69,1.89,.82,3.73,1.91,5.72,2.31,9.91,2.03,19.9,3.7,30.06,3.93,5.66,.13,11.32,.14,16.98,.23,3.28,.05,6.55,.21,9.67,1.39,1.19,.45,1.74,1.96,.85,2.78-.86,.79-1.84,1.45-2.74,2.21-.2,.17-.42,.62-.34,.73,.31,.41,.76,1.04,1.13,1.02,3.26-.17,6.51-.49,9.77-.66,.49-.03,1.06,.43,1.51,.77,.53,.4-.23,1.67-1.15,1.97-.85,.27-1.69,.57-2.55,.79-1.73,.43-3.47,.85-5.22,1.19-8.47,1.65-16.91,3.46-25.56,4.02-.85,.05-1.69,.5-2.49,.84-.22,.09-.4,.44-.45,.7-.05,.24,0,.65,.16,.75,.98,.6,1.95,1.32,3.04,1.67,7.4,2.37,15.09,3.29,22.81,3.98,4.45,.4,8.89,.86,13.34,1.13,4.75,.29,9.52,.35,14.28,.58,2.67,.13,5.33,.34,7.98,.64,.44,.05,.98,.69,1.14,1.16,.15,.46,.05,1.25-.27,1.55-.84,.79-1.8,1.52-2.83,2.07-6.9,3.63-14.34,5.67-22.02,6.9-3.23,.52-6.5,.9-9.76,1.11-5.7,.37-11.32-.51-16.79-1.92-12.61-3.26-23.84-9.03-33.15-18.07-.63-.61-1.31-1.19-1.9-1.84-4.21-4.64-9.33-7.91-15.03-10.69-9.66-4.7-18.27-10.91-25.17-19.16-.94-1.12-1.99-2.15-3.06-3.15-1.33-1.25-3.37-1.53-4.97-.77-.8,.38-1.62,.74-2.37,1.21-8.13,5.09-17.15,8.14-26.39,10.45-9.26,2.32-18.64,3.51-28.29,1.65-8.18-1.57-16.4-2.94-24.49-4.96-4.03-1.01-8.14-1.73-12.21-2.58,0,0,.04-.04,.04-.04,5.72,7.32,13.35,12.49,21.34,16.96,13.18,7.38,26.78,13.97,41.24,18.8,17.82,5.95,36.01,10.3,54.64,12.98,1.17,.17,2.32,.48,3.46,.81,1.68,.48,3.02,2.44,2.62,4.06-.42,1.67-.83,3.43-1.69,4.9-4.95,8.41-11.18,15.7-19.46,21.27-7.16,4.81-14.52,9.15-23.06,11.22-.87,.21-1.71,.56-2.59,.66-9.74,1.14-19.46,2.71-29.32,1.78-3.84-.36-7.67-1.01-11.52-.16-.21,.05-.44,.36-.52,.59-.08,.24-.11,.66,.03,.78,.89,.74,1.76,1.55,2.77,2.09,7.88,4.25,16.41,6.9,25.04,9.2,10.94,2.91,22.08,4.66,33.38,5.84,9.52,1,19.01,1.35,28.54,1.31,5.07-.02,10.11-.26,15.15-.97,3.52-.5,7.12-.54,10.69-.66,1.16-.04,2.37,.2,3.5,.53,1.52,.43,2.54,1.54,2.93,3.02,.76,2.88,.44,5.78-.2,8.63-2.8,12.56-8.74,23.42-18.76,31.94-2.23,1.89-4.74,3.54-7.33,4.93-5.75,3.08-11.67,5.82-17.95,7.78-1.96,.61-3.8,1.56-5.68,2.41-.16,.07-.24,.51-.2,.76,.04,.23,.26,.57,.45,.61,7.91,1.54,15.79,2.28,23.93,1.32,11.27-1.33,22.41-3.11,33.34-6.12,11.54-3.18,22.38-7.95,32.91-13.45,2.68-1.4,4.7-3.52,6.86-5.53,2.14-2,4.36-3.95,6.67-5.75,1.64-1.28,4.37-.35,5.24,1.59,.24,.53,.57,1.04,.71,1.59,1.69,6.79,2.95,13.55,1.8,20.64-1.12,6.92-2.45,13.71-5.82,20-1.95,3.64-4.22,6.99-7.21,9.9-4.01,3.91-8.04,7.76-12.72,10.93-2.18,1.48-4.15,3.27-6.18,4.96-.15,.13-.14,.57-.05,.81,.09,.23,.39,.54,.59,.53,4.51-.02,8.8-1.2,13.08-2.41,15.92-4.49,30.46-11.75,43.72-21.37,8.84-6.42,17.45-13.13,24.69-21.34,.39-.44,.86-.8,1.31-1.18,1.52-1.34,4.16-1.33,5.72,.1,.86,.79,1.8,1.59,2.37,2.57,7.73,13.23,10.28,27.11,5.38,41.88-1.58,4.77-4.42,8.87-7.38,12.88-2.09,2.83-4.35,5.53-6.51,8.31-1.11,1.42-1.35,2.69-.68,3.04,1.2,.64,2.3,.16,3.36-.31,11.74-5.24,22.45-11.96,31.89-20.6,8.74-8,16.56-16.73,22.73-26.75,4.24-6.89,7.47-5.98,11.88-.11,5.98,7.94,9.06,16.91,9.98,26.65,.03,.29,.01,.58,.04,.87,.87,9.31-1.69,17.82-6.26,25.88-1.15,2.02-2.29,4.05-3.31,6.14-.14,.29,.38,.96,.71,1.36,.12,.15,.62,.15,.85,.03,4.3-2.09,7.95-5.1,11.6-8.07,7.78-6.35,14.81-13.46,21.44-20.93,2.33-2.63,4.24-5.61,6.4-8.38,1.26-1.61,2.58-3.18,3.98-4.68,1.12-1.2,3.5-1.35,4.98-.41,.99,.63,2.04,1.24,2.87,2.05,13.14,12.88,18.8,28.01,14.25,46.05-1.2,4.77-2.96,9.42-4.42,14.13-.06,.18,.22,.56,.44,.69,.22,.13,.66,.17,.84,.04,4.08-2.98,7.55-6.57,10.71-10.43,8.6-10.48,16.08-21.63,20.94-34.29,.21-.54,.45-1.07,.69-1.61,2.35-5.2,4.15-5.73,8.71-2.69,7.13,4.74,12.05,11.17,15.29,18.86,1.02,2.41,1.7,4.95,2.47,7.45,1.05,3.4,1.2,6.84,.52,10.34-.73,3.7-1.36,7.42-1.99,11.14-.04,.23,.21,.72,.34,.73,.51,.03,1.29,.11,1.52-.18,8.92-10.73,15.46-22.7,19.6-35.91,.61-1.94,1.14-3.91,1.8-5.83,.66-1.94,2.58-2.74,4.21-1.8,8.77,5.07,15.08,12.17,18.62,21.54,1.04,2.76,1.49,5.62,1.46,8.55-.03,3.19-.08,6.39-.13,9.58,0,0-.07-.07-.07-.07,1.83-1.1,3.05-2.74,4.19-4.46,4.89-7.35,9-15.07,11.43-23.54,1.97-6.89,3.82-6.58,9.5-4.22,6.21,2.57,11.15,6.6,15.49,11.51,2.39,2.7,3.38,6.1,5.22,9.07,.13,.21,.51,.46,.71,.42,.53-.12,1.28-.25,1.5-.62,.59-.99,1.08-2.08,1.38-3.19,1.21-4.49,2.38-9,2.49-13.69,.04-1.73,.22-3.45,1.13-5.05,.54-.94,2.4-1.35,3.04-.48,.68,.93,1.52,1.83,1.89,2.88,2.56,7.17,3.94,14.59,4.54,22.14,.16,2.01,.09,4.09-.21,6.08-1.06,7.19-2.48,14.32-4.83,21.24-1.13,3.33-2.5,6.57-4.67,9.37-6.15,7.9-14.58,11.7-24.53,12.63-.87,.08-1.77-.14-2.66-.28-2.08-.32-3.66-2.51-3.04-4.56,.84-2.77,1.73-5.56,2.96-8.18,5.03-10.75,3.46-20.9-2.68-30.68-.26-.41-.97-.76-1.45-.74-.46,.02-1.01,.48-1.32,.89-.34,.45-.49,1.05-.65,1.61-2.53,9.05-6.94,17.28-11.76,25.33-3.2,5.35-7.47,9.84-12.61,13.38-7.3,5.02-15.66,6.97-24.52,6.85-2.06-.03-4.13-.42-6.15-.84-1.7-.35-2.72-2.77-1.86-4.24,.74-1.25,1.53-2.49,2.43-3.63,1.64-2.06,3.48-3.98,5.07-6.08,6.26-8.3,8.86-17.63,8.09-27.87-.03-.41-.64-1.1-.97-1.1-.44,.01-1.04,.49-1.27,.92-.54,1.03-.88,2.15-1.35,3.22-3.05,6.95-6.54,13.68-10.67,20.1-2.88,4.47-6.3,8.51-10.39,11.91-10.77,8.97-23.3,12.52-37.37,10.91-.29-.03-.57-.18-.86-.25-1.67-.42-2.75-2.88-1.7-4.25,1.6-2.08,3.22-4.19,5.14-5.98,7.45-6.94,11.2-15.67,12.86-25.31,1.04-6.03,.89-12.17-.15-18.22-.49-2.85-1.23-5.65-1.88-8.47-.13-.56-.45-.56-.77-.04-.45,.73-.96,1.43-1.31,2.2-1.92,4.25-3.71,8.56-5.71,12.77-5.21,10.94-12.89,20.19-21.29,28.89-8.52,8.82-19.36,13.38-31.45,15.2-5.9,.89-11.9,.68-17.84,.09-.86-.08-1.7-.48-2.53-.77-1.3-.45-1.98-2.64-1.15-3.7,.54-.69,1.03-1.44,1.69-2,1.34-1.15,2.76-2.22,4.19-3.27,13.11-9.61,20-22.79,22.58-38.23,.71-4.24,.65-8.74,.11-13.02-.78-6.11-.38-12.15-.06-18.22,.02-.36-.57-.77-.95-1.09-.07-.06-.49,.21-.69,.39-.21,.19-.39,.45-.51,.71-.37,.79-.7,1.6-1.05,2.4-4.49,10.24-10.73,19.34-18.03,27.9-7.89,9.24-17.25,16.83-26.99,24.01-6.74,4.97-14.39,8.19-22.85,9.34-.89,.12-1.78,.18-2.66,.37-12.17,2.55-23.67-.01-34.95-4.29-.55-.21-1.05-.55-1.57-.83-2.41-1.28-2.82-4.14-.82-5.79,.68-.56,1.34-1.17,2.09-1.63,2.52-1.54,4.96-3.3,7.66-4.48,7.87-3.45,13.66-9.31,19.03-15.54,5.6-6.5,9.7-13.94,12.1-22.16,.47-1.63,.39-3.42,.5-5.14,.01-.22-.3-.65-.49-.67-.54-.06-1.32-.16-1.6,.12-3.52,3.54-6.91,7.2-10.44,10.73-6.91,6.94-15.18,12.13-23.46,17.32-5.53,3.47-11.24,6.56-17.54,8.55-4.27,1.35-8.55,2.53-13.07,2.7-2.08,.08-4.15,.4-6.23,.6-1.19,.12-2.39,.39-3.56,.3-11.95-.9-23.73-2.53-34.44-8.3-1.29-.69-2.47-1.6-3.62-2.5-1.33-1.04-1.21-3.59,.16-4.64,.7-.53,1.37-1.16,2.16-1.51,1.89-.85,3.81-1.66,5.78-2.32,17.26-5.74,29.34-17.32,38.31-32.33,2.88-4.82,4.09-10.25,4.97-15.72,.05-.34-.56-.84-.95-1.16-.14-.12-.63-.02-.81,.13-2,1.73-4.02,3.44-5.94,5.26-8.82,8.39-18.79,15.15-29.77,20.6-8.8,4.37-17.96,7.8-27.26,10.94-7.1,2.4-14.58,2.85-21.99,3.61-19.6-.69-37.5-6.19-53.24-17.81-.47-.35-.92-.74-1.36-1.13-1.64-1.4-2.41-3.26-1.87-4.55,.64-1.52,2.02-2.13,3.5-2.38,3.52-.6,7.04-1.21,10.59-1.53,3.29-.3,6.47-.92,9.62-1.87,11.52-3.46,22.16-8.6,31.44-16.13,7.91-6.42,14.2-14.04,17.33-23.81,0,0,.02,.02,.02,.02Zm1034.4,849.04c.6,.59,1.21,1.18,1.81,1.76,1.74,2.57,3.9,4.59,7.13,5.24,2.15,3.68,5.55,5.97,9.25,7.9,6.83,3.57,14.07,6.17,21.36,8.66,.54,.18,1.16,.14,1.75,.14,.28,0,.59-.1,.82-.24,.24-.14,.47-.37,.58-.61,.11-.25,.19-.71,.05-.83-.86-.75-1.68-1.66-2.71-2.11-9.5-4.1-19.03-8.13-28.57-12.15-.81-.34-1.71-.49-2.56-.73-1.7-2.64-4-4.49-7.17-5.2-.6-.59-1.21-1.18-1.81-1.76-.6-.58-1.19-1.16-1.79-1.74,0,0,.06-.06,.06-.06,.6,.58,1.19,1.16,1.79,1.74Zm-130.66-1345.97c.24,.09,.48,.18,.71,.27-.25-.07-.5-.15-.76-.22-1.2-.58-2.39-1.16-3.59-1.74-4.17-2.91-8.33-5.82-12.5-8.73l.04-.04c1.04,5.9,4.34,9.12,10.77,8.67,.58-.04,1.16,.02,1.74,.03,1.19,.59,2.38,1.17,3.57,1.76Zm-51.92-41.8l.04-.04,3.58,1.73c1.11,1.76,2.82,2.87,4.48,4.07,2.39,1.73,4.9,1.68,7.54,.85,.25-.08,.65-.43,.63-.46-.24-.42-.46-1.01-.84-1.16-3.83-1.46-7.67-2.94-11.84-3.25-1.19-.58-2.39-1.16-3.58-1.74Zm-220.09-62.81s-.03,.02-.03,.02c-1.2-.57-2.4-1.15-3.6-1.72-.43-.33-.82-.73-1.3-.98-.69-.37-1.11-.16-1.01,.45,.03,.15,.45,.3,.7,.34,.54,.08,1.1,.09,1.65,.13,1.19,.59,2.38,1.17,3.58,1.76Zm295.32,1314.58c.06,.5,.12,1,.17,1.5,.08,.76,.36,.97,.74,.52,.1-.12-.03-.49-.15-.7-.24-.44-.55-.85-.83-1.27-.09-.57-.14-1.14-.27-1.69-.05-.19-.31-.33-.47-.49-.41,.95,.38,1.48,.8,2.13ZM1208.96,163.33c.62,.68,.95,.74,.78,.25-.05-.14-.54-.13-.83-.19-.73-.44-1.42-.98-2.21-1.27-.41-.15-1,.17-1.51,.27,.39,.26,.75,.68,1.18,.76,.85,.16,1.73,.12,2.6,.17Zm123.42,17.51c0-.61,0-1.22,0-1.84,1.48,.07,2.96,.13,4.44,.2q3.97,.18,9.53-2.93c-.22-.13-.43-.37-.66-.38-6.81-.12-13.62-.21-20.42-.31-.73-.34-1.43-.77-2.2-.98-.41-.11-.93,.14-1.4,.23,.41,.19,.8,.48,1.23,.54,.8,.12,1.62,.1,2.43,.14,2.38,1.19,4.77,2.38,7.15,3.57q-1.42,.84,0,1.67c1.28,1.13,2.53,2.3,3.86,3.37,.42,.34,1.05,.47,1.6,.61,.23,.06,.74-.08,.75-.18,.08-.5,.24-1.16,0-1.5-1.55-2.12-3.97-2.08-6.3-2.22Zm282.77,1375.63l.07-.07c2.05,3.93,5.78,5.76,9.72,7.2,9.21,3.36,18.48,6.54,28.03,8.93,4.9,1.23,9.74,2.69,14.6,4.06,2.86,.81,5.69,1.73,8.57,2.47,12.68,3.25,25.32,6.66,38.08,9.61,7.71,1.78,14.61,4.88,20.87,9.51,1.42,1.05,2.84,2.12,4.29,3.14,10.91,7.68,22.7,13.89,34.84,19.49,2.73,1.26,5.6,2.01,8.66,1.54,.26-.04,.61-.27,.69-.49,.08-.22-.06-.7-.24-.78-3.76-1.75-7.54-3.45-11.3-5.19-4.04-1.87-8.17-3.57-12.07-5.68-10.43-5.63-20.73-11.45-30.14-18.67-5.7-4.37-12.21-7.18-19.28-8.82-5.22-1.21-10.41-2.53-15.61-3.79-13.02-3.15-26-6.4-38.72-10.6-1.69-.56-3.42-1.01-5.17-1.39-8.45-1.85-16.69-4.35-24.74-7.47-3.6-1.39-7.22-2.78-11.16-2.98Zm-348.97-891.02c4.06-4.42,6.04-9.96,8.44-15.25,2.77-6.12,4.52-12.6,6.57-18.97,5.56-17.28,9.14-34.86,8.35-53.1-.13-2.9-.15-5.81-.09-8.71,.19-9.05-1.13-17.99-2.7-26.83-4.09-23.02-11.51-45.03-22.58-65.82-10.34-19.42-24.57-35.58-42.79-48.36-14.32-10.04-29.67-18.34-45.7-25.49-9.48-4.23-18.9-8.6-28.18-13.23-5.56-2.77-10.9-6-16.14-9.32-6.25-3.97-12.3-8.28-17.03-13.98-6.4-7.72-11.9-16.03-15-25.57-5.53-17.06-8.29-34.44-5.81-52.36,.12-.85,.14-1.75-.02-2.58-.09-.45-.6-1.08-1.01-1.16-.4-.07-1.2,.37-1.33,.74-2.21,6.36-3.42,12.92-3.64,19.63-.21,6.4,.33,12.72,1.31,19.08,2.34,15.15,7.32,29.27,15.92,42.15,6.89,10.32,15.09,19.54,25.26,26.81,14.47,10.34,29.75,19.35,47.31,24,.29,.08,.56,.19,.85,.28,17.64,5.53,32.7,15.25,46.38,27.17,3.32,2.9,6.48,6.03,9.34,9.36,11.23,13.05,19.22,27.91,25.32,43.79,.31,.81,.52,1.67,.77,2.5,.63,2.08,.45,4.08-.97,5.77-3.01,3.59-5.96,7.26-9.23,10.62-5.54,5.69-11.27,11.19-16.98,16.71-4.86,4.7-9.66,9.48-15.09,13.59-1.63,1.23-3.02,2.79-4.45,4.27-1.23,1.27-1.08,3,.28,4.75,1.04,1.34,2.75,1.69,3.9,.74,3.64-3,7.44-5.84,10.85-9.07,10.69-10.11,21.62-19.99,31.27-31.09,.95-1.1,1.86-2.52,3.53-2.32,2.18,.27,2.41,2.28,2.98,3.87,.29,.82,.44,1.69,.66,2.53,3.76,14.08,6.31,28.35,6.95,42.92,.09,2.03,.45,4.04,.62,6.06,.31,3.76,.71,7.51,.83,11.28,.16,4.93-.05,9.88,.13,14.81,.35,9.64-.96,19.13-2.51,28.59-1.68,10.32-3.76,20.57-5.51,30.88-.58,3.42-.67,6.92-.99,10.38l-.07-.07Zm19.69,13.95c1.47-.22,2.97-.34,4.42-.67,21.79-4.87,43.58-9.76,65.36-14.67,19.75-4.45,39.49-8.94,59.24-13.4,4.36-.98,8.74-1.87,13.09-2.84,2.95-.66,5.91-.83,8.87-.18,6.39,1.41,12.79,2.83,19.16,4.34,3.59,.85,6.45,2.91,8.87,5.6,3.36,3.74,6.12,7.87,8.48,12.25,4.17,7.76,7.23,15.92,9.3,24.45,.89,3.68,1.89,7.34,.8,11.17-.23,.81-.18,1.74-.09,2.6,.62,6.35,1.08,12.73,1.99,19.05,.71,4.92,1,9.82,.99,14.76-.02,14.23-.07,28.47-.12,42.7,0,2.03,.07,4.1-.26,6.09-1.49,8.94-1.22,17.96-1.46,26.95-.09,3.48,.09,7.01-.44,10.44-.97,6.36-1,12.73-1.05,19.12-.06,7.26-.12,14.52-.24,21.79-.04,2.61,.03,5.27-.43,7.82-1.2,6.63-1.11,13.3-1.31,19.98-.13,4.35-.38,8.7-.68,13.04-.28,4.05-.72,8.09-1.04,12.14-.18,2.32-.02,4.68-.46,6.95-1.15,6.03-1.34,12.12-1.49,18.22-.04,1.74-.1,3.5-.43,5.21-1.11,5.75-1.12,11.55-1.28,17.36-.1,3.77-.12,7.57-.66,11.3-.71,4.91-.81,9.83-1.1,14.76-.65,11.01-1.13,22.04-2.36,32.99-1.27,11.26-1.34,22.6-2.95,33.82-.41,2.87-.59,5.77-.85,8.66-.32,3.47-.83,6.93-.9,10.41-.18,10.16-.17,20.33-.24,30.5-.07,10.54,1.63,20.86,4.71,30.92,5.29,17.25,10.64,34.49,16.37,51.61,5.82,17.39,12.2,34.61,18.22,51.95,7.65,22.01,15.21,44.05,22.77,66.09,2.36,6.89,4.8,13.76,6.86,20.74,5.86,19.82,12.29,39.47,19.16,58.98,6,17.04,11.47,34.24,16.52,51.56,3.34,11.45,6.95,22.83,10.32,34.28,3.04,10.32,6.64,20.5,8.71,31.08,.61,3.13,1.5,6.22,2.48,9.27,.52,1.63,1.43,3.17,2.3,4.67,.15,.27,.96,.24,1.45,.22,.15,0,.39-.46,.4-.71,.03-.86,.1-1.76-.07-2.59-5.44-25.89-10.31-51.89-17.4-77.43-4.44-15.98-8.35-32.1-12.46-48.16-6.35-24.8-12.91-49.55-20.68-73.97-2.21-6.93-4.32-13.9-6.32-20.89-5.05-17.62-9.96-35.28-15.02-52.91-8.83-30.77-17.64-61.54-26.64-92.27-4.19-14.31-6.59-28.9-8.03-43.66-.34-3.44-.26-7,.23-10.42,.79-5.49,1.01-10.98,1.11-16.5,.14-8.13-.05-16.27,1.4-24.33,.41-2.27,.28-4.63,.33-6.96,.11-5.23,.14-10.46,.26-15.68,.06-2.61,0-5.26,.44-7.82,1.03-6.06,1.06-12.15,1.11-18.25,.05-7.26,.11-14.52,.18-21.79,.07-6.39,.03-12.77,1.13-19.12,.44-2.56,.37-5.21,.42-7.82,.12-6.1,.16-12.2,.27-18.3,.05-2.61-.08-5.27,.36-7.83,1.28-7.5,1.22-15.05,1.33-22.59,.11-7.55,.03-15.1,1.27-22.6,.47-2.85,.33-5.79,.36-8.7,.13-11.91,.19-23.82,.35-35.73,.05-3.48,.31-6.96,.52-10.43,.26-4.34,.79-8.68,.82-13.03,.14-27.31,.19-54.61,.24-81.92,.01-6.1-.09-12.2-.13-18.3-.03-4.08-.44-8.07-1.39-12.08-1-4.23-1.66-8.57-1.96-12.9-.35-4.97-1.27-9.79-2.73-14.53-1.11-3.62-2.46-7.16-3.6-10.77-3-9.53-9.1-16.9-16.91-23.04-4.2-3.3-8.82-5.95-14.12-7.31-4.41-1.13-8.95-1.63-13.21-.06-3.59,1.33-6.97,1.33-10.48,.37-6.21-1.69-12.29-1.32-18.53,.15-17.1,4.03-34.26,7.79-51.4,11.63-9.59,2.15-19.19,4.23-28.77,6.38-15.69,3.52-31.36,7.11-47.05,10.6-4.12,.92-6.1,3.32-6.09,7.39,0,.29-.02,.58-.04,.87l-.07-.07ZM741.51,1710.2c-1.19,0-2.39,0-3.58,0-8.65-.03-17.27-.14-25.8-1.94-11.14-2.34-21.95-5.53-31.92-11-11.37-6.24-20.85-14.48-27.56-25.51-6.34-10.42-10.06-21.78-10.95-33.79-.62-8.35-2.2-16.74-.85-25.18,.04-.28-.04-.58-.1-.86-.05-.28-.17-.56-.22-.84-.13-.78-1.38-1.76-1.89-1.42-.47,.32-1.13,.7-1.24,1.16-1.34,5.66-2.32,11.37-2.61,17.18-.66,13.15,.91,26.1,3.69,38.93,1.96,9.05,6.43,16.8,13.04,23.43,3.76,3.77,8.05,6.92,12.39,9.99,9.31,6.58,19.67,10.77,30.96,13,5.88,1.16,11.85,1.26,17.73,2.14,5.33,.8,10.67,1.09,16.04,1.11,6.56,.02,13.12,.04,19.68,0,3.28-.02,6.58,0,9.83-.35,8.88-.97,17.76-1.99,26.6-3.25,9.74-1.39,19.42-3.15,28.83-6.02,6.57-2.01,13.3-3.24,20.08-4.25,9.43-1.4,18.86-2.74,28.31-4.01,16.23-2.19,32.3-5.44,48.63-7.07,8-.8,15.97-1.87,23.96-2.76,7.4-.83,14.83-1.43,22.21-2.4,8.56-1.14,17.06-2.74,25.63-3.84,10.04-1.29,20.05-2.84,30.24-2.64,4.46,.09,8.98,.06,13.39-.52,5.93-.78,11.87-1.06,17.83-1.23,2.68-.08,5.39-.11,8.02-.56,5.62-.96,11.27-1.02,16.93-1.15,5.36-.12,10.77,.04,16.08-.56,6.25-.71,12.48-.82,18.74-.85,5.96-.02,11.93-.05,17.89-.14,31.61-.53,63.21-.43,94.82,0,3.28,.04,6.59,.04,9.81,.51,5.63,.83,11.28,1.12,16.94,1.01,12.85-.25,25.54,2.14,38.37,2.16,.89,0,1.77,.24,2.66,.31,4.45,.39,8.9,.78,13.35,1.14,2.08,.17,4.2,.04,6.24,.41,6.19,1.11,12.45,1.25,18.71,1.42,2.08,.06,4.16,.33,6.24,.5,11.57,.96,23.14,2.03,34.72,2.81,5.34,.36,10.73,.05,16.09,.17,4.17,.1,8.33,.35,12.49,.62,4.16,.26,8.31,.88,12.47,.9,17.89,.12,35.78,.31,53.67,0,9.22-.16,18.42-1.28,27.62-2.03,1.48-.12,2.92-.56,4.39-.83,2.64-.49,5.27-.99,7.91-1.43,6.22-1.04,12.51-1.2,18.7-.1,9.09,1.62,18.11,3.58,27.14,5.49,9.72,2.05,18.65,6,27.11,11.02,1.53,.91,3.06,1.8,4.65,2.59,1.62,.8,3.37,1.09,5.2,.97,2.71-.18,5.2-2.39,5.26-5.03,.04-1.72-.04-3.52-.53-5.15-2.76-9.07-7.74-16.93-14.17-23.95-.38-.42-.96-.67-1.47-.97-.25-.15-.55-.21-.83-.32-1.22-.5-3.38,.96-3.17,2.23,.51,3.15,1.2,6.26,1.67,9.42,.57,3.88-2.24,6.77-6.34,6.56-1.48-.07-2.97-.28-4.4-.65-2.3-.6-4.55-1.39-6.83-2.09-10.52-3.23-21-6.58-31.57-9.66-13.55-3.95-27.28-6.29-41.45-3.53-.58,.11-1.19,.15-1.78,.16-7.48,.17-14.78,1.76-22.17,2.69-13.88,1.75-27.64,4.5-41.7,4.75-2.08,.04-4.14,.45-6.22,.67-2.07,.22-4.15,.59-6.22,.58-13.1-.03-26.24,.94-39.28-1.12-.88-.14-1.78-.17-2.67-.19-11.97-.33-23.72-2.25-35.4-4.64-16.94-3.46-34.07-5.64-51.24-7.59-7.4-.84-14.83-1.39-22.22-2.32-10.93-1.38-21.82-3.13-32.88-3.28-.89-.01-1.8-.06-2.67-.23-7.07-1.35-14.24-1.19-21.39-1.33-9.53-.2-19.09,.2-28.57-1.26-1.46-.23-2.97-.19-4.46-.2-17.59-.04-35.18-.09-52.78-.07-2.97,0-5.94,.38-8.91,.59-4.46,.31-8.91,.76-13.37,.91-5.66,.2-11.33,.08-16.99,.27-4.16,.14-8.32,.53-12.48,.83-1.78,.13-3.56,.49-5.34,.48-8.7-.06-17.19,1.57-25.74,2.83-6.77,.99-13.58,1.84-20.38,2.58-7.99,.87-16.03,1.39-24,2.39-9.16,1.15-18.27,2.55-27.51,3.16-5.32,.36-10.67,1.31-15.84,2.64-9.82,2.53-19.78,4.26-29.75,6.03-13.19,2.35-26.41,4.56-39.31,8.28-5.99,1.72-12.14,2.96-18.28,4.12-9.68,1.83-19.23,4.02-28.5,7.34-8.98,3.21-18.21,5.54-27.63,7.14-7.34,1.24-14.73,2.1-22.12,2.99-9.21,1.1-18.41,1.45-27.65,1.51Zm705.55-678.57c-.08-1.41-.03-1.73-.13-1.99-.2-.47-.5-.91-.76-1.36-.33,.44-.82,.83-.97,1.32-.83,2.79-1.36,5.68-2.39,8.39-2.39,6.3-3.94,12.79-5.15,19.38-1,5.43-1.9,10.88-3.06,16.28-1.3,6-2.07,12.05-1.74,18.17,.65,12.26-1.45,24.33-2.51,36.46-.51,5.79-1.09,11.56-1.13,17.37-.08,10.75-.3,21.5-.2,32.25,.13,14.22-.64,28.48,1.75,42.62-.07,7.3,1.39,14.46,2.46,21.63,2.75,18.41,6.52,36.63,11.6,54.58,2.7,9.53,5.79,18.93,9.54,28.12,6.52,15.96,14.78,31.09,23.23,46.13,5.29,9.43,10.61,18.85,15.71,28.37,2.34,4.37,4.15,9.01,6.29,13.48,11.12,23.27,19.45,47.48,25.22,72.5,4.25,18.45,7.17,37.1,6.61,56.12-.17,5.81-.14,11.62-.27,17.43-.05,2.32-.12,4.67-.5,6.95-1.49,8.89-1.66,17.94-3.57,26.77-.11,.52-.03,1.22,.26,1.64,.26,.38,1.09,.8,1.39,.65,.76-.37,1.54-.93,1.98-1.62,2.4-3.73,3.91-7.84,5.07-12.06,3.41-12.39,5.53-24.99,5.87-37.81,.26-9.58,.03-19.18,.19-28.76,.14-8.2-1.03-16.25-2.82-24.19-3.46-15.32-7.55-30.5-12.43-45.46-7.67-23.54-16.42-46.72-25.17-69.89-4.52-11.98-8.99-23.96-13.9-35.81-6.91-16.69-13.13-33.68-19.06-50.73-6.89-19.81-12.92-39.9-17.16-60.44-2.99-14.52-5.77-29.08-6.43-43.94-.06-1.45-.14-2.92-.42-4.34-1.07-5.46-1.08-10.98-1.12-16.5-.05-6.68-.1-13.36-.22-20.05-.05-2.9,0-5.84-.47-8.69-.94-5.77-1.02-11.57-1.05-17.38-.04-9.01-.14-18.01-.07-27.02,.08-11.32-.12-22.63,1.41-33.93,.78-5.76,1.48-11.5,2.87-17.16,.69-2.81,.96-5.71,1.24-7.49Zm-288.13,216.55c.41-.31,1.36-.69,1.74-1.37,1.27-2.29,2.63-4.59,3.42-7.05,1.35-4.2,3.58-7.95,5.56-11.85,2.11-4.16,2.52-8.94,4.9-13.06,1.91-3.3,3.08-6.94,3.62-10.71,1.21-8.34,2.88-16.66,3.37-25.04,.77-13.04,1.08-26.1-1.21-39.11-2.02-11.5-4.53-22.82-9.42-33.52-2.18-4.77-4.55-9.47-6.93-14.15-3.45-6.77-7.04-13.47-10.47-20.24-5.62-11.09-8.5-22.82-9.39-35.18-.61-8.42-.98-16.73-.13-25.17,.78-7.78,.5-15.67,.62-23.52,.03-1.74-.08-3.49-.34-5.21-.43-2.82-2.13-4.81-4.86-5.75-1.66-.57-3.46-.92-5.22-1.04-2.97-.2-5.96-.22-8.94-.18-5.7,.08-11.28-.67-16.88-1.65-8.22-1.43-15.3-4.73-20.8-10.96-.78-.88-1.67-1.67-2.44-2.55-5.69-6.52-10.03-13.78-11.79-22.22-1.6-7.69-3-15.45-.93-23.31,.15-.56,.14-1.15,.21-1.73,1.22-10.19,4.01-19.95,8.71-29.14,3.19-6.24,6.61-12.36,10-18.5,1.28-2.31,2.63-4.58,2.83-7.27,.23-3.3,1.69-6.13,3.41-8.88,.77-1.24,1.48-2.52,2.09-3.84,.23-.49,.16-1.13,.13-1.7-.02-.24-.26-.53-.49-.68-.22-.15-.64-.3-.81-.2-.73,.45-1.61,.85-2.05,1.51-2.92,4.39-5.69,8.87-8.6,13.26-7.15,10.75-13.49,21.94-19.06,33.53-5.71,11.88-10.12,24.17-12.47,37.17-2.16,11.91-.4,23.06,5.3,33.78,2.94,5.52,7,10.09,11.58,14.29,7.46,6.84,15.73,12.41,25.51,15.7,5.35,1.8,10.67,3.71,15.94,5.75,3.04,1.17,6.03,2.54,8.88,4.09,3.82,2.07,6.41,5.14,7.13,9.5,.28,1.72,.73,3.42,1.01,5.14,1.63,10.04,3.21,20.08,4.84,30.12,.84,5.16,1.67,10.29,4.31,15.01,1.26,2.27,1.81,4.91,2.7,7.38,3.83,10.7,7.73,21.37,11.48,32.09,3.56,10.17,7.23,20.32,10.37,30.62,3.4,11.15,5.33,22.59,6.83,34.16,2.05,15.8,.72,31.29-2.66,46.72-.69,3.13-1.54,6.3-3.5,8.9-2.7,3.59-4.16,7.66-5.72,11.75-1.13,2.98-2.81,5.76-4.21,8.65-.38,.78-.65,1.61-.91,2.44-.43,1.37,1.87,3.62,3.73,3.22Zm196.8-373.54c.4,6.43-.81,12.73-1.54,19.07-.8,6.97-2.62,13.67-4.97,20.27-1.48,4.15-3.48,8.04-6.2,11.52-5.43,6.97-11.79,13.06-19.09,18.18-3.44,2.41-7.21,4.04-11.44,4.61-4.72,.64-9.44,1.24-14.13,2.05-8.3,1.43-16.56,1.53-24.87,.05-2.31-.41-4.74-.37-7.1-.23-1.88,.1-3.29,1.23-4.09,2.95-.69,1.5-.26,3.54,1.22,4.74,5.72,4.63,11.45,9.25,17.25,13.79,3.75,2.93,8.07,4.95,12.49,6.69,6.13,2.41,12.58,4.09,19.13,3.82,9.64-.4,18.7-3.05,26.78-8.59,8.41-5.77,15.21-12.95,21.07-21.09,3.79-5.26,6.73-10.91,8.95-16.97,3.54-9.67,4.82-19.72,5.75-29.84,.26-2.87,.17-5.82-.17-8.69-.86-7.2-1.89-14.38-2.96-21.55-1.68-11.29-5.29-22.04-10.14-32.36-3.59-7.65-7.67-15.08-11.58-22.58-.53-1.02-1.31-1.92-2.03-2.82-.13-.16-.58-.19-.82-.11-.23,.08-.56,.4-.54,.58,.21,1.71,.36,3.45,.76,5.12,1.16,4.8,2.54,9.55,3.64,14.36,2.8,12.2,4.35,24.56,4.6,37.06Zm-116.31-216.16c1.36-3.84,1.43-9.42,2.41-14.85,1.04-5.76,1-11.57,.97-17.38-.01-2.92-.55-5.78-1.64-8.52-.1-.25-.29-.52-.52-.64-.55-.28-.97,.04-.97,.83-.07,7.85-.75,15.65-1.82,23.44-.92,6.67-2.49,13.13-4.87,19.42-.51,1.36-1.11,2.7-1.8,3.98-1.03,1.9-2.63,3.18-4.89,3.38-3.56,.32-7.13,.77-10.7,.81-8.39,.09-16.6,1.61-24.86,2.75-11.84,1.63-23.34,4.77-34.88,7.71-13.34,3.4-26.03,8.46-38.07,14.97-7.57,4.09-14.74,8.79-20.93,14.81-3.34,3.25-5.06,7.09-5.51,11.58-.03,.25,.11,.71,.27,.76,.48,.15,1.21,.39,1.48,.17,3.87-3.18,7.61-6.52,11.52-9.64,9.04-7.22,18.9-13.09,29.66-17.66,9.34-3.96,18.89-7.16,28.69-9.73,16.44-4.31,33.03-7.77,50.05-9.08,5.64-.43,11.26-1.12,16.89-1.73,2.24-.24,3.84-1.5,4.95-3.35,1.97-3.3,3.07-6.92,4.55-12.02Zm9.18,50.72c-3.99-.07-7.51,.4-11.01,1.21-11.36,2.65-22.05,6.92-32.57,11.82-11.24,5.23-20.51,12.8-28.82,21.62-1.78,1.89-3.02,4.27-4.38,6.51-.43,.7-.45,1.66-.58,2.51-.2,1.31,1.58,2.91,2.92,2.57,1.13-.28,2.38-.54,3.27-1.21,3.31-2.46,6.72-4.86,9.67-7.7,7.27-6.98,15.44-12.73,24.28-17.62,8.82-4.88,17.82-9.39,27.68-11.98,4.02-1.06,8.12-1.83,12.16-2.81,1.12-.27,2.23-.75,3.23-1.32,.42-.24,.79-.96,.77-1.45-.03-.47-.49-1.08-.93-1.34-1.89-1.11-4.04-.72-5.7-.82Zm245-439.98c2.51,.11,4.86,.16,7.2,.35,1.17,.09,2.36,.32,3.46,.7,1.49,.52,2.43,1.64,2.65,3.2,.22,1.57-.51,2.8-1.71,3.77-.45,.37-.95,.73-1.49,.93-1.94,.73-3.9,1.39-5.85,2.1-.25,.09-.44,.34-.66,.52,.34,.31,.64,.79,1.04,.91,1.69,.5,3.46,.77,5.11,1.35,1.62,.58,1.79,3.17,.52,4.45-1.75,1.76-3.96,2.51-6.31,2.98-2.9,.57-5.84,1-8.73,1.59-.35,.07-.59,.75-.79,1.19-.03,.07,.36,.41,.61,.51,1.36,.54,2.75,.99,4.08,1.58,.74,.32,.92,1.82,.34,2.32-.66,.56-1.28,1.24-2.06,1.58-3.31,1.42-6.82,1.96-10.43,1.99-4.16,.03-8.32,.06-12.48,.08-.82,0-1.19,.3-.96,.9,.08,.2,.44,.36,.7,.41,3.5,.71,6.95,1.51,9.74,3.94,.35,.3,1.18,.32,1.69,.17,7.12-2.2,13.87-5.12,19.94-9.46,8.54-6.12,11.66-14.33,10.03-24.36-.56-3.46-1.85-6.71-4.39-9.32-.34-.35-1.24-.63-1.58-.43-1.52,.86-2.99,1.85-4.39,2.9-1.59,1.19-4.02,.98-5.29,3.16Zm64.14,1261.16c.38-9-1.18-18.43-2.95-27.82-.53-2.83-1.4-5.6-2.15-8.39-.06-.22-.41-.37-.63-.56-.23,.42-.71,.87-.66,1.25,.57,4.3,1.16,8.6,1.85,12.88,1.63,10.08,1.48,20.16,.21,30.27-1.05,8.34-1.5,16.76-.5,25.12,.9,7.46,2.38,14.86,3.65,22.27,.19,1.13,.58,2.25,1.03,3.31,.16,.37,.77,.57,1.17,.84,.13-.24,.4-.51,.37-.73-.63-4.58-1.04-9.21-2-13.73-1.9-8.93-1.53-17.88-.44-26.79,.71-5.77,1.05-11.52,1.04-17.92ZM1237.74,161.69s0-.07,0-.1c2.34,.21,4.68,.47,7.03,.61,1.63,.1,2.75-.8,3.55-2.11,.3-.49,.58-1,.79-1.53,.1-.25,.08-.61-.05-.84-.13-.23-.48-.53-.68-.5-5.5,.88-11,1.78-16.49,2.74-.41,.07-.73,.64-1.09,.97,.26,.13,.51,.36,.77,.38,2.05,.15,4.11,.25,6.16,.37Zm-166.67,41.65c-1.19-.17-2.35-.35-3.51-.47-.24-.03-.74,.19-.73,.27,.03,.47,.02,1.19,.31,1.37,2.47,1.51,4.98,2.96,7.54,4.32,.38,.2,1.21,.05,1.53-.24,.34-.32,.5-1.03,.42-1.52-.37-2.51-1.15-3.41-2.98-3.6-.87-.09-1.75-.08-2.59-.12Zm380.32,105.17c-.65,0-1.24-.03-1.82,.01-.27,.02-.77,.24-.76,.3,.08,.47,.13,1.07,.44,1.37,1.99,1.93,4.29,2.91,7.17,2.08,1.4-.4,2.85-.62,4.27-.98,.22-.06,.48-.37,.52-.6,.03-.17-.22-.56-.39-.59-3.16-.56-6.33-1.08-9.44-1.6Zm-284.95-146.85c-.77,.03-1.66,0-2.52,.14-.41,.07-.76,.49-1.13,.75,.23,.15,.44,.41,.69,.45,3.15,.5,6.31,.98,9.48,1.41,.18,.02,.53-.34,.58-.56,.05-.23-.11-.6-.3-.75-1.98-1.56-4.38-1.3-6.8-1.44Zm-56.99,9.12c-1.04,.34-1.6,.49-2.13,.72-.25,.11-.49,.34-.61,.58-.31,.64-.08,1.24,.63,1.27,2.03,.1,4.06,.08,6.09,.06,.25,0,.5-.25,.75-.39-.34-.4-.61-1.01-1.04-1.17-1.33-.49-2.73-.81-3.7-1.08Zm22.53-4.13c1.01,0,1.6,.08,2.15-.02,.53-.1,1.02-.4,1.52-.61-.45-.28-.88-.6-1.35-.82-.24-.11-.56-.05-.85-.05-.29,0-.59-.04-.86,.03-.8,.2-1.59,.44-2.39,.67,.71,.32,1.42,.64,1.78,.8Zm306.9,151.51c-.07-.25-.09-.69-.22-.72-.53-.14-1.18-.34-1.63-.15-.42,.17-.63,.81-.94,1.24,.49,.22,1.01,.66,1.45,.59,.48-.08,.89-.62,1.33-.96Zm619.02-44.27l.13,.51,.28-.38-.41-.14Zm-819.68,334.71l.18,.64,.36-.47-.54-.17Zm229.64-386.82l-.48-.27-.08,.4,.56-.13Zm-32.55,92.76l.34-.48h-.67s.33,.48,.33,.48Zm-241.36-144.83l-.11-.49-.49,.29,.61,.2Z"/>
            <path class="cls-3" d="M1762.14,621.98c-20.33-.78-40.39-3.16-59.61-10.2-1.67-.61-3.41-1.08-4.6-2.5-.18-.21-.38-.6-.29-.8,.22-.5,.48-1.14,.92-1.36,.77-.38,1.68-.69,2.53-.69,2.98,.03,5.95,.18,8.93,.34,4.46,.25,8.92,.69,13.38,.79,6.56,.14,13.12,.15,19.68,0,4.46-.1,8.91-.55,13.37-.83,3.27-.21,6.54-.5,9.82-.59,6.26-.18,12.48-.51,18.72-1.32,6.19-.8,12.46-1.1,18.63-2.24,2.93-.54,5.86-1.08,8.77-1.7,.44-.09,.78-.64,1.16-.97-.25-.15-.49-.4-.76-.42-7.12-.67-14.27-1.11-21.35-2.03-13.29-1.72-26.55-3.71-39.82-5.64-.83-.12-1.61-.69-2.37-1.12-.19-.11-.29-.49-.28-.75,0-.23,.15-.57,.33-.65,.52-.25,1.1-.55,1.64-.54,2.68,.06,5.41-.06,8.02,.4,6.21,1.08,12.46,1.16,18.72,1.29,6.85,.14,13.7,.22,20.53,1.08,5.62,.71,11.31,.47,16.96-.12,3.85-.4,7.72-.83,11.58-.81,9.31,.06,18.42-1.29,27.51-3,6.15-1.16,12.28-2.4,18.44-3.49,1.73-.31,3.54-.27,5.31-.33,.24,0,.7,.32,.69,.48-.03,.52-.09,1.12-.39,1.53-.33,.45-.88,.77-1.4,1.04-7.88,4.13-15.69,8.39-23.66,12.34-20.63,10.23-42.52,16.86-65.29,20.6-8.5,1.4-17.08,2.79-25.82,2.21Z"/>
            <path class="cls-3" d="M1930.13,506.81c-1.44,2.99-4.01,5.06-6.5,7.09-8.23,6.7-16.41,13.46-24.9,19.84-15.24,11.44-32.24,19.73-50.25,26.21-14.63,5.26-29.77,8.08-45.18,10.13-13.98,1.86-27.95,1.34-41.94,1.24-1.49,0-3.03-.14-4.15-1.23-.31-.3-.43-1.31-.2-1.52,.84-.75,1.79-1.6,2.84-1.87,5.46-1.44,10.95-2.82,16.47-4.03,24.73-5.4,49.24-11.61,73.52-18.67,4.83-1.4,9.78-2.62,14.1-5.33,.21-.13,.36-.45,.4-.71,.1-.62-.26-1.03-.98-1.12-.59-.07-1.2-.14-1.78-.07-6.5,.79-12.99,1.64-19.49,2.42-2.95,.35-5.92,.61-8.88,.88-4.15,.38-8.3,.7-12.45,1.13-5.64,.58-11.28,.87-16.94,.34-.4-.04-1.06-.68-1.05-1.02,.02-.44,.51-1.14,.93-1.25,1.71-.46,3.46-.81,5.22-1.06,3.53-.5,7.08-.9,10.63-1.34,14.5-1.8,28.8-4.62,43.06-7.7,15.45-3.34,30.61-7.56,45.07-13.97,4.34-1.92,8.75-3.7,13.14-5.5,3.02-1.23,6.03-2.53,9.35-2.85l-.04-.04Z"/>
            <path class="cls-3" d="M1991,421.4c-2.16,5.22-6.27,9.14-9.65,13.53-3.75,4.87-7.8,9.53-11.71,14.28-5.62,6.81-12.04,12.86-18.79,18.58-2.02,1.71-4.16,3.3-6.24,4.94-16.38,12.9-34.47,22.76-54.39,29.48-11.27,3.81-22.66,7.22-34.31,9.72-6.1,1.31-12.28,2.31-18.43,3.38-.83,.14-1.75-.11-2.62-.24-.26-.04-.68-.3-.7-.49-.04-.54-.12-1.3,.19-1.6,.83-.79,1.78-1.55,2.82-2.04,10.73-5.04,21.49-10.03,32.25-15.02,.81-.37,1.65-.67,2.46-1.05,14.25-6.62,28.53-13.18,42.74-19.88,7.51-3.55,14.73-7.62,21.5-12.4,.21-.15,.39-.49,.38-.73-.03-.63-.51-.92-1.2-.71-1.14,.34-2.25,.74-3.37,1.14-17.66,6.27-35.74,11.16-53.9,15.79-1.71,.44-3.43,1.05-5.22,.41-.23-.08-.49-.36-.54-.59-.06-.25,.02-.72,.19-.8,1.57-.78,3.12-1.67,4.79-2.21,12.73-4.1,25.3-8.64,37.75-13.5,13.29-5.18,26.22-11.12,38.85-17.68,3.41-1.77,6.7-3.79,9.93-5.86,6.72-4.31,13.36-8.73,20.05-13.09,2.22-1.45,4.39-3.03,7.17-3.37h0Z"/>
            <path class="cls-3" d="M1876.9,654.72c-1.66-.26-5.21-.67-8.7-1.37-11.24-2.23-21.55-6.57-30.75-13.3-1.17-.86-2.18-1.95-3.13-3.06-.3-.35-.32-1.15-.14-1.62,.17-.46,.76-1.06,1.19-1.07,2.06-.08,4.16-.19,6.2,.08,10.31,1.35,20.59,3,30.93,4.17,7.98,.9,16.03,1.23,24-.28,1.12-.21,2.17-.82,3.24-1.29,.09-.04,.07-.64-.04-.69-1.31-.61-2.6-1.35-3.98-1.71-9.23-2.4-18-6.03-26.84-9.47-1.63-.63-3.36-1.27-4.36-2.86-.14-.22-.13-.58-.05-.84,.07-.24,.33-.59,.52-.59,1.15-.04,2.35-.21,3.44,.04,5.5,1.26,10.94,2.77,16.46,3.94,6.1,1.29,12.22,2.65,18.41,3.34,5.89,.66,11.87,.55,17.82,.69,3.86,.09,7.73,0,11.59,.06,.5,0,1.02,.46,1.5,.75,.53,.33,.16,1.58-.71,2.28-9.21,7.43-18.95,14-30.31,18.03-7.04,2.49-14.35,3.77-21.72,4.76-.88,.12-1.78,.02-4.57,.02Z"/>
            <path class="cls-3" d="M1833.47,691.31c-14.1-1.46-28.28-6.23-40.54-15.78-.68-.53-1.27-1.25-1.69-1.99-.25-.44-.27-1.17-.06-1.63,.2-.45,.77-.9,1.27-1.02,.85-.22,1.77-.3,2.65-.23,1.78,.15,3.57,.32,5.31,.68,10.23,2.08,20.64,2.93,31,4.01,5.9,.61,11.91,.29,17.86,.19,1.74-.03,3.48-.66,5.18-1.16,.38-.11,.64-.79,.83-1.25,.06-.15-.23-.58-.45-.66-2.21-.84-4.42-1.72-6.67-2.44-8.23-2.62-16.33-5.55-24.16-9.13-1.31-.6-2.47-1.55-3.65-2.4-.16-.12-.18-.59-.08-.83,.09-.24,.38-.48,.63-.56,1.81-.57,3.51,.09,5.23,.52,5.78,1.42,11.53,2.94,17.34,4.25,12.55,2.83,25.25,4.2,38.15,3.54,2.37-.12,4.76,.05,7.13,.21,.49,.03,.97,.55,1.39,.92,.5,.44,.25,1.74-.43,2.37-.86,.8-1.66,1.69-2.63,2.34-4.9,3.3-9.74,6.71-14.81,9.76-7.7,4.63-16.18,7.36-25.05,8.95-4.09,.73-8.17,1.74-13.75,1.35Z"/>
          </g>
          <path class="cls-3" d="M1903.18,614.76c-8.19-1.1-18.02-1.81-27.1-5.9-1.05-.47-1.95-1.25-2.89-1.92-.53-.38-.32-2.07,.32-2.3,1.65-.6,3.29-1.43,5-1.64,6.48-.81,12.99-1.43,19.5-2.1,8.89-.91,17.62-2.73,26.26-4.89,4.01-1,8.09-2.03,11.54-4.46,.31-.22,.27-1.01,.26-1.54,0-.18-.38-.48-.61-.5-2.36-.19-4.72-.53-7.07-.46-9.27,.28-18.39-1.13-27.53-2.25-.86-.11-1.75-.42-2.5-.85-.41-.23-.84-.93-.77-1.35,.06-.37,.74-.85,1.21-.93,1.16-.2,2.36-.25,3.55-.27,2.97-.05,5.95-.05,8.92-.06,5.36-.03,10.69-.2,16-1.09,5.27-.88,10.64-.81,15.94-1.82,6.46-1.23,12.64-3.25,18.86-5.24,1.67-.54,3.36-1.32,5.17-.77,.41,.12,.81,.85,.86,1.34,.05,.52-.18,1.17-.52,1.6-4,5.04-7.63,10.45-12.17,14.98-10.15,10.12-22.06,17.65-36.53,20.61-4.64,.95-9.32,1.95-15.67,1.83Z"/>
          <path class="cls-3" d="M1930.17,506.85s-.04-.04-.04-.04c0,0,.04,.04,.04,.04Z"/>
        </g>
      </g>
    </g>
  </g>
  <path d="M472.34,501.92s.21-.21,.21-.21-.21,.21-.21,.21Z"/>
  <text class="cls-1" transform="translate(381.8 1933.87)"><tspan x="0" y="0">léhahiah </tspan><tspan class="cls-2" x="897.69" y="0">Angel’s</tspan></text>
</svg>